G04 EAGLE Gerber X2 export*
%TF.Part,Single*%
%TF.FileFunction,Copper,L2,Bot,Mixed*%
%TF.FilePolarity,Positive*%
%TF.GenerationSoftware,Autodesk,EAGLE,9.0.0*%
%TF.CreationDate,2018-05-03T13:06:15Z*%
G75*
%MOIN*%
%FSLAX34Y34*%
%LPD*%
%AMOC8*
5,1,8,0,0,1.08239X$1,22.5*%
G01*
%ADD10P,0.075767X8X292.500000*%
%ADD11P,0.075767X8X22.500000*%
%ADD12P,0.060614X8X292.500000*%
%ADD13C,0.177165*%
%ADD14C,0.023780*%
%ADD15C,0.029685*%

G36*
X14813Y151D02*
X14813Y151D01*
X14814Y151D01*
X14818Y152D01*
X14822Y152D01*
X14822Y153D01*
X14824Y153D01*
X14827Y155D01*
X14830Y157D01*
X14831Y158D01*
X14832Y158D01*
X14834Y161D01*
X14837Y164D01*
X14837Y165D01*
X14838Y166D01*
X14839Y169D01*
X14840Y173D01*
X14841Y174D01*
X14841Y175D01*
X14841Y180D01*
X14841Y12815D01*
X14841Y12816D01*
X14841Y12817D01*
X14840Y12821D01*
X14840Y12825D01*
X14839Y12825D01*
X14839Y12826D01*
X14837Y12830D01*
X14835Y12833D01*
X14835Y12834D01*
X14834Y12835D01*
X14831Y12837D01*
X14828Y12839D01*
X14827Y12840D01*
X14826Y12841D01*
X14823Y12842D01*
X14820Y12843D01*
X14819Y12843D01*
X14818Y12844D01*
X14812Y12844D01*
X180Y12844D01*
X179Y12844D01*
X178Y12844D01*
X174Y12843D01*
X171Y12843D01*
X170Y12842D01*
X169Y12842D01*
X165Y12840D01*
X162Y12838D01*
X161Y12837D01*
X158Y12834D01*
X156Y12831D01*
X155Y12830D01*
X155Y12829D01*
X153Y12826D01*
X152Y12823D01*
X152Y12821D01*
X151Y12820D01*
X151Y12815D01*
X151Y180D01*
X151Y179D01*
X151Y178D01*
X152Y174D01*
X152Y171D01*
X153Y170D01*
X153Y169D01*
X155Y165D01*
X157Y162D01*
X158Y161D01*
X161Y158D01*
X164Y156D01*
X165Y155D01*
X166Y155D01*
X169Y153D01*
X173Y152D01*
X174Y152D01*
X175Y151D01*
X180Y151D01*
X14812Y151D01*
X14813Y151D01*
G37*
%LPC*%
G36*
X4559Y11481D02*
X4559Y11481D01*
X4559Y12407D01*
X4666Y12395D01*
X4774Y12371D01*
X4878Y12334D01*
X4978Y12286D01*
X5072Y12227D01*
X5158Y12158D01*
X5237Y12080D01*
X5306Y11993D01*
X5365Y11899D01*
X5413Y11799D01*
X5450Y11695D01*
X5474Y11587D01*
X5486Y11481D01*
X4559Y11481D01*
G37*
%LPD*%
%LPC*%
G36*
X4334Y605D02*
X4334Y605D01*
X4226Y629D01*
X4122Y666D01*
X4022Y714D01*
X3928Y773D01*
X3842Y842D01*
X3763Y920D01*
X3694Y1007D01*
X3635Y1101D01*
X3587Y1201D01*
X3550Y1305D01*
X3526Y1413D01*
X3514Y1519D01*
X4441Y1519D01*
X4441Y593D01*
X4334Y605D01*
G37*
%LPD*%
%LPC*%
G36*
X4559Y1519D02*
X4559Y1519D01*
X5486Y1519D01*
X5474Y1413D01*
X5450Y1305D01*
X5413Y1201D01*
X5365Y1101D01*
X5306Y1007D01*
X5237Y920D01*
X5158Y842D01*
X5072Y773D01*
X4978Y714D01*
X4878Y666D01*
X4774Y629D01*
X4666Y605D01*
X4559Y593D01*
X4559Y1519D01*
G37*
%LPD*%
%LPC*%
G36*
X3514Y1638D02*
X3514Y1638D01*
X3526Y1744D01*
X3550Y1852D01*
X3587Y1957D01*
X3635Y2057D01*
X3694Y2151D01*
X3763Y2237D01*
X3842Y2316D01*
X3928Y2385D01*
X4022Y2444D01*
X4122Y2492D01*
X4226Y2528D01*
X4334Y2553D01*
X4441Y2565D01*
X4441Y1638D01*
X3514Y1638D01*
G37*
%LPD*%
%LPC*%
G36*
X4559Y1638D02*
X4559Y1638D01*
X4559Y2565D01*
X4666Y2553D01*
X4774Y2528D01*
X4878Y2492D01*
X4978Y2444D01*
X5072Y2385D01*
X5158Y2316D01*
X5237Y2237D01*
X5306Y2151D01*
X5365Y2057D01*
X5413Y1957D01*
X5450Y1852D01*
X5474Y1744D01*
X5486Y1638D01*
X4559Y1638D01*
G37*
%LPD*%
%LPC*%
G36*
X3514Y11481D02*
X3514Y11481D01*
X3526Y11587D01*
X3550Y11695D01*
X3587Y11799D01*
X3635Y11899D01*
X3694Y11993D01*
X3763Y12080D01*
X3842Y12158D01*
X3928Y12227D01*
X4022Y12286D01*
X4122Y12334D01*
X4226Y12371D01*
X4334Y12395D01*
X4441Y12407D01*
X4441Y11481D01*
X3514Y11481D01*
G37*
%LPD*%
%LPC*%
G36*
X4559Y11362D02*
X4559Y11362D01*
X5486Y11362D01*
X5474Y11256D01*
X5450Y11148D01*
X5413Y11043D01*
X5365Y10943D01*
X5306Y10849D01*
X5237Y10763D01*
X5158Y10684D01*
X5072Y10615D01*
X4978Y10556D01*
X4878Y10508D01*
X4774Y10472D01*
X4666Y10447D01*
X4559Y10435D01*
X4559Y11362D01*
G37*
%LPD*%
%LPC*%
G36*
X4334Y10447D02*
X4334Y10447D01*
X4226Y10472D01*
X4122Y10508D01*
X4022Y10556D01*
X3928Y10615D01*
X3842Y10684D01*
X3763Y10763D01*
X3694Y10849D01*
X3635Y10943D01*
X3587Y11043D01*
X3550Y11148D01*
X3526Y11256D01*
X3514Y11362D01*
X4441Y11362D01*
X4441Y10435D01*
X4334Y10447D01*
G37*
%LPD*%
%LPC*%
G36*
X7322Y1319D02*
X7322Y1319D01*
X7069Y1572D01*
X7069Y1928D01*
X7322Y2181D01*
X7678Y2181D01*
X7931Y1928D01*
X7931Y1572D01*
X7678Y1319D01*
X7322Y1319D01*
G37*
%LPD*%
%LPC*%
G36*
X13322Y1319D02*
X13322Y1319D01*
X13069Y1572D01*
X13069Y1928D01*
X13322Y2181D01*
X13678Y2181D01*
X13931Y1928D01*
X13931Y1572D01*
X13678Y1319D01*
X13322Y1319D01*
G37*
%LPD*%
%LPC*%
G36*
X7322Y2319D02*
X7322Y2319D01*
X7069Y2572D01*
X7069Y2928D01*
X7322Y3181D01*
X7678Y3181D01*
X7931Y2928D01*
X7931Y2572D01*
X7678Y2319D01*
X7322Y2319D01*
G37*
%LPD*%
%LPC*%
G36*
X9072Y2819D02*
X9072Y2819D01*
X8819Y3072D01*
X8819Y3428D01*
X9072Y3681D01*
X9428Y3681D01*
X9681Y3428D01*
X9681Y3072D01*
X9428Y2819D01*
X9072Y2819D01*
G37*
%LPD*%
%LPC*%
G36*
X9072Y4819D02*
X9072Y4819D01*
X8819Y5072D01*
X8819Y5428D01*
X9072Y5681D01*
X9428Y5681D01*
X9681Y5428D01*
X9681Y5072D01*
X9428Y4819D01*
X9072Y4819D01*
G37*
%LPD*%
%LPC*%
G36*
X7322Y8319D02*
X7322Y8319D01*
X7069Y8572D01*
X7069Y8928D01*
X7322Y9181D01*
X7678Y9181D01*
X7931Y8928D01*
X7931Y8572D01*
X7678Y8319D01*
X7322Y8319D01*
G37*
%LPD*%
%LPC*%
G36*
X5351Y5139D02*
X5351Y5139D01*
X5139Y5351D01*
X5139Y5649D01*
X5351Y5861D01*
X5649Y5861D01*
X5861Y5649D01*
X5861Y5351D01*
X5649Y5139D01*
X5351Y5139D01*
G37*
%LPD*%
%LPC*%
G36*
X3351Y4238D02*
X3351Y4238D01*
X3139Y4449D01*
X3139Y4748D01*
X3351Y4959D01*
X3649Y4959D01*
X3861Y4748D01*
X3861Y4449D01*
X3649Y4238D01*
X3351Y4238D01*
G37*
%LPD*%
%LPC*%
G36*
X3351Y5139D02*
X3351Y5139D01*
X3139Y5351D01*
X3139Y5649D01*
X3351Y5861D01*
X3649Y5861D01*
X3861Y5649D01*
X3861Y5351D01*
X3649Y5139D01*
X3351Y5139D01*
G37*
%LPD*%
%LPC*%
G36*
X4351Y5590D02*
X4351Y5590D01*
X4139Y5801D01*
X4139Y6100D01*
X4351Y6312D01*
X4649Y6312D01*
X4861Y6100D01*
X4861Y5801D01*
X4649Y5590D01*
X4351Y5590D01*
G37*
%LPD*%
%LPC*%
G36*
X3351Y6041D02*
X3351Y6041D01*
X3139Y6252D01*
X3139Y6551D01*
X3351Y6762D01*
X3649Y6762D01*
X3861Y6551D01*
X3861Y6252D01*
X3649Y6041D01*
X3351Y6041D01*
G37*
%LPD*%
%LPC*%
G36*
X5351Y6041D02*
X5351Y6041D01*
X5139Y6252D01*
X5139Y6551D01*
X5351Y6762D01*
X5649Y6762D01*
X5861Y6551D01*
X5861Y6252D01*
X5649Y6041D01*
X5351Y6041D01*
G37*
%LPD*%
%LPC*%
G36*
X5351Y7844D02*
X5351Y7844D01*
X5139Y8055D01*
X5139Y8354D01*
X5351Y8565D01*
X5649Y8565D01*
X5861Y8354D01*
X5861Y8055D01*
X5649Y7844D01*
X5351Y7844D01*
G37*
%LPD*%
%LPC*%
G36*
X3351Y6942D02*
X3351Y6942D01*
X3139Y7154D01*
X3139Y7453D01*
X3351Y7664D01*
X3649Y7664D01*
X3861Y7453D01*
X3861Y7154D01*
X3649Y6942D01*
X3351Y6942D01*
G37*
%LPD*%
%LPC*%
G36*
X5351Y6942D02*
X5351Y6942D01*
X5139Y7154D01*
X5139Y7453D01*
X5351Y7664D01*
X5649Y7664D01*
X5861Y7453D01*
X5861Y7154D01*
X5649Y6942D01*
X5351Y6942D01*
G37*
%LPD*%
%LPC*%
G36*
X3351Y7844D02*
X3351Y7844D01*
X3139Y8055D01*
X3139Y8354D01*
X3351Y8565D01*
X3649Y8565D01*
X3861Y8354D01*
X3861Y8055D01*
X3649Y7844D01*
X3351Y7844D01*
G37*
%LPD*%
%LPC*%
G36*
X4119Y6912D02*
X4119Y6912D01*
X4119Y7010D01*
X4342Y7233D01*
X4441Y7233D01*
X4441Y6912D01*
X4119Y6912D01*
G37*
%LPD*%
%LPC*%
G36*
X4119Y8715D02*
X4119Y8715D01*
X4119Y8813D01*
X4342Y9036D01*
X4441Y9036D01*
X4441Y8715D01*
X4119Y8715D01*
G37*
%LPD*%
%LPC*%
G36*
X5119Y4658D02*
X5119Y4658D01*
X5119Y4756D01*
X5342Y4979D01*
X5441Y4979D01*
X5441Y4658D01*
X5119Y4658D01*
G37*
%LPD*%
%LPC*%
G36*
X4119Y7813D02*
X4119Y7813D01*
X4119Y7912D01*
X4342Y8135D01*
X4441Y8135D01*
X4441Y7813D01*
X4119Y7813D01*
G37*
%LPD*%
%LPC*%
G36*
X4119Y5108D02*
X4119Y5108D01*
X4119Y5207D01*
X4342Y5430D01*
X4441Y5430D01*
X4441Y5108D01*
X4119Y5108D01*
G37*
%LPD*%
%LPC*%
G36*
X4559Y8715D02*
X4559Y8715D01*
X4559Y9036D01*
X4658Y9036D01*
X4881Y8813D01*
X4881Y8715D01*
X4559Y8715D01*
G37*
%LPD*%
%LPC*%
G36*
X4559Y6912D02*
X4559Y6912D01*
X4559Y7233D01*
X4658Y7233D01*
X4881Y7010D01*
X4881Y6912D01*
X4559Y6912D01*
G37*
%LPD*%
%LPC*%
G36*
X4559Y7813D02*
X4559Y7813D01*
X4559Y8135D01*
X4658Y8135D01*
X4881Y7912D01*
X4881Y7813D01*
X4559Y7813D01*
G37*
%LPD*%
%LPC*%
G36*
X5559Y4658D02*
X5559Y4658D01*
X5559Y4979D01*
X5658Y4979D01*
X5881Y4756D01*
X5881Y4658D01*
X5559Y4658D01*
G37*
%LPD*%
%LPC*%
G36*
X4559Y5108D02*
X4559Y5108D01*
X4559Y5430D01*
X4658Y5430D01*
X4881Y5207D01*
X4881Y5108D01*
X4559Y5108D01*
G37*
%LPD*%
%LPC*%
G36*
X4342Y4668D02*
X4342Y4668D01*
X4119Y4891D01*
X4119Y4990D01*
X4441Y4990D01*
X4441Y4668D01*
X4342Y4668D01*
G37*
%LPD*%
%LPC*%
G36*
X4342Y8275D02*
X4342Y8275D01*
X4119Y8498D01*
X4119Y8596D01*
X4441Y8596D01*
X4441Y8275D01*
X4342Y8275D01*
G37*
%LPD*%
%LPC*%
G36*
X4342Y6472D02*
X4342Y6472D01*
X4119Y6695D01*
X4119Y6793D01*
X4441Y6793D01*
X4441Y6472D01*
X4342Y6472D01*
G37*
%LPD*%
%LPC*%
G36*
X4342Y7373D02*
X4342Y7373D01*
X4119Y7596D01*
X4119Y7695D01*
X4441Y7695D01*
X4441Y7373D01*
X4342Y7373D01*
G37*
%LPD*%
%LPC*%
G36*
X5342Y4218D02*
X5342Y4218D01*
X5119Y4441D01*
X5119Y4539D01*
X5441Y4539D01*
X5441Y4218D01*
X5342Y4218D01*
G37*
%LPD*%
%LPC*%
G36*
X4559Y4668D02*
X4559Y4668D01*
X4559Y4990D01*
X4881Y4990D01*
X4881Y4892D01*
X4658Y4668D01*
X4559Y4668D01*
G37*
%LPD*%
%LPC*%
G36*
X4559Y6472D02*
X4559Y6472D01*
X4559Y6793D01*
X4881Y6793D01*
X4881Y6695D01*
X4658Y6472D01*
X4559Y6472D01*
G37*
%LPD*%
%LPC*%
G36*
X4559Y8275D02*
X4559Y8275D01*
X4559Y8596D01*
X4881Y8596D01*
X4881Y8498D01*
X4658Y8275D01*
X4559Y8275D01*
G37*
%LPD*%
%LPC*%
G36*
X5559Y4218D02*
X5559Y4218D01*
X5559Y4539D01*
X5881Y4539D01*
X5881Y4441D01*
X5658Y4218D01*
X5559Y4218D01*
G37*
%LPD*%
%LPC*%
G36*
X4559Y7373D02*
X4559Y7373D01*
X4559Y7695D01*
X4881Y7695D01*
X4881Y7596D01*
X4658Y7373D01*
X4559Y7373D01*
G37*
%LPD*%
%LPC*%
G36*
X5499Y4598D02*
X5499Y4598D01*
X5499Y4599D01*
X5501Y4599D01*
X5501Y4598D01*
X5499Y4598D01*
G37*
%LPD*%
%LPC*%
G36*
X4499Y7753D02*
X4499Y7753D01*
X4499Y7755D01*
X4501Y7755D01*
X4501Y7753D01*
X4499Y7753D01*
G37*
%LPD*%
%LPC*%
G36*
X4499Y8655D02*
X4499Y8655D01*
X4499Y8656D01*
X4501Y8656D01*
X4501Y8655D01*
X4499Y8655D01*
G37*
%LPD*%
%LPC*%
G36*
X4499Y5048D02*
X4499Y5048D01*
X4499Y5050D01*
X4501Y5050D01*
X4501Y5048D01*
X4499Y5048D01*
G37*
%LPD*%
%LPC*%
G36*
X4499Y1578D02*
X4499Y1578D01*
X4499Y1579D01*
X4501Y1579D01*
X4501Y1578D01*
X4499Y1578D01*
G37*
%LPD*%
%LPC*%
G36*
X4499Y11421D02*
X4499Y11421D01*
X4499Y11422D01*
X4501Y11422D01*
X4501Y11421D01*
X4499Y11421D01*
G37*
%LPD*%
%LPC*%
G36*
X4499Y6852D02*
X4499Y6852D01*
X4499Y6853D01*
X4501Y6853D01*
X4501Y6852D01*
X4499Y6852D01*
G37*
%LPD*%
D10*
X7500Y8750D03*
X7500Y2750D03*
X9250Y5250D03*
X9250Y3250D03*
D11*
X7500Y1750D03*
X13500Y1750D03*
D12*
X5500Y8205D03*
X5500Y7303D03*
X5500Y6402D03*
X5500Y5500D03*
X5500Y4598D03*
X3500Y8205D03*
X3500Y7303D03*
X3500Y6402D03*
X3500Y5500D03*
X3500Y4598D03*
X4500Y8656D03*
X4500Y7754D03*
X4500Y6852D03*
X4500Y5951D03*
X4500Y5049D03*
D13*
X4500Y11421D03*
X4500Y1579D03*
D14*
X14500Y7125D03*
X13750Y7125D03*
X13000Y7125D03*
X13750Y5875D03*
X14500Y5875D03*
X13000Y5875D03*
X13000Y9000D03*
X13750Y9000D03*
X14500Y9000D03*
X13000Y4000D03*
X13750Y4000D03*
X14500Y4000D03*
D15*
X500Y500D03*
X2000Y500D03*
X3500Y500D03*
X5000Y500D03*
X6500Y500D03*
X8000Y500D03*
X9500Y500D03*
X11000Y500D03*
X12500Y500D03*
X14000Y500D03*
X500Y2000D03*
X500Y3500D03*
X500Y5000D03*
X500Y6500D03*
X500Y8000D03*
X500Y9500D03*
X500Y11000D03*
X500Y12500D03*
X2000Y12500D03*
X3500Y12500D03*
X5000Y12500D03*
X6500Y12500D03*
X8000Y12500D03*
X9500Y12500D03*
X11000Y12500D03*
X12500Y12500D03*
X14000Y12500D03*
X14500Y11250D03*
X14500Y10000D03*
X14500Y1000D03*
X14500Y2250D03*
M02*
