G04 EAGLE Gerber X2 export*
%TF.Part,Single*%
%TF.FileFunction,Soldermask,Top,1*%
%TF.FilePolarity,Negative*%
%TF.GenerationSoftware,Autodesk,EAGLE,9.0.0*%
%TF.CreationDate,2018-05-12T16:04:26Z*%
G75*
%MOIN*%
%FSLAX34Y34*%
%LPD*%
%AMOC8*
5,1,8,0,0,1.08239X$1,22.5*%
G01*
%ADD10R,0.056181X0.040433*%
%ADD11R,0.040433X0.056181*%
%ADD12P,0.081179X8X292.500000*%
%ADD13P,0.081179X8X22.500000*%
%ADD14R,0.048307X0.060118*%
%ADD15P,0.082117X8X292.500000*%
%ADD16C,0.182165*%
%ADD17R,0.230000X0.046000*%
%ADD18R,0.255000X0.105000*%
%ADD19C,0.028780*%
%ADD20C,0.034685*%

G36*
X15003Y7411D02*
X15003Y7411D01*
X15005Y7411D01*
X15008Y7412D01*
X15011Y7412D01*
X15013Y7413D01*
X15016Y7414D01*
X15018Y7416D01*
X15021Y7417D01*
X15023Y7419D01*
X15025Y7420D01*
X15027Y7422D01*
X15030Y7424D01*
X15031Y7426D01*
X15033Y7428D01*
X15034Y7431D01*
X15036Y7433D01*
X15036Y7436D01*
X15037Y7438D01*
X15038Y7441D01*
X15039Y7444D01*
X15039Y7447D01*
X15039Y7450D01*
X15039Y9250D01*
X15039Y9253D01*
X15039Y9255D01*
X15038Y9258D01*
X15038Y9261D01*
X15037Y9263D01*
X15036Y9266D01*
X15034Y9268D01*
X15033Y9271D01*
X15031Y9273D01*
X15030Y9275D01*
X15028Y9277D01*
X15026Y9280D01*
X15024Y9281D01*
X15022Y9283D01*
X15019Y9284D01*
X15017Y9286D01*
X15014Y9286D01*
X15012Y9287D01*
X15009Y9288D01*
X15006Y9289D01*
X15003Y9289D01*
X15000Y9289D01*
X12500Y9289D01*
X12497Y9289D01*
X12495Y9289D01*
X12492Y9288D01*
X12489Y9288D01*
X12487Y9287D01*
X12484Y9286D01*
X12482Y9284D01*
X12479Y9283D01*
X12477Y9281D01*
X12475Y9280D01*
X12473Y9278D01*
X12470Y9276D01*
X12469Y9274D01*
X12467Y9272D01*
X12466Y9269D01*
X12464Y9267D01*
X12464Y9264D01*
X12463Y9262D01*
X12462Y9259D01*
X12461Y9256D01*
X12461Y9253D01*
X12461Y9250D01*
X12461Y7450D01*
X12461Y7447D01*
X12461Y7445D01*
X12462Y7442D01*
X12462Y7439D01*
X12463Y7437D01*
X12464Y7434D01*
X12466Y7432D01*
X12467Y7429D01*
X12469Y7427D01*
X12470Y7425D01*
X12472Y7423D01*
X12474Y7420D01*
X12476Y7419D01*
X12478Y7417D01*
X12481Y7416D01*
X12483Y7414D01*
X12486Y7414D01*
X12488Y7413D01*
X12491Y7412D01*
X12494Y7411D01*
X12497Y7411D01*
X12500Y7411D01*
X15000Y7411D01*
X15003Y7411D01*
G37*
G36*
X15003Y3711D02*
X15003Y3711D01*
X15005Y3711D01*
X15008Y3712D01*
X15011Y3712D01*
X15013Y3713D01*
X15016Y3714D01*
X15018Y3716D01*
X15021Y3717D01*
X15023Y3719D01*
X15025Y3720D01*
X15027Y3722D01*
X15030Y3724D01*
X15031Y3726D01*
X15033Y3728D01*
X15034Y3731D01*
X15036Y3733D01*
X15036Y3736D01*
X15037Y3738D01*
X15038Y3741D01*
X15039Y3744D01*
X15039Y3747D01*
X15039Y3750D01*
X15039Y5550D01*
X15039Y5553D01*
X15039Y5555D01*
X15038Y5558D01*
X15038Y5561D01*
X15037Y5563D01*
X15036Y5566D01*
X15034Y5568D01*
X15033Y5571D01*
X15031Y5573D01*
X15030Y5575D01*
X15028Y5577D01*
X15026Y5580D01*
X15024Y5581D01*
X15022Y5583D01*
X15019Y5584D01*
X15017Y5586D01*
X15014Y5586D01*
X15012Y5587D01*
X15009Y5588D01*
X15006Y5589D01*
X15003Y5589D01*
X15000Y5589D01*
X12500Y5589D01*
X12497Y5589D01*
X12495Y5589D01*
X12492Y5588D01*
X12489Y5588D01*
X12487Y5587D01*
X12484Y5586D01*
X12482Y5584D01*
X12479Y5583D01*
X12477Y5581D01*
X12475Y5580D01*
X12473Y5578D01*
X12470Y5576D01*
X12469Y5574D01*
X12467Y5572D01*
X12466Y5569D01*
X12464Y5567D01*
X12464Y5564D01*
X12463Y5562D01*
X12462Y5559D01*
X12461Y5556D01*
X12461Y5553D01*
X12461Y5550D01*
X12461Y3750D01*
X12461Y3747D01*
X12461Y3745D01*
X12462Y3742D01*
X12462Y3739D01*
X12463Y3737D01*
X12464Y3734D01*
X12466Y3732D01*
X12467Y3729D01*
X12469Y3727D01*
X12470Y3725D01*
X12472Y3723D01*
X12474Y3720D01*
X12476Y3719D01*
X12478Y3717D01*
X12481Y3716D01*
X12483Y3714D01*
X12486Y3714D01*
X12488Y3713D01*
X12491Y3712D01*
X12494Y3711D01*
X12497Y3711D01*
X12500Y3711D01*
X15000Y3711D01*
X15003Y3711D01*
G37*
D10*
X9250Y6626D03*
X9250Y7374D03*
D11*
X10376Y3250D03*
X11124Y3250D03*
X13376Y2750D03*
X14124Y2750D03*
X8626Y8750D03*
X9374Y8750D03*
D12*
X7500Y8750D03*
X7500Y2750D03*
X9250Y5250D03*
X9250Y3250D03*
D13*
X7500Y1750D03*
X13500Y1750D03*
D14*
X11594Y5500D03*
X10906Y5500D03*
X11594Y6500D03*
X10906Y6500D03*
X11594Y7500D03*
X10906Y7500D03*
X7844Y11750D03*
X7156Y11750D03*
X7156Y10750D03*
X7844Y10750D03*
X7844Y9750D03*
X7156Y9750D03*
D15*
X5500Y8205D03*
X5500Y7303D03*
X5500Y6402D03*
X5500Y5500D03*
X5500Y4598D03*
X3500Y8205D03*
X3500Y7303D03*
X3500Y6402D03*
X3500Y5500D03*
X3500Y4598D03*
X4500Y8656D03*
X4500Y7754D03*
X4500Y6852D03*
X4500Y5951D03*
X4500Y5049D03*
D16*
X4500Y11421D03*
X4500Y1579D03*
D17*
X13868Y6500D03*
D18*
X13750Y4875D03*
X13750Y8125D03*
D19*
X14500Y7125D03*
X13750Y7125D03*
X13000Y7125D03*
X13750Y5875D03*
X14500Y5875D03*
X13000Y5875D03*
X13000Y9000D03*
X13750Y9000D03*
X14500Y9000D03*
X13000Y4000D03*
X13750Y4000D03*
X14500Y4000D03*
D20*
X500Y500D03*
X2000Y500D03*
X3500Y500D03*
X5000Y500D03*
X6500Y500D03*
X8000Y500D03*
X9500Y500D03*
X11000Y500D03*
X12500Y500D03*
X14000Y500D03*
X500Y2000D03*
X500Y3500D03*
X500Y5000D03*
X500Y6500D03*
X500Y8000D03*
X500Y9500D03*
X500Y11000D03*
X500Y12500D03*
X2000Y12500D03*
X3500Y12500D03*
X5000Y12500D03*
X6500Y12500D03*
X8000Y12500D03*
X9500Y12500D03*
X11000Y12500D03*
X12500Y12500D03*
X14000Y12500D03*
X14500Y11250D03*
X14500Y10000D03*
X14500Y1000D03*
X14500Y2250D03*
M02*
