G04 EAGLE Gerber X2 export*
%TF.Part,Single*%
%TF.FileFunction,Other,Other*%
%TF.FilePolarity,Positive*%
%TF.GenerationSoftware,Autodesk,EAGLE,9.0.0*%
%TF.CreationDate,2018-05-01T03:21:36Z*%
G75*
%MOIN*%
%FSLAX34Y34*%
%LPD*%
%AMOC8*
5,1,8,0,0,1.08239X$1,22.5*%
G01*
%ADD10C,0.000000*%


D10*
X0Y0D02*
X14992Y0D01*
X14992Y12995D01*
X0Y12995D01*
X0Y0D01*
X3890Y11421D02*
X3892Y11470D01*
X3898Y11519D01*
X3908Y11567D01*
X3921Y11614D01*
X3939Y11660D01*
X3960Y11704D01*
X3984Y11747D01*
X4012Y11787D01*
X4043Y11826D01*
X4077Y11861D01*
X4114Y11894D01*
X4153Y11923D01*
X4195Y11949D01*
X4238Y11972D01*
X4284Y11991D01*
X4330Y12007D01*
X4378Y12019D01*
X4426Y12027D01*
X4475Y12031D01*
X4525Y12031D01*
X4574Y12027D01*
X4622Y12019D01*
X4670Y12007D01*
X4716Y11991D01*
X4762Y11972D01*
X4805Y11949D01*
X4847Y11923D01*
X4886Y11894D01*
X4923Y11861D01*
X4957Y11826D01*
X4988Y11787D01*
X5016Y11747D01*
X5040Y11704D01*
X5061Y11660D01*
X5079Y11614D01*
X5092Y11567D01*
X5102Y11519D01*
X5108Y11470D01*
X5110Y11421D01*
X5108Y11372D01*
X5102Y11323D01*
X5092Y11275D01*
X5079Y11228D01*
X5061Y11182D01*
X5040Y11138D01*
X5016Y11095D01*
X4988Y11055D01*
X4957Y11016D01*
X4923Y10981D01*
X4886Y10948D01*
X4847Y10919D01*
X4805Y10893D01*
X4762Y10870D01*
X4716Y10851D01*
X4670Y10835D01*
X4622Y10823D01*
X4574Y10815D01*
X4525Y10811D01*
X4475Y10811D01*
X4426Y10815D01*
X4378Y10823D01*
X4330Y10835D01*
X4284Y10851D01*
X4238Y10870D01*
X4195Y10893D01*
X4153Y10919D01*
X4114Y10948D01*
X4077Y10981D01*
X4043Y11016D01*
X4012Y11055D01*
X3984Y11095D01*
X3960Y11138D01*
X3939Y11182D01*
X3921Y11228D01*
X3908Y11275D01*
X3898Y11323D01*
X3892Y11372D01*
X3890Y11421D01*
X3890Y1579D02*
X3892Y1628D01*
X3898Y1677D01*
X3908Y1725D01*
X3921Y1772D01*
X3939Y1818D01*
X3960Y1862D01*
X3984Y1905D01*
X4012Y1945D01*
X4043Y1984D01*
X4077Y2019D01*
X4114Y2052D01*
X4153Y2081D01*
X4195Y2107D01*
X4238Y2130D01*
X4284Y2149D01*
X4330Y2165D01*
X4378Y2177D01*
X4426Y2185D01*
X4475Y2189D01*
X4525Y2189D01*
X4574Y2185D01*
X4622Y2177D01*
X4670Y2165D01*
X4716Y2149D01*
X4762Y2130D01*
X4805Y2107D01*
X4847Y2081D01*
X4886Y2052D01*
X4923Y2019D01*
X4957Y1984D01*
X4988Y1945D01*
X5016Y1905D01*
X5040Y1862D01*
X5061Y1818D01*
X5079Y1772D01*
X5092Y1725D01*
X5102Y1677D01*
X5108Y1628D01*
X5110Y1579D01*
X5108Y1530D01*
X5102Y1481D01*
X5092Y1433D01*
X5079Y1386D01*
X5061Y1340D01*
X5040Y1296D01*
X5016Y1253D01*
X4988Y1213D01*
X4957Y1174D01*
X4923Y1139D01*
X4886Y1106D01*
X4847Y1077D01*
X4805Y1051D01*
X4762Y1028D01*
X4716Y1009D01*
X4670Y993D01*
X4622Y981D01*
X4574Y973D01*
X4525Y969D01*
X4475Y969D01*
X4426Y973D01*
X4378Y981D01*
X4330Y993D01*
X4284Y1009D01*
X4238Y1028D01*
X4195Y1051D01*
X4153Y1077D01*
X4114Y1106D01*
X4077Y1139D01*
X4043Y1174D01*
X4012Y1213D01*
X3984Y1253D01*
X3960Y1296D01*
X3939Y1340D01*
X3921Y1386D01*
X3908Y1433D01*
X3898Y1481D01*
X3892Y1530D01*
X3890Y1579D01*
M02*
