M48
;GenerationSoftware,Autodesk,EAGLE,9.0.0*%
;CreationDate,2018-05-04T13:36:11Z*%
FMAT,2
ICI,OFF
INCH,TZ,00.0000
T6C0.0138
T5C0.0197
T4C0.0295
T3C0.0472
T2C0.1220
%
G90
M72
T2
X4500Y1579
X4500Y11421
T3
X5500Y4598
X5500Y8205
X5500Y7303
X5500Y6402
X5500Y5500
X3500Y8205
X3500Y7303
X3500Y6402
X3500Y4598
X4500Y8656
X4500Y7754
X4500Y6852
X4500Y5951
X4500Y5049
X3500Y5500
T4
X13500Y1750
X7500Y8750
X7500Y2750
X9250Y5250
X9250Y3250
X7500Y1750
T5
X2000Y500
X14500Y2250
X14500Y1000
X14500Y10000
X14000Y12500
X500Y500
X3500Y500
X5000Y500
X6500Y500
X8000Y500
X9500Y500
X11000Y500
X12500Y500
X14000Y500
X500Y2000
X500Y3500
X500Y5000
X500Y6500
X500Y9500
X14500Y11250
X12500Y12500
X11000Y12500
X9500Y12500
X8000Y12500
X6500Y12500
X3500Y12500
X2000Y12500
X500Y12500
X500Y11000
X500Y8000
X5000Y12500
T6
X14500Y4000
X13750Y4000
X13000Y4000
X14500Y9000
X13750Y9000
X13000Y9000
X13000Y5875
X14500Y5875
X13750Y5875
X13000Y7125
X13750Y7125
X14500Y7125
M30