G04 EAGLE Gerber X2 export*
%TF.Part,Single*%
%TF.FileFunction,Copper,L2,Bot,Mixed*%
%TF.FilePolarity,Positive*%
%TF.GenerationSoftware,Autodesk,EAGLE,9.0.0*%
%TF.CreationDate,2018-05-01T03:21:36Z*%
G75*
%MOIN*%
%FSLAX34Y34*%
%LPD*%
%AMOC8*
5,1,8,0,0,1.08239X$1,22.5*%
G01*
%ADD10P,0.075767X8X292.500000*%
%ADD11P,0.075767X8X22.500000*%
%ADD12P,0.060614X8X292.500000*%
%ADD13C,0.029685*%

G36*
X14813Y151D02*
X14813Y151D01*
X14814Y151D01*
X14818Y152D01*
X14822Y152D01*
X14822Y153D01*
X14824Y153D01*
X14827Y155D01*
X14830Y157D01*
X14831Y158D01*
X14832Y158D01*
X14834Y161D01*
X14837Y164D01*
X14837Y165D01*
X14838Y166D01*
X14839Y169D01*
X14840Y173D01*
X14841Y174D01*
X14841Y175D01*
X14841Y180D01*
X14841Y12815D01*
X14841Y12816D01*
X14841Y12817D01*
X14840Y12821D01*
X14840Y12825D01*
X14839Y12825D01*
X14839Y12826D01*
X14837Y12830D01*
X14835Y12833D01*
X14835Y12834D01*
X14834Y12835D01*
X14831Y12837D01*
X14828Y12839D01*
X14827Y12840D01*
X14826Y12841D01*
X14823Y12842D01*
X14820Y12843D01*
X14819Y12843D01*
X14818Y12844D01*
X14812Y12844D01*
X180Y12844D01*
X179Y12844D01*
X178Y12844D01*
X174Y12843D01*
X171Y12843D01*
X170Y12842D01*
X169Y12842D01*
X165Y12840D01*
X162Y12838D01*
X161Y12837D01*
X158Y12834D01*
X156Y12831D01*
X155Y12830D01*
X155Y12829D01*
X153Y12826D01*
X152Y12823D01*
X152Y12821D01*
X151Y12820D01*
X151Y12815D01*
X151Y180D01*
X151Y179D01*
X151Y178D01*
X152Y174D01*
X152Y171D01*
X153Y170D01*
X153Y169D01*
X155Y165D01*
X157Y162D01*
X158Y161D01*
X161Y158D01*
X164Y156D01*
X165Y155D01*
X166Y155D01*
X169Y153D01*
X173Y152D01*
X174Y152D01*
X175Y151D01*
X180Y151D01*
X14812Y151D01*
X14813Y151D01*
G37*
%LPC*%
G36*
X4349Y10660D02*
X4349Y10660D01*
X4069Y10776D01*
X3855Y10990D01*
X3739Y11270D01*
X3739Y11573D01*
X3855Y11852D01*
X4069Y12066D01*
X4349Y12182D01*
X4651Y12182D01*
X4931Y12066D01*
X5145Y11852D01*
X5261Y11573D01*
X5261Y11270D01*
X5145Y10990D01*
X4931Y10776D01*
X4651Y10660D01*
X4349Y10660D01*
G37*
%LPD*%
%LPC*%
G36*
X4349Y818D02*
X4349Y818D01*
X4069Y934D01*
X3855Y1148D01*
X3739Y1427D01*
X3739Y1730D01*
X3855Y2010D01*
X4069Y2224D01*
X4349Y2340D01*
X4651Y2340D01*
X4931Y2224D01*
X5145Y2010D01*
X5261Y1730D01*
X5261Y1427D01*
X5145Y1148D01*
X4931Y934D01*
X4651Y818D01*
X4349Y818D01*
G37*
%LPD*%
%LPC*%
G36*
X7330Y1339D02*
X7330Y1339D01*
X7089Y1580D01*
X7089Y1920D01*
X7330Y2161D01*
X7670Y2161D01*
X7911Y1920D01*
X7911Y1580D01*
X7670Y1339D01*
X7330Y1339D01*
G37*
%LPD*%
%LPC*%
G36*
X13330Y1339D02*
X13330Y1339D01*
X13089Y1580D01*
X13089Y1920D01*
X13330Y2161D01*
X13670Y2161D01*
X13911Y1920D01*
X13911Y1580D01*
X13670Y1339D01*
X13330Y1339D01*
G37*
%LPD*%
%LPC*%
G36*
X7330Y2339D02*
X7330Y2339D01*
X7089Y2580D01*
X7089Y2920D01*
X7330Y3161D01*
X7670Y3161D01*
X7911Y2920D01*
X7911Y2580D01*
X7670Y2339D01*
X7330Y2339D01*
G37*
%LPD*%
%LPC*%
G36*
X9080Y2839D02*
X9080Y2839D01*
X8839Y3080D01*
X8839Y3420D01*
X9080Y3661D01*
X9420Y3661D01*
X9661Y3420D01*
X9661Y3080D01*
X9420Y2839D01*
X9080Y2839D01*
G37*
%LPD*%
%LPC*%
G36*
X9080Y4839D02*
X9080Y4839D01*
X8839Y5080D01*
X8839Y5420D01*
X9080Y5661D01*
X9420Y5661D01*
X9661Y5420D01*
X9661Y5080D01*
X9420Y4839D01*
X9080Y4839D01*
G37*
%LPD*%
%LPC*%
G36*
X7330Y8339D02*
X7330Y8339D01*
X7089Y8580D01*
X7089Y8920D01*
X7330Y9161D01*
X7670Y9161D01*
X7911Y8920D01*
X7911Y8580D01*
X7670Y8339D01*
X7330Y8339D01*
G37*
%LPD*%
%LPC*%
G36*
X3359Y5159D02*
X3359Y5159D01*
X3159Y5359D01*
X3159Y5641D01*
X3359Y5841D01*
X3641Y5841D01*
X3841Y5641D01*
X3841Y5359D01*
X3641Y5159D01*
X3359Y5159D01*
G37*
%LPD*%
%LPC*%
G36*
X3359Y4258D02*
X3359Y4258D01*
X3159Y4457D01*
X3159Y4740D01*
X3359Y4939D01*
X3641Y4939D01*
X3841Y4740D01*
X3841Y4457D01*
X3641Y4258D01*
X3359Y4258D01*
G37*
%LPD*%
%LPC*%
G36*
X5359Y7864D02*
X5359Y7864D01*
X5159Y8064D01*
X5159Y8346D01*
X5359Y8545D01*
X5641Y8545D01*
X5841Y8346D01*
X5841Y8064D01*
X5641Y7864D01*
X5359Y7864D01*
G37*
%LPD*%
%LPC*%
G36*
X5359Y5159D02*
X5359Y5159D01*
X5159Y5359D01*
X5159Y5641D01*
X5359Y5841D01*
X5641Y5841D01*
X5841Y5641D01*
X5841Y5359D01*
X5641Y5159D01*
X5359Y5159D01*
G37*
%LPD*%
%LPC*%
G36*
X4359Y5610D02*
X4359Y5610D01*
X4159Y5810D01*
X4159Y6092D01*
X4359Y6292D01*
X4641Y6292D01*
X4841Y6092D01*
X4841Y5810D01*
X4641Y5610D01*
X4359Y5610D01*
G37*
%LPD*%
%LPC*%
G36*
X3359Y6061D02*
X3359Y6061D01*
X3159Y6260D01*
X3159Y6543D01*
X3359Y6742D01*
X3641Y6742D01*
X3841Y6543D01*
X3841Y6260D01*
X3641Y6061D01*
X3359Y6061D01*
G37*
%LPD*%
%LPC*%
G36*
X5359Y6061D02*
X5359Y6061D01*
X5159Y6260D01*
X5159Y6543D01*
X5359Y6742D01*
X5641Y6742D01*
X5841Y6543D01*
X5841Y6260D01*
X5641Y6061D01*
X5359Y6061D01*
G37*
%LPD*%
%LPC*%
G36*
X3359Y6962D02*
X3359Y6962D01*
X3159Y7162D01*
X3159Y7444D01*
X3359Y7644D01*
X3641Y7644D01*
X3841Y7444D01*
X3841Y7162D01*
X3641Y6962D01*
X3359Y6962D01*
G37*
%LPD*%
%LPC*%
G36*
X3359Y7864D02*
X3359Y7864D01*
X3159Y8064D01*
X3159Y8346D01*
X3359Y8545D01*
X3641Y8545D01*
X3841Y8346D01*
X3841Y8064D01*
X3641Y7864D01*
X3359Y7864D01*
G37*
%LPD*%
%LPC*%
G36*
X5359Y6962D02*
X5359Y6962D01*
X5159Y7162D01*
X5159Y7444D01*
X5359Y7644D01*
X5641Y7644D01*
X5841Y7444D01*
X5841Y7162D01*
X5641Y6962D01*
X5359Y6962D01*
G37*
%LPD*%
%LPC*%
G36*
X4119Y6912D02*
X4119Y6912D01*
X4119Y7010D01*
X4342Y7233D01*
X4441Y7233D01*
X4441Y6912D01*
X4119Y6912D01*
G37*
%LPD*%
%LPC*%
G36*
X4119Y8715D02*
X4119Y8715D01*
X4119Y8813D01*
X4342Y9036D01*
X4441Y9036D01*
X4441Y8715D01*
X4119Y8715D01*
G37*
%LPD*%
%LPC*%
G36*
X5119Y4658D02*
X5119Y4658D01*
X5119Y4756D01*
X5342Y4979D01*
X5441Y4979D01*
X5441Y4658D01*
X5119Y4658D01*
G37*
%LPD*%
%LPC*%
G36*
X4119Y7813D02*
X4119Y7813D01*
X4119Y7912D01*
X4342Y8135D01*
X4441Y8135D01*
X4441Y7813D01*
X4119Y7813D01*
G37*
%LPD*%
%LPC*%
G36*
X4119Y5108D02*
X4119Y5108D01*
X4119Y5207D01*
X4342Y5430D01*
X4441Y5430D01*
X4441Y5108D01*
X4119Y5108D01*
G37*
%LPD*%
%LPC*%
G36*
X4559Y6912D02*
X4559Y6912D01*
X4559Y7233D01*
X4658Y7233D01*
X4881Y7010D01*
X4881Y6912D01*
X4559Y6912D01*
G37*
%LPD*%
%LPC*%
G36*
X4559Y8715D02*
X4559Y8715D01*
X4559Y9036D01*
X4658Y9036D01*
X4881Y8813D01*
X4881Y8715D01*
X4559Y8715D01*
G37*
%LPD*%
%LPC*%
G36*
X4559Y7813D02*
X4559Y7813D01*
X4559Y8135D01*
X4658Y8135D01*
X4881Y7912D01*
X4881Y7813D01*
X4559Y7813D01*
G37*
%LPD*%
%LPC*%
G36*
X5559Y4658D02*
X5559Y4658D01*
X5559Y4979D01*
X5658Y4979D01*
X5881Y4756D01*
X5881Y4658D01*
X5559Y4658D01*
G37*
%LPD*%
%LPC*%
G36*
X4559Y5108D02*
X4559Y5108D01*
X4559Y5430D01*
X4658Y5430D01*
X4881Y5207D01*
X4881Y5108D01*
X4559Y5108D01*
G37*
%LPD*%
%LPC*%
G36*
X4342Y8275D02*
X4342Y8275D01*
X4119Y8498D01*
X4119Y8596D01*
X4441Y8596D01*
X4441Y8275D01*
X4342Y8275D01*
G37*
%LPD*%
%LPC*%
G36*
X4342Y4668D02*
X4342Y4668D01*
X4119Y4891D01*
X4119Y4990D01*
X4441Y4990D01*
X4441Y4668D01*
X4342Y4668D01*
G37*
%LPD*%
%LPC*%
G36*
X4342Y7373D02*
X4342Y7373D01*
X4119Y7596D01*
X4119Y7695D01*
X4441Y7695D01*
X4441Y7373D01*
X4342Y7373D01*
G37*
%LPD*%
%LPC*%
G36*
X5342Y4218D02*
X5342Y4218D01*
X5119Y4441D01*
X5119Y4539D01*
X5441Y4539D01*
X5441Y4218D01*
X5342Y4218D01*
G37*
%LPD*%
%LPC*%
G36*
X4342Y6472D02*
X4342Y6472D01*
X4119Y6695D01*
X4119Y6793D01*
X4441Y6793D01*
X4441Y6472D01*
X4342Y6472D01*
G37*
%LPD*%
%LPC*%
G36*
X4559Y4668D02*
X4559Y4668D01*
X4559Y4990D01*
X4881Y4990D01*
X4881Y4892D01*
X4658Y4668D01*
X4559Y4668D01*
G37*
%LPD*%
%LPC*%
G36*
X4559Y7373D02*
X4559Y7373D01*
X4559Y7695D01*
X4881Y7695D01*
X4881Y7596D01*
X4658Y7373D01*
X4559Y7373D01*
G37*
%LPD*%
%LPC*%
G36*
X5559Y4218D02*
X5559Y4218D01*
X5559Y4539D01*
X5881Y4539D01*
X5881Y4441D01*
X5658Y4218D01*
X5559Y4218D01*
G37*
%LPD*%
%LPC*%
G36*
X4559Y8275D02*
X4559Y8275D01*
X4559Y8596D01*
X4881Y8596D01*
X4881Y8498D01*
X4658Y8275D01*
X4559Y8275D01*
G37*
%LPD*%
%LPC*%
G36*
X4559Y6472D02*
X4559Y6472D01*
X4559Y6793D01*
X4881Y6793D01*
X4881Y6695D01*
X4658Y6472D01*
X4559Y6472D01*
G37*
%LPD*%
%LPC*%
G36*
X4499Y5048D02*
X4499Y5048D01*
X4499Y5050D01*
X4501Y5050D01*
X4501Y5048D01*
X4499Y5048D01*
G37*
%LPD*%
%LPC*%
G36*
X4499Y7753D02*
X4499Y7753D01*
X4499Y7755D01*
X4501Y7755D01*
X4501Y7753D01*
X4499Y7753D01*
G37*
%LPD*%
%LPC*%
G36*
X5499Y4598D02*
X5499Y4598D01*
X5499Y4599D01*
X5501Y4599D01*
X5501Y4598D01*
X5499Y4598D01*
G37*
%LPD*%
%LPC*%
G36*
X4499Y8655D02*
X4499Y8655D01*
X4499Y8656D01*
X4501Y8656D01*
X4501Y8655D01*
X4499Y8655D01*
G37*
%LPD*%
%LPC*%
G36*
X4499Y6852D02*
X4499Y6852D01*
X4499Y6853D01*
X4501Y6853D01*
X4501Y6852D01*
X4499Y6852D01*
G37*
%LPD*%
D10*
X7500Y8750D03*
X7500Y2750D03*
X9250Y5250D03*
X9250Y3250D03*
D11*
X7500Y1750D03*
X13500Y1750D03*
D12*
X5500Y8205D03*
X5500Y7303D03*
X5500Y6402D03*
X5500Y5500D03*
X5500Y4598D03*
X3500Y8205D03*
X3500Y7303D03*
X3500Y6402D03*
X3500Y5500D03*
X3500Y4598D03*
X4500Y8656D03*
X4500Y7754D03*
X4500Y6852D03*
X4500Y5951D03*
X4500Y5049D03*
D13*
X500Y500D03*
X2000Y500D03*
X3500Y500D03*
X5000Y500D03*
X6500Y500D03*
X8000Y500D03*
X9500Y500D03*
X11000Y500D03*
X12500Y500D03*
X14000Y500D03*
X500Y2000D03*
X500Y3500D03*
X500Y5000D03*
X500Y6500D03*
X500Y8000D03*
X500Y9500D03*
X500Y11000D03*
X500Y12500D03*
X2000Y12500D03*
X3500Y12500D03*
X5000Y12500D03*
X6500Y12500D03*
X8000Y12500D03*
X9500Y12500D03*
X11000Y12500D03*
X12500Y12500D03*
X14000Y12500D03*
X14500Y11250D03*
X14500Y10000D03*
X14500Y1000D03*
X14500Y2250D03*
X14250Y3500D03*
X14250Y9500D03*
X13250Y9500D03*
X13250Y3500D03*
M02*
