G04 EAGLE Gerber X2 export*
%TF.Part,Single*%
%TF.FileFunction,Copper,L1,Top,Mixed*%
%TF.FilePolarity,Positive*%
%TF.GenerationSoftware,Autodesk,EAGLE,9.0.0*%
%TF.CreationDate,2018-05-03T13:06:15Z*%
G75*
%MOIN*%
%FSLAX34Y34*%
%LPD*%
%AMOC8*
5,1,8,0,0,1.08239X$1,22.5*%
G01*
%ADD10R,0.051181X0.035433*%
%ADD11R,0.035433X0.051181*%
%ADD12P,0.075767X8X292.500000*%
%ADD13P,0.075767X8X22.500000*%
%ADD14R,0.043307X0.055118*%
%ADD15P,0.060614X8X292.500000*%
%ADD16C,0.177165*%
%ADD17R,0.225000X0.041000*%
%ADD18R,0.250000X0.100000*%
%ADD19C,0.023780*%
%ADD20C,0.029685*%
%ADD21C,0.040000*%
%ADD22C,0.041000*%

G36*
X14763Y151D02*
X14763Y151D01*
X14764Y151D01*
X14771Y152D01*
X14778Y152D01*
X14779Y153D01*
X14780Y153D01*
X14786Y155D01*
X14793Y157D01*
X14794Y157D01*
X14795Y158D01*
X14801Y161D01*
X14807Y165D01*
X14808Y165D01*
X14808Y166D01*
X14814Y170D01*
X14819Y175D01*
X14820Y176D01*
X14824Y182D01*
X14829Y187D01*
X14829Y188D01*
X14830Y189D01*
X14833Y195D01*
X14836Y201D01*
X14836Y202D01*
X14837Y203D01*
X14838Y210D01*
X14840Y216D01*
X14840Y217D01*
X14840Y218D01*
X14841Y230D01*
X14841Y3711D01*
X15000Y3711D01*
X15003Y3711D01*
X15005Y3711D01*
X15008Y3712D01*
X15011Y3712D01*
X15013Y3713D01*
X15016Y3714D01*
X15018Y3716D01*
X15021Y3717D01*
X15023Y3719D01*
X15025Y3720D01*
X15027Y3722D01*
X15030Y3724D01*
X15031Y3726D01*
X15033Y3728D01*
X15034Y3731D01*
X15036Y3733D01*
X15036Y3736D01*
X15037Y3738D01*
X15038Y3741D01*
X15039Y3744D01*
X15039Y3747D01*
X15039Y3750D01*
X15039Y6175D01*
X15039Y6178D01*
X15039Y6180D01*
X15038Y6183D01*
X15038Y6186D01*
X15037Y6188D01*
X15036Y6191D01*
X15034Y6193D01*
X15033Y6196D01*
X15031Y6198D01*
X15030Y6200D01*
X15028Y6202D01*
X15026Y6205D01*
X15024Y6206D01*
X15022Y6208D01*
X15019Y6209D01*
X15017Y6211D01*
X15014Y6211D01*
X15012Y6212D01*
X15009Y6213D01*
X15006Y6214D01*
X15003Y6214D01*
X15000Y6214D01*
X11948Y6214D01*
X11946Y6214D01*
X11945Y6214D01*
X11939Y6213D01*
X11932Y6213D01*
X11931Y6212D01*
X11929Y6212D01*
X11923Y6210D01*
X11917Y6208D01*
X11916Y6207D01*
X11914Y6207D01*
X11909Y6204D01*
X11903Y6200D01*
X11902Y6200D01*
X11901Y6199D01*
X11892Y6191D01*
X11844Y6144D01*
X11345Y6144D01*
X11322Y6167D01*
X11321Y6167D01*
X11315Y6172D01*
X11309Y6177D01*
X11302Y6181D01*
X11295Y6184D01*
X11294Y6184D01*
X11287Y6186D01*
X11280Y6188D01*
X11279Y6189D01*
X11272Y6189D01*
X11265Y6190D01*
X11264Y6190D01*
X11256Y6189D01*
X11249Y6188D01*
X11248Y6188D01*
X11241Y6185D01*
X11234Y6183D01*
X11233Y6183D01*
X11227Y6179D01*
X11220Y6176D01*
X11220Y6175D01*
X11219Y6175D01*
X11214Y6170D01*
X11208Y6165D01*
X11207Y6165D01*
X11203Y6159D01*
X11198Y6153D01*
X11198Y6152D01*
X11195Y6145D01*
X11191Y6139D01*
X11191Y6138D01*
X11189Y6131D01*
X11187Y6123D01*
X11187Y6122D01*
X11186Y6111D01*
X11186Y5918D01*
X11186Y5917D01*
X11187Y5909D01*
X11188Y5902D01*
X11188Y5901D01*
X11190Y5894D01*
X11192Y5887D01*
X11193Y5886D01*
X11197Y5880D01*
X11200Y5873D01*
X11201Y5872D01*
X11205Y5867D01*
X11210Y5861D01*
X11211Y5861D01*
X11211Y5860D01*
X11217Y5856D01*
X11223Y5851D01*
X11230Y5847D01*
X11237Y5844D01*
X11245Y5842D01*
X11252Y5840D01*
X11253Y5839D01*
X11260Y5839D01*
X11267Y5838D01*
X11268Y5839D01*
X11276Y5840D01*
X11283Y5840D01*
X11284Y5841D01*
X11291Y5843D01*
X11298Y5845D01*
X11299Y5846D01*
X11305Y5850D01*
X11312Y5853D01*
X11312Y5854D01*
X11313Y5854D01*
X11313Y5855D01*
X11339Y5869D01*
X11365Y5876D01*
X11487Y5876D01*
X11487Y5528D01*
X11487Y5527D01*
X11487Y5526D01*
X11488Y5519D01*
X11489Y5513D01*
X11489Y5512D01*
X11489Y5511D01*
X11491Y5504D01*
X11492Y5500D01*
X11492Y5499D01*
X11490Y5492D01*
X11488Y5486D01*
X11488Y5485D01*
X11488Y5484D01*
X11487Y5472D01*
X11487Y5124D01*
X11365Y5124D01*
X11339Y5131D01*
X11312Y5146D01*
X11309Y5148D01*
X11309Y5149D01*
X11302Y5152D01*
X11295Y5156D01*
X11294Y5156D01*
X11287Y5158D01*
X11280Y5160D01*
X11279Y5160D01*
X11272Y5161D01*
X11265Y5162D01*
X11264Y5161D01*
X11264Y5162D01*
X11256Y5161D01*
X11249Y5160D01*
X11248Y5160D01*
X11241Y5157D01*
X11234Y5155D01*
X11233Y5155D01*
X11227Y5151D01*
X11220Y5147D01*
X11219Y5147D01*
X11214Y5142D01*
X11208Y5137D01*
X11207Y5136D01*
X11203Y5130D01*
X11198Y5124D01*
X11195Y5117D01*
X11191Y5110D01*
X11191Y5109D01*
X11189Y5102D01*
X11187Y5095D01*
X11187Y5094D01*
X11186Y5082D01*
X11186Y4994D01*
X11186Y4992D01*
X11186Y4991D01*
X11187Y4984D01*
X11188Y4978D01*
X11188Y4976D01*
X11188Y4975D01*
X11191Y4969D01*
X11192Y4963D01*
X11193Y4962D01*
X11194Y4960D01*
X11197Y4955D01*
X11200Y4949D01*
X11201Y4948D01*
X11202Y4947D01*
X11209Y4938D01*
X11978Y4169D01*
X12021Y4066D01*
X12021Y3666D01*
X12021Y3665D01*
X12021Y3663D01*
X12022Y3657D01*
X12022Y3651D01*
X12023Y3649D01*
X12023Y3648D01*
X12025Y3642D01*
X12027Y3636D01*
X12028Y3634D01*
X12028Y3633D01*
X12031Y3627D01*
X12035Y3622D01*
X12035Y3621D01*
X12036Y3619D01*
X12044Y3610D01*
X12600Y3054D01*
X12602Y3053D01*
X12602Y3052D01*
X12608Y3048D01*
X12613Y3044D01*
X12614Y3043D01*
X12615Y3042D01*
X12621Y3040D01*
X12627Y3037D01*
X12628Y3036D01*
X12629Y3036D01*
X12636Y3034D01*
X12642Y3032D01*
X12643Y3032D01*
X12645Y3032D01*
X12656Y3031D01*
X13077Y3031D01*
X13078Y3031D01*
X13080Y3031D01*
X13086Y3032D01*
X13092Y3032D01*
X13094Y3033D01*
X13095Y3033D01*
X13101Y3035D01*
X13107Y3037D01*
X13109Y3038D01*
X13110Y3038D01*
X13116Y3041D01*
X13121Y3045D01*
X13122Y3045D01*
X13124Y3046D01*
X13133Y3054D01*
X13165Y3087D01*
X13587Y3087D01*
X13634Y3039D01*
X13634Y2877D01*
X13634Y2875D01*
X13634Y2873D01*
X13635Y2867D01*
X13635Y2861D01*
X13636Y2859D01*
X13636Y2858D01*
X13640Y2846D01*
X13657Y2806D01*
X13657Y2235D01*
X13657Y2234D01*
X13657Y2232D01*
X13658Y2226D01*
X13658Y2220D01*
X13659Y2218D01*
X13659Y2217D01*
X13661Y2211D01*
X13663Y2204D01*
X13664Y2203D01*
X13664Y2202D01*
X13667Y2196D01*
X13670Y2191D01*
X13671Y2189D01*
X13672Y2188D01*
X13680Y2179D01*
X13931Y1928D01*
X13931Y1572D01*
X13678Y1319D01*
X13322Y1319D01*
X13069Y1572D01*
X13069Y1928D01*
X13072Y1931D01*
X13073Y1932D01*
X13074Y1933D01*
X13078Y1938D01*
X13082Y1943D01*
X13083Y1945D01*
X13084Y1946D01*
X13086Y1952D01*
X13089Y1957D01*
X13090Y1959D01*
X13090Y1960D01*
X13092Y1966D01*
X13094Y1972D01*
X13094Y1974D01*
X13094Y1975D01*
X13095Y1987D01*
X13095Y2390D01*
X13095Y2391D01*
X13095Y2392D01*
X13094Y2399D01*
X13094Y2406D01*
X13093Y2407D01*
X13093Y2408D01*
X13091Y2414D01*
X13089Y2421D01*
X13089Y2422D01*
X13088Y2423D01*
X13085Y2429D01*
X13081Y2435D01*
X13080Y2436D01*
X13076Y2441D01*
X13071Y2447D01*
X13070Y2448D01*
X13064Y2452D01*
X13059Y2457D01*
X13058Y2457D01*
X13057Y2458D01*
X13051Y2461D01*
X13045Y2464D01*
X13044Y2464D01*
X13043Y2464D01*
X13036Y2466D01*
X13030Y2468D01*
X13029Y2468D01*
X13028Y2468D01*
X13016Y2469D01*
X12451Y2469D01*
X12348Y2512D01*
X11537Y3323D01*
X11537Y3324D01*
X11531Y3328D01*
X11525Y3333D01*
X11524Y3334D01*
X11518Y3337D01*
X11511Y3340D01*
X11511Y3341D01*
X11510Y3341D01*
X11503Y3343D01*
X11496Y3345D01*
X11495Y3345D01*
X11488Y3346D01*
X11480Y3346D01*
X11479Y3346D01*
X11472Y3345D01*
X11465Y3344D01*
X11464Y3344D01*
X11457Y3342D01*
X11450Y3340D01*
X11449Y3339D01*
X11446Y3338D01*
X11212Y3338D01*
X11212Y3607D01*
X11314Y3607D01*
X11340Y3600D01*
X11346Y3597D01*
X11351Y3594D01*
X11353Y3594D01*
X11355Y3593D01*
X11361Y3592D01*
X11366Y3590D01*
X11368Y3590D01*
X11370Y3590D01*
X11376Y3589D01*
X11382Y3589D01*
X11384Y3589D01*
X11386Y3589D01*
X11392Y3590D01*
X11398Y3591D01*
X11399Y3592D01*
X11401Y3592D01*
X11407Y3594D01*
X11413Y3596D01*
X11414Y3597D01*
X11416Y3598D01*
X11421Y3601D01*
X11426Y3604D01*
X11428Y3605D01*
X11429Y3606D01*
X11434Y3610D01*
X11438Y3614D01*
X11439Y3616D01*
X11441Y3617D01*
X11444Y3622D01*
X11448Y3627D01*
X11448Y3629D01*
X11450Y3630D01*
X11452Y3636D01*
X11454Y3641D01*
X11455Y3643D01*
X11456Y3645D01*
X11457Y3651D01*
X11458Y3656D01*
X11459Y3659D01*
X11459Y3660D01*
X11459Y3663D01*
X11459Y3668D01*
X11459Y3861D01*
X11459Y3862D01*
X11459Y3864D01*
X11458Y3870D01*
X11458Y3877D01*
X11457Y3878D01*
X11457Y3879D01*
X11455Y3886D01*
X11453Y3892D01*
X11452Y3893D01*
X11452Y3894D01*
X11449Y3900D01*
X11445Y3906D01*
X11445Y3907D01*
X11444Y3908D01*
X11436Y3917D01*
X10668Y4685D01*
X10625Y4789D01*
X10625Y5142D01*
X10625Y5143D01*
X10625Y5145D01*
X10624Y5151D01*
X10623Y5157D01*
X10623Y5159D01*
X10623Y5160D01*
X10620Y5166D01*
X10619Y5172D01*
X10618Y5174D01*
X10617Y5175D01*
X10614Y5181D01*
X10611Y5186D01*
X10610Y5187D01*
X10609Y5189D01*
X10608Y5190D01*
X10608Y5811D01*
X10612Y5815D01*
X10612Y5816D01*
X10613Y5817D01*
X10616Y5823D01*
X10619Y5829D01*
X10619Y5830D01*
X10620Y5831D01*
X10622Y5837D01*
X10623Y5844D01*
X10624Y5845D01*
X10624Y5847D01*
X10625Y5858D01*
X10625Y6142D01*
X10625Y6143D01*
X10625Y6145D01*
X10624Y6151D01*
X10623Y6157D01*
X10623Y6159D01*
X10623Y6160D01*
X10620Y6166D01*
X10619Y6172D01*
X10618Y6174D01*
X10617Y6175D01*
X10614Y6181D01*
X10611Y6186D01*
X10610Y6187D01*
X10609Y6189D01*
X10608Y6190D01*
X10608Y6809D01*
X10656Y6856D01*
X11155Y6856D01*
X11178Y6833D01*
X11179Y6833D01*
X11185Y6828D01*
X11191Y6823D01*
X11198Y6819D01*
X11205Y6816D01*
X11206Y6816D01*
X11213Y6814D01*
X11220Y6812D01*
X11221Y6811D01*
X11228Y6811D01*
X11235Y6810D01*
X11236Y6810D01*
X11244Y6811D01*
X11251Y6812D01*
X11252Y6812D01*
X11259Y6815D01*
X11266Y6817D01*
X11267Y6817D01*
X11273Y6821D01*
X11280Y6824D01*
X11280Y6825D01*
X11281Y6825D01*
X11286Y6830D01*
X11292Y6835D01*
X11293Y6835D01*
X11297Y6841D01*
X11302Y6847D01*
X11302Y6848D01*
X11305Y6855D01*
X11309Y6861D01*
X11309Y6862D01*
X11311Y6869D01*
X11313Y6877D01*
X11313Y6878D01*
X11314Y6889D01*
X11314Y7082D01*
X11314Y7083D01*
X11313Y7091D01*
X11312Y7098D01*
X11312Y7099D01*
X11310Y7106D01*
X11308Y7113D01*
X11307Y7114D01*
X11303Y7120D01*
X11300Y7127D01*
X11299Y7128D01*
X11295Y7133D01*
X11290Y7139D01*
X11289Y7139D01*
X11289Y7140D01*
X11283Y7144D01*
X11277Y7149D01*
X11270Y7153D01*
X11263Y7156D01*
X11255Y7158D01*
X11248Y7160D01*
X11247Y7161D01*
X11240Y7161D01*
X11233Y7162D01*
X11232Y7161D01*
X11224Y7160D01*
X11217Y7160D01*
X11216Y7159D01*
X11209Y7157D01*
X11202Y7155D01*
X11201Y7154D01*
X11195Y7150D01*
X11188Y7147D01*
X11188Y7146D01*
X11187Y7146D01*
X11187Y7145D01*
X11161Y7131D01*
X11135Y7124D01*
X11013Y7124D01*
X11013Y7472D01*
X11013Y7473D01*
X11013Y7474D01*
X11012Y7481D01*
X11011Y7487D01*
X11011Y7488D01*
X11011Y7489D01*
X11009Y7496D01*
X11008Y7500D01*
X11008Y7501D01*
X11010Y7508D01*
X11012Y7514D01*
X11012Y7515D01*
X11012Y7516D01*
X11013Y7528D01*
X11013Y7876D01*
X11135Y7876D01*
X11161Y7869D01*
X11184Y7856D01*
X11208Y7832D01*
X11209Y7831D01*
X11210Y7831D01*
X11215Y7826D01*
X11220Y7822D01*
X11221Y7822D01*
X11222Y7821D01*
X11228Y7818D01*
X11234Y7815D01*
X11235Y7814D01*
X11236Y7814D01*
X11243Y7812D01*
X11249Y7810D01*
X11250Y7810D01*
X11251Y7810D01*
X11258Y7809D01*
X11265Y7809D01*
X11266Y7809D01*
X11267Y7809D01*
X11274Y7810D01*
X11281Y7811D01*
X11282Y7811D01*
X11283Y7811D01*
X11289Y7813D01*
X11296Y7815D01*
X11297Y7816D01*
X11298Y7816D01*
X11304Y7820D01*
X11310Y7823D01*
X11310Y7824D01*
X11311Y7824D01*
X11320Y7832D01*
X11345Y7856D01*
X11844Y7856D01*
X11892Y7809D01*
X11892Y7189D01*
X11888Y7185D01*
X11888Y7184D01*
X11887Y7183D01*
X11884Y7177D01*
X11881Y7171D01*
X11881Y7170D01*
X11880Y7169D01*
X11878Y7163D01*
X11877Y7156D01*
X11876Y7155D01*
X11876Y7153D01*
X11875Y7142D01*
X11875Y6865D01*
X11875Y6864D01*
X11875Y6863D01*
X11876Y6856D01*
X11877Y6849D01*
X11877Y6848D01*
X11877Y6847D01*
X11879Y6841D01*
X11881Y6834D01*
X11882Y6833D01*
X11882Y6832D01*
X11886Y6826D01*
X11889Y6820D01*
X11890Y6820D01*
X11890Y6819D01*
X11895Y6814D01*
X11899Y6808D01*
X11900Y6808D01*
X11901Y6807D01*
X11906Y6803D01*
X11911Y6798D01*
X11912Y6798D01*
X11913Y6797D01*
X11919Y6794D01*
X11926Y6791D01*
X11927Y6791D01*
X11934Y6789D01*
X11941Y6787D01*
X11942Y6787D01*
X11943Y6787D01*
X11954Y6786D01*
X14762Y6786D01*
X15000Y6786D01*
X15003Y6786D01*
X15005Y6786D01*
X15008Y6787D01*
X15011Y6787D01*
X15013Y6788D01*
X15016Y6789D01*
X15018Y6791D01*
X15021Y6792D01*
X15023Y6794D01*
X15025Y6795D01*
X15027Y6797D01*
X15030Y6799D01*
X15031Y6801D01*
X15033Y6803D01*
X15034Y6806D01*
X15036Y6808D01*
X15036Y6811D01*
X15037Y6813D01*
X15038Y6816D01*
X15039Y6819D01*
X15039Y6822D01*
X15039Y6825D01*
X15039Y9250D01*
X15039Y9253D01*
X15039Y9255D01*
X15038Y9258D01*
X15038Y9261D01*
X15037Y9263D01*
X15036Y9266D01*
X15034Y9268D01*
X15033Y9271D01*
X15031Y9273D01*
X15030Y9275D01*
X15028Y9277D01*
X15026Y9280D01*
X15024Y9281D01*
X15022Y9283D01*
X15019Y9284D01*
X15017Y9286D01*
X15014Y9286D01*
X15012Y9287D01*
X15009Y9288D01*
X15006Y9289D01*
X15003Y9289D01*
X15000Y9289D01*
X14841Y9289D01*
X14841Y12765D01*
X14841Y12766D01*
X14841Y12767D01*
X14840Y12774D01*
X14840Y12781D01*
X14840Y12782D01*
X14839Y12783D01*
X14837Y12789D01*
X14835Y12796D01*
X14835Y12797D01*
X14834Y12798D01*
X14831Y12804D01*
X14828Y12810D01*
X14827Y12810D01*
X14826Y12811D01*
X14822Y12816D01*
X14817Y12822D01*
X14816Y12823D01*
X14811Y12827D01*
X14805Y12832D01*
X14804Y12832D01*
X14803Y12833D01*
X14797Y12836D01*
X14791Y12839D01*
X14790Y12839D01*
X14789Y12840D01*
X14783Y12841D01*
X14776Y12843D01*
X14775Y12843D01*
X14774Y12843D01*
X14762Y12844D01*
X230Y12844D01*
X229Y12844D01*
X228Y12844D01*
X221Y12843D01*
X214Y12843D01*
X213Y12842D01*
X212Y12842D01*
X206Y12840D01*
X199Y12838D01*
X198Y12838D01*
X197Y12837D01*
X191Y12834D01*
X185Y12831D01*
X185Y12830D01*
X184Y12829D01*
X179Y12825D01*
X173Y12820D01*
X172Y12819D01*
X168Y12813D01*
X163Y12808D01*
X163Y12807D01*
X162Y12806D01*
X159Y12800D01*
X156Y12794D01*
X156Y12793D01*
X156Y12792D01*
X154Y12786D01*
X152Y12779D01*
X152Y12778D01*
X152Y12777D01*
X151Y12765D01*
X151Y230D01*
X151Y229D01*
X151Y228D01*
X152Y221D01*
X152Y214D01*
X153Y213D01*
X153Y212D01*
X155Y206D01*
X157Y199D01*
X157Y198D01*
X158Y197D01*
X161Y191D01*
X165Y185D01*
X166Y184D01*
X170Y179D01*
X175Y173D01*
X176Y172D01*
X182Y168D01*
X187Y163D01*
X188Y163D01*
X189Y162D01*
X195Y159D01*
X201Y156D01*
X202Y156D01*
X203Y156D01*
X210Y154D01*
X216Y152D01*
X217Y152D01*
X218Y152D01*
X230Y151D01*
X14762Y151D01*
X14763Y151D01*
G37*
%LPC*%
G36*
X5351Y7844D02*
X5351Y7844D01*
X5139Y8055D01*
X5139Y8354D01*
X5351Y8565D01*
X5431Y8565D01*
X5432Y8566D01*
X5434Y8566D01*
X5440Y8566D01*
X5447Y8567D01*
X5448Y8567D01*
X5449Y8568D01*
X5456Y8570D01*
X5462Y8572D01*
X5463Y8572D01*
X5464Y8573D01*
X5470Y8576D01*
X5476Y8579D01*
X5477Y8580D01*
X5478Y8581D01*
X5487Y8589D01*
X6835Y9937D01*
X6836Y9938D01*
X6837Y9939D01*
X6841Y9944D01*
X6845Y9949D01*
X6846Y9950D01*
X6847Y9951D01*
X6849Y9957D01*
X6852Y9963D01*
X6853Y9964D01*
X6853Y9966D01*
X6855Y9972D01*
X6857Y9978D01*
X6857Y9980D01*
X6857Y9981D01*
X6858Y9993D01*
X6858Y10061D01*
X6862Y10065D01*
X6862Y10066D01*
X6863Y10067D01*
X6866Y10073D01*
X6869Y10079D01*
X6869Y10080D01*
X6870Y10081D01*
X6872Y10087D01*
X6873Y10094D01*
X6874Y10095D01*
X6874Y10097D01*
X6875Y10108D01*
X6875Y10392D01*
X6875Y10393D01*
X6875Y10395D01*
X6874Y10401D01*
X6873Y10407D01*
X6873Y10409D01*
X6873Y10410D01*
X6870Y10416D01*
X6869Y10422D01*
X6868Y10424D01*
X6867Y10425D01*
X6864Y10431D01*
X6861Y10436D01*
X6860Y10437D01*
X6859Y10439D01*
X6858Y10440D01*
X6858Y11059D01*
X6906Y11106D01*
X7405Y11106D01*
X7428Y11083D01*
X7429Y11083D01*
X7435Y11078D01*
X7441Y11073D01*
X7448Y11069D01*
X7455Y11066D01*
X7456Y11066D01*
X7463Y11064D01*
X7470Y11062D01*
X7471Y11061D01*
X7478Y11061D01*
X7485Y11060D01*
X7486Y11060D01*
X7494Y11061D01*
X7501Y11062D01*
X7502Y11062D01*
X7509Y11065D01*
X7516Y11067D01*
X7517Y11067D01*
X7523Y11071D01*
X7530Y11074D01*
X7530Y11075D01*
X7531Y11075D01*
X7536Y11080D01*
X7542Y11085D01*
X7543Y11085D01*
X7547Y11091D01*
X7552Y11097D01*
X7552Y11098D01*
X7555Y11105D01*
X7559Y11111D01*
X7559Y11112D01*
X7561Y11119D01*
X7563Y11127D01*
X7563Y11128D01*
X7564Y11139D01*
X7564Y11332D01*
X7564Y11333D01*
X7563Y11341D01*
X7562Y11348D01*
X7562Y11349D01*
X7560Y11356D01*
X7558Y11363D01*
X7557Y11364D01*
X7553Y11370D01*
X7550Y11377D01*
X7549Y11378D01*
X7545Y11383D01*
X7540Y11389D01*
X7539Y11389D01*
X7539Y11390D01*
X7533Y11394D01*
X7527Y11399D01*
X7520Y11403D01*
X7513Y11406D01*
X7505Y11408D01*
X7498Y11410D01*
X7497Y11411D01*
X7490Y11411D01*
X7483Y11412D01*
X7482Y11411D01*
X7474Y11410D01*
X7467Y11410D01*
X7466Y11409D01*
X7459Y11407D01*
X7452Y11405D01*
X7451Y11404D01*
X7445Y11400D01*
X7438Y11397D01*
X7438Y11396D01*
X7437Y11396D01*
X7437Y11395D01*
X7411Y11381D01*
X7385Y11374D01*
X7263Y11374D01*
X7263Y11722D01*
X7263Y11723D01*
X7263Y11724D01*
X7262Y11731D01*
X7261Y11737D01*
X7261Y11738D01*
X7261Y11739D01*
X7259Y11746D01*
X7258Y11750D01*
X7258Y11751D01*
X7260Y11758D01*
X7262Y11764D01*
X7262Y11765D01*
X7262Y11766D01*
X7263Y11778D01*
X7263Y12126D01*
X7385Y12126D01*
X7411Y12119D01*
X7434Y12106D01*
X7458Y12082D01*
X7459Y12081D01*
X7460Y12081D01*
X7465Y12076D01*
X7470Y12072D01*
X7471Y12072D01*
X7472Y12071D01*
X7478Y12068D01*
X7484Y12065D01*
X7485Y12064D01*
X7486Y12064D01*
X7493Y12062D01*
X7499Y12060D01*
X7500Y12060D01*
X7501Y12060D01*
X7508Y12059D01*
X7515Y12059D01*
X7516Y12059D01*
X7517Y12059D01*
X7524Y12060D01*
X7531Y12061D01*
X7532Y12061D01*
X7533Y12061D01*
X7539Y12063D01*
X7546Y12065D01*
X7547Y12066D01*
X7548Y12066D01*
X7554Y12070D01*
X7560Y12073D01*
X7560Y12074D01*
X7561Y12074D01*
X7570Y12082D01*
X7595Y12106D01*
X8094Y12106D01*
X8142Y12059D01*
X8142Y11439D01*
X8138Y11435D01*
X8138Y11434D01*
X8137Y11433D01*
X8134Y11427D01*
X8131Y11421D01*
X8131Y11420D01*
X8130Y11419D01*
X8128Y11413D01*
X8127Y11406D01*
X8126Y11405D01*
X8126Y11403D01*
X8125Y11392D01*
X8125Y11110D01*
X8125Y11109D01*
X8125Y11108D01*
X8126Y11101D01*
X8127Y11094D01*
X8127Y11093D01*
X8127Y11092D01*
X8129Y11086D01*
X8131Y11079D01*
X8132Y11078D01*
X8132Y11077D01*
X8136Y11071D01*
X8139Y11065D01*
X8140Y11065D01*
X8140Y11064D01*
X8145Y11059D01*
X8149Y11053D01*
X8150Y11053D01*
X8151Y11052D01*
X8156Y11048D01*
X8161Y11043D01*
X8162Y11043D01*
X8163Y11042D01*
X8169Y11039D01*
X8176Y11036D01*
X8177Y11036D01*
X8184Y11034D01*
X8191Y11032D01*
X8192Y11032D01*
X8193Y11032D01*
X8204Y11031D01*
X8306Y11031D01*
X8409Y10988D01*
X8864Y10533D01*
X8907Y10430D01*
X8907Y8694D01*
X8890Y8654D01*
X8889Y8652D01*
X8889Y8650D01*
X8887Y8644D01*
X8885Y8638D01*
X8885Y8637D01*
X8885Y8635D01*
X8884Y8623D01*
X8884Y8461D01*
X8837Y8413D01*
X8415Y8413D01*
X8383Y8446D01*
X8382Y8447D01*
X8381Y8448D01*
X8375Y8452D01*
X8370Y8456D01*
X8369Y8457D01*
X8368Y8458D01*
X8362Y8460D01*
X8357Y8463D01*
X8355Y8464D01*
X8354Y8464D01*
X8348Y8466D01*
X8341Y8468D01*
X8340Y8468D01*
X8338Y8468D01*
X8327Y8469D01*
X7861Y8469D01*
X7860Y8469D01*
X7858Y8469D01*
X7852Y8468D01*
X7846Y8468D01*
X7844Y8467D01*
X7843Y8467D01*
X7837Y8465D01*
X7830Y8463D01*
X7829Y8462D01*
X7828Y8462D01*
X7822Y8459D01*
X7817Y8455D01*
X7815Y8455D01*
X7814Y8454D01*
X7805Y8446D01*
X7678Y8319D01*
X7322Y8319D01*
X7069Y8572D01*
X7069Y8928D01*
X7322Y9181D01*
X7678Y9181D01*
X7805Y9054D01*
X7806Y9053D01*
X7807Y9052D01*
X7812Y9048D01*
X7817Y9044D01*
X7819Y9043D01*
X7820Y9042D01*
X7826Y9040D01*
X7831Y9037D01*
X7833Y9036D01*
X7834Y9036D01*
X7840Y9034D01*
X7847Y9032D01*
X7848Y9032D01*
X7849Y9032D01*
X7861Y9031D01*
X8266Y9031D01*
X8267Y9031D01*
X8268Y9031D01*
X8275Y9032D01*
X8282Y9032D01*
X8283Y9033D01*
X8284Y9033D01*
X8290Y9035D01*
X8297Y9037D01*
X8298Y9037D01*
X8299Y9038D01*
X8305Y9041D01*
X8311Y9045D01*
X8312Y9046D01*
X8317Y9050D01*
X8323Y9055D01*
X8324Y9056D01*
X8328Y9062D01*
X8333Y9067D01*
X8333Y9068D01*
X8334Y9069D01*
X8337Y9075D01*
X8340Y9081D01*
X8340Y9082D01*
X8340Y9083D01*
X8342Y9090D01*
X8344Y9096D01*
X8344Y9097D01*
X8344Y9098D01*
X8345Y9110D01*
X8345Y10225D01*
X8345Y10226D01*
X8345Y10228D01*
X8344Y10234D01*
X8344Y10241D01*
X8343Y10242D01*
X8343Y10243D01*
X8341Y10250D01*
X8339Y10256D01*
X8338Y10257D01*
X8338Y10258D01*
X8335Y10264D01*
X8331Y10270D01*
X8331Y10271D01*
X8330Y10272D01*
X8322Y10281D01*
X8208Y10395D01*
X8207Y10396D01*
X8201Y10401D01*
X8196Y10405D01*
X8195Y10405D01*
X8194Y10406D01*
X8188Y10409D01*
X8182Y10412D01*
X8181Y10413D01*
X8180Y10413D01*
X8173Y10415D01*
X8167Y10417D01*
X8166Y10417D01*
X8165Y10417D01*
X8158Y10418D01*
X8151Y10418D01*
X8150Y10418D01*
X8149Y10418D01*
X8142Y10417D01*
X8135Y10416D01*
X8134Y10416D01*
X8133Y10416D01*
X8127Y10414D01*
X8120Y10412D01*
X8119Y10411D01*
X8118Y10411D01*
X8112Y10407D01*
X8106Y10404D01*
X8106Y10403D01*
X8105Y10403D01*
X8096Y10395D01*
X8094Y10394D01*
X7595Y10394D01*
X7572Y10417D01*
X7571Y10417D01*
X7565Y10422D01*
X7559Y10427D01*
X7552Y10431D01*
X7545Y10434D01*
X7544Y10434D01*
X7537Y10436D01*
X7530Y10438D01*
X7529Y10439D01*
X7522Y10439D01*
X7515Y10440D01*
X7514Y10440D01*
X7506Y10439D01*
X7499Y10438D01*
X7498Y10438D01*
X7491Y10435D01*
X7484Y10433D01*
X7483Y10433D01*
X7477Y10429D01*
X7470Y10426D01*
X7470Y10425D01*
X7469Y10425D01*
X7464Y10420D01*
X7458Y10415D01*
X7457Y10415D01*
X7453Y10409D01*
X7448Y10403D01*
X7448Y10402D01*
X7445Y10395D01*
X7441Y10389D01*
X7441Y10388D01*
X7439Y10381D01*
X7437Y10373D01*
X7437Y10372D01*
X7436Y10361D01*
X7436Y10168D01*
X7436Y10167D01*
X7437Y10159D01*
X7438Y10152D01*
X7438Y10151D01*
X7440Y10144D01*
X7442Y10137D01*
X7443Y10136D01*
X7447Y10130D01*
X7450Y10123D01*
X7451Y10122D01*
X7455Y10117D01*
X7460Y10111D01*
X7461Y10111D01*
X7461Y10110D01*
X7467Y10106D01*
X7473Y10101D01*
X7480Y10097D01*
X7487Y10094D01*
X7495Y10092D01*
X7502Y10090D01*
X7503Y10089D01*
X7510Y10089D01*
X7517Y10088D01*
X7518Y10089D01*
X7526Y10090D01*
X7533Y10090D01*
X7534Y10091D01*
X7541Y10093D01*
X7548Y10095D01*
X7549Y10096D01*
X7555Y10100D01*
X7562Y10103D01*
X7562Y10104D01*
X7563Y10104D01*
X7563Y10105D01*
X7589Y10119D01*
X7615Y10126D01*
X7737Y10126D01*
X7737Y9778D01*
X7737Y9777D01*
X7737Y9776D01*
X7738Y9769D01*
X7739Y9763D01*
X7739Y9762D01*
X7739Y9761D01*
X7741Y9754D01*
X7742Y9750D01*
X7742Y9749D01*
X7740Y9742D01*
X7738Y9736D01*
X7738Y9735D01*
X7738Y9734D01*
X7737Y9722D01*
X7737Y9374D01*
X7615Y9374D01*
X7589Y9381D01*
X7566Y9394D01*
X7542Y9418D01*
X7541Y9419D01*
X7540Y9419D01*
X7535Y9424D01*
X7530Y9428D01*
X7529Y9428D01*
X7528Y9429D01*
X7522Y9432D01*
X7516Y9435D01*
X7515Y9436D01*
X7514Y9436D01*
X7507Y9438D01*
X7501Y9440D01*
X7500Y9440D01*
X7499Y9440D01*
X7492Y9441D01*
X7485Y9441D01*
X7484Y9441D01*
X7483Y9441D01*
X7476Y9440D01*
X7469Y9439D01*
X7468Y9439D01*
X7467Y9439D01*
X7461Y9437D01*
X7454Y9435D01*
X7453Y9434D01*
X7452Y9434D01*
X7446Y9430D01*
X7440Y9427D01*
X7440Y9426D01*
X7439Y9426D01*
X7430Y9418D01*
X7405Y9394D01*
X7119Y9394D01*
X7117Y9394D01*
X7116Y9394D01*
X7110Y9393D01*
X7103Y9392D01*
X7102Y9392D01*
X7100Y9391D01*
X7094Y9389D01*
X7088Y9387D01*
X7087Y9387D01*
X7085Y9386D01*
X7080Y9383D01*
X7074Y9380D01*
X7073Y9379D01*
X7072Y9378D01*
X7063Y9370D01*
X5884Y8192D01*
X5883Y8191D01*
X5882Y8190D01*
X5878Y8184D01*
X5874Y8179D01*
X5873Y8178D01*
X5872Y8177D01*
X5870Y8171D01*
X5867Y8165D01*
X5866Y8164D01*
X5866Y8163D01*
X5864Y8157D01*
X5862Y8150D01*
X5862Y8149D01*
X5862Y8147D01*
X5861Y8136D01*
X5861Y8055D01*
X5649Y7844D01*
X5351Y7844D01*
G37*
%LPD*%
%LPC*%
G36*
X7322Y1319D02*
X7322Y1319D01*
X7069Y1572D01*
X7069Y1928D01*
X7335Y2194D01*
X7335Y2195D01*
X7336Y2195D01*
X7340Y2201D01*
X7345Y2206D01*
X7345Y2207D01*
X7346Y2208D01*
X7349Y2214D01*
X7352Y2220D01*
X7352Y2221D01*
X7353Y2222D01*
X7355Y2229D01*
X7357Y2235D01*
X7357Y2236D01*
X7357Y2237D01*
X7357Y2244D01*
X7358Y2251D01*
X7358Y2252D01*
X7358Y2253D01*
X7357Y2260D01*
X7356Y2267D01*
X7356Y2268D01*
X7356Y2269D01*
X7354Y2275D01*
X7351Y2282D01*
X7351Y2283D01*
X7347Y2289D01*
X7344Y2295D01*
X7343Y2296D01*
X7343Y2297D01*
X7335Y2306D01*
X7069Y2572D01*
X7069Y2928D01*
X7196Y3055D01*
X7197Y3056D01*
X7198Y3057D01*
X7202Y3062D01*
X7206Y3067D01*
X7207Y3069D01*
X7208Y3070D01*
X7210Y3076D01*
X7213Y3081D01*
X7214Y3083D01*
X7214Y3084D01*
X7216Y3090D01*
X7218Y3097D01*
X7218Y3098D01*
X7218Y3099D01*
X7219Y3111D01*
X7219Y3556D01*
X7262Y3659D01*
X8796Y5193D01*
X8797Y5194D01*
X8798Y5195D01*
X8802Y5200D01*
X8806Y5205D01*
X8807Y5207D01*
X8808Y5208D01*
X8810Y5214D01*
X8813Y5219D01*
X8814Y5221D01*
X8814Y5222D01*
X8816Y5228D01*
X8818Y5234D01*
X8818Y5236D01*
X8818Y5237D01*
X8819Y5249D01*
X8819Y5428D01*
X8946Y5555D01*
X8947Y5556D01*
X8948Y5557D01*
X8952Y5562D01*
X8956Y5567D01*
X8957Y5569D01*
X8958Y5570D01*
X8960Y5576D01*
X8963Y5581D01*
X8964Y5583D01*
X8964Y5584D01*
X8966Y5590D01*
X8968Y5597D01*
X8968Y5598D01*
X8968Y5599D01*
X8969Y5611D01*
X8969Y6327D01*
X8969Y6328D01*
X8969Y6330D01*
X8968Y6336D01*
X8968Y6342D01*
X8967Y6344D01*
X8967Y6345D01*
X8965Y6351D01*
X8963Y6357D01*
X8962Y6359D01*
X8962Y6360D01*
X8959Y6366D01*
X8955Y6371D01*
X8955Y6372D01*
X8954Y6374D01*
X8946Y6383D01*
X8913Y6415D01*
X8913Y6837D01*
X8961Y6884D01*
X9123Y6884D01*
X9125Y6884D01*
X9127Y6884D01*
X9133Y6885D01*
X9139Y6885D01*
X9141Y6886D01*
X9142Y6886D01*
X9154Y6890D01*
X9194Y6907D01*
X9306Y6907D01*
X9346Y6890D01*
X9348Y6889D01*
X9350Y6889D01*
X9356Y6887D01*
X9362Y6885D01*
X9363Y6885D01*
X9365Y6885D01*
X9377Y6884D01*
X9539Y6884D01*
X9587Y6837D01*
X9587Y6415D01*
X9554Y6383D01*
X9553Y6382D01*
X9552Y6381D01*
X9548Y6375D01*
X9544Y6370D01*
X9543Y6369D01*
X9542Y6368D01*
X9540Y6362D01*
X9537Y6357D01*
X9536Y6355D01*
X9536Y6354D01*
X9534Y6348D01*
X9532Y6341D01*
X9532Y6340D01*
X9532Y6338D01*
X9531Y6327D01*
X9531Y5611D01*
X9531Y5610D01*
X9531Y5608D01*
X9532Y5602D01*
X9532Y5596D01*
X9533Y5594D01*
X9533Y5593D01*
X9535Y5587D01*
X9537Y5580D01*
X9538Y5579D01*
X9538Y5578D01*
X9541Y5572D01*
X9545Y5567D01*
X9545Y5565D01*
X9546Y5564D01*
X9554Y5555D01*
X9681Y5428D01*
X9681Y5072D01*
X9428Y4819D01*
X9249Y4819D01*
X9248Y4819D01*
X9246Y4819D01*
X9240Y4818D01*
X9233Y4818D01*
X9232Y4817D01*
X9231Y4817D01*
X9224Y4815D01*
X9218Y4813D01*
X9217Y4812D01*
X9216Y4812D01*
X9210Y4809D01*
X9204Y4805D01*
X9203Y4805D01*
X9202Y4804D01*
X9193Y4796D01*
X7804Y3407D01*
X7803Y3406D01*
X7802Y3405D01*
X7798Y3400D01*
X7794Y3395D01*
X7793Y3393D01*
X7792Y3392D01*
X7790Y3386D01*
X7787Y3381D01*
X7786Y3379D01*
X7786Y3378D01*
X7784Y3372D01*
X7782Y3366D01*
X7782Y3364D01*
X7782Y3363D01*
X7781Y3351D01*
X7781Y3111D01*
X7781Y3110D01*
X7781Y3108D01*
X7782Y3102D01*
X7782Y3096D01*
X7783Y3094D01*
X7783Y3093D01*
X7785Y3087D01*
X7787Y3080D01*
X7788Y3079D01*
X7788Y3078D01*
X7791Y3072D01*
X7795Y3067D01*
X7795Y3065D01*
X7796Y3064D01*
X7804Y3055D01*
X7931Y2928D01*
X7931Y2572D01*
X7665Y2306D01*
X7665Y2305D01*
X7664Y2305D01*
X7660Y2299D01*
X7655Y2294D01*
X7655Y2293D01*
X7654Y2292D01*
X7651Y2286D01*
X7648Y2280D01*
X7648Y2279D01*
X7647Y2278D01*
X7645Y2271D01*
X7643Y2265D01*
X7643Y2264D01*
X7643Y2263D01*
X7643Y2256D01*
X7642Y2249D01*
X7642Y2248D01*
X7642Y2247D01*
X7643Y2240D01*
X7644Y2233D01*
X7644Y2232D01*
X7644Y2231D01*
X7646Y2225D01*
X7649Y2218D01*
X7649Y2217D01*
X7653Y2211D01*
X7656Y2205D01*
X7657Y2204D01*
X7657Y2203D01*
X7665Y2194D01*
X7675Y2184D01*
X7676Y2184D01*
X7676Y2183D01*
X7682Y2179D01*
X7687Y2174D01*
X7688Y2174D01*
X7689Y2173D01*
X7695Y2170D01*
X7701Y2167D01*
X7702Y2167D01*
X7703Y2166D01*
X7710Y2164D01*
X7716Y2162D01*
X7717Y2162D01*
X7718Y2162D01*
X7725Y2162D01*
X7732Y2161D01*
X7733Y2161D01*
X7734Y2161D01*
X7741Y2162D01*
X7748Y2163D01*
X7749Y2163D01*
X7750Y2163D01*
X7756Y2165D01*
X7763Y2168D01*
X7764Y2168D01*
X7765Y2168D01*
X7770Y2172D01*
X7777Y2175D01*
X7777Y2176D01*
X7778Y2176D01*
X7787Y2184D01*
X8796Y3193D01*
X8797Y3194D01*
X8798Y3195D01*
X8802Y3200D01*
X8806Y3205D01*
X8807Y3207D01*
X8808Y3208D01*
X8810Y3214D01*
X8813Y3219D01*
X8814Y3221D01*
X8814Y3222D01*
X8816Y3228D01*
X8818Y3234D01*
X8818Y3236D01*
X8818Y3237D01*
X8819Y3249D01*
X8819Y3428D01*
X9072Y3681D01*
X9428Y3681D01*
X9555Y3554D01*
X9556Y3553D01*
X9557Y3552D01*
X9562Y3548D01*
X9567Y3544D01*
X9569Y3543D01*
X9570Y3542D01*
X9576Y3540D01*
X9581Y3537D01*
X9583Y3536D01*
X9584Y3536D01*
X9590Y3534D01*
X9597Y3532D01*
X9598Y3532D01*
X9599Y3532D01*
X9611Y3531D01*
X10077Y3531D01*
X10078Y3531D01*
X10080Y3531D01*
X10086Y3532D01*
X10092Y3532D01*
X10094Y3533D01*
X10095Y3533D01*
X10101Y3535D01*
X10107Y3537D01*
X10109Y3538D01*
X10110Y3538D01*
X10116Y3541D01*
X10121Y3545D01*
X10122Y3545D01*
X10124Y3546D01*
X10133Y3554D01*
X10165Y3587D01*
X10587Y3587D01*
X10634Y3539D01*
X10634Y3377D01*
X10634Y3375D01*
X10634Y3373D01*
X10635Y3367D01*
X10635Y3361D01*
X10636Y3359D01*
X10636Y3358D01*
X10640Y3346D01*
X10657Y3306D01*
X10657Y3194D01*
X10640Y3154D01*
X10639Y3152D01*
X10639Y3150D01*
X10637Y3144D01*
X10635Y3138D01*
X10635Y3137D01*
X10635Y3135D01*
X10634Y3123D01*
X10634Y2961D01*
X10587Y2913D01*
X10165Y2913D01*
X10133Y2946D01*
X10132Y2947D01*
X10131Y2948D01*
X10125Y2952D01*
X10120Y2956D01*
X10119Y2957D01*
X10118Y2958D01*
X10112Y2960D01*
X10107Y2963D01*
X10105Y2964D01*
X10104Y2964D01*
X10098Y2966D01*
X10091Y2968D01*
X10090Y2968D01*
X10088Y2968D01*
X10077Y2969D01*
X9611Y2969D01*
X9610Y2969D01*
X9608Y2969D01*
X9602Y2968D01*
X9596Y2968D01*
X9594Y2967D01*
X9593Y2967D01*
X9587Y2965D01*
X9580Y2963D01*
X9579Y2962D01*
X9578Y2962D01*
X9572Y2959D01*
X9567Y2955D01*
X9565Y2955D01*
X9564Y2954D01*
X9555Y2946D01*
X9428Y2819D01*
X9249Y2819D01*
X9248Y2819D01*
X9246Y2819D01*
X9240Y2818D01*
X9233Y2818D01*
X9232Y2817D01*
X9231Y2817D01*
X9224Y2815D01*
X9218Y2813D01*
X9217Y2812D01*
X9216Y2812D01*
X9210Y2809D01*
X9204Y2805D01*
X9203Y2805D01*
X9202Y2804D01*
X9193Y2796D01*
X7999Y1602D01*
X7909Y1512D01*
X7859Y1491D01*
X7857Y1490D01*
X7856Y1490D01*
X7850Y1487D01*
X7845Y1484D01*
X7844Y1483D01*
X7842Y1482D01*
X7833Y1474D01*
X7678Y1319D01*
X7322Y1319D01*
G37*
%LPD*%
%LPC*%
G36*
X4659Y11262D02*
X4659Y11262D01*
X5475Y11262D01*
X5474Y11256D01*
X5450Y11148D01*
X5413Y11043D01*
X5365Y10943D01*
X5306Y10849D01*
X5237Y10763D01*
X5158Y10684D01*
X5072Y10615D01*
X4978Y10556D01*
X4878Y10508D01*
X4774Y10472D01*
X4666Y10447D01*
X4659Y10446D01*
X4659Y11262D01*
G37*
%LPD*%
%LPC*%
G36*
X4334Y605D02*
X4334Y605D01*
X4226Y629D01*
X4122Y666D01*
X4022Y714D01*
X3928Y773D01*
X3842Y842D01*
X3763Y920D01*
X3694Y1007D01*
X3635Y1101D01*
X3587Y1201D01*
X3550Y1305D01*
X3526Y1413D01*
X3525Y1419D01*
X4341Y1419D01*
X4341Y604D01*
X4334Y605D01*
G37*
%LPD*%
%LPC*%
G36*
X4334Y10447D02*
X4334Y10447D01*
X4226Y10472D01*
X4122Y10508D01*
X4022Y10556D01*
X3928Y10615D01*
X3842Y10684D01*
X3763Y10763D01*
X3694Y10849D01*
X3635Y10943D01*
X3587Y11043D01*
X3550Y11148D01*
X3526Y11256D01*
X3525Y11262D01*
X4341Y11262D01*
X4341Y10446D01*
X4334Y10447D01*
G37*
%LPD*%
%LPC*%
G36*
X4659Y1419D02*
X4659Y1419D01*
X5475Y1419D01*
X5474Y1413D01*
X5450Y1305D01*
X5413Y1201D01*
X5365Y1101D01*
X5306Y1007D01*
X5237Y920D01*
X5158Y842D01*
X5072Y773D01*
X4978Y714D01*
X4878Y666D01*
X4774Y629D01*
X4666Y605D01*
X4659Y604D01*
X4659Y1419D01*
G37*
%LPD*%
%LPC*%
G36*
X3525Y1738D02*
X3525Y1738D01*
X3526Y1744D01*
X3550Y1852D01*
X3587Y1957D01*
X3635Y2057D01*
X3694Y2151D01*
X3763Y2237D01*
X3842Y2316D01*
X3928Y2385D01*
X4022Y2444D01*
X4122Y2492D01*
X4226Y2528D01*
X4334Y2553D01*
X4341Y2554D01*
X4341Y1738D01*
X3525Y1738D01*
G37*
%LPD*%
%LPC*%
G36*
X3525Y11581D02*
X3525Y11581D01*
X3526Y11587D01*
X3550Y11695D01*
X3587Y11799D01*
X3635Y11899D01*
X3694Y11993D01*
X3763Y12080D01*
X3842Y12158D01*
X3928Y12227D01*
X4022Y12286D01*
X4122Y12334D01*
X4226Y12371D01*
X4334Y12395D01*
X4341Y12396D01*
X4341Y11581D01*
X3525Y11581D01*
G37*
%LPD*%
%LPC*%
G36*
X4659Y11581D02*
X4659Y11581D01*
X4659Y12396D01*
X4666Y12395D01*
X4774Y12371D01*
X4878Y12334D01*
X4978Y12286D01*
X5072Y12227D01*
X5158Y12158D01*
X5237Y12080D01*
X5306Y11993D01*
X5365Y11899D01*
X5413Y11799D01*
X5450Y11695D01*
X5474Y11587D01*
X5475Y11581D01*
X4659Y11581D01*
G37*
%LPD*%
%LPC*%
G36*
X4659Y1738D02*
X4659Y1738D01*
X4659Y2554D01*
X4666Y2553D01*
X4774Y2528D01*
X4878Y2492D01*
X4978Y2444D01*
X5072Y2385D01*
X5158Y2316D01*
X5237Y2237D01*
X5306Y2151D01*
X5365Y2057D01*
X5413Y1957D01*
X5450Y1852D01*
X5474Y1744D01*
X5475Y1738D01*
X4659Y1738D01*
G37*
%LPD*%
%LPC*%
G36*
X5351Y6041D02*
X5351Y6041D01*
X5139Y6252D01*
X5139Y6551D01*
X5351Y6762D01*
X5649Y6762D01*
X5861Y6551D01*
X5861Y6252D01*
X5649Y6041D01*
X5351Y6041D01*
G37*
%LPD*%
%LPC*%
G36*
X3351Y4238D02*
X3351Y4238D01*
X3139Y4449D01*
X3139Y4748D01*
X3351Y4959D01*
X3649Y4959D01*
X3861Y4748D01*
X3861Y4449D01*
X3649Y4238D01*
X3351Y4238D01*
G37*
%LPD*%
%LPC*%
G36*
X3351Y5139D02*
X3351Y5139D01*
X3139Y5351D01*
X3139Y5649D01*
X3351Y5861D01*
X3649Y5861D01*
X3861Y5649D01*
X3861Y5351D01*
X3649Y5139D01*
X3351Y5139D01*
G37*
%LPD*%
%LPC*%
G36*
X5351Y5139D02*
X5351Y5139D01*
X5139Y5351D01*
X5139Y5649D01*
X5351Y5861D01*
X5649Y5861D01*
X5861Y5649D01*
X5861Y5351D01*
X5649Y5139D01*
X5351Y5139D01*
G37*
%LPD*%
%LPC*%
G36*
X4351Y5590D02*
X4351Y5590D01*
X4139Y5801D01*
X4139Y6100D01*
X4351Y6312D01*
X4649Y6312D01*
X4861Y6100D01*
X4861Y5801D01*
X4649Y5590D01*
X4351Y5590D01*
G37*
%LPD*%
%LPC*%
G36*
X3351Y6041D02*
X3351Y6041D01*
X3139Y6252D01*
X3139Y6551D01*
X3351Y6762D01*
X3649Y6762D01*
X3861Y6551D01*
X3861Y6252D01*
X3649Y6041D01*
X3351Y6041D01*
G37*
%LPD*%
%LPC*%
G36*
X3351Y6942D02*
X3351Y6942D01*
X3139Y7154D01*
X3139Y7453D01*
X3351Y7664D01*
X3649Y7664D01*
X3861Y7453D01*
X3861Y7154D01*
X3649Y6942D01*
X3351Y6942D01*
G37*
%LPD*%
%LPC*%
G36*
X5351Y6942D02*
X5351Y6942D01*
X5139Y7154D01*
X5139Y7453D01*
X5351Y7664D01*
X5649Y7664D01*
X5861Y7453D01*
X5861Y7154D01*
X5649Y6942D01*
X5351Y6942D01*
G37*
%LPD*%
%LPC*%
G36*
X3351Y7844D02*
X3351Y7844D01*
X3139Y8055D01*
X3139Y8354D01*
X3351Y8565D01*
X3649Y8565D01*
X3861Y8354D01*
X3861Y8055D01*
X3649Y7844D01*
X3351Y7844D01*
G37*
%LPD*%
%LPC*%
G36*
X4579Y6932D02*
X4579Y6932D01*
X4579Y7675D01*
X4881Y7675D01*
X4881Y7596D01*
X4644Y7359D01*
X4643Y7358D01*
X4642Y7358D01*
X4638Y7352D01*
X4634Y7347D01*
X4633Y7346D01*
X4633Y7345D01*
X4630Y7339D01*
X4626Y7333D01*
X4626Y7332D01*
X4626Y7331D01*
X4624Y7325D01*
X4622Y7318D01*
X4622Y7317D01*
X4622Y7316D01*
X4621Y7309D01*
X4621Y7302D01*
X4621Y7301D01*
X4621Y7300D01*
X4621Y7293D01*
X4622Y7286D01*
X4623Y7286D01*
X4623Y7285D01*
X4625Y7278D01*
X4627Y7271D01*
X4628Y7271D01*
X4628Y7270D01*
X4631Y7264D01*
X4635Y7258D01*
X4635Y7257D01*
X4636Y7256D01*
X4644Y7247D01*
X4881Y7010D01*
X4881Y6932D01*
X4579Y6932D01*
G37*
%LPD*%
%LPC*%
G36*
X4579Y7833D02*
X4579Y7833D01*
X4579Y8576D01*
X4881Y8576D01*
X4881Y8498D01*
X4644Y8261D01*
X4643Y8260D01*
X4642Y8259D01*
X4638Y8254D01*
X4634Y8249D01*
X4633Y8248D01*
X4633Y8247D01*
X4630Y8241D01*
X4626Y8235D01*
X4626Y8234D01*
X4626Y8233D01*
X4624Y8226D01*
X4622Y8219D01*
X4622Y8218D01*
X4621Y8211D01*
X4621Y8204D01*
X4621Y8203D01*
X4621Y8202D01*
X4621Y8195D01*
X4622Y8188D01*
X4623Y8187D01*
X4623Y8186D01*
X4625Y8180D01*
X4627Y8173D01*
X4628Y8172D01*
X4628Y8171D01*
X4631Y8165D01*
X4635Y8159D01*
X4636Y8158D01*
X4644Y8149D01*
X4881Y7912D01*
X4881Y7833D01*
X4579Y7833D01*
G37*
%LPD*%
%LPC*%
G36*
X4119Y6932D02*
X4119Y6932D01*
X4119Y7010D01*
X4356Y7247D01*
X4357Y7248D01*
X4358Y7249D01*
X4362Y7254D01*
X4366Y7259D01*
X4367Y7260D01*
X4367Y7261D01*
X4370Y7267D01*
X4374Y7273D01*
X4374Y7274D01*
X4374Y7275D01*
X4376Y7282D01*
X4378Y7288D01*
X4378Y7289D01*
X4378Y7290D01*
X4379Y7297D01*
X4379Y7304D01*
X4379Y7305D01*
X4379Y7306D01*
X4379Y7313D01*
X4378Y7320D01*
X4377Y7321D01*
X4377Y7322D01*
X4375Y7328D01*
X4373Y7335D01*
X4372Y7336D01*
X4372Y7337D01*
X4369Y7343D01*
X4365Y7349D01*
X4364Y7350D01*
X4356Y7359D01*
X4119Y7596D01*
X4119Y7675D01*
X4421Y7675D01*
X4421Y6932D01*
X4119Y6932D01*
G37*
%LPD*%
%LPC*%
G36*
X4119Y7833D02*
X4119Y7833D01*
X4119Y7912D01*
X4356Y8149D01*
X4357Y8149D01*
X4358Y8150D01*
X4362Y8156D01*
X4366Y8161D01*
X4367Y8162D01*
X4367Y8163D01*
X4370Y8169D01*
X4374Y8175D01*
X4374Y8176D01*
X4374Y8177D01*
X4376Y8183D01*
X4378Y8190D01*
X4378Y8191D01*
X4378Y8192D01*
X4379Y8199D01*
X4379Y8206D01*
X4379Y8207D01*
X4379Y8208D01*
X4379Y8214D01*
X4378Y8221D01*
X4377Y8222D01*
X4377Y8223D01*
X4375Y8230D01*
X4373Y8236D01*
X4372Y8237D01*
X4372Y8238D01*
X4369Y8244D01*
X4365Y8250D01*
X4365Y8251D01*
X4364Y8252D01*
X4356Y8261D01*
X4119Y8498D01*
X4119Y8576D01*
X4421Y8576D01*
X4421Y7833D01*
X4119Y7833D01*
G37*
%LPD*%
%LPC*%
G36*
X4579Y8735D02*
X4579Y8735D01*
X4579Y9036D01*
X4658Y9036D01*
X4881Y8813D01*
X4881Y8735D01*
X4579Y8735D01*
G37*
%LPD*%
%LPC*%
G36*
X4579Y5128D02*
X4579Y5128D01*
X4579Y5430D01*
X4658Y5430D01*
X4881Y5207D01*
X4881Y5128D01*
X4579Y5128D01*
G37*
%LPD*%
%LPC*%
G36*
X5579Y4678D02*
X5579Y4678D01*
X5579Y4979D01*
X5658Y4979D01*
X5881Y4756D01*
X5881Y4678D01*
X5579Y4678D01*
G37*
%LPD*%
%LPC*%
G36*
X4119Y5128D02*
X4119Y5128D01*
X4119Y5207D01*
X4342Y5430D01*
X4421Y5430D01*
X4421Y5128D01*
X4119Y5128D01*
G37*
%LPD*%
%LPC*%
G36*
X4119Y8735D02*
X4119Y8735D01*
X4119Y8813D01*
X4342Y9036D01*
X4421Y9036D01*
X4421Y8735D01*
X4119Y8735D01*
G37*
%LPD*%
%LPC*%
G36*
X4579Y6472D02*
X4579Y6472D01*
X4579Y6773D01*
X4881Y6773D01*
X4881Y6695D01*
X4658Y6472D01*
X4579Y6472D01*
G37*
%LPD*%
%LPC*%
G36*
X5119Y4678D02*
X5119Y4678D01*
X5119Y4756D01*
X5342Y4979D01*
X5421Y4979D01*
X5421Y4678D01*
X5119Y4678D01*
G37*
%LPD*%
%LPC*%
G36*
X4579Y4668D02*
X4579Y4668D01*
X4579Y4970D01*
X4881Y4970D01*
X4881Y4892D01*
X4658Y4668D01*
X4579Y4668D01*
G37*
%LPD*%
%LPC*%
G36*
X5579Y4218D02*
X5579Y4218D01*
X5579Y4519D01*
X5881Y4519D01*
X5881Y4441D01*
X5658Y4218D01*
X5579Y4218D01*
G37*
%LPD*%
%LPC*%
G36*
X4342Y4668D02*
X4342Y4668D01*
X4119Y4891D01*
X4119Y4970D01*
X4421Y4970D01*
X4421Y4668D01*
X4342Y4668D01*
G37*
%LPD*%
%LPC*%
G36*
X4342Y6472D02*
X4342Y6472D01*
X4119Y6695D01*
X4119Y6773D01*
X4421Y6773D01*
X4421Y6472D01*
X4342Y6472D01*
G37*
%LPD*%
%LPC*%
G36*
X5342Y4218D02*
X5342Y4218D01*
X5119Y4441D01*
X5119Y4519D01*
X5421Y4519D01*
X5421Y4218D01*
X5342Y4218D01*
G37*
%LPD*%
%LPC*%
G36*
X11702Y5608D02*
X11702Y5608D01*
X11702Y5876D01*
X11824Y5876D01*
X11850Y5869D01*
X11873Y5856D01*
X11892Y5837D01*
X11905Y5814D01*
X11912Y5789D01*
X11912Y5608D01*
X11702Y5608D01*
G37*
%LPD*%
%LPC*%
G36*
X7952Y9858D02*
X7952Y9858D01*
X7952Y10126D01*
X8074Y10126D01*
X8100Y10119D01*
X8123Y10106D01*
X8142Y10087D01*
X8155Y10064D01*
X8162Y10039D01*
X8162Y9858D01*
X7952Y9858D01*
G37*
%LPD*%
%LPC*%
G36*
X6926Y11374D02*
X6926Y11374D01*
X6900Y11381D01*
X6877Y11394D01*
X6858Y11413D01*
X6845Y11436D01*
X6838Y11461D01*
X6838Y11642D01*
X7048Y11642D01*
X7048Y11374D01*
X6926Y11374D01*
G37*
%LPD*%
%LPC*%
G36*
X10676Y7124D02*
X10676Y7124D01*
X10650Y7131D01*
X10627Y7144D01*
X10608Y7163D01*
X10595Y7186D01*
X10588Y7211D01*
X10588Y7392D01*
X10798Y7392D01*
X10798Y7124D01*
X10676Y7124D01*
G37*
%LPD*%
%LPC*%
G36*
X11702Y5124D02*
X11702Y5124D01*
X11702Y5392D01*
X11912Y5392D01*
X11912Y5211D01*
X11905Y5186D01*
X11892Y5163D01*
X11873Y5144D01*
X11850Y5131D01*
X11824Y5124D01*
X11702Y5124D01*
G37*
%LPD*%
%LPC*%
G36*
X7952Y9374D02*
X7952Y9374D01*
X7952Y9642D01*
X8162Y9642D01*
X8162Y9461D01*
X8155Y9436D01*
X8142Y9413D01*
X8123Y9394D01*
X8100Y9381D01*
X8074Y9374D01*
X7952Y9374D01*
G37*
%LPD*%
%LPC*%
G36*
X10588Y7608D02*
X10588Y7608D01*
X10588Y7789D01*
X10595Y7814D01*
X10608Y7837D01*
X10627Y7856D01*
X10650Y7869D01*
X10676Y7876D01*
X10798Y7876D01*
X10798Y7608D01*
X10588Y7608D01*
G37*
%LPD*%
%LPC*%
G36*
X6838Y11858D02*
X6838Y11858D01*
X6838Y12039D01*
X6845Y12064D01*
X6858Y12087D01*
X6877Y12106D01*
X6900Y12119D01*
X6926Y12126D01*
X7048Y12126D01*
X7048Y11858D01*
X6838Y11858D01*
G37*
%LPD*%
%LPC*%
G36*
X9096Y8838D02*
X9096Y8838D01*
X9096Y9019D01*
X9103Y9045D01*
X9116Y9068D01*
X9135Y9087D01*
X9158Y9100D01*
X9184Y9107D01*
X9286Y9107D01*
X9286Y8838D01*
X9096Y8838D01*
G37*
%LPD*%
%LPC*%
G36*
X10846Y3338D02*
X10846Y3338D01*
X10846Y3519D01*
X10853Y3545D01*
X10866Y3568D01*
X10885Y3587D01*
X10908Y3600D01*
X10934Y3607D01*
X11036Y3607D01*
X11036Y3338D01*
X10846Y3338D01*
G37*
%LPD*%
%LPC*%
G36*
X13846Y2838D02*
X13846Y2838D01*
X13846Y3019D01*
X13853Y3045D01*
X13866Y3068D01*
X13885Y3087D01*
X13908Y3100D01*
X13934Y3107D01*
X14036Y3107D01*
X14036Y2838D01*
X13846Y2838D01*
G37*
%LPD*%
%LPC*%
G36*
X9338Y7462D02*
X9338Y7462D01*
X9338Y7652D01*
X9519Y7652D01*
X9545Y7645D01*
X9568Y7632D01*
X9587Y7613D01*
X9600Y7590D01*
X9607Y7564D01*
X9607Y7462D01*
X9338Y7462D01*
G37*
%LPD*%
%LPC*%
G36*
X9462Y8838D02*
X9462Y8838D01*
X9462Y9107D01*
X9564Y9107D01*
X9590Y9100D01*
X9613Y9087D01*
X9632Y9068D01*
X9645Y9045D01*
X9652Y9019D01*
X9652Y8838D01*
X9462Y8838D01*
G37*
%LPD*%
%LPC*%
G36*
X14212Y2838D02*
X14212Y2838D01*
X14212Y3107D01*
X14314Y3107D01*
X14340Y3100D01*
X14363Y3087D01*
X14382Y3068D01*
X14395Y3045D01*
X14402Y3019D01*
X14402Y2838D01*
X14212Y2838D01*
G37*
%LPD*%
%LPC*%
G36*
X8981Y7096D02*
X8981Y7096D01*
X8955Y7103D01*
X8932Y7116D01*
X8913Y7135D01*
X8900Y7158D01*
X8893Y7184D01*
X8893Y7286D01*
X9162Y7286D01*
X9162Y7096D01*
X8981Y7096D01*
G37*
%LPD*%
%LPC*%
G36*
X11212Y2893D02*
X11212Y2893D01*
X11212Y3162D01*
X11402Y3162D01*
X11402Y2981D01*
X11395Y2955D01*
X11382Y2932D01*
X11363Y2913D01*
X11340Y2900D01*
X11314Y2893D01*
X11212Y2893D01*
G37*
%LPD*%
%LPC*%
G36*
X8893Y7462D02*
X8893Y7462D01*
X8893Y7564D01*
X8900Y7590D01*
X8913Y7613D01*
X8932Y7632D01*
X8955Y7645D01*
X8981Y7652D01*
X9162Y7652D01*
X9162Y7462D01*
X8893Y7462D01*
G37*
%LPD*%
%LPC*%
G36*
X14212Y2393D02*
X14212Y2393D01*
X14212Y2662D01*
X14402Y2662D01*
X14402Y2481D01*
X14395Y2455D01*
X14382Y2432D01*
X14363Y2413D01*
X14340Y2400D01*
X14314Y2393D01*
X14212Y2393D01*
G37*
%LPD*%
%LPC*%
G36*
X9462Y8393D02*
X9462Y8393D01*
X9462Y8662D01*
X9652Y8662D01*
X9652Y8481D01*
X9645Y8455D01*
X9632Y8432D01*
X9613Y8413D01*
X9590Y8400D01*
X9564Y8393D01*
X9462Y8393D01*
G37*
%LPD*%
%LPC*%
G36*
X9338Y7096D02*
X9338Y7096D01*
X9338Y7286D01*
X9607Y7286D01*
X9607Y7184D01*
X9600Y7158D01*
X9587Y7135D01*
X9568Y7116D01*
X9545Y7103D01*
X9519Y7096D01*
X9338Y7096D01*
G37*
%LPD*%
%LPC*%
G36*
X10934Y2893D02*
X10934Y2893D01*
X10908Y2900D01*
X10885Y2913D01*
X10866Y2932D01*
X10853Y2955D01*
X10846Y2981D01*
X10846Y3162D01*
X11036Y3162D01*
X11036Y2893D01*
X10934Y2893D01*
G37*
%LPD*%
%LPC*%
G36*
X13934Y2393D02*
X13934Y2393D01*
X13908Y2400D01*
X13885Y2413D01*
X13866Y2432D01*
X13853Y2455D01*
X13846Y2481D01*
X13846Y2662D01*
X14036Y2662D01*
X14036Y2393D01*
X13934Y2393D01*
G37*
%LPD*%
%LPC*%
G36*
X9184Y8393D02*
X9184Y8393D01*
X9158Y8400D01*
X9135Y8413D01*
X9116Y8432D01*
X9103Y8455D01*
X9096Y8481D01*
X9096Y8662D01*
X9286Y8662D01*
X9286Y8393D01*
X9184Y8393D01*
G37*
%LPD*%
%LPC*%
G36*
X4499Y1578D02*
X4499Y1578D01*
X4499Y1579D01*
X4501Y1579D01*
X4501Y1578D01*
X4499Y1578D01*
G37*
%LPD*%
%LPC*%
G36*
X4499Y11421D02*
X4499Y11421D01*
X4499Y11422D01*
X4501Y11422D01*
X4501Y11421D01*
X4499Y11421D01*
G37*
%LPD*%
D10*
X9250Y6626D03*
X9250Y7374D03*
D11*
X10376Y3250D03*
X11124Y3250D03*
X13376Y2750D03*
X14124Y2750D03*
X8626Y8750D03*
X9374Y8750D03*
D12*
X7500Y8750D03*
X7500Y2750D03*
X9250Y5250D03*
X9250Y3250D03*
D13*
X7500Y1750D03*
X13500Y1750D03*
D14*
X11594Y5500D03*
X10906Y5500D03*
X11594Y6500D03*
X10906Y6500D03*
X11594Y7500D03*
X10906Y7500D03*
X7844Y11750D03*
X7156Y11750D03*
X7156Y10750D03*
X7844Y10750D03*
X7844Y9750D03*
X7156Y9750D03*
D15*
X5500Y8205D03*
X5500Y7303D03*
X5500Y6402D03*
X5500Y5500D03*
X5500Y4598D03*
X3500Y8205D03*
X3500Y7303D03*
X3500Y6402D03*
X3500Y5500D03*
X3500Y4598D03*
X4500Y8656D03*
X4500Y7754D03*
X4500Y6852D03*
X4500Y5951D03*
X4500Y5049D03*
D16*
X4500Y11421D03*
X4500Y1579D03*
D17*
X13868Y6500D03*
D18*
X13750Y4875D03*
X13750Y8125D03*
D19*
X14500Y7125D03*
X13750Y7125D03*
X13000Y7125D03*
X13750Y5875D03*
X14500Y5875D03*
X13000Y5875D03*
X13000Y9000D03*
X13750Y9000D03*
X14500Y9000D03*
X13000Y4000D03*
X13750Y4000D03*
X14500Y4000D03*
D20*
X500Y500D03*
X2000Y500D03*
X3500Y500D03*
X5000Y500D03*
X6500Y500D03*
X8000Y500D03*
X9500Y500D03*
X11000Y500D03*
X12500Y500D03*
X14000Y500D03*
X500Y2000D03*
X500Y3500D03*
X500Y5000D03*
X500Y6500D03*
X500Y8000D03*
X500Y9500D03*
X500Y11000D03*
X500Y12500D03*
X2000Y12500D03*
X3500Y12500D03*
X5000Y12500D03*
X6500Y12500D03*
X8000Y12500D03*
X9500Y12500D03*
X11000Y12500D03*
X12500Y12500D03*
X14000Y12500D03*
X14500Y11250D03*
X14500Y10000D03*
X14500Y1000D03*
X14500Y2250D03*
D21*
X7750Y1750D02*
X7500Y1750D01*
X7750Y1750D02*
X9250Y3250D01*
X10376Y3250D01*
X7500Y3500D02*
X7500Y2750D01*
X7500Y3500D02*
X9250Y5250D01*
X9250Y6626D01*
X10906Y6500D02*
X10906Y5500D01*
X11740Y4010D02*
X11740Y3517D01*
X12507Y2750D02*
X13376Y2750D01*
X12507Y2750D02*
X11740Y3517D01*
X10906Y4844D02*
X10906Y5500D01*
X10906Y4844D02*
X11740Y4010D01*
X13376Y2750D02*
X13376Y1874D01*
X13500Y1750D01*
X7844Y10750D02*
X7844Y11750D01*
X7844Y10750D02*
X8250Y10750D01*
X8626Y10374D02*
X8626Y8750D01*
X8626Y10374D02*
X8250Y10750D01*
X8626Y8750D02*
X7500Y8750D01*
X11594Y7500D02*
X11594Y6500D01*
D22*
X13868Y6500D01*
D21*
X7045Y9750D02*
X5500Y8205D01*
X7045Y9750D02*
X7156Y9750D01*
X7156Y10750D01*
M02*
