G04 EAGLE Gerber X2 export*
%TF.Part,Single*%
%TF.FileFunction,Copper,L2,Bot,Mixed*%
%TF.FilePolarity,Positive*%
%TF.GenerationSoftware,Autodesk,EAGLE,9.0.0*%
%TF.CreationDate,2018-05-04T14:31:41Z*%
G75*
%MOIN*%
%FSLAX34Y34*%
%LPD*%
%AMOC8*
5,1,8,0,0,1.08239X$1,22.5*%
G01*
%ADD10P,0.075767X8X292.500000*%
%ADD11P,0.075767X8X22.500000*%
%ADD12P,0.076705X8X292.500000*%
%ADD13C,0.177165*%
%ADD14C,0.023780*%
%ADD15C,0.029685*%

G36*
X14813Y151D02*
X14813Y151D01*
X14814Y151D01*
X14818Y152D01*
X14822Y152D01*
X14822Y153D01*
X14824Y153D01*
X14827Y155D01*
X14830Y157D01*
X14831Y158D01*
X14832Y158D01*
X14834Y161D01*
X14837Y164D01*
X14837Y165D01*
X14838Y166D01*
X14839Y169D01*
X14840Y173D01*
X14841Y174D01*
X14841Y175D01*
X14841Y180D01*
X14841Y12815D01*
X14841Y12816D01*
X14841Y12817D01*
X14840Y12821D01*
X14840Y12825D01*
X14839Y12825D01*
X14839Y12826D01*
X14837Y12830D01*
X14835Y12833D01*
X14835Y12834D01*
X14834Y12835D01*
X14831Y12837D01*
X14828Y12839D01*
X14827Y12840D01*
X14826Y12841D01*
X14823Y12842D01*
X14820Y12843D01*
X14819Y12843D01*
X14818Y12844D01*
X14812Y12844D01*
X180Y12844D01*
X179Y12844D01*
X178Y12844D01*
X174Y12843D01*
X171Y12843D01*
X170Y12842D01*
X169Y12842D01*
X165Y12840D01*
X162Y12838D01*
X161Y12837D01*
X158Y12834D01*
X156Y12831D01*
X155Y12830D01*
X155Y12829D01*
X153Y12826D01*
X152Y12823D01*
X152Y12821D01*
X151Y12820D01*
X151Y12815D01*
X151Y180D01*
X151Y179D01*
X151Y178D01*
X152Y174D01*
X152Y171D01*
X153Y170D01*
X153Y169D01*
X155Y165D01*
X157Y162D01*
X158Y161D01*
X161Y158D01*
X164Y156D01*
X165Y155D01*
X166Y155D01*
X169Y153D01*
X173Y152D01*
X174Y152D01*
X175Y151D01*
X180Y151D01*
X14812Y151D01*
X14813Y151D01*
G37*
%LPC*%
G36*
X3320Y4163D02*
X3320Y4163D01*
X3065Y4418D01*
X3065Y4779D01*
X3315Y5029D01*
X3316Y5030D01*
X3318Y5033D01*
X3320Y5036D01*
X3321Y5037D01*
X3321Y5038D01*
X3322Y5042D01*
X3323Y5045D01*
X3323Y5047D01*
X3323Y5048D01*
X3323Y5051D01*
X3323Y5055D01*
X3322Y5056D01*
X3322Y5057D01*
X3321Y5060D01*
X3319Y5064D01*
X3319Y5065D01*
X3318Y5066D01*
X3315Y5070D01*
X3065Y5320D01*
X3065Y5680D01*
X3315Y5930D01*
X3315Y5931D01*
X3316Y5932D01*
X3318Y5935D01*
X3320Y5938D01*
X3321Y5939D01*
X3321Y5940D01*
X3322Y5943D01*
X3323Y5947D01*
X3323Y5948D01*
X3323Y5949D01*
X3323Y5953D01*
X3323Y5957D01*
X3322Y5958D01*
X3322Y5959D01*
X3321Y5962D01*
X3319Y5966D01*
X3318Y5967D01*
X3315Y5971D01*
X3065Y6221D01*
X3065Y6582D01*
X3315Y6832D01*
X3315Y6833D01*
X3316Y6833D01*
X3318Y6836D01*
X3320Y6839D01*
X3321Y6840D01*
X3321Y6841D01*
X3322Y6845D01*
X3323Y6849D01*
X3323Y6850D01*
X3323Y6851D01*
X3323Y6854D01*
X3323Y6858D01*
X3322Y6859D01*
X3322Y6860D01*
X3321Y6864D01*
X3319Y6867D01*
X3319Y6868D01*
X3318Y6869D01*
X3315Y6873D01*
X3065Y7123D01*
X3065Y7483D01*
X3315Y7733D01*
X3315Y7734D01*
X3316Y7735D01*
X3318Y7738D01*
X3320Y7741D01*
X3321Y7742D01*
X3321Y7743D01*
X3322Y7747D01*
X3323Y7750D01*
X3323Y7751D01*
X3323Y7752D01*
X3323Y7756D01*
X3323Y7760D01*
X3322Y7761D01*
X3322Y7762D01*
X3321Y7765D01*
X3319Y7769D01*
X3319Y7770D01*
X3318Y7770D01*
X3315Y7775D01*
X3065Y8025D01*
X3065Y8385D01*
X3320Y8640D01*
X3680Y8640D01*
X3935Y8385D01*
X3935Y8025D01*
X3685Y7775D01*
X3685Y7774D01*
X3684Y7773D01*
X3682Y7770D01*
X3680Y7767D01*
X3679Y7766D01*
X3679Y7765D01*
X3678Y7761D01*
X3677Y7758D01*
X3677Y7757D01*
X3677Y7756D01*
X3677Y7752D01*
X3677Y7748D01*
X3678Y7747D01*
X3678Y7746D01*
X3679Y7743D01*
X3681Y7739D01*
X3681Y7738D01*
X3682Y7737D01*
X3685Y7733D01*
X3935Y7483D01*
X3935Y7123D01*
X3685Y6873D01*
X3685Y6872D01*
X3684Y6872D01*
X3682Y6868D01*
X3680Y6865D01*
X3679Y6864D01*
X3679Y6863D01*
X3678Y6860D01*
X3677Y6856D01*
X3677Y6855D01*
X3677Y6854D01*
X3677Y6850D01*
X3677Y6847D01*
X3678Y6846D01*
X3678Y6845D01*
X3679Y6841D01*
X3681Y6838D01*
X3681Y6837D01*
X3682Y6836D01*
X3685Y6832D01*
X3935Y6582D01*
X3935Y6221D01*
X3685Y5971D01*
X3684Y5970D01*
X3682Y5967D01*
X3680Y5964D01*
X3679Y5963D01*
X3679Y5962D01*
X3678Y5958D01*
X3677Y5955D01*
X3677Y5953D01*
X3677Y5952D01*
X3677Y5949D01*
X3677Y5945D01*
X3678Y5944D01*
X3678Y5943D01*
X3679Y5940D01*
X3681Y5936D01*
X3681Y5935D01*
X3682Y5934D01*
X3685Y5930D01*
X3935Y5680D01*
X3935Y5320D01*
X3685Y5070D01*
X3685Y5069D01*
X3684Y5068D01*
X3682Y5065D01*
X3680Y5062D01*
X3679Y5061D01*
X3679Y5060D01*
X3678Y5057D01*
X3677Y5053D01*
X3677Y5052D01*
X3677Y5051D01*
X3677Y5047D01*
X3677Y5043D01*
X3678Y5042D01*
X3678Y5041D01*
X3679Y5038D01*
X3681Y5034D01*
X3682Y5033D01*
X3685Y5029D01*
X3935Y4779D01*
X3935Y4418D01*
X3680Y4163D01*
X3320Y4163D01*
G37*
%LPD*%
%LPC*%
G36*
X5499Y4598D02*
X5499Y4598D01*
X5499Y4628D01*
X5499Y4629D01*
X5499Y4631D01*
X5498Y4634D01*
X5498Y4638D01*
X5497Y4639D01*
X5497Y4640D01*
X5495Y4643D01*
X5493Y4646D01*
X5492Y4647D01*
X5492Y4648D01*
X5489Y4650D01*
X5486Y4653D01*
X5485Y4653D01*
X5484Y4654D01*
X5481Y4655D01*
X5477Y4657D01*
X5476Y4657D01*
X5475Y4657D01*
X5470Y4658D01*
X5045Y4658D01*
X5045Y4787D01*
X5301Y5043D01*
X5301Y5044D01*
X5302Y5044D01*
X5304Y5047D01*
X5306Y5050D01*
X5307Y5051D01*
X5307Y5052D01*
X5308Y5056D01*
X5309Y5060D01*
X5309Y5061D01*
X5309Y5062D01*
X5309Y5065D01*
X5309Y5069D01*
X5308Y5070D01*
X5308Y5071D01*
X5307Y5075D01*
X5305Y5078D01*
X5305Y5079D01*
X5304Y5080D01*
X5301Y5084D01*
X5065Y5320D01*
X5065Y5680D01*
X5315Y5930D01*
X5315Y5931D01*
X5316Y5932D01*
X5318Y5935D01*
X5320Y5938D01*
X5321Y5939D01*
X5321Y5940D01*
X5322Y5943D01*
X5323Y5947D01*
X5323Y5948D01*
X5323Y5949D01*
X5323Y5953D01*
X5323Y5957D01*
X5322Y5958D01*
X5322Y5959D01*
X5321Y5962D01*
X5319Y5966D01*
X5318Y5967D01*
X5315Y5971D01*
X5065Y6221D01*
X5065Y6582D01*
X5315Y6832D01*
X5315Y6833D01*
X5316Y6833D01*
X5318Y6836D01*
X5320Y6839D01*
X5321Y6840D01*
X5321Y6841D01*
X5322Y6845D01*
X5323Y6849D01*
X5323Y6850D01*
X5323Y6851D01*
X5323Y6854D01*
X5323Y6858D01*
X5322Y6859D01*
X5322Y6860D01*
X5321Y6864D01*
X5319Y6867D01*
X5319Y6868D01*
X5318Y6869D01*
X5315Y6873D01*
X5065Y7123D01*
X5065Y7483D01*
X5315Y7733D01*
X5315Y7734D01*
X5316Y7735D01*
X5318Y7738D01*
X5320Y7741D01*
X5321Y7742D01*
X5321Y7743D01*
X5322Y7747D01*
X5323Y7750D01*
X5323Y7751D01*
X5323Y7752D01*
X5323Y7756D01*
X5323Y7760D01*
X5322Y7761D01*
X5322Y7762D01*
X5321Y7765D01*
X5319Y7769D01*
X5319Y7770D01*
X5318Y7770D01*
X5315Y7775D01*
X5065Y8025D01*
X5065Y8385D01*
X5320Y8640D01*
X5680Y8640D01*
X5935Y8385D01*
X5935Y8025D01*
X5685Y7775D01*
X5685Y7774D01*
X5684Y7773D01*
X5682Y7770D01*
X5680Y7767D01*
X5679Y7766D01*
X5679Y7765D01*
X5678Y7761D01*
X5677Y7758D01*
X5677Y7757D01*
X5677Y7756D01*
X5677Y7752D01*
X5677Y7748D01*
X5678Y7747D01*
X5678Y7746D01*
X5679Y7743D01*
X5681Y7739D01*
X5681Y7738D01*
X5682Y7737D01*
X5685Y7733D01*
X5935Y7483D01*
X5935Y7123D01*
X5685Y6873D01*
X5685Y6872D01*
X5684Y6872D01*
X5682Y6868D01*
X5680Y6865D01*
X5679Y6864D01*
X5679Y6863D01*
X5678Y6860D01*
X5677Y6856D01*
X5677Y6855D01*
X5677Y6854D01*
X5677Y6850D01*
X5677Y6847D01*
X5678Y6846D01*
X5678Y6845D01*
X5679Y6841D01*
X5681Y6838D01*
X5681Y6837D01*
X5682Y6836D01*
X5685Y6832D01*
X5935Y6582D01*
X5935Y6221D01*
X5685Y5971D01*
X5684Y5970D01*
X5682Y5967D01*
X5680Y5964D01*
X5679Y5963D01*
X5679Y5962D01*
X5678Y5958D01*
X5677Y5955D01*
X5677Y5953D01*
X5677Y5952D01*
X5677Y5949D01*
X5677Y5945D01*
X5678Y5944D01*
X5678Y5943D01*
X5679Y5940D01*
X5681Y5936D01*
X5681Y5935D01*
X5682Y5934D01*
X5685Y5930D01*
X5935Y5680D01*
X5935Y5320D01*
X5699Y5084D01*
X5699Y5083D01*
X5698Y5083D01*
X5696Y5079D01*
X5694Y5076D01*
X5693Y5075D01*
X5693Y5074D01*
X5692Y5071D01*
X5691Y5067D01*
X5691Y5066D01*
X5691Y5065D01*
X5691Y5061D01*
X5691Y5058D01*
X5692Y5057D01*
X5692Y5055D01*
X5693Y5052D01*
X5695Y5049D01*
X5695Y5048D01*
X5696Y5047D01*
X5699Y5043D01*
X5955Y4787D01*
X5955Y4658D01*
X5530Y4658D01*
X5529Y4658D01*
X5528Y4658D01*
X5524Y4657D01*
X5521Y4656D01*
X5520Y4656D01*
X5519Y4655D01*
X5515Y4653D01*
X5512Y4652D01*
X5511Y4651D01*
X5511Y4650D01*
X5508Y4647D01*
X5506Y4645D01*
X5505Y4644D01*
X5505Y4643D01*
X5503Y4639D01*
X5502Y4636D01*
X5502Y4635D01*
X5501Y4634D01*
X5501Y4628D01*
X5501Y4598D01*
X5499Y4598D01*
G37*
%LPD*%
%LPC*%
G36*
X4499Y5048D02*
X4499Y5048D01*
X4499Y5079D01*
X4499Y5080D01*
X4499Y5081D01*
X4498Y5085D01*
X4498Y5089D01*
X4497Y5090D01*
X4497Y5091D01*
X4495Y5094D01*
X4493Y5097D01*
X4492Y5098D01*
X4492Y5099D01*
X4489Y5101D01*
X4486Y5104D01*
X4485Y5104D01*
X4484Y5105D01*
X4481Y5106D01*
X4477Y5108D01*
X4476Y5108D01*
X4475Y5108D01*
X4470Y5108D01*
X4045Y5108D01*
X4045Y5238D01*
X4301Y5493D01*
X4301Y5494D01*
X4302Y5495D01*
X4304Y5498D01*
X4306Y5501D01*
X4307Y5502D01*
X4307Y5503D01*
X4308Y5507D01*
X4309Y5510D01*
X4309Y5511D01*
X4309Y5512D01*
X4309Y5516D01*
X4309Y5520D01*
X4308Y5521D01*
X4308Y5522D01*
X4307Y5525D01*
X4305Y5529D01*
X4305Y5530D01*
X4304Y5531D01*
X4301Y5535D01*
X4065Y5771D01*
X4065Y6131D01*
X4301Y6367D01*
X4301Y6368D01*
X4302Y6368D01*
X4304Y6371D01*
X4306Y6375D01*
X4307Y6376D01*
X4308Y6380D01*
X4309Y6384D01*
X4309Y6385D01*
X4309Y6386D01*
X4309Y6389D01*
X4309Y6393D01*
X4308Y6394D01*
X4308Y6395D01*
X4307Y6399D01*
X4305Y6402D01*
X4305Y6403D01*
X4304Y6404D01*
X4301Y6408D01*
X4045Y6664D01*
X4045Y6793D01*
X4470Y6793D01*
X4471Y6793D01*
X4472Y6793D01*
X4476Y6794D01*
X4479Y6795D01*
X4480Y6795D01*
X4481Y6795D01*
X4485Y6797D01*
X4488Y6799D01*
X4489Y6800D01*
X4489Y6801D01*
X4492Y6803D01*
X4494Y6806D01*
X4495Y6807D01*
X4495Y6808D01*
X4497Y6812D01*
X4498Y6815D01*
X4498Y6816D01*
X4499Y6817D01*
X4499Y6822D01*
X4499Y6853D01*
X4501Y6853D01*
X4501Y6822D01*
X4501Y6821D01*
X4501Y6820D01*
X4502Y6817D01*
X4502Y6813D01*
X4503Y6812D01*
X4503Y6811D01*
X4505Y6808D01*
X4507Y6804D01*
X4508Y6804D01*
X4508Y6803D01*
X4511Y6801D01*
X4514Y6798D01*
X4515Y6798D01*
X4516Y6797D01*
X4519Y6796D01*
X4523Y6794D01*
X4524Y6794D01*
X4525Y6794D01*
X4530Y6793D01*
X4955Y6793D01*
X4955Y6664D01*
X4699Y6408D01*
X4699Y6407D01*
X4698Y6407D01*
X4696Y6403D01*
X4694Y6400D01*
X4693Y6399D01*
X4693Y6398D01*
X4692Y6395D01*
X4691Y6391D01*
X4691Y6390D01*
X4691Y6389D01*
X4691Y6385D01*
X4691Y6382D01*
X4692Y6381D01*
X4692Y6380D01*
X4693Y6376D01*
X4695Y6373D01*
X4695Y6372D01*
X4696Y6371D01*
X4699Y6367D01*
X4935Y6131D01*
X4935Y5771D01*
X4699Y5535D01*
X4699Y5534D01*
X4698Y5533D01*
X4696Y5530D01*
X4694Y5527D01*
X4693Y5526D01*
X4693Y5525D01*
X4692Y5521D01*
X4691Y5518D01*
X4691Y5517D01*
X4691Y5516D01*
X4691Y5512D01*
X4691Y5508D01*
X4692Y5507D01*
X4692Y5506D01*
X4693Y5503D01*
X4695Y5499D01*
X4696Y5498D01*
X4699Y5493D01*
X4955Y5238D01*
X4955Y5108D01*
X4530Y5108D01*
X4529Y5108D01*
X4528Y5108D01*
X4524Y5108D01*
X4521Y5107D01*
X4520Y5106D01*
X4519Y5106D01*
X4515Y5104D01*
X4512Y5102D01*
X4511Y5102D01*
X4511Y5101D01*
X4508Y5098D01*
X4506Y5095D01*
X4505Y5094D01*
X4503Y5090D01*
X4502Y5087D01*
X4502Y5086D01*
X4501Y5085D01*
X4501Y5079D01*
X4501Y5048D01*
X4499Y5048D01*
G37*
%LPD*%
%LPC*%
G36*
X4559Y11481D02*
X4559Y11481D01*
X4559Y12407D01*
X4666Y12395D01*
X4774Y12371D01*
X4878Y12334D01*
X4978Y12286D01*
X5072Y12227D01*
X5158Y12158D01*
X5237Y12080D01*
X5306Y11993D01*
X5365Y11899D01*
X5413Y11799D01*
X5450Y11695D01*
X5474Y11587D01*
X5486Y11481D01*
X4559Y11481D01*
G37*
%LPD*%
%LPC*%
G36*
X4334Y605D02*
X4334Y605D01*
X4226Y629D01*
X4122Y666D01*
X4022Y714D01*
X3928Y773D01*
X3842Y842D01*
X3763Y920D01*
X3694Y1007D01*
X3635Y1101D01*
X3587Y1201D01*
X3550Y1305D01*
X3526Y1413D01*
X3514Y1519D01*
X4441Y1519D01*
X4441Y593D01*
X4334Y605D01*
G37*
%LPD*%
%LPC*%
G36*
X4559Y1519D02*
X4559Y1519D01*
X5486Y1519D01*
X5474Y1413D01*
X5450Y1305D01*
X5413Y1201D01*
X5365Y1101D01*
X5306Y1007D01*
X5237Y920D01*
X5158Y842D01*
X5072Y773D01*
X4978Y714D01*
X4878Y666D01*
X4774Y629D01*
X4666Y605D01*
X4559Y593D01*
X4559Y1519D01*
G37*
%LPD*%
%LPC*%
G36*
X3514Y1638D02*
X3514Y1638D01*
X3526Y1744D01*
X3550Y1852D01*
X3587Y1957D01*
X3635Y2057D01*
X3694Y2151D01*
X3763Y2237D01*
X3842Y2316D01*
X3928Y2385D01*
X4022Y2444D01*
X4122Y2492D01*
X4226Y2528D01*
X4334Y2553D01*
X4441Y2565D01*
X4441Y1638D01*
X3514Y1638D01*
G37*
%LPD*%
%LPC*%
G36*
X4559Y1638D02*
X4559Y1638D01*
X4559Y2565D01*
X4666Y2553D01*
X4774Y2528D01*
X4878Y2492D01*
X4978Y2444D01*
X5072Y2385D01*
X5158Y2316D01*
X5237Y2237D01*
X5306Y2151D01*
X5365Y2057D01*
X5413Y1957D01*
X5450Y1852D01*
X5474Y1744D01*
X5486Y1638D01*
X4559Y1638D01*
G37*
%LPD*%
%LPC*%
G36*
X3514Y11481D02*
X3514Y11481D01*
X3526Y11587D01*
X3550Y11695D01*
X3587Y11799D01*
X3635Y11899D01*
X3694Y11993D01*
X3763Y12080D01*
X3842Y12158D01*
X3928Y12227D01*
X4022Y12286D01*
X4122Y12334D01*
X4226Y12371D01*
X4334Y12395D01*
X4441Y12407D01*
X4441Y11481D01*
X3514Y11481D01*
G37*
%LPD*%
%LPC*%
G36*
X4559Y11362D02*
X4559Y11362D01*
X5486Y11362D01*
X5474Y11256D01*
X5450Y11148D01*
X5413Y11043D01*
X5365Y10943D01*
X5306Y10849D01*
X5237Y10763D01*
X5158Y10684D01*
X5072Y10615D01*
X4978Y10556D01*
X4878Y10508D01*
X4774Y10472D01*
X4666Y10447D01*
X4559Y10435D01*
X4559Y11362D01*
G37*
%LPD*%
%LPC*%
G36*
X4334Y10447D02*
X4334Y10447D01*
X4226Y10472D01*
X4122Y10508D01*
X4022Y10556D01*
X3928Y10615D01*
X3842Y10684D01*
X3763Y10763D01*
X3694Y10849D01*
X3635Y10943D01*
X3587Y11043D01*
X3550Y11148D01*
X3526Y11256D01*
X3514Y11362D01*
X4441Y11362D01*
X4441Y10435D01*
X4334Y10447D01*
G37*
%LPD*%
%LPC*%
G36*
X7322Y1319D02*
X7322Y1319D01*
X7069Y1572D01*
X7069Y1928D01*
X7322Y2181D01*
X7678Y2181D01*
X7931Y1928D01*
X7931Y1572D01*
X7678Y1319D01*
X7322Y1319D01*
G37*
%LPD*%
%LPC*%
G36*
X7322Y8319D02*
X7322Y8319D01*
X7069Y8572D01*
X7069Y8928D01*
X7322Y9181D01*
X7678Y9181D01*
X7931Y8928D01*
X7931Y8572D01*
X7678Y8319D01*
X7322Y8319D01*
G37*
%LPD*%
%LPC*%
G36*
X9072Y4819D02*
X9072Y4819D01*
X8819Y5072D01*
X8819Y5428D01*
X9072Y5681D01*
X9428Y5681D01*
X9681Y5428D01*
X9681Y5072D01*
X9428Y4819D01*
X9072Y4819D01*
G37*
%LPD*%
%LPC*%
G36*
X13322Y1319D02*
X13322Y1319D01*
X13069Y1572D01*
X13069Y1928D01*
X13322Y2181D01*
X13678Y2181D01*
X13931Y1928D01*
X13931Y1572D01*
X13678Y1319D01*
X13322Y1319D01*
G37*
%LPD*%
%LPC*%
G36*
X7322Y2319D02*
X7322Y2319D01*
X7069Y2572D01*
X7069Y2928D01*
X7322Y3181D01*
X7678Y3181D01*
X7931Y2928D01*
X7931Y2572D01*
X7678Y2319D01*
X7322Y2319D01*
G37*
%LPD*%
%LPC*%
G36*
X9072Y2819D02*
X9072Y2819D01*
X8819Y3072D01*
X8819Y3428D01*
X9072Y3681D01*
X9428Y3681D01*
X9681Y3428D01*
X9681Y3072D01*
X9428Y2819D01*
X9072Y2819D01*
G37*
%LPD*%
%LPC*%
G36*
X4559Y7813D02*
X4559Y7813D01*
X4559Y8596D01*
X4955Y8596D01*
X4955Y8467D01*
X4713Y8225D01*
X4712Y8224D01*
X4710Y8221D01*
X4708Y8218D01*
X4708Y8217D01*
X4707Y8216D01*
X4706Y8212D01*
X4705Y8208D01*
X4705Y8207D01*
X4705Y8206D01*
X4705Y8203D01*
X4705Y8199D01*
X4706Y8198D01*
X4706Y8197D01*
X4708Y8193D01*
X4709Y8190D01*
X4710Y8189D01*
X4710Y8188D01*
X4713Y8184D01*
X4955Y7942D01*
X4955Y7813D01*
X4559Y7813D01*
G37*
%LPD*%
%LPC*%
G36*
X4559Y6912D02*
X4559Y6912D01*
X4559Y7695D01*
X4955Y7695D01*
X4955Y7565D01*
X4713Y7324D01*
X4713Y7323D01*
X4712Y7322D01*
X4710Y7319D01*
X4708Y7316D01*
X4708Y7315D01*
X4707Y7314D01*
X4706Y7310D01*
X4705Y7307D01*
X4705Y7306D01*
X4705Y7305D01*
X4705Y7301D01*
X4705Y7297D01*
X4706Y7296D01*
X4706Y7295D01*
X4708Y7292D01*
X4709Y7288D01*
X4710Y7288D01*
X4710Y7287D01*
X4713Y7282D01*
X4955Y7041D01*
X4955Y6912D01*
X4559Y6912D01*
G37*
%LPD*%
%LPC*%
G36*
X4045Y7813D02*
X4045Y7813D01*
X4045Y7942D01*
X4287Y8184D01*
X4287Y8185D01*
X4288Y8186D01*
X4290Y8189D01*
X4292Y8192D01*
X4292Y8193D01*
X4293Y8194D01*
X4294Y8197D01*
X4295Y8201D01*
X4295Y8202D01*
X4295Y8203D01*
X4295Y8207D01*
X4295Y8211D01*
X4294Y8212D01*
X4294Y8213D01*
X4292Y8216D01*
X4291Y8219D01*
X4290Y8220D01*
X4290Y8221D01*
X4287Y8225D01*
X4045Y8467D01*
X4045Y8596D01*
X4441Y8596D01*
X4441Y7813D01*
X4045Y7813D01*
G37*
%LPD*%
%LPC*%
G36*
X4045Y6912D02*
X4045Y6912D01*
X4045Y7041D01*
X4287Y7282D01*
X4287Y7283D01*
X4288Y7284D01*
X4290Y7287D01*
X4292Y7290D01*
X4292Y7291D01*
X4293Y7292D01*
X4294Y7296D01*
X4295Y7299D01*
X4295Y7300D01*
X4295Y7301D01*
X4295Y7305D01*
X4295Y7309D01*
X4294Y7310D01*
X4294Y7311D01*
X4292Y7314D01*
X4291Y7318D01*
X4290Y7319D01*
X4290Y7320D01*
X4287Y7324D01*
X4045Y7565D01*
X4045Y7695D01*
X4441Y7695D01*
X4441Y6912D01*
X4045Y6912D01*
G37*
%LPD*%
%LPC*%
G36*
X4559Y8715D02*
X4559Y8715D01*
X4559Y9111D01*
X4688Y9111D01*
X4955Y8844D01*
X4955Y8715D01*
X4559Y8715D01*
G37*
%LPD*%
%LPC*%
G36*
X4045Y8715D02*
X4045Y8715D01*
X4045Y8844D01*
X4311Y9111D01*
X4441Y9111D01*
X4441Y8715D01*
X4045Y8715D01*
G37*
%LPD*%
%LPC*%
G36*
X5559Y4143D02*
X5559Y4143D01*
X5559Y4539D01*
X5955Y4539D01*
X5955Y4410D01*
X5689Y4143D01*
X5559Y4143D01*
G37*
%LPD*%
%LPC*%
G36*
X4559Y4594D02*
X4559Y4594D01*
X4559Y4990D01*
X4955Y4990D01*
X4955Y4861D01*
X4689Y4594D01*
X4559Y4594D01*
G37*
%LPD*%
%LPC*%
G36*
X5311Y4143D02*
X5311Y4143D01*
X5045Y4410D01*
X5045Y4539D01*
X5441Y4539D01*
X5441Y4143D01*
X5311Y4143D01*
G37*
%LPD*%
%LPC*%
G36*
X4311Y4594D02*
X4311Y4594D01*
X4045Y4861D01*
X4045Y4990D01*
X4441Y4990D01*
X4441Y4594D01*
X4311Y4594D01*
G37*
%LPD*%
%LPC*%
G36*
X4499Y7753D02*
X4499Y7753D01*
X4499Y7755D01*
X4501Y7755D01*
X4501Y7753D01*
X4499Y7753D01*
G37*
%LPD*%
%LPC*%
G36*
X4499Y1578D02*
X4499Y1578D01*
X4499Y1579D01*
X4501Y1579D01*
X4501Y1578D01*
X4499Y1578D01*
G37*
%LPD*%
%LPC*%
G36*
X4499Y11421D02*
X4499Y11421D01*
X4499Y11422D01*
X4501Y11422D01*
X4501Y11421D01*
X4499Y11421D01*
G37*
%LPD*%
%LPC*%
G36*
X4499Y8655D02*
X4499Y8655D01*
X4499Y8656D01*
X4501Y8656D01*
X4501Y8655D01*
X4499Y8655D01*
G37*
%LPD*%
D10*
X7500Y8750D03*
X7500Y2750D03*
X9250Y5250D03*
X9250Y3250D03*
D11*
X7500Y1750D03*
X13500Y1750D03*
D12*
X5500Y8205D03*
X5500Y7303D03*
X5500Y6402D03*
X5500Y5500D03*
X5500Y4598D03*
X3500Y8205D03*
X3500Y7303D03*
X3500Y6402D03*
X3500Y5500D03*
X3500Y4598D03*
X4500Y8656D03*
X4500Y7754D03*
X4500Y6852D03*
X4500Y5951D03*
X4500Y5049D03*
D13*
X4500Y11421D03*
X4500Y1579D03*
D14*
X14500Y7125D03*
X13750Y7125D03*
X13000Y7125D03*
X13750Y5875D03*
X14500Y5875D03*
X13000Y5875D03*
X13000Y9000D03*
X13750Y9000D03*
X14500Y9000D03*
X13000Y4000D03*
X13750Y4000D03*
X14500Y4000D03*
D15*
X500Y500D03*
X2000Y500D03*
X3500Y500D03*
X5000Y500D03*
X6500Y500D03*
X8000Y500D03*
X9500Y500D03*
X11000Y500D03*
X12500Y500D03*
X14000Y500D03*
X500Y2000D03*
X500Y3500D03*
X500Y5000D03*
X500Y6500D03*
X500Y8000D03*
X500Y9500D03*
X500Y11000D03*
X500Y12500D03*
X2000Y12500D03*
X3500Y12500D03*
X5000Y12500D03*
X6500Y12500D03*
X8000Y12500D03*
X9500Y12500D03*
X11000Y12500D03*
X12500Y12500D03*
X14000Y12500D03*
X14500Y11250D03*
X14500Y10000D03*
X14500Y1000D03*
X14500Y2250D03*
M02*
