G04 EAGLE Gerber X2 export*
%TF.Part,Single*%
%TF.FileFunction,Copper,L1,Top,Mixed*%
%TF.FilePolarity,Positive*%
%TF.GenerationSoftware,Autodesk,EAGLE,9.0.0*%
%TF.CreationDate,2018-05-01T03:21:36Z*%
G75*
%MOIN*%
%FSLAX34Y34*%
%LPD*%
%AMOC8*
5,1,8,0,0,1.08239X$1,22.5*%
G01*
%ADD10R,0.051181X0.035433*%
%ADD11R,0.035433X0.051181*%
%ADD12P,0.075767X8X292.500000*%
%ADD13P,0.075767X8X22.500000*%
%ADD14R,0.043307X0.055118*%
%ADD15P,0.060614X8X292.500000*%
%ADD16R,0.250000X0.100000*%
%ADD17R,0.250000X0.175000*%
%ADD18C,0.029685*%
%ADD19C,0.040000*%

G36*
X14813Y151D02*
X14813Y151D01*
X14814Y151D01*
X14818Y152D01*
X14822Y152D01*
X14822Y153D01*
X14824Y153D01*
X14827Y155D01*
X14830Y157D01*
X14831Y158D01*
X14832Y158D01*
X14834Y161D01*
X14837Y164D01*
X14837Y165D01*
X14838Y166D01*
X14839Y169D01*
X14840Y173D01*
X14841Y174D01*
X14841Y175D01*
X14841Y180D01*
X14841Y3595D01*
X14841Y3596D01*
X14841Y3597D01*
X14840Y3601D01*
X14840Y3604D01*
X14839Y3605D01*
X14839Y3606D01*
X14837Y3610D01*
X14835Y3613D01*
X14835Y3614D01*
X14834Y3614D01*
X14831Y3617D01*
X14828Y3619D01*
X14827Y3620D01*
X14826Y3620D01*
X14823Y3622D01*
X14820Y3623D01*
X14819Y3623D01*
X14818Y3624D01*
X14812Y3624D01*
X12500Y3624D01*
X12499Y3625D01*
X12499Y5720D01*
X12499Y5721D01*
X12499Y5722D01*
X12498Y5726D01*
X12498Y5729D01*
X12497Y5730D01*
X12497Y5731D01*
X12495Y5735D01*
X12493Y5738D01*
X12492Y5739D01*
X12489Y5742D01*
X12486Y5744D01*
X12485Y5745D01*
X12484Y5745D01*
X12481Y5747D01*
X12477Y5748D01*
X12476Y5748D01*
X12475Y5749D01*
X12470Y5749D01*
X12250Y5749D01*
X12249Y5750D01*
X12249Y6210D01*
X12249Y6211D01*
X12249Y6212D01*
X12248Y6216D01*
X12248Y6219D01*
X12247Y6220D01*
X12247Y6221D01*
X12245Y6225D01*
X12243Y6228D01*
X12242Y6229D01*
X12239Y6232D01*
X12236Y6234D01*
X12235Y6235D01*
X12234Y6235D01*
X12231Y6237D01*
X12227Y6238D01*
X12226Y6238D01*
X12225Y6239D01*
X12220Y6239D01*
X11901Y6239D01*
X11900Y6239D01*
X11899Y6239D01*
X11895Y6238D01*
X11892Y6238D01*
X11891Y6237D01*
X11890Y6237D01*
X11886Y6235D01*
X11883Y6233D01*
X11882Y6232D01*
X11879Y6229D01*
X11877Y6226D01*
X11876Y6225D01*
X11876Y6224D01*
X11874Y6221D01*
X11873Y6217D01*
X11873Y6216D01*
X11872Y6215D01*
X11872Y6210D01*
X11872Y6199D01*
X11836Y6164D01*
X11353Y6164D01*
X11317Y6199D01*
X11317Y6801D01*
X11325Y6809D01*
X11327Y6812D01*
X11330Y6815D01*
X11330Y6816D01*
X11331Y6816D01*
X11332Y6820D01*
X11333Y6824D01*
X11333Y6825D01*
X11333Y6826D01*
X11334Y6829D01*
X11334Y7171D01*
X11334Y7172D01*
X11334Y7173D01*
X11333Y7175D01*
X11333Y7178D01*
X11332Y7179D01*
X11332Y7180D01*
X11332Y7181D01*
X11331Y7182D01*
X11330Y7184D01*
X11329Y7187D01*
X11328Y7188D01*
X11327Y7189D01*
X11326Y7190D01*
X11325Y7191D01*
X11317Y7199D01*
X11317Y7801D01*
X11353Y7836D01*
X11836Y7836D01*
X11872Y7801D01*
X11872Y7199D01*
X11864Y7191D01*
X11862Y7189D01*
X11860Y7187D01*
X11860Y7186D01*
X11859Y7185D01*
X11859Y7184D01*
X11858Y7184D01*
X11857Y7181D01*
X11856Y7178D01*
X11856Y7177D01*
X11856Y7176D01*
X11856Y7175D01*
X11855Y7174D01*
X11856Y7174D01*
X11855Y7171D01*
X11855Y6829D01*
X11856Y6825D01*
X11856Y6822D01*
X11857Y6821D01*
X11857Y6820D01*
X11859Y6816D01*
X11860Y6813D01*
X11861Y6812D01*
X11862Y6811D01*
X11864Y6809D01*
X11872Y6801D01*
X11872Y6790D01*
X11872Y6789D01*
X11872Y6788D01*
X11873Y6784D01*
X11873Y6781D01*
X11874Y6780D01*
X11874Y6779D01*
X11876Y6775D01*
X11878Y6772D01*
X11879Y6771D01*
X11882Y6768D01*
X11885Y6766D01*
X11886Y6765D01*
X11887Y6765D01*
X11890Y6763D01*
X11894Y6762D01*
X11895Y6762D01*
X11896Y6761D01*
X11901Y6761D01*
X12220Y6761D01*
X12221Y6761D01*
X12222Y6761D01*
X12226Y6762D01*
X12229Y6762D01*
X12230Y6763D01*
X12231Y6763D01*
X12235Y6765D01*
X12238Y6767D01*
X12239Y6768D01*
X12242Y6771D01*
X12244Y6774D01*
X12245Y6775D01*
X12245Y6776D01*
X12247Y6779D01*
X12248Y6783D01*
X12248Y6784D01*
X12249Y6785D01*
X12249Y6790D01*
X12249Y7250D01*
X12250Y7251D01*
X12470Y7251D01*
X12471Y7251D01*
X12472Y7251D01*
X12476Y7252D01*
X12479Y7252D01*
X12480Y7253D01*
X12481Y7253D01*
X12485Y7255D01*
X12488Y7257D01*
X12489Y7258D01*
X12492Y7261D01*
X12494Y7264D01*
X12495Y7265D01*
X12495Y7266D01*
X12497Y7269D01*
X12498Y7273D01*
X12498Y7274D01*
X12499Y7275D01*
X12499Y7280D01*
X12499Y9375D01*
X12500Y9376D01*
X14812Y9376D01*
X14813Y9376D01*
X14814Y9376D01*
X14818Y9377D01*
X14822Y9377D01*
X14822Y9378D01*
X14824Y9378D01*
X14827Y9380D01*
X14830Y9382D01*
X14831Y9383D01*
X14832Y9383D01*
X14834Y9386D01*
X14837Y9389D01*
X14837Y9390D01*
X14838Y9391D01*
X14839Y9394D01*
X14840Y9398D01*
X14841Y9399D01*
X14841Y9400D01*
X14841Y9405D01*
X14841Y12815D01*
X14841Y12816D01*
X14841Y12817D01*
X14840Y12821D01*
X14840Y12825D01*
X14839Y12825D01*
X14839Y12826D01*
X14837Y12830D01*
X14835Y12833D01*
X14835Y12834D01*
X14834Y12835D01*
X14831Y12837D01*
X14828Y12839D01*
X14827Y12840D01*
X14826Y12841D01*
X14823Y12842D01*
X14820Y12843D01*
X14819Y12843D01*
X14818Y12844D01*
X14812Y12844D01*
X180Y12844D01*
X179Y12844D01*
X178Y12844D01*
X174Y12843D01*
X171Y12843D01*
X170Y12842D01*
X169Y12842D01*
X165Y12840D01*
X162Y12838D01*
X161Y12837D01*
X158Y12834D01*
X156Y12831D01*
X155Y12830D01*
X155Y12829D01*
X153Y12826D01*
X152Y12823D01*
X152Y12821D01*
X151Y12820D01*
X151Y12815D01*
X151Y180D01*
X151Y179D01*
X151Y178D01*
X152Y174D01*
X152Y171D01*
X153Y170D01*
X153Y169D01*
X155Y165D01*
X157Y162D01*
X158Y161D01*
X161Y158D01*
X164Y156D01*
X165Y155D01*
X166Y155D01*
X169Y153D01*
X173Y152D01*
X174Y152D01*
X175Y151D01*
X180Y151D01*
X14812Y151D01*
X14813Y151D01*
G37*
%LPC*%
G36*
X13330Y1339D02*
X13330Y1339D01*
X13089Y1580D01*
X13089Y1920D01*
X13107Y1938D01*
X13109Y1941D01*
X13111Y1944D01*
X13112Y1945D01*
X13113Y1949D01*
X13115Y1953D01*
X13115Y1954D01*
X13115Y1955D01*
X13115Y1958D01*
X13115Y2460D01*
X13115Y2461D01*
X13115Y2462D01*
X13114Y2466D01*
X13114Y2469D01*
X13113Y2470D01*
X13113Y2471D01*
X13111Y2475D01*
X13109Y2478D01*
X13108Y2479D01*
X13105Y2482D01*
X13102Y2484D01*
X13101Y2485D01*
X13100Y2485D01*
X13097Y2487D01*
X13093Y2488D01*
X13092Y2488D01*
X13091Y2489D01*
X13086Y2489D01*
X12455Y2489D01*
X12360Y2529D01*
X11519Y3370D01*
X11479Y3465D01*
X11479Y3890D01*
X11479Y3894D01*
X11478Y3898D01*
X11478Y3899D01*
X11476Y3903D01*
X11474Y3906D01*
X11473Y3907D01*
X11473Y3908D01*
X11471Y3911D01*
X10684Y4697D01*
X10645Y4793D01*
X10645Y5171D01*
X10644Y5175D01*
X10644Y5178D01*
X10643Y5179D01*
X10643Y5180D01*
X10641Y5184D01*
X10640Y5187D01*
X10639Y5188D01*
X10638Y5189D01*
X10636Y5191D01*
X10628Y5199D01*
X10628Y5801D01*
X10636Y5809D01*
X10639Y5812D01*
X10641Y5815D01*
X10641Y5816D01*
X10642Y5816D01*
X10643Y5820D01*
X10644Y5824D01*
X10644Y5825D01*
X10645Y5826D01*
X10644Y5826D01*
X10645Y5829D01*
X10645Y6171D01*
X10644Y6175D01*
X10644Y6178D01*
X10643Y6179D01*
X10643Y6180D01*
X10641Y6184D01*
X10640Y6187D01*
X10639Y6188D01*
X10638Y6189D01*
X10636Y6191D01*
X10628Y6199D01*
X10628Y6801D01*
X10664Y6836D01*
X11147Y6836D01*
X11183Y6801D01*
X11183Y6199D01*
X11175Y6191D01*
X11173Y6188D01*
X11170Y6185D01*
X11170Y6184D01*
X11169Y6184D01*
X11168Y6180D01*
X11167Y6176D01*
X11167Y6175D01*
X11167Y6174D01*
X11166Y6171D01*
X11166Y5829D01*
X11167Y5825D01*
X11167Y5822D01*
X11168Y5821D01*
X11168Y5820D01*
X11170Y5816D01*
X11171Y5813D01*
X11172Y5812D01*
X11173Y5811D01*
X11175Y5809D01*
X11183Y5801D01*
X11183Y5199D01*
X11175Y5191D01*
X11173Y5188D01*
X11170Y5185D01*
X11170Y5184D01*
X11169Y5183D01*
X11168Y5180D01*
X11167Y5176D01*
X11167Y5175D01*
X11167Y5174D01*
X11166Y5171D01*
X11166Y4965D01*
X11167Y4961D01*
X11167Y4957D01*
X11168Y4956D01*
X11168Y4955D01*
X11170Y4952D01*
X11171Y4948D01*
X11172Y4947D01*
X11173Y4946D01*
X11175Y4944D01*
X11961Y4158D01*
X12001Y4062D01*
X12001Y3637D01*
X12001Y3634D01*
X12002Y3630D01*
X12002Y3629D01*
X12002Y3628D01*
X12004Y3624D01*
X12006Y3621D01*
X12007Y3620D01*
X12007Y3619D01*
X12009Y3617D01*
X12607Y3019D01*
X12610Y3017D01*
X12613Y3015D01*
X12614Y3014D01*
X12615Y3014D01*
X12618Y3013D01*
X12622Y3011D01*
X12623Y3011D01*
X12624Y3011D01*
X12625Y3011D01*
X12627Y3011D01*
X13109Y3011D01*
X13110Y3011D01*
X13111Y3011D01*
X13115Y3012D01*
X13118Y3012D01*
X13119Y3013D01*
X13120Y3013D01*
X13123Y3015D01*
X13127Y3017D01*
X13127Y3018D01*
X13128Y3018D01*
X13131Y3021D01*
X13133Y3024D01*
X13134Y3025D01*
X13134Y3026D01*
X13135Y3028D01*
X13174Y3067D01*
X13578Y3067D01*
X13614Y3031D01*
X13614Y2863D01*
X13614Y2860D01*
X13615Y2857D01*
X13615Y2854D01*
X13615Y2853D01*
X13616Y2853D01*
X13616Y2852D01*
X13637Y2802D01*
X13637Y2190D01*
X13637Y2189D01*
X13637Y2188D01*
X13638Y2184D01*
X13638Y2181D01*
X13639Y2180D01*
X13639Y2179D01*
X13641Y2175D01*
X13643Y2172D01*
X13644Y2171D01*
X13647Y2168D01*
X13650Y2166D01*
X13651Y2165D01*
X13652Y2165D01*
X13655Y2163D01*
X13659Y2162D01*
X13660Y2162D01*
X13661Y2161D01*
X13666Y2161D01*
X13670Y2161D01*
X13911Y1920D01*
X13911Y1580D01*
X13670Y1339D01*
X13330Y1339D01*
G37*
%LPD*%
%LPC*%
G36*
X7330Y2339D02*
X7330Y2339D01*
X7089Y2580D01*
X7089Y2920D01*
X7231Y3062D01*
X7233Y3065D01*
X7235Y3068D01*
X7236Y3069D01*
X7237Y3073D01*
X7239Y3077D01*
X7239Y3078D01*
X7239Y3079D01*
X7239Y3082D01*
X7239Y3552D01*
X7279Y3648D01*
X8831Y5199D01*
X8833Y5203D01*
X8835Y5206D01*
X8836Y5207D01*
X8837Y5211D01*
X8839Y5215D01*
X8839Y5216D01*
X8839Y5217D01*
X8839Y5220D01*
X8839Y5420D01*
X8981Y5562D01*
X8983Y5565D01*
X8985Y5568D01*
X8986Y5569D01*
X8987Y5573D01*
X8989Y5577D01*
X8989Y5578D01*
X8989Y5579D01*
X8989Y5582D01*
X8989Y6359D01*
X8989Y6360D01*
X8989Y6361D01*
X8988Y6365D01*
X8988Y6368D01*
X8987Y6369D01*
X8987Y6370D01*
X8985Y6373D01*
X8983Y6377D01*
X8982Y6377D01*
X8982Y6378D01*
X8979Y6381D01*
X8976Y6383D01*
X8975Y6384D01*
X8974Y6384D01*
X8972Y6385D01*
X8933Y6424D01*
X8933Y6828D01*
X8969Y6864D01*
X9137Y6864D01*
X9140Y6864D01*
X9143Y6865D01*
X9146Y6865D01*
X9147Y6865D01*
X9147Y6866D01*
X9148Y6866D01*
X9198Y6887D01*
X9302Y6887D01*
X9352Y6866D01*
X9355Y6865D01*
X9357Y6864D01*
X9360Y6864D01*
X9361Y6864D01*
X9362Y6864D01*
X9363Y6864D01*
X9531Y6864D01*
X9567Y6828D01*
X9567Y6424D01*
X9529Y6386D01*
X9525Y6384D01*
X9522Y6382D01*
X9521Y6381D01*
X9518Y6378D01*
X9516Y6375D01*
X9515Y6374D01*
X9515Y6373D01*
X9513Y6370D01*
X9512Y6366D01*
X9512Y6365D01*
X9511Y6364D01*
X9511Y6359D01*
X9511Y5582D01*
X9511Y5578D01*
X9512Y5574D01*
X9512Y5573D01*
X9514Y5569D01*
X9516Y5566D01*
X9517Y5565D01*
X9517Y5564D01*
X9519Y5562D01*
X9661Y5420D01*
X9661Y5080D01*
X9420Y4839D01*
X9220Y4839D01*
X9216Y4839D01*
X9212Y4838D01*
X9211Y4838D01*
X9207Y4836D01*
X9204Y4834D01*
X9203Y4833D01*
X9202Y4833D01*
X9199Y4831D01*
X7769Y3401D01*
X7767Y3397D01*
X7765Y3394D01*
X7764Y3393D01*
X7763Y3389D01*
X7761Y3385D01*
X7761Y3384D01*
X7761Y3383D01*
X7761Y3380D01*
X7761Y3082D01*
X7761Y3078D01*
X7762Y3074D01*
X7762Y3073D01*
X7764Y3069D01*
X7766Y3066D01*
X7767Y3065D01*
X7767Y3064D01*
X7769Y3062D01*
X7911Y2920D01*
X7911Y2580D01*
X7670Y2339D01*
X7330Y2339D01*
G37*
%LPD*%
%LPC*%
G36*
X7330Y8339D02*
X7330Y8339D01*
X7089Y8580D01*
X7089Y8920D01*
X7330Y9161D01*
X7670Y9161D01*
X7812Y9019D01*
X7815Y9017D01*
X7818Y9015D01*
X7819Y9014D01*
X7823Y9013D01*
X7827Y9011D01*
X7828Y9011D01*
X7829Y9011D01*
X7832Y9011D01*
X8336Y9011D01*
X8337Y9011D01*
X8338Y9011D01*
X8342Y9012D01*
X8345Y9012D01*
X8346Y9013D01*
X8347Y9013D01*
X8351Y9015D01*
X8354Y9017D01*
X8355Y9018D01*
X8358Y9021D01*
X8360Y9024D01*
X8361Y9025D01*
X8361Y9026D01*
X8363Y9029D01*
X8364Y9033D01*
X8364Y9034D01*
X8365Y9035D01*
X8365Y9040D01*
X8365Y10254D01*
X8365Y10258D01*
X8364Y10262D01*
X8364Y10263D01*
X8362Y10267D01*
X8360Y10270D01*
X8359Y10271D01*
X8359Y10272D01*
X8357Y10275D01*
X8172Y10460D01*
X8169Y10461D01*
X8167Y10463D01*
X8165Y10464D01*
X8164Y10465D01*
X8161Y10466D01*
X8158Y10467D01*
X8157Y10467D01*
X8155Y10468D01*
X8152Y10468D01*
X8149Y10468D01*
X8147Y10468D01*
X8145Y10468D01*
X8142Y10466D01*
X8140Y10466D01*
X8138Y10465D01*
X8136Y10464D01*
X8134Y10462D01*
X8132Y10461D01*
X8130Y10459D01*
X8129Y10458D01*
X8127Y10456D01*
X8126Y10453D01*
X8125Y10453D01*
X8086Y10414D01*
X7603Y10414D01*
X7567Y10449D01*
X7567Y11051D01*
X7575Y11059D01*
X7577Y11062D01*
X7580Y11065D01*
X7580Y11066D01*
X7581Y11067D01*
X7582Y11070D01*
X7583Y11074D01*
X7583Y11075D01*
X7583Y11076D01*
X7584Y11079D01*
X7584Y11421D01*
X7583Y11425D01*
X7583Y11428D01*
X7582Y11429D01*
X7582Y11430D01*
X7580Y11434D01*
X7579Y11437D01*
X7578Y11438D01*
X7577Y11439D01*
X7575Y11441D01*
X7567Y11449D01*
X7567Y12051D01*
X7603Y12086D01*
X8086Y12086D01*
X8122Y12051D01*
X8122Y11449D01*
X8114Y11441D01*
X8111Y11438D01*
X8109Y11435D01*
X8109Y11434D01*
X8108Y11433D01*
X8107Y11430D01*
X8106Y11426D01*
X8106Y11425D01*
X8105Y11424D01*
X8106Y11424D01*
X8105Y11421D01*
X8105Y11079D01*
X8106Y11075D01*
X8106Y11072D01*
X8107Y11071D01*
X8107Y11070D01*
X8109Y11066D01*
X8110Y11063D01*
X8111Y11062D01*
X8112Y11061D01*
X8114Y11059D01*
X8122Y11051D01*
X8122Y11040D01*
X8122Y11039D01*
X8122Y11038D01*
X8123Y11034D01*
X8123Y11031D01*
X8124Y11030D01*
X8124Y11029D01*
X8126Y11025D01*
X8128Y11022D01*
X8129Y11021D01*
X8132Y11018D01*
X8135Y11016D01*
X8136Y11015D01*
X8137Y11015D01*
X8140Y11013D01*
X8144Y11012D01*
X8145Y11012D01*
X8146Y11011D01*
X8151Y11011D01*
X8302Y11011D01*
X8398Y10971D01*
X8847Y10522D01*
X8887Y10426D01*
X8887Y8698D01*
X8866Y8648D01*
X8865Y8645D01*
X8864Y8643D01*
X8864Y8640D01*
X8864Y8639D01*
X8864Y8638D01*
X8864Y8637D01*
X8864Y8469D01*
X8828Y8433D01*
X8424Y8433D01*
X8386Y8471D01*
X8384Y8475D01*
X8382Y8478D01*
X8381Y8479D01*
X8378Y8482D01*
X8375Y8484D01*
X8374Y8485D01*
X8373Y8485D01*
X8370Y8487D01*
X8366Y8488D01*
X8365Y8488D01*
X8364Y8489D01*
X8359Y8489D01*
X7832Y8489D01*
X7828Y8489D01*
X7824Y8488D01*
X7823Y8488D01*
X7819Y8486D01*
X7816Y8484D01*
X7815Y8483D01*
X7814Y8483D01*
X7812Y8481D01*
X7670Y8339D01*
X7330Y8339D01*
G37*
%LPD*%
%LPC*%
G36*
X7330Y1339D02*
X7330Y1339D01*
X7089Y1580D01*
X7089Y1920D01*
X7330Y2161D01*
X7670Y2161D01*
X7710Y2121D01*
X7711Y2120D01*
X7712Y2119D01*
X7715Y2117D01*
X7718Y2115D01*
X7719Y2115D01*
X7720Y2114D01*
X7724Y2113D01*
X7727Y2112D01*
X7728Y2112D01*
X7729Y2112D01*
X7733Y2112D01*
X7737Y2113D01*
X7738Y2113D01*
X7739Y2113D01*
X7742Y2115D01*
X7746Y2116D01*
X7747Y2117D01*
X7748Y2117D01*
X7752Y2121D01*
X8831Y3199D01*
X8833Y3203D01*
X8835Y3206D01*
X8836Y3207D01*
X8837Y3211D01*
X8839Y3215D01*
X8839Y3216D01*
X8839Y3217D01*
X8839Y3220D01*
X8839Y3420D01*
X9080Y3661D01*
X9420Y3661D01*
X9562Y3519D01*
X9565Y3517D01*
X9568Y3515D01*
X9569Y3514D01*
X9573Y3513D01*
X9577Y3511D01*
X9578Y3511D01*
X9579Y3511D01*
X9582Y3511D01*
X10109Y3511D01*
X10110Y3511D01*
X10111Y3511D01*
X10115Y3512D01*
X10118Y3512D01*
X10119Y3513D01*
X10120Y3513D01*
X10123Y3515D01*
X10127Y3517D01*
X10127Y3518D01*
X10128Y3518D01*
X10131Y3521D01*
X10133Y3524D01*
X10134Y3525D01*
X10134Y3526D01*
X10135Y3528D01*
X10174Y3567D01*
X10578Y3567D01*
X10614Y3531D01*
X10614Y3363D01*
X10614Y3360D01*
X10615Y3357D01*
X10615Y3354D01*
X10615Y3353D01*
X10616Y3353D01*
X10616Y3352D01*
X10637Y3302D01*
X10637Y3198D01*
X10616Y3148D01*
X10615Y3145D01*
X10614Y3143D01*
X10614Y3140D01*
X10614Y3139D01*
X10614Y3138D01*
X10614Y3137D01*
X10614Y2969D01*
X10578Y2933D01*
X10174Y2933D01*
X10136Y2971D01*
X10134Y2975D01*
X10132Y2978D01*
X10131Y2979D01*
X10128Y2982D01*
X10125Y2984D01*
X10124Y2985D01*
X10123Y2985D01*
X10120Y2987D01*
X10116Y2988D01*
X10115Y2988D01*
X10114Y2989D01*
X10109Y2989D01*
X9582Y2989D01*
X9578Y2989D01*
X9574Y2988D01*
X9573Y2988D01*
X9569Y2986D01*
X9566Y2984D01*
X9565Y2983D01*
X9564Y2983D01*
X9562Y2981D01*
X9420Y2839D01*
X9220Y2839D01*
X9216Y2839D01*
X9212Y2838D01*
X9211Y2838D01*
X9207Y2836D01*
X9204Y2834D01*
X9203Y2833D01*
X9202Y2833D01*
X9199Y2831D01*
X7898Y1529D01*
X7838Y1504D01*
X7836Y1503D01*
X7833Y1502D01*
X7831Y1500D01*
X7830Y1499D01*
X7829Y1498D01*
X7670Y1339D01*
X7330Y1339D01*
G37*
%LPD*%
%LPC*%
G36*
X5359Y7864D02*
X5359Y7864D01*
X5159Y8064D01*
X5159Y8346D01*
X5359Y8545D01*
X5460Y8545D01*
X5464Y8546D01*
X5468Y8547D01*
X5469Y8547D01*
X5473Y8549D01*
X5476Y8551D01*
X5477Y8551D01*
X5478Y8552D01*
X5481Y8554D01*
X6820Y9894D01*
X6870Y9943D01*
X6872Y9946D01*
X6874Y9949D01*
X6875Y9950D01*
X6875Y9951D01*
X6876Y9955D01*
X6878Y9958D01*
X6878Y9960D01*
X6878Y9961D01*
X6878Y9964D01*
X6878Y10051D01*
X6886Y10059D01*
X6889Y10062D01*
X6891Y10065D01*
X6891Y10066D01*
X6892Y10067D01*
X6893Y10070D01*
X6894Y10074D01*
X6894Y10075D01*
X6895Y10076D01*
X6894Y10076D01*
X6895Y10079D01*
X6895Y10421D01*
X6894Y10425D01*
X6894Y10428D01*
X6893Y10429D01*
X6893Y10430D01*
X6891Y10434D01*
X6890Y10437D01*
X6889Y10438D01*
X6888Y10439D01*
X6886Y10441D01*
X6878Y10449D01*
X6878Y11051D01*
X6914Y11086D01*
X7397Y11086D01*
X7433Y11051D01*
X7433Y10449D01*
X7425Y10441D01*
X7423Y10438D01*
X7420Y10435D01*
X7420Y10434D01*
X7419Y10433D01*
X7418Y10430D01*
X7417Y10426D01*
X7417Y10425D01*
X7417Y10424D01*
X7416Y10421D01*
X7416Y10079D01*
X7417Y10075D01*
X7417Y10072D01*
X7418Y10071D01*
X7418Y10070D01*
X7420Y10066D01*
X7421Y10063D01*
X7422Y10062D01*
X7423Y10061D01*
X7425Y10059D01*
X7433Y10051D01*
X7433Y9449D01*
X7397Y9414D01*
X7090Y9414D01*
X7086Y9413D01*
X7082Y9413D01*
X7081Y9412D01*
X7080Y9412D01*
X7077Y9410D01*
X7073Y9409D01*
X7072Y9408D01*
X7071Y9407D01*
X7069Y9405D01*
X5849Y8185D01*
X5847Y8183D01*
X5846Y8181D01*
X5845Y8179D01*
X5844Y8178D01*
X5843Y8174D01*
X5841Y8170D01*
X5841Y8169D01*
X5841Y8168D01*
X5841Y8165D01*
X5841Y8064D01*
X5641Y7864D01*
X5359Y7864D01*
G37*
%LPD*%
%LPC*%
G36*
X4349Y10660D02*
X4349Y10660D01*
X4069Y10776D01*
X3855Y10990D01*
X3739Y11270D01*
X3739Y11573D01*
X3855Y11852D01*
X4069Y12066D01*
X4349Y12182D01*
X4651Y12182D01*
X4931Y12066D01*
X5145Y11852D01*
X5261Y11573D01*
X5261Y11270D01*
X5145Y10990D01*
X4931Y10776D01*
X4651Y10660D01*
X4349Y10660D01*
G37*
%LPD*%
%LPC*%
G36*
X4349Y818D02*
X4349Y818D01*
X4069Y934D01*
X3855Y1148D01*
X3739Y1427D01*
X3739Y1730D01*
X3855Y2010D01*
X4069Y2224D01*
X4349Y2340D01*
X4651Y2340D01*
X4931Y2224D01*
X5145Y2010D01*
X5261Y1730D01*
X5261Y1427D01*
X5145Y1148D01*
X4931Y934D01*
X4651Y818D01*
X4349Y818D01*
G37*
%LPD*%
%LPC*%
G36*
X3359Y4258D02*
X3359Y4258D01*
X3159Y4457D01*
X3159Y4740D01*
X3359Y4939D01*
X3641Y4939D01*
X3841Y4740D01*
X3841Y4457D01*
X3641Y4258D01*
X3359Y4258D01*
G37*
%LPD*%
%LPC*%
G36*
X3359Y5159D02*
X3359Y5159D01*
X3159Y5359D01*
X3159Y5641D01*
X3359Y5841D01*
X3641Y5841D01*
X3841Y5641D01*
X3841Y5359D01*
X3641Y5159D01*
X3359Y5159D01*
G37*
%LPD*%
%LPC*%
G36*
X5359Y5159D02*
X5359Y5159D01*
X5159Y5359D01*
X5159Y5641D01*
X5359Y5841D01*
X5641Y5841D01*
X5841Y5641D01*
X5841Y5359D01*
X5641Y5159D01*
X5359Y5159D01*
G37*
%LPD*%
%LPC*%
G36*
X4359Y5610D02*
X4359Y5610D01*
X4159Y5810D01*
X4159Y6092D01*
X4359Y6292D01*
X4641Y6292D01*
X4841Y6092D01*
X4841Y5810D01*
X4641Y5610D01*
X4359Y5610D01*
G37*
%LPD*%
%LPC*%
G36*
X3359Y6061D02*
X3359Y6061D01*
X3159Y6260D01*
X3159Y6543D01*
X3359Y6742D01*
X3641Y6742D01*
X3841Y6543D01*
X3841Y6260D01*
X3641Y6061D01*
X3359Y6061D01*
G37*
%LPD*%
%LPC*%
G36*
X5359Y6061D02*
X5359Y6061D01*
X5159Y6260D01*
X5159Y6543D01*
X5359Y6742D01*
X5641Y6742D01*
X5841Y6543D01*
X5841Y6260D01*
X5641Y6061D01*
X5359Y6061D01*
G37*
%LPD*%
%LPC*%
G36*
X3359Y6962D02*
X3359Y6962D01*
X3159Y7162D01*
X3159Y7444D01*
X3359Y7644D01*
X3641Y7644D01*
X3841Y7444D01*
X3841Y7162D01*
X3641Y6962D01*
X3359Y6962D01*
G37*
%LPD*%
%LPC*%
G36*
X5359Y6962D02*
X5359Y6962D01*
X5159Y7162D01*
X5159Y7444D01*
X5359Y7644D01*
X5641Y7644D01*
X5841Y7444D01*
X5841Y7162D01*
X5641Y6962D01*
X5359Y6962D01*
G37*
%LPD*%
%LPC*%
G36*
X3359Y7864D02*
X3359Y7864D01*
X3159Y8064D01*
X3159Y8346D01*
X3359Y8545D01*
X3641Y8545D01*
X3841Y8346D01*
X3841Y8064D01*
X3641Y7864D01*
X3359Y7864D01*
G37*
%LPD*%
%LPC*%
G36*
X7904Y9809D02*
X7904Y9809D01*
X7904Y10126D01*
X8074Y10126D01*
X8100Y10119D01*
X8123Y10106D01*
X8142Y10087D01*
X8155Y10064D01*
X8162Y10039D01*
X8162Y9809D01*
X7904Y9809D01*
G37*
%LPD*%
%LPC*%
G36*
X7215Y11809D02*
X7215Y11809D01*
X7215Y12126D01*
X7385Y12126D01*
X7411Y12119D01*
X7434Y12106D01*
X7453Y12087D01*
X7466Y12064D01*
X7473Y12039D01*
X7473Y11809D01*
X7215Y11809D01*
G37*
%LPD*%
%LPC*%
G36*
X11654Y5559D02*
X11654Y5559D01*
X11654Y5876D01*
X11824Y5876D01*
X11850Y5869D01*
X11873Y5856D01*
X11892Y5837D01*
X11905Y5814D01*
X11912Y5789D01*
X11912Y5559D01*
X11654Y5559D01*
G37*
%LPD*%
%LPC*%
G36*
X10965Y7559D02*
X10965Y7559D01*
X10965Y7876D01*
X11135Y7876D01*
X11161Y7869D01*
X11184Y7856D01*
X11203Y7837D01*
X11216Y7814D01*
X11223Y7789D01*
X11223Y7559D01*
X10965Y7559D01*
G37*
%LPD*%
%LPC*%
G36*
X7904Y9374D02*
X7904Y9374D01*
X7904Y9691D01*
X8162Y9691D01*
X8162Y9461D01*
X8155Y9436D01*
X8142Y9413D01*
X8123Y9394D01*
X8100Y9381D01*
X8074Y9374D01*
X7904Y9374D01*
G37*
%LPD*%
%LPC*%
G36*
X11654Y5124D02*
X11654Y5124D01*
X11654Y5441D01*
X11912Y5441D01*
X11912Y5211D01*
X11905Y5186D01*
X11892Y5163D01*
X11873Y5144D01*
X11850Y5131D01*
X11824Y5124D01*
X11654Y5124D01*
G37*
%LPD*%
%LPC*%
G36*
X10965Y7124D02*
X10965Y7124D01*
X10965Y7441D01*
X11223Y7441D01*
X11223Y7211D01*
X11216Y7186D01*
X11203Y7163D01*
X11184Y7144D01*
X11161Y7131D01*
X11135Y7124D01*
X10965Y7124D01*
G37*
%LPD*%
%LPC*%
G36*
X7215Y11374D02*
X7215Y11374D01*
X7215Y11691D01*
X7473Y11691D01*
X7473Y11461D01*
X7469Y11448D01*
X7466Y11436D01*
X7453Y11413D01*
X7434Y11394D01*
X7411Y11381D01*
X7385Y11374D01*
X7215Y11374D01*
G37*
%LPD*%
%LPC*%
G36*
X11277Y5559D02*
X11277Y5559D01*
X11277Y5789D01*
X11284Y5814D01*
X11297Y5837D01*
X11316Y5856D01*
X11339Y5869D01*
X11365Y5876D01*
X11535Y5876D01*
X11535Y5559D01*
X11277Y5559D01*
G37*
%LPD*%
%LPC*%
G36*
X6838Y11809D02*
X6838Y11809D01*
X6838Y12039D01*
X6845Y12064D01*
X6858Y12087D01*
X6877Y12106D01*
X6900Y12119D01*
X6926Y12126D01*
X7096Y12126D01*
X7096Y11809D01*
X6838Y11809D01*
G37*
%LPD*%
%LPC*%
G36*
X10588Y7559D02*
X10588Y7559D01*
X10588Y7789D01*
X10595Y7814D01*
X10608Y7837D01*
X10627Y7856D01*
X10650Y7869D01*
X10676Y7876D01*
X10846Y7876D01*
X10846Y7559D01*
X10588Y7559D01*
G37*
%LPD*%
%LPC*%
G36*
X7527Y9809D02*
X7527Y9809D01*
X7527Y10039D01*
X7534Y10064D01*
X7547Y10087D01*
X7566Y10106D01*
X7589Y10119D01*
X7615Y10126D01*
X7785Y10126D01*
X7785Y9809D01*
X7527Y9809D01*
G37*
%LPD*%
%LPC*%
G36*
X6926Y11374D02*
X6926Y11374D01*
X6900Y11381D01*
X6877Y11394D01*
X6858Y11413D01*
X6845Y11436D01*
X6838Y11461D01*
X6838Y11691D01*
X7096Y11691D01*
X7096Y11374D01*
X6926Y11374D01*
G37*
%LPD*%
%LPC*%
G36*
X7615Y9374D02*
X7615Y9374D01*
X7589Y9381D01*
X7566Y9394D01*
X7547Y9413D01*
X7534Y9436D01*
X7527Y9461D01*
X7527Y9691D01*
X7785Y9691D01*
X7785Y9374D01*
X7615Y9374D01*
G37*
%LPD*%
%LPC*%
G36*
X11365Y5124D02*
X11365Y5124D01*
X11339Y5131D01*
X11316Y5144D01*
X11297Y5163D01*
X11284Y5186D01*
X11277Y5211D01*
X11277Y5441D01*
X11535Y5441D01*
X11535Y5124D01*
X11365Y5124D01*
G37*
%LPD*%
%LPC*%
G36*
X10676Y7124D02*
X10676Y7124D01*
X10650Y7131D01*
X10627Y7144D01*
X10608Y7163D01*
X10595Y7186D01*
X10588Y7211D01*
X10588Y7441D01*
X10846Y7441D01*
X10846Y7124D01*
X10676Y7124D01*
G37*
%LPD*%
%LPC*%
G36*
X4119Y8715D02*
X4119Y8715D01*
X4119Y8813D01*
X4342Y9036D01*
X4441Y9036D01*
X4441Y8715D01*
X4119Y8715D01*
G37*
%LPD*%
%LPC*%
G36*
X5119Y4658D02*
X5119Y4658D01*
X5119Y4756D01*
X5342Y4979D01*
X5441Y4979D01*
X5441Y4658D01*
X5119Y4658D01*
G37*
%LPD*%
%LPC*%
G36*
X4119Y5108D02*
X4119Y5108D01*
X4119Y5207D01*
X4342Y5430D01*
X4441Y5430D01*
X4441Y5108D01*
X4119Y5108D01*
G37*
%LPD*%
%LPC*%
G36*
X4119Y6912D02*
X4119Y6912D01*
X4119Y7010D01*
X4342Y7233D01*
X4441Y7233D01*
X4441Y6912D01*
X4119Y6912D01*
G37*
%LPD*%
%LPC*%
G36*
X4119Y7813D02*
X4119Y7813D01*
X4119Y7912D01*
X4342Y8135D01*
X4441Y8135D01*
X4441Y7813D01*
X4119Y7813D01*
G37*
%LPD*%
%LPC*%
G36*
X5559Y4658D02*
X5559Y4658D01*
X5559Y4979D01*
X5658Y4979D01*
X5881Y4756D01*
X5881Y4658D01*
X5559Y4658D01*
G37*
%LPD*%
%LPC*%
G36*
X4559Y8715D02*
X4559Y8715D01*
X4559Y9036D01*
X4658Y9036D01*
X4881Y8813D01*
X4881Y8715D01*
X4559Y8715D01*
G37*
%LPD*%
%LPC*%
G36*
X4559Y5108D02*
X4559Y5108D01*
X4559Y5430D01*
X4658Y5430D01*
X4881Y5207D01*
X4881Y5108D01*
X4559Y5108D01*
G37*
%LPD*%
%LPC*%
G36*
X4559Y6912D02*
X4559Y6912D01*
X4559Y7233D01*
X4658Y7233D01*
X4881Y7010D01*
X4881Y6912D01*
X4559Y6912D01*
G37*
%LPD*%
%LPC*%
G36*
X4559Y7813D02*
X4559Y7813D01*
X4559Y8135D01*
X4658Y8135D01*
X4881Y7912D01*
X4881Y7813D01*
X4559Y7813D01*
G37*
%LPD*%
%LPC*%
G36*
X4342Y4668D02*
X4342Y4668D01*
X4119Y4891D01*
X4119Y4990D01*
X4441Y4990D01*
X4441Y4668D01*
X4342Y4668D01*
G37*
%LPD*%
%LPC*%
G36*
X4342Y6472D02*
X4342Y6472D01*
X4119Y6695D01*
X4119Y6793D01*
X4441Y6793D01*
X4441Y6472D01*
X4342Y6472D01*
G37*
%LPD*%
%LPC*%
G36*
X4342Y8275D02*
X4342Y8275D01*
X4119Y8498D01*
X4119Y8596D01*
X4441Y8596D01*
X4441Y8275D01*
X4342Y8275D01*
G37*
%LPD*%
%LPC*%
G36*
X5342Y4218D02*
X5342Y4218D01*
X5119Y4441D01*
X5119Y4539D01*
X5441Y4539D01*
X5441Y4218D01*
X5342Y4218D01*
G37*
%LPD*%
%LPC*%
G36*
X4342Y7373D02*
X4342Y7373D01*
X4119Y7596D01*
X4119Y7695D01*
X4441Y7695D01*
X4441Y7373D01*
X4342Y7373D01*
G37*
%LPD*%
%LPC*%
G36*
X5559Y4218D02*
X5559Y4218D01*
X5559Y4539D01*
X5881Y4539D01*
X5881Y4441D01*
X5658Y4218D01*
X5559Y4218D01*
G37*
%LPD*%
%LPC*%
G36*
X4559Y4668D02*
X4559Y4668D01*
X4559Y4990D01*
X4881Y4990D01*
X4881Y4892D01*
X4658Y4668D01*
X4559Y4668D01*
G37*
%LPD*%
%LPC*%
G36*
X4559Y8275D02*
X4559Y8275D01*
X4559Y8596D01*
X4881Y8596D01*
X4881Y8498D01*
X4658Y8275D01*
X4559Y8275D01*
G37*
%LPD*%
%LPC*%
G36*
X4559Y6472D02*
X4559Y6472D01*
X4559Y6793D01*
X4881Y6793D01*
X4881Y6695D01*
X4658Y6472D01*
X4559Y6472D01*
G37*
%LPD*%
%LPC*%
G36*
X4559Y7373D02*
X4559Y7373D01*
X4559Y7695D01*
X4881Y7695D01*
X4881Y7596D01*
X4658Y7373D01*
X4559Y7373D01*
G37*
%LPD*%
%LPC*%
G36*
X9309Y7433D02*
X9309Y7433D01*
X9309Y7652D01*
X9519Y7652D01*
X9545Y7645D01*
X9568Y7632D01*
X9587Y7613D01*
X9600Y7590D01*
X9607Y7564D01*
X9607Y7433D01*
X9309Y7433D01*
G37*
%LPD*%
%LPC*%
G36*
X9433Y8809D02*
X9433Y8809D01*
X9433Y9107D01*
X9564Y9107D01*
X9590Y9100D01*
X9613Y9087D01*
X9632Y9068D01*
X9645Y9045D01*
X9652Y9019D01*
X9652Y8809D01*
X9433Y8809D01*
G37*
%LPD*%
%LPC*%
G36*
X14183Y2809D02*
X14183Y2809D01*
X14183Y3107D01*
X14314Y3107D01*
X14340Y3100D01*
X14363Y3087D01*
X14382Y3068D01*
X14395Y3045D01*
X14402Y3019D01*
X14402Y2809D01*
X14183Y2809D01*
G37*
%LPD*%
%LPC*%
G36*
X11183Y3309D02*
X11183Y3309D01*
X11183Y3607D01*
X11314Y3607D01*
X11340Y3600D01*
X11363Y3587D01*
X11382Y3568D01*
X11395Y3545D01*
X11402Y3519D01*
X11402Y3309D01*
X11183Y3309D01*
G37*
%LPD*%
%LPC*%
G36*
X8893Y7433D02*
X8893Y7433D01*
X8893Y7564D01*
X8900Y7590D01*
X8913Y7613D01*
X8932Y7632D01*
X8955Y7645D01*
X8981Y7652D01*
X9191Y7652D01*
X9191Y7433D01*
X8893Y7433D01*
G37*
%LPD*%
%LPC*%
G36*
X11183Y2893D02*
X11183Y2893D01*
X11183Y3191D01*
X11402Y3191D01*
X11402Y2981D01*
X11395Y2955D01*
X11382Y2932D01*
X11363Y2913D01*
X11340Y2900D01*
X11314Y2893D01*
X11183Y2893D01*
G37*
%LPD*%
%LPC*%
G36*
X9433Y8393D02*
X9433Y8393D01*
X9433Y8691D01*
X9652Y8691D01*
X9652Y8481D01*
X9645Y8455D01*
X9632Y8432D01*
X9613Y8413D01*
X9590Y8400D01*
X9564Y8393D01*
X9433Y8393D01*
G37*
%LPD*%
%LPC*%
G36*
X14183Y2393D02*
X14183Y2393D01*
X14183Y2691D01*
X14402Y2691D01*
X14402Y2481D01*
X14399Y2469D01*
X14395Y2455D01*
X14382Y2432D01*
X14363Y2413D01*
X14340Y2400D01*
X14314Y2393D01*
X14183Y2393D01*
G37*
%LPD*%
%LPC*%
G36*
X13846Y2809D02*
X13846Y2809D01*
X13846Y3019D01*
X13853Y3045D01*
X13866Y3068D01*
X13885Y3087D01*
X13908Y3100D01*
X13934Y3107D01*
X14065Y3107D01*
X14065Y2809D01*
X13846Y2809D01*
G37*
%LPD*%
%LPC*%
G36*
X9096Y8809D02*
X9096Y8809D01*
X9096Y9019D01*
X9100Y9035D01*
X9103Y9045D01*
X9116Y9068D01*
X9135Y9087D01*
X9158Y9100D01*
X9184Y9107D01*
X9315Y9107D01*
X9315Y8809D01*
X9096Y8809D01*
G37*
%LPD*%
%LPC*%
G36*
X10846Y3309D02*
X10846Y3309D01*
X10846Y3519D01*
X10851Y3536D01*
X10853Y3545D01*
X10866Y3568D01*
X10885Y3587D01*
X10908Y3600D01*
X10934Y3607D01*
X11065Y3607D01*
X11065Y3309D01*
X10846Y3309D01*
G37*
%LPD*%
%LPC*%
G36*
X9309Y7096D02*
X9309Y7096D01*
X9309Y7315D01*
X9607Y7315D01*
X9607Y7184D01*
X9600Y7158D01*
X9587Y7135D01*
X9568Y7116D01*
X9545Y7103D01*
X9519Y7096D01*
X9309Y7096D01*
G37*
%LPD*%
%LPC*%
G36*
X8981Y7096D02*
X8981Y7096D01*
X8955Y7103D01*
X8932Y7116D01*
X8913Y7135D01*
X8900Y7158D01*
X8893Y7184D01*
X8893Y7315D01*
X9191Y7315D01*
X9191Y7096D01*
X8981Y7096D01*
G37*
%LPD*%
%LPC*%
G36*
X13934Y2393D02*
X13934Y2393D01*
X13908Y2400D01*
X13885Y2413D01*
X13866Y2432D01*
X13853Y2455D01*
X13846Y2481D01*
X13846Y2691D01*
X14065Y2691D01*
X14065Y2393D01*
X13934Y2393D01*
G37*
%LPD*%
%LPC*%
G36*
X10934Y2893D02*
X10934Y2893D01*
X10908Y2900D01*
X10885Y2913D01*
X10866Y2932D01*
X10853Y2955D01*
X10846Y2981D01*
X10846Y3191D01*
X11065Y3191D01*
X11065Y2893D01*
X10934Y2893D01*
G37*
%LPD*%
%LPC*%
G36*
X9184Y8393D02*
X9184Y8393D01*
X9158Y8400D01*
X9135Y8413D01*
X9116Y8432D01*
X9103Y8455D01*
X9096Y8481D01*
X9096Y8691D01*
X9315Y8691D01*
X9315Y8393D01*
X9184Y8393D01*
G37*
%LPD*%
%LPC*%
G36*
X4499Y7753D02*
X4499Y7753D01*
X4499Y7755D01*
X4501Y7755D01*
X4501Y7753D01*
X4499Y7753D01*
G37*
%LPD*%
%LPC*%
G36*
X5499Y4598D02*
X5499Y4598D01*
X5499Y4599D01*
X5501Y4599D01*
X5501Y4598D01*
X5499Y4598D01*
G37*
%LPD*%
%LPC*%
G36*
X4499Y5048D02*
X4499Y5048D01*
X4499Y5050D01*
X4501Y5050D01*
X4501Y5048D01*
X4499Y5048D01*
G37*
%LPD*%
%LPC*%
G36*
X4499Y6852D02*
X4499Y6852D01*
X4499Y6853D01*
X4501Y6853D01*
X4501Y6852D01*
X4499Y6852D01*
G37*
%LPD*%
%LPC*%
G36*
X4499Y8655D02*
X4499Y8655D01*
X4499Y8656D01*
X4501Y8656D01*
X4501Y8655D01*
X4499Y8655D01*
G37*
%LPD*%
%LPC*%
G36*
X7844Y9749D02*
X7844Y9749D01*
X7844Y9751D01*
X7845Y9751D01*
X7845Y9749D01*
X7844Y9749D01*
G37*
%LPD*%
%LPC*%
G36*
X7155Y11749D02*
X7155Y11749D01*
X7155Y11751D01*
X7156Y11751D01*
X7156Y11749D01*
X7155Y11749D01*
G37*
%LPD*%
%LPC*%
G36*
X11123Y3249D02*
X11123Y3249D01*
X11123Y3251D01*
X11125Y3251D01*
X11125Y3249D01*
X11123Y3249D01*
G37*
%LPD*%
%LPC*%
G36*
X11594Y5499D02*
X11594Y5499D01*
X11594Y5501D01*
X11595Y5501D01*
X11595Y5499D01*
X11594Y5499D01*
G37*
%LPD*%
%LPC*%
G36*
X9373Y8749D02*
X9373Y8749D01*
X9373Y8751D01*
X9375Y8751D01*
X9375Y8749D01*
X9373Y8749D01*
G37*
%LPD*%
%LPC*%
G36*
X10905Y7499D02*
X10905Y7499D01*
X10905Y7501D01*
X10906Y7501D01*
X10906Y7499D01*
X10905Y7499D01*
G37*
%LPD*%
%LPC*%
G36*
X14123Y2749D02*
X14123Y2749D01*
X14123Y2751D01*
X14125Y2751D01*
X14125Y2749D01*
X14123Y2749D01*
G37*
%LPD*%
%LPC*%
G36*
X9249Y7373D02*
X9249Y7373D01*
X9249Y7375D01*
X9251Y7375D01*
X9251Y7373D01*
X9249Y7373D01*
G37*
%LPD*%
D10*
X9250Y6626D03*
X9250Y7374D03*
D11*
X10376Y3250D03*
X11124Y3250D03*
X13376Y2750D03*
X14124Y2750D03*
X8626Y8750D03*
X9374Y8750D03*
D12*
X7500Y8750D03*
X7500Y2750D03*
X9250Y5250D03*
X9250Y3250D03*
D13*
X7500Y1750D03*
X13500Y1750D03*
D14*
X11594Y5500D03*
X10906Y5500D03*
X11594Y6500D03*
X10906Y6500D03*
X11594Y7500D03*
X10906Y7500D03*
X7844Y11750D03*
X7156Y11750D03*
X7156Y10750D03*
X7844Y10750D03*
X7844Y9750D03*
X7156Y9750D03*
D15*
X5500Y8205D03*
X5500Y7303D03*
X5500Y6402D03*
X5500Y5500D03*
X5500Y4598D03*
X3500Y8205D03*
X3500Y7303D03*
X3500Y6402D03*
X3500Y5500D03*
X3500Y4598D03*
X4500Y8656D03*
X4500Y7754D03*
X4500Y6852D03*
X4500Y5951D03*
X4500Y5049D03*
D16*
X13750Y6500D03*
D17*
X13750Y4500D03*
X13750Y8500D03*
D18*
X500Y500D03*
X2000Y500D03*
X3500Y500D03*
X5000Y500D03*
X6500Y500D03*
X8000Y500D03*
X9500Y500D03*
X11000Y500D03*
X12500Y500D03*
X14000Y500D03*
X500Y2000D03*
X500Y3500D03*
X500Y5000D03*
X500Y6500D03*
X500Y8000D03*
X500Y9500D03*
X500Y11000D03*
X500Y12500D03*
X2000Y12500D03*
X3500Y12500D03*
X5000Y12500D03*
X6500Y12500D03*
X8000Y12500D03*
X9500Y12500D03*
X11000Y12500D03*
X12500Y12500D03*
X14000Y12500D03*
D19*
X13750Y8500D02*
X12000Y8250D01*
X12250Y4250D02*
X13750Y4500D01*
D18*
X14500Y11250D03*
X14500Y10000D03*
X14500Y1000D03*
X14500Y2250D03*
X14250Y3500D03*
X14250Y9500D03*
X13250Y9500D03*
X13250Y3500D03*
D19*
X7750Y1750D02*
X7500Y1750D01*
X7750Y1750D02*
X9250Y3250D01*
X10376Y3250D01*
X7500Y3500D02*
X7500Y2750D01*
X7500Y3500D02*
X9250Y5250D01*
X9250Y6626D01*
X10906Y6500D02*
X10906Y5500D01*
X11740Y4010D02*
X11740Y3517D01*
X12507Y2750D02*
X13376Y2750D01*
X12507Y2750D02*
X11740Y3517D01*
X10906Y4844D02*
X10906Y5500D01*
X10906Y4844D02*
X11740Y4010D01*
X13376Y2750D02*
X13376Y1874D01*
X13500Y1750D01*
X7844Y10750D02*
X7844Y11750D01*
X7844Y10750D02*
X8250Y10750D01*
X8626Y10374D02*
X8626Y8750D01*
X8626Y10374D02*
X8250Y10750D01*
X8626Y8750D02*
X7500Y8750D01*
X11594Y7500D02*
X11594Y6500D01*
X13750Y6500D01*
X7045Y9750D02*
X5500Y8205D01*
X7045Y9750D02*
X7156Y9750D01*
X7156Y10750D01*
M02*
