M48
;GenerationSoftware,Autodesk,EAGLE,9.0.0*%
;CreationDate,2018-05-01T03:21:36Z*%
FMAT,2
ICI,OFF
INCH,TZ,00.0000
T4C0.0197
T3C0.0295
T2C0.1220
%
G90
M72
T2
X4500Y11421
X4500Y1579
T3
X4500Y5049
X7500Y8750
X7500Y2750
X9250Y5250
X9250Y3250
X7500Y1750
X13500Y1750
X5500Y8205
X5500Y7303
X5500Y6402
X5500Y4598
X4500Y5951
X4500Y6852
X4500Y7754
X4500Y8656
X3500Y4598
X3500Y5500
X3500Y6402
X3500Y7303
X3500Y8205
X5500Y5500
T4
X14500Y1000
X13250Y3500
X13250Y9500
X14250Y9500
X14250Y3500
X14500Y2250
X500Y9500
X2000Y500
X3500Y500
X5000Y500
X6500Y500
X8000Y500
X9500Y500
X11000Y500
X12500Y500
X14000Y500
X500Y2000
X500Y3500
X500Y5000
X500Y6500
X500Y8000
X500Y500
X500Y11000
X500Y12500
X2000Y12500
X3500Y12500
X5000Y12500
X6500Y12500
X8000Y12500
X9500Y12500
X11000Y12500
X12500Y12500
X14000Y12500
X14500Y11250
X14500Y10000
M30