G04 EAGLE Gerber X2 export*
%TF.Part,Single*%
%TF.FileFunction,Copper,L1,Top,Mixed*%
%TF.FilePolarity,Positive*%
%TF.GenerationSoftware,Autodesk,EAGLE,9.0.0*%
%TF.CreationDate,2018-05-04T14:31:41Z*%
G75*
%MOIN*%
%FSLAX34Y34*%
%LPD*%
%AMOC8*
5,1,8,0,0,1.08239X$1,22.5*%
G01*
%ADD10R,0.051181X0.035433*%
%ADD11R,0.035433X0.051181*%
%ADD12P,0.075767X8X292.500000*%
%ADD13P,0.075767X8X22.500000*%
%ADD14R,0.043307X0.055118*%
%ADD15P,0.076705X8X292.500000*%
%ADD16C,0.177165*%
%ADD17R,0.225000X0.041000*%
%ADD18R,0.250000X0.100000*%
%ADD19C,0.023780*%
%ADD20C,0.029685*%
%ADD21C,0.040000*%
%ADD22C,0.041000*%

G36*
X14813Y151D02*
X14813Y151D01*
X14814Y151D01*
X14818Y152D01*
X14822Y152D01*
X14822Y153D01*
X14824Y153D01*
X14827Y155D01*
X14830Y157D01*
X14831Y158D01*
X14832Y158D01*
X14834Y161D01*
X14837Y164D01*
X14837Y165D01*
X14838Y166D01*
X14839Y169D01*
X14840Y173D01*
X14841Y174D01*
X14841Y175D01*
X14841Y180D01*
X14841Y3711D01*
X15000Y3711D01*
X15003Y3711D01*
X15005Y3711D01*
X15008Y3712D01*
X15011Y3712D01*
X15013Y3713D01*
X15016Y3714D01*
X15018Y3716D01*
X15021Y3717D01*
X15023Y3719D01*
X15025Y3720D01*
X15027Y3722D01*
X15030Y3724D01*
X15031Y3726D01*
X15033Y3728D01*
X15034Y3731D01*
X15036Y3733D01*
X15036Y3736D01*
X15037Y3738D01*
X15038Y3741D01*
X15039Y3744D01*
X15039Y3747D01*
X15039Y3750D01*
X15039Y6175D01*
X15039Y6178D01*
X15039Y6180D01*
X15038Y6183D01*
X15038Y6186D01*
X15037Y6188D01*
X15036Y6191D01*
X15034Y6193D01*
X15033Y6196D01*
X15031Y6198D01*
X15030Y6200D01*
X15028Y6202D01*
X15026Y6205D01*
X15024Y6206D01*
X15022Y6208D01*
X15019Y6209D01*
X15017Y6211D01*
X15014Y6211D01*
X15012Y6212D01*
X15009Y6213D01*
X15006Y6214D01*
X15003Y6214D01*
X15000Y6214D01*
X11921Y6214D01*
X11920Y6214D01*
X11919Y6214D01*
X11915Y6213D01*
X11912Y6213D01*
X11911Y6212D01*
X11910Y6212D01*
X11906Y6210D01*
X11903Y6208D01*
X11902Y6207D01*
X11899Y6204D01*
X11897Y6201D01*
X11896Y6200D01*
X11896Y6199D01*
X11894Y6196D01*
X11893Y6192D01*
X11844Y6144D01*
X11345Y6144D01*
X11297Y6191D01*
X11297Y6809D01*
X11305Y6817D01*
X11307Y6820D01*
X11310Y6823D01*
X11310Y6824D01*
X11311Y6825D01*
X11312Y6829D01*
X11313Y6832D01*
X11313Y6833D01*
X11313Y6834D01*
X11313Y6835D01*
X11314Y6838D01*
X11314Y7162D01*
X11313Y7166D01*
X11313Y7170D01*
X11312Y7171D01*
X11312Y7172D01*
X11310Y7175D01*
X11309Y7179D01*
X11308Y7180D01*
X11307Y7181D01*
X11305Y7183D01*
X11297Y7191D01*
X11297Y7809D01*
X11345Y7856D01*
X11844Y7856D01*
X11892Y7809D01*
X11892Y7191D01*
X11884Y7183D01*
X11881Y7180D01*
X11879Y7177D01*
X11879Y7176D01*
X11878Y7175D01*
X11877Y7171D01*
X11876Y7168D01*
X11876Y7167D01*
X11875Y7166D01*
X11876Y7165D01*
X11875Y7162D01*
X11875Y6838D01*
X11876Y6834D01*
X11876Y6830D01*
X11877Y6829D01*
X11877Y6828D01*
X11879Y6825D01*
X11880Y6821D01*
X11881Y6820D01*
X11882Y6819D01*
X11884Y6817D01*
X11893Y6808D01*
X11893Y6806D01*
X11894Y6805D01*
X11894Y6804D01*
X11896Y6800D01*
X11898Y6797D01*
X11899Y6796D01*
X11902Y6793D01*
X11905Y6791D01*
X11906Y6790D01*
X11907Y6790D01*
X11910Y6788D01*
X11914Y6787D01*
X11915Y6787D01*
X11916Y6786D01*
X11921Y6786D01*
X14812Y6786D01*
X15000Y6786D01*
X15003Y6786D01*
X15005Y6786D01*
X15008Y6787D01*
X15011Y6787D01*
X15013Y6788D01*
X15016Y6789D01*
X15018Y6791D01*
X15021Y6792D01*
X15023Y6794D01*
X15025Y6795D01*
X15027Y6797D01*
X15030Y6799D01*
X15031Y6801D01*
X15033Y6803D01*
X15034Y6806D01*
X15036Y6808D01*
X15036Y6811D01*
X15037Y6813D01*
X15038Y6816D01*
X15039Y6819D01*
X15039Y6822D01*
X15039Y6825D01*
X15039Y9250D01*
X15039Y9253D01*
X15039Y9255D01*
X15038Y9258D01*
X15038Y9261D01*
X15037Y9263D01*
X15036Y9266D01*
X15034Y9268D01*
X15033Y9271D01*
X15031Y9273D01*
X15030Y9275D01*
X15028Y9277D01*
X15026Y9280D01*
X15024Y9281D01*
X15022Y9283D01*
X15019Y9284D01*
X15017Y9286D01*
X15014Y9286D01*
X15012Y9287D01*
X15009Y9288D01*
X15006Y9289D01*
X15003Y9289D01*
X15000Y9289D01*
X14841Y9289D01*
X14841Y12815D01*
X14841Y12816D01*
X14841Y12817D01*
X14840Y12821D01*
X14840Y12825D01*
X14839Y12825D01*
X14839Y12826D01*
X14837Y12830D01*
X14835Y12833D01*
X14835Y12834D01*
X14834Y12835D01*
X14831Y12837D01*
X14828Y12839D01*
X14827Y12840D01*
X14826Y12841D01*
X14823Y12842D01*
X14820Y12843D01*
X14819Y12843D01*
X14818Y12844D01*
X14812Y12844D01*
X180Y12844D01*
X179Y12844D01*
X178Y12844D01*
X174Y12843D01*
X171Y12843D01*
X170Y12842D01*
X169Y12842D01*
X165Y12840D01*
X162Y12838D01*
X161Y12837D01*
X158Y12834D01*
X156Y12831D01*
X155Y12830D01*
X155Y12829D01*
X153Y12826D01*
X152Y12823D01*
X152Y12821D01*
X151Y12820D01*
X151Y12815D01*
X151Y180D01*
X151Y179D01*
X151Y178D01*
X152Y174D01*
X152Y171D01*
X153Y170D01*
X153Y169D01*
X155Y165D01*
X157Y162D01*
X158Y161D01*
X161Y158D01*
X164Y156D01*
X165Y155D01*
X166Y155D01*
X169Y153D01*
X173Y152D01*
X174Y152D01*
X175Y151D01*
X180Y151D01*
X14812Y151D01*
X14813Y151D01*
G37*
%LPC*%
G36*
X5499Y4598D02*
X5499Y4598D01*
X5499Y4628D01*
X5499Y4629D01*
X5499Y4631D01*
X5498Y4634D01*
X5498Y4638D01*
X5497Y4639D01*
X5497Y4640D01*
X5495Y4643D01*
X5493Y4646D01*
X5492Y4647D01*
X5492Y4648D01*
X5489Y4650D01*
X5486Y4653D01*
X5485Y4653D01*
X5484Y4654D01*
X5481Y4655D01*
X5477Y4657D01*
X5476Y4657D01*
X5475Y4657D01*
X5470Y4658D01*
X5045Y4658D01*
X5045Y4787D01*
X5301Y5043D01*
X5301Y5044D01*
X5302Y5044D01*
X5304Y5047D01*
X5306Y5050D01*
X5307Y5051D01*
X5307Y5052D01*
X5308Y5056D01*
X5309Y5060D01*
X5309Y5061D01*
X5309Y5062D01*
X5309Y5065D01*
X5309Y5069D01*
X5308Y5070D01*
X5308Y5071D01*
X5307Y5075D01*
X5305Y5078D01*
X5305Y5079D01*
X5304Y5080D01*
X5301Y5084D01*
X5065Y5320D01*
X5065Y5680D01*
X5315Y5930D01*
X5315Y5931D01*
X5316Y5932D01*
X5318Y5935D01*
X5320Y5938D01*
X5321Y5939D01*
X5321Y5940D01*
X5322Y5943D01*
X5323Y5947D01*
X5323Y5948D01*
X5323Y5949D01*
X5323Y5953D01*
X5323Y5957D01*
X5322Y5958D01*
X5322Y5959D01*
X5321Y5962D01*
X5319Y5966D01*
X5318Y5967D01*
X5315Y5971D01*
X5065Y6221D01*
X5065Y6582D01*
X5315Y6832D01*
X5315Y6833D01*
X5316Y6833D01*
X5318Y6836D01*
X5320Y6839D01*
X5321Y6840D01*
X5321Y6841D01*
X5322Y6845D01*
X5323Y6849D01*
X5323Y6850D01*
X5323Y6851D01*
X5323Y6854D01*
X5323Y6858D01*
X5322Y6859D01*
X5322Y6860D01*
X5321Y6864D01*
X5319Y6867D01*
X5319Y6868D01*
X5318Y6869D01*
X5315Y6873D01*
X5065Y7123D01*
X5065Y7483D01*
X5315Y7733D01*
X5315Y7734D01*
X5316Y7735D01*
X5318Y7738D01*
X5320Y7741D01*
X5321Y7742D01*
X5321Y7743D01*
X5322Y7747D01*
X5323Y7750D01*
X5323Y7751D01*
X5323Y7752D01*
X5323Y7756D01*
X5323Y7760D01*
X5322Y7761D01*
X5322Y7762D01*
X5321Y7765D01*
X5319Y7769D01*
X5319Y7770D01*
X5318Y7770D01*
X5315Y7775D01*
X5065Y8025D01*
X5065Y8385D01*
X5320Y8640D01*
X5526Y8640D01*
X5530Y8640D01*
X5534Y8641D01*
X5535Y8641D01*
X5539Y8643D01*
X5542Y8645D01*
X5543Y8646D01*
X5544Y8646D01*
X5544Y8647D01*
X5547Y8648D01*
X6850Y9951D01*
X6852Y9955D01*
X6854Y9958D01*
X6855Y9959D01*
X6856Y9963D01*
X6858Y9967D01*
X6858Y9968D01*
X6858Y9969D01*
X6858Y9972D01*
X6858Y10059D01*
X6866Y10067D01*
X6869Y10070D01*
X6871Y10073D01*
X6871Y10074D01*
X6872Y10075D01*
X6873Y10079D01*
X6874Y10082D01*
X6874Y10083D01*
X6875Y10084D01*
X6874Y10085D01*
X6875Y10088D01*
X6875Y10412D01*
X6874Y10416D01*
X6874Y10420D01*
X6873Y10421D01*
X6873Y10422D01*
X6871Y10425D01*
X6870Y10429D01*
X6869Y10430D01*
X6868Y10431D01*
X6866Y10433D01*
X6858Y10441D01*
X6858Y11059D01*
X6906Y11106D01*
X7405Y11106D01*
X7453Y11059D01*
X7453Y10441D01*
X7445Y10433D01*
X7443Y10430D01*
X7440Y10427D01*
X7440Y10426D01*
X7439Y10425D01*
X7438Y10421D01*
X7437Y10418D01*
X7437Y10417D01*
X7437Y10416D01*
X7437Y10415D01*
X7436Y10412D01*
X7436Y10088D01*
X7437Y10084D01*
X7437Y10080D01*
X7438Y10079D01*
X7438Y10078D01*
X7440Y10075D01*
X7441Y10071D01*
X7442Y10070D01*
X7443Y10069D01*
X7445Y10067D01*
X7453Y10059D01*
X7453Y9441D01*
X7405Y9394D01*
X7098Y9394D01*
X7094Y9393D01*
X7090Y9393D01*
X7089Y9392D01*
X7085Y9390D01*
X7082Y9389D01*
X7081Y9388D01*
X7080Y9388D01*
X7080Y9387D01*
X7077Y9385D01*
X5944Y8251D01*
X5941Y8248D01*
X5939Y8245D01*
X5939Y8244D01*
X5938Y8244D01*
X5937Y8240D01*
X5936Y8236D01*
X5935Y8235D01*
X5935Y8234D01*
X5935Y8231D01*
X5935Y8025D01*
X5685Y7775D01*
X5685Y7774D01*
X5684Y7773D01*
X5682Y7770D01*
X5680Y7767D01*
X5679Y7766D01*
X5679Y7765D01*
X5678Y7761D01*
X5677Y7758D01*
X5677Y7757D01*
X5677Y7756D01*
X5677Y7752D01*
X5677Y7748D01*
X5678Y7747D01*
X5678Y7746D01*
X5679Y7743D01*
X5681Y7739D01*
X5681Y7738D01*
X5682Y7737D01*
X5685Y7733D01*
X5935Y7483D01*
X5935Y7123D01*
X5685Y6873D01*
X5685Y6872D01*
X5684Y6872D01*
X5682Y6868D01*
X5680Y6865D01*
X5679Y6864D01*
X5679Y6863D01*
X5678Y6860D01*
X5677Y6856D01*
X5677Y6855D01*
X5677Y6854D01*
X5677Y6850D01*
X5677Y6847D01*
X5678Y6846D01*
X5678Y6845D01*
X5679Y6841D01*
X5681Y6838D01*
X5681Y6837D01*
X5682Y6836D01*
X5685Y6832D01*
X5935Y6582D01*
X5935Y6221D01*
X5685Y5971D01*
X5684Y5970D01*
X5682Y5967D01*
X5680Y5964D01*
X5679Y5963D01*
X5679Y5962D01*
X5678Y5958D01*
X5677Y5955D01*
X5677Y5953D01*
X5677Y5952D01*
X5677Y5949D01*
X5677Y5945D01*
X5678Y5944D01*
X5678Y5943D01*
X5679Y5940D01*
X5681Y5936D01*
X5681Y5935D01*
X5682Y5934D01*
X5685Y5930D01*
X5935Y5680D01*
X5935Y5320D01*
X5699Y5084D01*
X5699Y5083D01*
X5698Y5083D01*
X5696Y5079D01*
X5694Y5076D01*
X5693Y5075D01*
X5693Y5074D01*
X5692Y5071D01*
X5691Y5067D01*
X5691Y5066D01*
X5691Y5065D01*
X5691Y5061D01*
X5691Y5058D01*
X5692Y5057D01*
X5692Y5055D01*
X5693Y5052D01*
X5695Y5049D01*
X5695Y5048D01*
X5696Y5047D01*
X5699Y5043D01*
X5955Y4787D01*
X5955Y4658D01*
X5530Y4658D01*
X5529Y4658D01*
X5528Y4658D01*
X5524Y4657D01*
X5521Y4656D01*
X5520Y4656D01*
X5519Y4655D01*
X5515Y4653D01*
X5512Y4652D01*
X5511Y4651D01*
X5511Y4650D01*
X5508Y4647D01*
X5506Y4645D01*
X5505Y4644D01*
X5505Y4643D01*
X5503Y4639D01*
X5502Y4636D01*
X5502Y4635D01*
X5501Y4634D01*
X5501Y4628D01*
X5501Y4598D01*
X5499Y4598D01*
G37*
%LPD*%
%LPC*%
G36*
X13322Y1319D02*
X13322Y1319D01*
X13069Y1572D01*
X13069Y1928D01*
X13087Y1946D01*
X13089Y1949D01*
X13091Y1952D01*
X13092Y1953D01*
X13092Y1954D01*
X13093Y1957D01*
X13095Y1961D01*
X13095Y1962D01*
X13095Y1963D01*
X13095Y1964D01*
X13095Y1967D01*
X13095Y2440D01*
X13095Y2441D01*
X13095Y2442D01*
X13094Y2446D01*
X13094Y2449D01*
X13093Y2450D01*
X13093Y2451D01*
X13091Y2455D01*
X13089Y2458D01*
X13088Y2459D01*
X13085Y2462D01*
X13082Y2464D01*
X13081Y2465D01*
X13080Y2465D01*
X13077Y2467D01*
X13073Y2468D01*
X13072Y2468D01*
X13071Y2469D01*
X13066Y2469D01*
X12451Y2469D01*
X12348Y2512D01*
X11502Y3358D01*
X11458Y3464D01*
X11456Y3467D01*
X11454Y3471D01*
X11453Y3472D01*
X11450Y3475D01*
X11447Y3477D01*
X11446Y3478D01*
X11442Y3480D01*
X11439Y3481D01*
X11438Y3481D01*
X11437Y3482D01*
X11433Y3482D01*
X11429Y3482D01*
X11428Y3482D01*
X11427Y3482D01*
X11424Y3481D01*
X11420Y3480D01*
X11419Y3479D01*
X11418Y3479D01*
X11415Y3477D01*
X11412Y3475D01*
X11411Y3474D01*
X11410Y3473D01*
X11408Y3470D01*
X11406Y3467D01*
X11405Y3466D01*
X11404Y3462D01*
X11402Y3458D01*
X11402Y3457D01*
X11402Y3456D01*
X11402Y3455D01*
X11402Y3453D01*
X11402Y3309D01*
X11183Y3309D01*
X11183Y3607D01*
X11314Y3607D01*
X11340Y3600D01*
X11363Y3587D01*
X11382Y3568D01*
X11395Y3545D01*
X11402Y3520D01*
X11402Y3519D01*
X11402Y3518D01*
X11404Y3515D01*
X11406Y3511D01*
X11406Y3510D01*
X11407Y3510D01*
X11410Y3507D01*
X11412Y3504D01*
X11413Y3504D01*
X11414Y3503D01*
X11417Y3501D01*
X11421Y3500D01*
X11422Y3500D01*
X11423Y3499D01*
X11426Y3499D01*
X11430Y3498D01*
X11431Y3498D01*
X11432Y3498D01*
X11436Y3499D01*
X11440Y3500D01*
X11441Y3500D01*
X11445Y3503D01*
X11448Y3504D01*
X11449Y3505D01*
X11449Y3506D01*
X11452Y3509D01*
X11454Y3511D01*
X11455Y3512D01*
X11455Y3513D01*
X11457Y3517D01*
X11458Y3520D01*
X11458Y3521D01*
X11459Y3522D01*
X11459Y3527D01*
X11459Y3882D01*
X11459Y3886D01*
X11458Y3889D01*
X11458Y3890D01*
X11458Y3891D01*
X11456Y3895D01*
X11454Y3898D01*
X11453Y3899D01*
X11453Y3900D01*
X11451Y3902D01*
X10668Y4685D01*
X10625Y4789D01*
X10625Y5162D01*
X10624Y5166D01*
X10624Y5170D01*
X10623Y5171D01*
X10623Y5172D01*
X10621Y5175D01*
X10620Y5179D01*
X10619Y5180D01*
X10618Y5181D01*
X10616Y5183D01*
X10608Y5191D01*
X10608Y5809D01*
X10616Y5817D01*
X10619Y5820D01*
X10621Y5823D01*
X10621Y5824D01*
X10622Y5825D01*
X10623Y5829D01*
X10624Y5832D01*
X10624Y5833D01*
X10625Y5834D01*
X10624Y5835D01*
X10625Y5838D01*
X10625Y6162D01*
X10624Y6166D01*
X10624Y6170D01*
X10623Y6171D01*
X10623Y6172D01*
X10621Y6175D01*
X10620Y6179D01*
X10619Y6180D01*
X10618Y6181D01*
X10616Y6183D01*
X10608Y6191D01*
X10608Y6809D01*
X10656Y6856D01*
X11155Y6856D01*
X11203Y6809D01*
X11203Y6191D01*
X11195Y6183D01*
X11193Y6180D01*
X11190Y6177D01*
X11190Y6176D01*
X11189Y6175D01*
X11188Y6171D01*
X11187Y6168D01*
X11187Y6167D01*
X11187Y6166D01*
X11187Y6165D01*
X11186Y6162D01*
X11186Y5838D01*
X11187Y5834D01*
X11187Y5830D01*
X11188Y5829D01*
X11188Y5828D01*
X11190Y5825D01*
X11191Y5821D01*
X11192Y5820D01*
X11193Y5819D01*
X11195Y5817D01*
X11203Y5809D01*
X11203Y5191D01*
X11195Y5183D01*
X11193Y5180D01*
X11190Y5177D01*
X11190Y5176D01*
X11189Y5175D01*
X11188Y5171D01*
X11187Y5168D01*
X11187Y5167D01*
X11187Y5166D01*
X11187Y5165D01*
X11186Y5162D01*
X11186Y4973D01*
X11187Y4969D01*
X11187Y4965D01*
X11188Y4964D01*
X11188Y4963D01*
X11190Y4960D01*
X11191Y4956D01*
X11192Y4956D01*
X11192Y4955D01*
X11193Y4954D01*
X11195Y4952D01*
X11978Y4169D01*
X12021Y4066D01*
X12021Y3646D01*
X12021Y3642D01*
X12022Y3638D01*
X12022Y3637D01*
X12022Y3636D01*
X12024Y3633D01*
X12026Y3629D01*
X12027Y3628D01*
X12027Y3627D01*
X12029Y3625D01*
X12615Y3039D01*
X12618Y3037D01*
X12621Y3035D01*
X12622Y3034D01*
X12623Y3034D01*
X12627Y3033D01*
X12630Y3031D01*
X12631Y3031D01*
X12632Y3031D01*
X12633Y3031D01*
X12636Y3031D01*
X13097Y3031D01*
X13101Y3031D01*
X13105Y3032D01*
X13106Y3032D01*
X13107Y3032D01*
X13110Y3034D01*
X13114Y3036D01*
X13115Y3037D01*
X13116Y3037D01*
X13118Y3039D01*
X13165Y3087D01*
X13587Y3087D01*
X13634Y3039D01*
X13634Y2867D01*
X13634Y2864D01*
X13635Y2861D01*
X13635Y2858D01*
X13635Y2857D01*
X13636Y2857D01*
X13636Y2856D01*
X13657Y2806D01*
X13657Y2210D01*
X13657Y2209D01*
X13657Y2208D01*
X13658Y2204D01*
X13658Y2201D01*
X13659Y2200D01*
X13659Y2199D01*
X13661Y2195D01*
X13663Y2192D01*
X13664Y2191D01*
X13667Y2188D01*
X13670Y2186D01*
X13671Y2185D01*
X13672Y2185D01*
X13675Y2183D01*
X13677Y2183D01*
X13931Y1928D01*
X13931Y1572D01*
X13678Y1319D01*
X13322Y1319D01*
G37*
%LPD*%
%LPC*%
G36*
X7322Y2319D02*
X7322Y2319D01*
X7069Y2572D01*
X7069Y2928D01*
X7211Y3070D01*
X7213Y3073D01*
X7215Y3076D01*
X7216Y3077D01*
X7216Y3078D01*
X7217Y3081D01*
X7219Y3085D01*
X7219Y3086D01*
X7219Y3087D01*
X7219Y3088D01*
X7219Y3091D01*
X7219Y3556D01*
X7262Y3659D01*
X8811Y5208D01*
X8813Y5211D01*
X8815Y5214D01*
X8816Y5215D01*
X8816Y5216D01*
X8817Y5219D01*
X8819Y5223D01*
X8819Y5224D01*
X8819Y5225D01*
X8819Y5228D01*
X8819Y5428D01*
X8961Y5570D01*
X8963Y5573D01*
X8965Y5576D01*
X8966Y5577D01*
X8966Y5578D01*
X8967Y5581D01*
X8968Y5583D01*
X8968Y5584D01*
X8969Y5585D01*
X8969Y5586D01*
X8969Y5587D01*
X8969Y5588D01*
X8969Y5591D01*
X8969Y6347D01*
X8969Y6351D01*
X8968Y6355D01*
X8968Y6356D01*
X8968Y6357D01*
X8966Y6360D01*
X8964Y6364D01*
X8963Y6365D01*
X8963Y6366D01*
X8961Y6368D01*
X8913Y6415D01*
X8913Y6837D01*
X8961Y6884D01*
X9133Y6884D01*
X9136Y6884D01*
X9139Y6885D01*
X9142Y6885D01*
X9143Y6885D01*
X9143Y6886D01*
X9144Y6886D01*
X9194Y6907D01*
X9306Y6907D01*
X9356Y6886D01*
X9359Y6885D01*
X9361Y6884D01*
X9364Y6884D01*
X9365Y6884D01*
X9366Y6884D01*
X9367Y6884D01*
X9539Y6884D01*
X9587Y6837D01*
X9587Y6415D01*
X9539Y6368D01*
X9537Y6365D01*
X9535Y6362D01*
X9534Y6361D01*
X9534Y6360D01*
X9533Y6356D01*
X9531Y6353D01*
X9531Y6352D01*
X9531Y6351D01*
X9531Y6350D01*
X9531Y6347D01*
X9531Y5591D01*
X9531Y5590D01*
X9531Y5589D01*
X9531Y5587D01*
X9532Y5583D01*
X9532Y5582D01*
X9532Y5581D01*
X9534Y5578D01*
X9536Y5574D01*
X9537Y5573D01*
X9537Y5572D01*
X9539Y5570D01*
X9681Y5428D01*
X9681Y5072D01*
X9428Y4819D01*
X9228Y4819D01*
X9224Y4819D01*
X9221Y4818D01*
X9220Y4818D01*
X9219Y4818D01*
X9215Y4816D01*
X9212Y4814D01*
X9211Y4813D01*
X9210Y4813D01*
X9208Y4811D01*
X7789Y3392D01*
X7787Y3389D01*
X7785Y3386D01*
X7784Y3385D01*
X7784Y3384D01*
X7783Y3381D01*
X7781Y3377D01*
X7781Y3376D01*
X7781Y3375D01*
X7781Y3372D01*
X7781Y3091D01*
X7781Y3087D01*
X7782Y3083D01*
X7782Y3082D01*
X7782Y3081D01*
X7784Y3078D01*
X7786Y3074D01*
X7787Y3073D01*
X7787Y3072D01*
X7789Y3070D01*
X7931Y2928D01*
X7931Y2572D01*
X7678Y2319D01*
X7322Y2319D01*
G37*
%LPD*%
%LPC*%
G36*
X7322Y8319D02*
X7322Y8319D01*
X7069Y8572D01*
X7069Y8928D01*
X7322Y9181D01*
X7678Y9181D01*
X7820Y9039D01*
X7823Y9037D01*
X7826Y9035D01*
X7827Y9034D01*
X7828Y9034D01*
X7831Y9033D01*
X7835Y9031D01*
X7836Y9031D01*
X7837Y9031D01*
X7838Y9031D01*
X7841Y9031D01*
X8316Y9031D01*
X8317Y9031D01*
X8318Y9031D01*
X8322Y9032D01*
X8325Y9032D01*
X8326Y9033D01*
X8327Y9033D01*
X8331Y9035D01*
X8334Y9037D01*
X8335Y9038D01*
X8338Y9041D01*
X8340Y9044D01*
X8341Y9045D01*
X8341Y9046D01*
X8343Y9049D01*
X8344Y9053D01*
X8344Y9054D01*
X8345Y9055D01*
X8345Y9060D01*
X8345Y10246D01*
X8345Y10250D01*
X8344Y10253D01*
X8344Y10254D01*
X8344Y10255D01*
X8342Y10259D01*
X8340Y10262D01*
X8339Y10263D01*
X8339Y10264D01*
X8337Y10266D01*
X8173Y10430D01*
X8172Y10431D01*
X8171Y10432D01*
X8168Y10434D01*
X8165Y10436D01*
X8164Y10436D01*
X8163Y10437D01*
X8159Y10438D01*
X8156Y10439D01*
X8155Y10439D01*
X8154Y10439D01*
X8150Y10439D01*
X8146Y10438D01*
X8145Y10438D01*
X8144Y10438D01*
X8141Y10436D01*
X8137Y10435D01*
X8136Y10434D01*
X8135Y10434D01*
X8131Y10430D01*
X8094Y10394D01*
X7595Y10394D01*
X7547Y10441D01*
X7547Y11059D01*
X7555Y11067D01*
X7557Y11070D01*
X7560Y11073D01*
X7560Y11074D01*
X7561Y11075D01*
X7562Y11079D01*
X7563Y11082D01*
X7563Y11083D01*
X7563Y11084D01*
X7563Y11085D01*
X7564Y11088D01*
X7564Y11412D01*
X7564Y11413D01*
X7564Y11414D01*
X7563Y11416D01*
X7563Y11420D01*
X7562Y11421D01*
X7562Y11422D01*
X7561Y11423D01*
X7561Y11424D01*
X7560Y11425D01*
X7559Y11429D01*
X7558Y11430D01*
X7557Y11431D01*
X7555Y11433D01*
X7547Y11441D01*
X7547Y12059D01*
X7595Y12106D01*
X8094Y12106D01*
X8142Y12059D01*
X8142Y11441D01*
X8134Y11433D01*
X8131Y11430D01*
X8129Y11427D01*
X8129Y11426D01*
X8128Y11425D01*
X8127Y11421D01*
X8127Y11420D01*
X8126Y11419D01*
X8126Y11418D01*
X8126Y11417D01*
X8125Y11416D01*
X8126Y11415D01*
X8125Y11412D01*
X8125Y11088D01*
X8126Y11084D01*
X8126Y11080D01*
X8127Y11079D01*
X8127Y11078D01*
X8129Y11075D01*
X8130Y11071D01*
X8131Y11070D01*
X8132Y11069D01*
X8134Y11067D01*
X8142Y11059D01*
X8142Y11058D01*
X8143Y11054D01*
X8143Y11051D01*
X8144Y11050D01*
X8144Y11049D01*
X8146Y11045D01*
X8148Y11042D01*
X8149Y11041D01*
X8152Y11038D01*
X8155Y11036D01*
X8156Y11035D01*
X8157Y11035D01*
X8160Y11033D01*
X8164Y11032D01*
X8165Y11032D01*
X8166Y11031D01*
X8171Y11031D01*
X8306Y11031D01*
X8409Y10988D01*
X8864Y10533D01*
X8907Y10430D01*
X8907Y8694D01*
X8886Y8644D01*
X8886Y8642D01*
X8885Y8641D01*
X8885Y8640D01*
X8884Y8639D01*
X8884Y8636D01*
X8884Y8635D01*
X8884Y8634D01*
X8884Y8633D01*
X8884Y8461D01*
X8837Y8413D01*
X8415Y8413D01*
X8368Y8461D01*
X8365Y8463D01*
X8362Y8465D01*
X8361Y8466D01*
X8360Y8466D01*
X8356Y8467D01*
X8353Y8469D01*
X8352Y8469D01*
X8351Y8469D01*
X8350Y8469D01*
X8347Y8469D01*
X7841Y8469D01*
X7837Y8469D01*
X7833Y8468D01*
X7832Y8468D01*
X7831Y8468D01*
X7828Y8466D01*
X7824Y8464D01*
X7823Y8463D01*
X7822Y8463D01*
X7820Y8461D01*
X7678Y8319D01*
X7322Y8319D01*
G37*
%LPD*%
%LPC*%
G36*
X3320Y4163D02*
X3320Y4163D01*
X3065Y4418D01*
X3065Y4779D01*
X3315Y5029D01*
X3316Y5030D01*
X3318Y5033D01*
X3320Y5036D01*
X3321Y5037D01*
X3321Y5038D01*
X3322Y5042D01*
X3323Y5045D01*
X3323Y5047D01*
X3323Y5048D01*
X3323Y5051D01*
X3323Y5055D01*
X3322Y5056D01*
X3322Y5057D01*
X3321Y5060D01*
X3319Y5064D01*
X3319Y5065D01*
X3318Y5066D01*
X3315Y5070D01*
X3065Y5320D01*
X3065Y5680D01*
X3315Y5930D01*
X3315Y5931D01*
X3316Y5932D01*
X3318Y5935D01*
X3320Y5938D01*
X3321Y5939D01*
X3321Y5940D01*
X3322Y5943D01*
X3323Y5947D01*
X3323Y5948D01*
X3323Y5949D01*
X3323Y5953D01*
X3323Y5957D01*
X3322Y5958D01*
X3322Y5959D01*
X3321Y5962D01*
X3319Y5966D01*
X3318Y5967D01*
X3315Y5971D01*
X3065Y6221D01*
X3065Y6582D01*
X3315Y6832D01*
X3315Y6833D01*
X3316Y6833D01*
X3318Y6836D01*
X3320Y6839D01*
X3321Y6840D01*
X3321Y6841D01*
X3322Y6845D01*
X3323Y6849D01*
X3323Y6850D01*
X3323Y6851D01*
X3323Y6854D01*
X3323Y6858D01*
X3322Y6859D01*
X3322Y6860D01*
X3321Y6864D01*
X3319Y6867D01*
X3319Y6868D01*
X3318Y6869D01*
X3315Y6873D01*
X3065Y7123D01*
X3065Y7483D01*
X3315Y7733D01*
X3315Y7734D01*
X3316Y7735D01*
X3318Y7738D01*
X3320Y7741D01*
X3321Y7742D01*
X3321Y7743D01*
X3322Y7747D01*
X3323Y7750D01*
X3323Y7751D01*
X3323Y7752D01*
X3323Y7756D01*
X3323Y7760D01*
X3322Y7761D01*
X3322Y7762D01*
X3321Y7765D01*
X3319Y7769D01*
X3319Y7770D01*
X3318Y7770D01*
X3315Y7775D01*
X3065Y8025D01*
X3065Y8385D01*
X3320Y8640D01*
X3680Y8640D01*
X3935Y8385D01*
X3935Y8025D01*
X3685Y7775D01*
X3685Y7774D01*
X3684Y7773D01*
X3682Y7770D01*
X3680Y7767D01*
X3679Y7766D01*
X3679Y7765D01*
X3678Y7761D01*
X3677Y7758D01*
X3677Y7757D01*
X3677Y7756D01*
X3677Y7752D01*
X3677Y7748D01*
X3678Y7747D01*
X3678Y7746D01*
X3679Y7743D01*
X3681Y7739D01*
X3681Y7738D01*
X3682Y7737D01*
X3685Y7733D01*
X3935Y7483D01*
X3935Y7123D01*
X3685Y6873D01*
X3685Y6872D01*
X3684Y6872D01*
X3682Y6868D01*
X3680Y6865D01*
X3679Y6864D01*
X3679Y6863D01*
X3678Y6860D01*
X3677Y6856D01*
X3677Y6855D01*
X3677Y6854D01*
X3677Y6850D01*
X3677Y6847D01*
X3678Y6846D01*
X3678Y6845D01*
X3679Y6841D01*
X3681Y6838D01*
X3681Y6837D01*
X3682Y6836D01*
X3685Y6832D01*
X3935Y6582D01*
X3935Y6221D01*
X3685Y5971D01*
X3684Y5970D01*
X3682Y5967D01*
X3680Y5964D01*
X3679Y5963D01*
X3679Y5962D01*
X3678Y5958D01*
X3677Y5955D01*
X3677Y5953D01*
X3677Y5952D01*
X3677Y5949D01*
X3677Y5945D01*
X3678Y5944D01*
X3678Y5943D01*
X3679Y5940D01*
X3681Y5936D01*
X3681Y5935D01*
X3682Y5934D01*
X3685Y5930D01*
X3935Y5680D01*
X3935Y5320D01*
X3685Y5070D01*
X3685Y5069D01*
X3684Y5068D01*
X3682Y5065D01*
X3680Y5062D01*
X3679Y5061D01*
X3679Y5060D01*
X3678Y5057D01*
X3677Y5053D01*
X3677Y5052D01*
X3677Y5051D01*
X3677Y5047D01*
X3677Y5043D01*
X3678Y5042D01*
X3678Y5041D01*
X3679Y5038D01*
X3681Y5034D01*
X3682Y5033D01*
X3685Y5029D01*
X3935Y4779D01*
X3935Y4418D01*
X3680Y4163D01*
X3320Y4163D01*
G37*
%LPD*%
%LPC*%
G36*
X7322Y1319D02*
X7322Y1319D01*
X7069Y1572D01*
X7069Y1928D01*
X7322Y2181D01*
X7678Y2181D01*
X7710Y2149D01*
X7711Y2148D01*
X7712Y2147D01*
X7715Y2145D01*
X7718Y2143D01*
X7719Y2143D01*
X7720Y2142D01*
X7724Y2142D01*
X7727Y2140D01*
X7728Y2140D01*
X7729Y2140D01*
X7733Y2141D01*
X7737Y2141D01*
X7738Y2141D01*
X7739Y2141D01*
X7742Y2143D01*
X7746Y2144D01*
X7747Y2145D01*
X7748Y2145D01*
X7752Y2149D01*
X8811Y3208D01*
X8813Y3211D01*
X8815Y3214D01*
X8816Y3215D01*
X8816Y3216D01*
X8817Y3219D01*
X8819Y3223D01*
X8819Y3224D01*
X8819Y3225D01*
X8819Y3228D01*
X8819Y3428D01*
X9072Y3681D01*
X9428Y3681D01*
X9570Y3539D01*
X9573Y3537D01*
X9576Y3535D01*
X9577Y3534D01*
X9578Y3534D01*
X9581Y3533D01*
X9585Y3531D01*
X9586Y3531D01*
X9587Y3531D01*
X9588Y3531D01*
X9591Y3531D01*
X10097Y3531D01*
X10101Y3531D01*
X10105Y3532D01*
X10106Y3532D01*
X10107Y3532D01*
X10110Y3534D01*
X10114Y3536D01*
X10115Y3537D01*
X10116Y3537D01*
X10118Y3539D01*
X10165Y3587D01*
X10587Y3587D01*
X10634Y3539D01*
X10634Y3367D01*
X10634Y3366D01*
X10634Y3364D01*
X10635Y3361D01*
X10635Y3358D01*
X10635Y3357D01*
X10636Y3357D01*
X10636Y3356D01*
X10657Y3306D01*
X10657Y3194D01*
X10636Y3144D01*
X10636Y3143D01*
X10635Y3142D01*
X10635Y3141D01*
X10634Y3139D01*
X10634Y3136D01*
X10634Y3135D01*
X10634Y3134D01*
X10634Y3133D01*
X10634Y2961D01*
X10587Y2913D01*
X10165Y2913D01*
X10118Y2961D01*
X10115Y2963D01*
X10112Y2965D01*
X10111Y2966D01*
X10110Y2966D01*
X10106Y2967D01*
X10103Y2969D01*
X10102Y2969D01*
X10101Y2969D01*
X10100Y2969D01*
X10097Y2969D01*
X9591Y2969D01*
X9587Y2969D01*
X9583Y2968D01*
X9582Y2968D01*
X9581Y2968D01*
X9578Y2966D01*
X9574Y2964D01*
X9573Y2963D01*
X9572Y2963D01*
X9570Y2961D01*
X9428Y2819D01*
X9228Y2819D01*
X9224Y2819D01*
X9221Y2818D01*
X9220Y2818D01*
X9219Y2818D01*
X9215Y2816D01*
X9212Y2814D01*
X9211Y2813D01*
X9210Y2813D01*
X9208Y2811D01*
X7992Y1595D01*
X7909Y1512D01*
X7850Y1487D01*
X7847Y1486D01*
X7844Y1485D01*
X7842Y1483D01*
X7842Y1482D01*
X7841Y1482D01*
X7840Y1481D01*
X7678Y1319D01*
X7322Y1319D01*
G37*
%LPD*%
%LPC*%
G36*
X4499Y5048D02*
X4499Y5048D01*
X4499Y5079D01*
X4499Y5080D01*
X4499Y5081D01*
X4498Y5085D01*
X4498Y5089D01*
X4497Y5090D01*
X4497Y5091D01*
X4495Y5094D01*
X4493Y5097D01*
X4492Y5098D01*
X4492Y5099D01*
X4489Y5101D01*
X4486Y5104D01*
X4485Y5104D01*
X4484Y5105D01*
X4481Y5106D01*
X4477Y5108D01*
X4476Y5108D01*
X4475Y5108D01*
X4470Y5108D01*
X4045Y5108D01*
X4045Y5238D01*
X4301Y5493D01*
X4301Y5494D01*
X4302Y5495D01*
X4304Y5498D01*
X4306Y5501D01*
X4307Y5502D01*
X4307Y5503D01*
X4308Y5507D01*
X4309Y5510D01*
X4309Y5511D01*
X4309Y5512D01*
X4309Y5516D01*
X4309Y5520D01*
X4308Y5521D01*
X4308Y5522D01*
X4307Y5525D01*
X4305Y5529D01*
X4305Y5530D01*
X4304Y5531D01*
X4301Y5535D01*
X4065Y5771D01*
X4065Y6131D01*
X4301Y6367D01*
X4301Y6368D01*
X4302Y6368D01*
X4304Y6371D01*
X4306Y6375D01*
X4307Y6376D01*
X4308Y6380D01*
X4309Y6384D01*
X4309Y6385D01*
X4309Y6386D01*
X4309Y6389D01*
X4309Y6393D01*
X4308Y6394D01*
X4308Y6395D01*
X4307Y6399D01*
X4305Y6402D01*
X4305Y6403D01*
X4304Y6404D01*
X4301Y6408D01*
X4045Y6664D01*
X4045Y6793D01*
X4470Y6793D01*
X4471Y6793D01*
X4472Y6793D01*
X4476Y6794D01*
X4479Y6795D01*
X4480Y6795D01*
X4481Y6795D01*
X4485Y6797D01*
X4488Y6799D01*
X4489Y6800D01*
X4489Y6801D01*
X4492Y6803D01*
X4494Y6806D01*
X4495Y6807D01*
X4495Y6808D01*
X4497Y6812D01*
X4498Y6815D01*
X4498Y6816D01*
X4499Y6817D01*
X4499Y6822D01*
X4499Y6853D01*
X4501Y6853D01*
X4501Y6822D01*
X4501Y6821D01*
X4501Y6820D01*
X4502Y6817D01*
X4502Y6813D01*
X4503Y6812D01*
X4503Y6811D01*
X4505Y6808D01*
X4507Y6804D01*
X4508Y6804D01*
X4508Y6803D01*
X4511Y6801D01*
X4514Y6798D01*
X4515Y6798D01*
X4516Y6797D01*
X4519Y6796D01*
X4523Y6794D01*
X4524Y6794D01*
X4525Y6794D01*
X4530Y6793D01*
X4955Y6793D01*
X4955Y6664D01*
X4699Y6408D01*
X4699Y6407D01*
X4698Y6407D01*
X4696Y6403D01*
X4694Y6400D01*
X4693Y6399D01*
X4693Y6398D01*
X4692Y6395D01*
X4691Y6391D01*
X4691Y6390D01*
X4691Y6389D01*
X4691Y6385D01*
X4691Y6382D01*
X4692Y6381D01*
X4692Y6380D01*
X4693Y6376D01*
X4695Y6373D01*
X4695Y6372D01*
X4696Y6371D01*
X4699Y6367D01*
X4935Y6131D01*
X4935Y5771D01*
X4699Y5535D01*
X4699Y5534D01*
X4698Y5533D01*
X4696Y5530D01*
X4694Y5527D01*
X4693Y5526D01*
X4693Y5525D01*
X4692Y5521D01*
X4691Y5518D01*
X4691Y5517D01*
X4691Y5516D01*
X4691Y5512D01*
X4691Y5508D01*
X4692Y5507D01*
X4692Y5506D01*
X4693Y5503D01*
X4695Y5499D01*
X4696Y5498D01*
X4699Y5493D01*
X4955Y5238D01*
X4955Y5108D01*
X4530Y5108D01*
X4529Y5108D01*
X4528Y5108D01*
X4524Y5108D01*
X4521Y5107D01*
X4520Y5106D01*
X4519Y5106D01*
X4515Y5104D01*
X4512Y5102D01*
X4511Y5102D01*
X4511Y5101D01*
X4508Y5098D01*
X4506Y5095D01*
X4505Y5094D01*
X4503Y5090D01*
X4502Y5087D01*
X4502Y5086D01*
X4501Y5085D01*
X4501Y5079D01*
X4501Y5048D01*
X4499Y5048D01*
G37*
%LPD*%
%LPC*%
G36*
X3514Y11481D02*
X3514Y11481D01*
X3526Y11587D01*
X3550Y11695D01*
X3587Y11799D01*
X3635Y11899D01*
X3694Y11993D01*
X3763Y12080D01*
X3842Y12158D01*
X3928Y12227D01*
X4022Y12286D01*
X4122Y12334D01*
X4226Y12371D01*
X4334Y12395D01*
X4441Y12407D01*
X4441Y11481D01*
X3514Y11481D01*
G37*
%LPD*%
%LPC*%
G36*
X4334Y605D02*
X4334Y605D01*
X4226Y629D01*
X4122Y666D01*
X4022Y714D01*
X3928Y773D01*
X3842Y842D01*
X3763Y920D01*
X3694Y1007D01*
X3635Y1101D01*
X3587Y1201D01*
X3550Y1305D01*
X3526Y1413D01*
X3514Y1519D01*
X4441Y1519D01*
X4441Y593D01*
X4334Y605D01*
G37*
%LPD*%
%LPC*%
G36*
X4559Y1519D02*
X4559Y1519D01*
X5486Y1519D01*
X5474Y1413D01*
X5450Y1305D01*
X5413Y1201D01*
X5365Y1101D01*
X5306Y1007D01*
X5237Y920D01*
X5158Y842D01*
X5072Y773D01*
X4978Y714D01*
X4878Y666D01*
X4774Y629D01*
X4666Y605D01*
X4559Y593D01*
X4559Y1519D01*
G37*
%LPD*%
%LPC*%
G36*
X3514Y1638D02*
X3514Y1638D01*
X3526Y1744D01*
X3550Y1852D01*
X3587Y1957D01*
X3635Y2057D01*
X3694Y2151D01*
X3763Y2237D01*
X3842Y2316D01*
X3928Y2385D01*
X4022Y2444D01*
X4122Y2492D01*
X4226Y2528D01*
X4334Y2553D01*
X4441Y2565D01*
X4441Y1638D01*
X3514Y1638D01*
G37*
%LPD*%
%LPC*%
G36*
X4559Y1638D02*
X4559Y1638D01*
X4559Y2565D01*
X4666Y2553D01*
X4774Y2528D01*
X4878Y2492D01*
X4978Y2444D01*
X5072Y2385D01*
X5158Y2316D01*
X5237Y2237D01*
X5306Y2151D01*
X5365Y2057D01*
X5413Y1957D01*
X5450Y1852D01*
X5474Y1744D01*
X5486Y1638D01*
X4559Y1638D01*
G37*
%LPD*%
%LPC*%
G36*
X4559Y11481D02*
X4559Y11481D01*
X4559Y12407D01*
X4666Y12395D01*
X4774Y12371D01*
X4878Y12334D01*
X4978Y12286D01*
X5072Y12227D01*
X5158Y12158D01*
X5237Y12080D01*
X5306Y11993D01*
X5365Y11899D01*
X5413Y11799D01*
X5450Y11695D01*
X5474Y11587D01*
X5486Y11481D01*
X4559Y11481D01*
G37*
%LPD*%
%LPC*%
G36*
X4334Y10447D02*
X4334Y10447D01*
X4226Y10472D01*
X4122Y10508D01*
X4022Y10556D01*
X3928Y10615D01*
X3842Y10684D01*
X3763Y10763D01*
X3694Y10849D01*
X3635Y10943D01*
X3587Y11043D01*
X3550Y11148D01*
X3526Y11256D01*
X3514Y11362D01*
X4441Y11362D01*
X4441Y10435D01*
X4334Y10447D01*
G37*
%LPD*%
%LPC*%
G36*
X4559Y11362D02*
X4559Y11362D01*
X5486Y11362D01*
X5474Y11256D01*
X5450Y11148D01*
X5413Y11043D01*
X5365Y10943D01*
X5306Y10849D01*
X5237Y10763D01*
X5158Y10684D01*
X5072Y10615D01*
X4978Y10556D01*
X4878Y10508D01*
X4774Y10472D01*
X4666Y10447D01*
X4559Y10435D01*
X4559Y11362D01*
G37*
%LPD*%
%LPC*%
G36*
X4559Y7813D02*
X4559Y7813D01*
X4559Y8596D01*
X4955Y8596D01*
X4955Y8467D01*
X4713Y8225D01*
X4712Y8224D01*
X4710Y8221D01*
X4708Y8218D01*
X4708Y8217D01*
X4707Y8216D01*
X4706Y8212D01*
X4705Y8208D01*
X4705Y8207D01*
X4705Y8206D01*
X4705Y8203D01*
X4705Y8199D01*
X4706Y8198D01*
X4706Y8197D01*
X4708Y8193D01*
X4709Y8190D01*
X4710Y8189D01*
X4710Y8188D01*
X4713Y8184D01*
X4955Y7942D01*
X4955Y7813D01*
X4559Y7813D01*
G37*
%LPD*%
%LPC*%
G36*
X4559Y6912D02*
X4559Y6912D01*
X4559Y7695D01*
X4955Y7695D01*
X4955Y7565D01*
X4713Y7324D01*
X4713Y7323D01*
X4712Y7322D01*
X4710Y7319D01*
X4708Y7316D01*
X4708Y7315D01*
X4707Y7314D01*
X4706Y7310D01*
X4705Y7307D01*
X4705Y7306D01*
X4705Y7305D01*
X4705Y7301D01*
X4705Y7297D01*
X4706Y7296D01*
X4706Y7295D01*
X4708Y7292D01*
X4709Y7288D01*
X4710Y7288D01*
X4710Y7287D01*
X4713Y7282D01*
X4955Y7041D01*
X4955Y6912D01*
X4559Y6912D01*
G37*
%LPD*%
%LPC*%
G36*
X4045Y7813D02*
X4045Y7813D01*
X4045Y7942D01*
X4287Y8184D01*
X4287Y8185D01*
X4288Y8186D01*
X4290Y8189D01*
X4292Y8192D01*
X4292Y8193D01*
X4293Y8194D01*
X4294Y8197D01*
X4295Y8201D01*
X4295Y8202D01*
X4295Y8203D01*
X4295Y8207D01*
X4295Y8211D01*
X4294Y8212D01*
X4294Y8213D01*
X4292Y8216D01*
X4291Y8219D01*
X4290Y8220D01*
X4290Y8221D01*
X4287Y8225D01*
X4045Y8467D01*
X4045Y8596D01*
X4441Y8596D01*
X4441Y7813D01*
X4045Y7813D01*
G37*
%LPD*%
%LPC*%
G36*
X4045Y6912D02*
X4045Y6912D01*
X4045Y7041D01*
X4287Y7282D01*
X4287Y7283D01*
X4288Y7284D01*
X4290Y7287D01*
X4292Y7290D01*
X4292Y7291D01*
X4293Y7292D01*
X4294Y7296D01*
X4295Y7299D01*
X4295Y7300D01*
X4295Y7301D01*
X4295Y7305D01*
X4295Y7309D01*
X4294Y7310D01*
X4294Y7311D01*
X4292Y7314D01*
X4291Y7318D01*
X4290Y7319D01*
X4290Y7320D01*
X4287Y7324D01*
X4045Y7565D01*
X4045Y7695D01*
X4441Y7695D01*
X4441Y6912D01*
X4045Y6912D01*
G37*
%LPD*%
%LPC*%
G36*
X4559Y8715D02*
X4559Y8715D01*
X4559Y9111D01*
X4688Y9111D01*
X4955Y8844D01*
X4955Y8715D01*
X4559Y8715D01*
G37*
%LPD*%
%LPC*%
G36*
X4559Y4594D02*
X4559Y4594D01*
X4559Y4990D01*
X4955Y4990D01*
X4955Y4861D01*
X4689Y4594D01*
X4559Y4594D01*
G37*
%LPD*%
%LPC*%
G36*
X4045Y8715D02*
X4045Y8715D01*
X4045Y8844D01*
X4311Y9111D01*
X4441Y9111D01*
X4441Y8715D01*
X4045Y8715D01*
G37*
%LPD*%
%LPC*%
G36*
X5559Y4143D02*
X5559Y4143D01*
X5559Y4539D01*
X5955Y4539D01*
X5955Y4410D01*
X5689Y4143D01*
X5559Y4143D01*
G37*
%LPD*%
%LPC*%
G36*
X4311Y4594D02*
X4311Y4594D01*
X4045Y4861D01*
X4045Y4990D01*
X4441Y4990D01*
X4441Y4594D01*
X4311Y4594D01*
G37*
%LPD*%
%LPC*%
G36*
X5311Y4143D02*
X5311Y4143D01*
X5045Y4410D01*
X5045Y4539D01*
X5441Y4539D01*
X5441Y4143D01*
X5311Y4143D01*
G37*
%LPD*%
%LPC*%
G36*
X11654Y5559D02*
X11654Y5559D01*
X11654Y5876D01*
X11824Y5876D01*
X11850Y5869D01*
X11873Y5856D01*
X11892Y5837D01*
X11905Y5814D01*
X11912Y5789D01*
X11912Y5559D01*
X11654Y5559D01*
G37*
%LPD*%
%LPC*%
G36*
X7904Y9809D02*
X7904Y9809D01*
X7904Y10126D01*
X8074Y10126D01*
X8100Y10119D01*
X8123Y10106D01*
X8142Y10087D01*
X8155Y10064D01*
X8162Y10039D01*
X8162Y9809D01*
X7904Y9809D01*
G37*
%LPD*%
%LPC*%
G36*
X7215Y11809D02*
X7215Y11809D01*
X7215Y12126D01*
X7385Y12126D01*
X7411Y12119D01*
X7434Y12106D01*
X7453Y12087D01*
X7466Y12064D01*
X7473Y12039D01*
X7473Y11809D01*
X7215Y11809D01*
G37*
%LPD*%
%LPC*%
G36*
X10965Y7559D02*
X10965Y7559D01*
X10965Y7876D01*
X11135Y7876D01*
X11161Y7869D01*
X11184Y7856D01*
X11203Y7837D01*
X11216Y7814D01*
X11223Y7789D01*
X11223Y7559D01*
X10965Y7559D01*
G37*
%LPD*%
%LPC*%
G36*
X7904Y9374D02*
X7904Y9374D01*
X7904Y9691D01*
X8162Y9691D01*
X8162Y9461D01*
X8155Y9436D01*
X8142Y9413D01*
X8123Y9394D01*
X8100Y9381D01*
X8074Y9374D01*
X7904Y9374D01*
G37*
%LPD*%
%LPC*%
G36*
X11654Y5124D02*
X11654Y5124D01*
X11654Y5441D01*
X11912Y5441D01*
X11912Y5211D01*
X11905Y5186D01*
X11892Y5163D01*
X11873Y5144D01*
X11850Y5131D01*
X11824Y5124D01*
X11654Y5124D01*
G37*
%LPD*%
%LPC*%
G36*
X10965Y7124D02*
X10965Y7124D01*
X10965Y7441D01*
X11223Y7441D01*
X11223Y7211D01*
X11216Y7186D01*
X11203Y7163D01*
X11184Y7144D01*
X11161Y7131D01*
X11135Y7124D01*
X10965Y7124D01*
G37*
%LPD*%
%LPC*%
G36*
X7215Y11374D02*
X7215Y11374D01*
X7215Y11691D01*
X7473Y11691D01*
X7473Y11461D01*
X7469Y11448D01*
X7466Y11436D01*
X7453Y11413D01*
X7434Y11394D01*
X7411Y11381D01*
X7385Y11374D01*
X7215Y11374D01*
G37*
%LPD*%
%LPC*%
G36*
X7527Y9809D02*
X7527Y9809D01*
X7527Y10039D01*
X7534Y10064D01*
X7547Y10087D01*
X7566Y10106D01*
X7589Y10119D01*
X7615Y10126D01*
X7785Y10126D01*
X7785Y9809D01*
X7527Y9809D01*
G37*
%LPD*%
%LPC*%
G36*
X10588Y7559D02*
X10588Y7559D01*
X10588Y7789D01*
X10595Y7814D01*
X10608Y7837D01*
X10627Y7856D01*
X10650Y7869D01*
X10676Y7876D01*
X10846Y7876D01*
X10846Y7559D01*
X10588Y7559D01*
G37*
%LPD*%
%LPC*%
G36*
X6838Y11809D02*
X6838Y11809D01*
X6838Y12039D01*
X6845Y12064D01*
X6858Y12087D01*
X6877Y12106D01*
X6900Y12119D01*
X6926Y12126D01*
X7096Y12126D01*
X7096Y11809D01*
X6838Y11809D01*
G37*
%LPD*%
%LPC*%
G36*
X11277Y5559D02*
X11277Y5559D01*
X11277Y5789D01*
X11284Y5814D01*
X11297Y5837D01*
X11316Y5856D01*
X11339Y5869D01*
X11365Y5876D01*
X11535Y5876D01*
X11535Y5559D01*
X11277Y5559D01*
G37*
%LPD*%
%LPC*%
G36*
X10676Y7124D02*
X10676Y7124D01*
X10650Y7131D01*
X10627Y7144D01*
X10608Y7163D01*
X10595Y7186D01*
X10588Y7211D01*
X10588Y7441D01*
X10846Y7441D01*
X10846Y7124D01*
X10676Y7124D01*
G37*
%LPD*%
%LPC*%
G36*
X7615Y9374D02*
X7615Y9374D01*
X7589Y9381D01*
X7566Y9394D01*
X7547Y9413D01*
X7534Y9436D01*
X7527Y9461D01*
X7527Y9691D01*
X7785Y9691D01*
X7785Y9374D01*
X7615Y9374D01*
G37*
%LPD*%
%LPC*%
G36*
X6926Y11374D02*
X6926Y11374D01*
X6900Y11381D01*
X6877Y11394D01*
X6858Y11413D01*
X6845Y11436D01*
X6838Y11461D01*
X6838Y11691D01*
X7096Y11691D01*
X7096Y11374D01*
X6926Y11374D01*
G37*
%LPD*%
%LPC*%
G36*
X11365Y5124D02*
X11365Y5124D01*
X11339Y5131D01*
X11316Y5144D01*
X11297Y5163D01*
X11284Y5186D01*
X11277Y5211D01*
X11277Y5441D01*
X11535Y5441D01*
X11535Y5124D01*
X11365Y5124D01*
G37*
%LPD*%
%LPC*%
G36*
X9309Y7433D02*
X9309Y7433D01*
X9309Y7652D01*
X9519Y7652D01*
X9545Y7645D01*
X9568Y7632D01*
X9587Y7613D01*
X9600Y7590D01*
X9607Y7564D01*
X9607Y7433D01*
X9309Y7433D01*
G37*
%LPD*%
%LPC*%
G36*
X14183Y2809D02*
X14183Y2809D01*
X14183Y3107D01*
X14314Y3107D01*
X14340Y3100D01*
X14363Y3087D01*
X14382Y3068D01*
X14395Y3045D01*
X14402Y3019D01*
X14402Y2809D01*
X14183Y2809D01*
G37*
%LPD*%
%LPC*%
G36*
X9433Y8809D02*
X9433Y8809D01*
X9433Y9107D01*
X9564Y9107D01*
X9590Y9100D01*
X9613Y9087D01*
X9632Y9068D01*
X9645Y9045D01*
X9652Y9019D01*
X9652Y8809D01*
X9433Y8809D01*
G37*
%LPD*%
%LPC*%
G36*
X8893Y7433D02*
X8893Y7433D01*
X8893Y7564D01*
X8900Y7590D01*
X8913Y7613D01*
X8932Y7632D01*
X8955Y7645D01*
X8981Y7652D01*
X9191Y7652D01*
X9191Y7433D01*
X8893Y7433D01*
G37*
%LPD*%
%LPC*%
G36*
X11183Y2893D02*
X11183Y2893D01*
X11183Y3191D01*
X11402Y3191D01*
X11402Y2981D01*
X11395Y2955D01*
X11382Y2932D01*
X11363Y2913D01*
X11340Y2900D01*
X11314Y2893D01*
X11183Y2893D01*
G37*
%LPD*%
%LPC*%
G36*
X9433Y8393D02*
X9433Y8393D01*
X9433Y8691D01*
X9652Y8691D01*
X9652Y8481D01*
X9645Y8455D01*
X9632Y8432D01*
X9613Y8413D01*
X9590Y8400D01*
X9564Y8393D01*
X9433Y8393D01*
G37*
%LPD*%
%LPC*%
G36*
X14183Y2393D02*
X14183Y2393D01*
X14183Y2691D01*
X14402Y2691D01*
X14402Y2481D01*
X14399Y2469D01*
X14395Y2455D01*
X14382Y2432D01*
X14363Y2413D01*
X14340Y2400D01*
X14314Y2393D01*
X14183Y2393D01*
G37*
%LPD*%
%LPC*%
G36*
X13846Y2809D02*
X13846Y2809D01*
X13846Y3019D01*
X13853Y3045D01*
X13866Y3068D01*
X13885Y3087D01*
X13908Y3100D01*
X13934Y3107D01*
X14065Y3107D01*
X14065Y2809D01*
X13846Y2809D01*
G37*
%LPD*%
%LPC*%
G36*
X9096Y8809D02*
X9096Y8809D01*
X9096Y9019D01*
X9100Y9035D01*
X9103Y9045D01*
X9116Y9068D01*
X9135Y9087D01*
X9158Y9100D01*
X9184Y9107D01*
X9315Y9107D01*
X9315Y8809D01*
X9096Y8809D01*
G37*
%LPD*%
%LPC*%
G36*
X10846Y3309D02*
X10846Y3309D01*
X10846Y3519D01*
X10851Y3536D01*
X10853Y3545D01*
X10866Y3568D01*
X10885Y3587D01*
X10908Y3600D01*
X10934Y3607D01*
X11065Y3607D01*
X11065Y3309D01*
X10846Y3309D01*
G37*
%LPD*%
%LPC*%
G36*
X9309Y7096D02*
X9309Y7096D01*
X9309Y7315D01*
X9607Y7315D01*
X9607Y7184D01*
X9600Y7158D01*
X9587Y7135D01*
X9568Y7116D01*
X9545Y7103D01*
X9519Y7096D01*
X9309Y7096D01*
G37*
%LPD*%
%LPC*%
G36*
X13934Y2393D02*
X13934Y2393D01*
X13908Y2400D01*
X13885Y2413D01*
X13866Y2432D01*
X13853Y2455D01*
X13846Y2481D01*
X13846Y2691D01*
X14065Y2691D01*
X14065Y2393D01*
X13934Y2393D01*
G37*
%LPD*%
%LPC*%
G36*
X9184Y8393D02*
X9184Y8393D01*
X9158Y8400D01*
X9135Y8413D01*
X9116Y8432D01*
X9103Y8455D01*
X9096Y8481D01*
X9096Y8691D01*
X9315Y8691D01*
X9315Y8393D01*
X9184Y8393D01*
G37*
%LPD*%
%LPC*%
G36*
X8981Y7096D02*
X8981Y7096D01*
X8955Y7103D01*
X8932Y7116D01*
X8913Y7135D01*
X8900Y7158D01*
X8893Y7184D01*
X8893Y7315D01*
X9191Y7315D01*
X9191Y7096D01*
X8981Y7096D01*
G37*
%LPD*%
%LPC*%
G36*
X10934Y2893D02*
X10934Y2893D01*
X10908Y2900D01*
X10885Y2913D01*
X10866Y2932D01*
X10853Y2955D01*
X10846Y2981D01*
X10846Y3191D01*
X11065Y3191D01*
X11065Y2893D01*
X10934Y2893D01*
G37*
%LPD*%
%LPC*%
G36*
X4499Y7753D02*
X4499Y7753D01*
X4499Y7755D01*
X4501Y7755D01*
X4501Y7753D01*
X4499Y7753D01*
G37*
%LPD*%
%LPC*%
G36*
X4499Y8655D02*
X4499Y8655D01*
X4499Y8656D01*
X4501Y8656D01*
X4501Y8655D01*
X4499Y8655D01*
G37*
%LPD*%
%LPC*%
G36*
X4499Y1578D02*
X4499Y1578D01*
X4499Y1579D01*
X4501Y1579D01*
X4501Y1578D01*
X4499Y1578D01*
G37*
%LPD*%
%LPC*%
G36*
X4499Y11421D02*
X4499Y11421D01*
X4499Y11422D01*
X4501Y11422D01*
X4501Y11421D01*
X4499Y11421D01*
G37*
%LPD*%
%LPC*%
G36*
X11123Y3249D02*
X11123Y3249D01*
X11123Y3251D01*
X11125Y3251D01*
X11125Y3249D01*
X11123Y3249D01*
G37*
%LPD*%
%LPC*%
G36*
X14123Y2749D02*
X14123Y2749D01*
X14123Y2751D01*
X14125Y2751D01*
X14125Y2749D01*
X14123Y2749D01*
G37*
%LPD*%
%LPC*%
G36*
X11594Y5499D02*
X11594Y5499D01*
X11594Y5501D01*
X11595Y5501D01*
X11595Y5499D01*
X11594Y5499D01*
G37*
%LPD*%
%LPC*%
G36*
X9373Y8749D02*
X9373Y8749D01*
X9373Y8751D01*
X9375Y8751D01*
X9375Y8749D01*
X9373Y8749D01*
G37*
%LPD*%
%LPC*%
G36*
X7155Y11749D02*
X7155Y11749D01*
X7155Y11751D01*
X7156Y11751D01*
X7156Y11749D01*
X7155Y11749D01*
G37*
%LPD*%
%LPC*%
G36*
X10905Y7499D02*
X10905Y7499D01*
X10905Y7501D01*
X10906Y7501D01*
X10906Y7499D01*
X10905Y7499D01*
G37*
%LPD*%
%LPC*%
G36*
X7844Y9749D02*
X7844Y9749D01*
X7844Y9751D01*
X7845Y9751D01*
X7845Y9749D01*
X7844Y9749D01*
G37*
%LPD*%
%LPC*%
G36*
X9249Y7373D02*
X9249Y7373D01*
X9249Y7375D01*
X9251Y7375D01*
X9251Y7373D01*
X9249Y7373D01*
G37*
%LPD*%
D10*
X9250Y6626D03*
X9250Y7374D03*
D11*
X10376Y3250D03*
X11124Y3250D03*
X13376Y2750D03*
X14124Y2750D03*
X8626Y8750D03*
X9374Y8750D03*
D12*
X7500Y8750D03*
X7500Y2750D03*
X9250Y5250D03*
X9250Y3250D03*
D13*
X7500Y1750D03*
X13500Y1750D03*
D14*
X11594Y5500D03*
X10906Y5500D03*
X11594Y6500D03*
X10906Y6500D03*
X11594Y7500D03*
X10906Y7500D03*
X7844Y11750D03*
X7156Y11750D03*
X7156Y10750D03*
X7844Y10750D03*
X7844Y9750D03*
X7156Y9750D03*
D15*
X5500Y8205D03*
X5500Y7303D03*
X5500Y6402D03*
X5500Y5500D03*
X5500Y4598D03*
X3500Y8205D03*
X3500Y7303D03*
X3500Y6402D03*
X3500Y5500D03*
X3500Y4598D03*
X4500Y8656D03*
X4500Y7754D03*
X4500Y6852D03*
X4500Y5951D03*
X4500Y5049D03*
D16*
X4500Y11421D03*
X4500Y1579D03*
D17*
X13868Y6500D03*
D18*
X13750Y4875D03*
X13750Y8125D03*
D19*
X14500Y7125D03*
X13750Y7125D03*
X13000Y7125D03*
X13750Y5875D03*
X14500Y5875D03*
X13000Y5875D03*
X13000Y9000D03*
X13750Y9000D03*
X14500Y9000D03*
X13000Y4000D03*
X13750Y4000D03*
X14500Y4000D03*
D20*
X500Y500D03*
X2000Y500D03*
X3500Y500D03*
X5000Y500D03*
X6500Y500D03*
X8000Y500D03*
X9500Y500D03*
X11000Y500D03*
X12500Y500D03*
X14000Y500D03*
X500Y2000D03*
X500Y3500D03*
X500Y5000D03*
X500Y6500D03*
X500Y8000D03*
X500Y9500D03*
X500Y11000D03*
X500Y12500D03*
X2000Y12500D03*
X3500Y12500D03*
X5000Y12500D03*
X6500Y12500D03*
X8000Y12500D03*
X9500Y12500D03*
X11000Y12500D03*
X12500Y12500D03*
X14000Y12500D03*
X14500Y11250D03*
X14500Y10000D03*
X14500Y1000D03*
X14500Y2250D03*
D21*
X7750Y1750D02*
X7500Y1750D01*
X7750Y1750D02*
X9250Y3250D01*
X10376Y3250D01*
X7500Y3500D02*
X7500Y2750D01*
X7500Y3500D02*
X9250Y5250D01*
X9250Y6626D01*
X10906Y6500D02*
X10906Y5500D01*
X11740Y4010D02*
X11740Y3517D01*
X12507Y2750D02*
X13376Y2750D01*
X12507Y2750D02*
X11740Y3517D01*
X10906Y4844D02*
X10906Y5500D01*
X10906Y4844D02*
X11740Y4010D01*
X13376Y2750D02*
X13376Y1874D01*
X13500Y1750D01*
X7844Y10750D02*
X7844Y11750D01*
X7844Y10750D02*
X8250Y10750D01*
X8626Y10374D02*
X8626Y8750D01*
X8626Y10374D02*
X8250Y10750D01*
X8626Y8750D02*
X7500Y8750D01*
X11594Y7500D02*
X11594Y6500D01*
D22*
X13868Y6500D01*
D21*
X7045Y9750D02*
X5500Y8205D01*
X7045Y9750D02*
X7156Y9750D01*
X7156Y10750D01*
M02*
