G04 EAGLE Gerber X2 export*
%TF.Part,Single*%
%TF.FileFunction,Copper,L2,Bot,Mixed*%
%TF.FilePolarity,Positive*%
%TF.GenerationSoftware,Autodesk,EAGLE,9.0.0*%
%TF.CreationDate,2018-05-04T13:40:38Z*%
G75*
%MOIN*%
%FSLAX34Y34*%
%LPD*%
%AMOC8*
5,1,8,0,0,1.08239X$1,22.5*%
G01*
%ADD10P,0.076705X8X292.500000*%
%ADD11C,0.177165*%
%ADD12C,0.023780*%
%ADD13P,0.075767X8X22.500000*%
%ADD14C,0.032480*%
%ADD15C,0.021811*%

G36*
X10813Y151D02*
X10813Y151D01*
X10814Y151D01*
X10818Y152D01*
X10822Y152D01*
X10822Y153D01*
X10824Y153D01*
X10827Y155D01*
X10830Y157D01*
X10831Y158D01*
X10832Y158D01*
X10834Y161D01*
X10837Y164D01*
X10837Y165D01*
X10838Y166D01*
X10839Y169D01*
X10840Y173D01*
X10841Y174D01*
X10841Y175D01*
X10841Y180D01*
X10841Y20190D01*
X10841Y20191D01*
X10841Y20192D01*
X10840Y20196D01*
X10840Y20200D01*
X10839Y20200D01*
X10839Y20201D01*
X10837Y20205D01*
X10835Y20208D01*
X10835Y20209D01*
X10834Y20210D01*
X10831Y20212D01*
X10828Y20214D01*
X10827Y20215D01*
X10826Y20216D01*
X10823Y20217D01*
X10820Y20218D01*
X10819Y20218D01*
X10818Y20219D01*
X10812Y20219D01*
X180Y20219D01*
X179Y20219D01*
X178Y20219D01*
X174Y20218D01*
X171Y20218D01*
X170Y20217D01*
X169Y20217D01*
X165Y20215D01*
X162Y20213D01*
X161Y20212D01*
X158Y20209D01*
X156Y20206D01*
X155Y20205D01*
X155Y20204D01*
X153Y20201D01*
X152Y20198D01*
X152Y20196D01*
X151Y20195D01*
X151Y20190D01*
X151Y180D01*
X151Y179D01*
X151Y178D01*
X152Y174D01*
X152Y171D01*
X153Y170D01*
X153Y169D01*
X155Y165D01*
X157Y162D01*
X158Y161D01*
X161Y158D01*
X164Y156D01*
X165Y155D01*
X166Y155D01*
X169Y153D01*
X173Y152D01*
X174Y152D01*
X175Y151D01*
X180Y151D01*
X10812Y151D01*
X10813Y151D01*
G37*
%LPC*%
G36*
X4499Y9048D02*
X4499Y9048D01*
X4499Y9079D01*
X4499Y9080D01*
X4499Y9081D01*
X4498Y9085D01*
X4498Y9089D01*
X4497Y9090D01*
X4497Y9091D01*
X4495Y9094D01*
X4493Y9097D01*
X4492Y9098D01*
X4492Y9099D01*
X4489Y9101D01*
X4486Y9104D01*
X4485Y9104D01*
X4484Y9105D01*
X4481Y9106D01*
X4477Y9108D01*
X4476Y9108D01*
X4475Y9108D01*
X4470Y9108D01*
X4045Y9108D01*
X4045Y9238D01*
X4315Y9508D01*
X4316Y9509D01*
X4318Y9512D01*
X4320Y9515D01*
X4321Y9516D01*
X4321Y9517D01*
X4322Y9521D01*
X4323Y9525D01*
X4323Y9526D01*
X4323Y9527D01*
X4323Y9530D01*
X4323Y9534D01*
X4322Y9535D01*
X4322Y9536D01*
X4321Y9540D01*
X4319Y9543D01*
X4319Y9544D01*
X4318Y9545D01*
X4315Y9549D01*
X4085Y9779D01*
X4085Y10123D01*
X4315Y10353D01*
X4316Y10354D01*
X4318Y10357D01*
X4320Y10360D01*
X4321Y10361D01*
X4321Y10362D01*
X4322Y10366D01*
X4323Y10370D01*
X4323Y10371D01*
X4323Y10372D01*
X4323Y10375D01*
X4323Y10379D01*
X4322Y10380D01*
X4322Y10381D01*
X4321Y10385D01*
X4319Y10388D01*
X4319Y10389D01*
X4318Y10390D01*
X4315Y10394D01*
X4045Y10664D01*
X4045Y10793D01*
X4470Y10793D01*
X4471Y10793D01*
X4472Y10793D01*
X4476Y10794D01*
X4479Y10795D01*
X4480Y10795D01*
X4481Y10795D01*
X4485Y10797D01*
X4488Y10799D01*
X4489Y10800D01*
X4489Y10801D01*
X4492Y10803D01*
X4494Y10806D01*
X4495Y10807D01*
X4495Y10808D01*
X4497Y10812D01*
X4498Y10815D01*
X4498Y10816D01*
X4499Y10817D01*
X4499Y10822D01*
X4499Y10853D01*
X4501Y10853D01*
X4501Y10822D01*
X4501Y10821D01*
X4501Y10820D01*
X4502Y10817D01*
X4502Y10813D01*
X4503Y10812D01*
X4503Y10811D01*
X4505Y10808D01*
X4507Y10804D01*
X4508Y10804D01*
X4508Y10803D01*
X4511Y10801D01*
X4514Y10798D01*
X4515Y10798D01*
X4516Y10797D01*
X4519Y10796D01*
X4523Y10794D01*
X4524Y10794D01*
X4525Y10794D01*
X4530Y10793D01*
X4955Y10793D01*
X4955Y10664D01*
X4685Y10394D01*
X4685Y10393D01*
X4684Y10392D01*
X4682Y10389D01*
X4680Y10386D01*
X4679Y10385D01*
X4679Y10384D01*
X4678Y10381D01*
X4677Y10377D01*
X4677Y10376D01*
X4677Y10375D01*
X4677Y10371D01*
X4677Y10367D01*
X4678Y10366D01*
X4678Y10365D01*
X4679Y10362D01*
X4681Y10359D01*
X4681Y10358D01*
X4682Y10357D01*
X4685Y10353D01*
X4915Y10123D01*
X4915Y9779D01*
X4685Y9549D01*
X4685Y9548D01*
X4684Y9547D01*
X4682Y9544D01*
X4680Y9541D01*
X4679Y9540D01*
X4679Y9539D01*
X4678Y9536D01*
X4677Y9532D01*
X4677Y9531D01*
X4677Y9530D01*
X4677Y9526D01*
X4677Y9522D01*
X4678Y9521D01*
X4678Y9520D01*
X4679Y9517D01*
X4681Y9514D01*
X4681Y9513D01*
X4682Y9512D01*
X4685Y9508D01*
X4955Y9238D01*
X4955Y9108D01*
X4530Y9108D01*
X4529Y9108D01*
X4528Y9108D01*
X4524Y9108D01*
X4521Y9107D01*
X4520Y9106D01*
X4519Y9106D01*
X4515Y9104D01*
X4512Y9102D01*
X4511Y9102D01*
X4511Y9101D01*
X4508Y9098D01*
X4506Y9095D01*
X4505Y9094D01*
X4503Y9090D01*
X4502Y9087D01*
X4502Y9086D01*
X4501Y9085D01*
X4501Y9079D01*
X4501Y9048D01*
X4499Y9048D01*
G37*
%LPD*%
%LPC*%
G36*
X5499Y8598D02*
X5499Y8598D01*
X5499Y8628D01*
X5499Y8629D01*
X5499Y8631D01*
X5498Y8634D01*
X5498Y8638D01*
X5497Y8639D01*
X5497Y8640D01*
X5495Y8643D01*
X5493Y8646D01*
X5492Y8647D01*
X5492Y8648D01*
X5489Y8650D01*
X5486Y8653D01*
X5485Y8653D01*
X5484Y8654D01*
X5481Y8655D01*
X5477Y8657D01*
X5476Y8657D01*
X5475Y8657D01*
X5470Y8658D01*
X5045Y8658D01*
X5045Y8787D01*
X5315Y9057D01*
X5315Y9058D01*
X5316Y9058D01*
X5318Y9062D01*
X5320Y9065D01*
X5321Y9066D01*
X5321Y9067D01*
X5322Y9070D01*
X5323Y9074D01*
X5323Y9075D01*
X5323Y9076D01*
X5323Y9080D01*
X5323Y9083D01*
X5322Y9084D01*
X5322Y9085D01*
X5321Y9089D01*
X5319Y9092D01*
X5319Y9093D01*
X5318Y9094D01*
X5315Y9098D01*
X5085Y9328D01*
X5085Y9672D01*
X5328Y9915D01*
X5672Y9915D01*
X5915Y9672D01*
X5915Y9328D01*
X5685Y9098D01*
X5685Y9097D01*
X5684Y9097D01*
X5682Y9093D01*
X5680Y9090D01*
X5679Y9089D01*
X5679Y9088D01*
X5678Y9085D01*
X5677Y9081D01*
X5677Y9080D01*
X5677Y9079D01*
X5677Y9075D01*
X5677Y9072D01*
X5678Y9071D01*
X5678Y9070D01*
X5679Y9066D01*
X5681Y9063D01*
X5681Y9062D01*
X5682Y9061D01*
X5685Y9057D01*
X5955Y8787D01*
X5955Y8658D01*
X5530Y8658D01*
X5529Y8658D01*
X5528Y8658D01*
X5524Y8657D01*
X5521Y8656D01*
X5520Y8656D01*
X5519Y8655D01*
X5515Y8653D01*
X5512Y8652D01*
X5511Y8651D01*
X5511Y8650D01*
X5508Y8647D01*
X5506Y8645D01*
X5505Y8644D01*
X5505Y8643D01*
X5503Y8639D01*
X5502Y8636D01*
X5502Y8635D01*
X5501Y8634D01*
X5501Y8628D01*
X5501Y8598D01*
X5499Y8598D01*
G37*
%LPD*%
%LPC*%
G36*
X4334Y4605D02*
X4334Y4605D01*
X4226Y4629D01*
X4122Y4666D01*
X4022Y4714D01*
X3928Y4773D01*
X3842Y4842D01*
X3763Y4920D01*
X3694Y5007D01*
X3635Y5101D01*
X3587Y5201D01*
X3550Y5305D01*
X3526Y5413D01*
X3514Y5519D01*
X4441Y5519D01*
X4441Y4593D01*
X4334Y4605D01*
G37*
%LPD*%
%LPC*%
G36*
X4334Y14447D02*
X4334Y14447D01*
X4226Y14472D01*
X4122Y14508D01*
X4022Y14556D01*
X3928Y14615D01*
X3842Y14684D01*
X3763Y14763D01*
X3694Y14849D01*
X3635Y14943D01*
X3587Y15043D01*
X3550Y15148D01*
X3526Y15256D01*
X3514Y15362D01*
X4441Y15362D01*
X4441Y14435D01*
X4334Y14447D01*
G37*
%LPD*%
%LPC*%
G36*
X4559Y15362D02*
X4559Y15362D01*
X5486Y15362D01*
X5474Y15256D01*
X5450Y15148D01*
X5413Y15043D01*
X5365Y14943D01*
X5306Y14849D01*
X5237Y14763D01*
X5158Y14684D01*
X5072Y14615D01*
X4978Y14556D01*
X4878Y14508D01*
X4774Y14472D01*
X4666Y14447D01*
X4559Y14435D01*
X4559Y15362D01*
G37*
%LPD*%
%LPC*%
G36*
X3514Y15481D02*
X3514Y15481D01*
X3526Y15587D01*
X3550Y15695D01*
X3587Y15799D01*
X3635Y15899D01*
X3694Y15993D01*
X3763Y16080D01*
X3842Y16158D01*
X3928Y16227D01*
X4022Y16286D01*
X4122Y16334D01*
X4226Y16371D01*
X4334Y16395D01*
X4441Y16407D01*
X4441Y15481D01*
X3514Y15481D01*
G37*
%LPD*%
%LPC*%
G36*
X4559Y15481D02*
X4559Y15481D01*
X4559Y16407D01*
X4666Y16395D01*
X4774Y16371D01*
X4878Y16334D01*
X4978Y16286D01*
X5072Y16227D01*
X5158Y16158D01*
X5237Y16080D01*
X5306Y15993D01*
X5365Y15899D01*
X5413Y15799D01*
X5450Y15695D01*
X5474Y15587D01*
X5486Y15481D01*
X4559Y15481D01*
G37*
%LPD*%
%LPC*%
G36*
X4559Y5638D02*
X4559Y5638D01*
X4559Y6565D01*
X4666Y6553D01*
X4774Y6528D01*
X4878Y6492D01*
X4978Y6444D01*
X5072Y6385D01*
X5158Y6316D01*
X5237Y6237D01*
X5306Y6151D01*
X5365Y6057D01*
X5413Y5957D01*
X5450Y5852D01*
X5474Y5744D01*
X5486Y5638D01*
X4559Y5638D01*
G37*
%LPD*%
%LPC*%
G36*
X3514Y5638D02*
X3514Y5638D01*
X3526Y5744D01*
X3550Y5852D01*
X3587Y5957D01*
X3635Y6057D01*
X3694Y6151D01*
X3763Y6237D01*
X3842Y6316D01*
X3928Y6385D01*
X4022Y6444D01*
X4122Y6492D01*
X4226Y6528D01*
X4334Y6553D01*
X4441Y6565D01*
X4441Y5638D01*
X3514Y5638D01*
G37*
%LPD*%
%LPC*%
G36*
X4559Y5519D02*
X4559Y5519D01*
X5486Y5519D01*
X5474Y5413D01*
X5450Y5305D01*
X5413Y5201D01*
X5365Y5101D01*
X5306Y5007D01*
X5237Y4920D01*
X5158Y4842D01*
X5072Y4773D01*
X4978Y4714D01*
X4878Y4666D01*
X4774Y4629D01*
X4666Y4605D01*
X4559Y4593D01*
X4559Y5519D01*
G37*
%LPD*%
%LPC*%
G36*
X3328Y8183D02*
X3328Y8183D01*
X3085Y8426D01*
X3085Y8770D01*
X3328Y9014D01*
X3672Y9014D01*
X3915Y8770D01*
X3915Y8426D01*
X3672Y8183D01*
X3328Y8183D01*
G37*
%LPD*%
%LPC*%
G36*
X3328Y10888D02*
X3328Y10888D01*
X3085Y11131D01*
X3085Y11475D01*
X3328Y11718D01*
X3672Y11718D01*
X3915Y11475D01*
X3915Y11131D01*
X3672Y10888D01*
X3328Y10888D01*
G37*
%LPD*%
%LPC*%
G36*
X5328Y10888D02*
X5328Y10888D01*
X5085Y11131D01*
X5085Y11475D01*
X5328Y11718D01*
X5672Y11718D01*
X5915Y11475D01*
X5915Y11131D01*
X5672Y10888D01*
X5328Y10888D01*
G37*
%LPD*%
%LPC*%
G36*
X3328Y11790D02*
X3328Y11790D01*
X3085Y12033D01*
X3085Y12377D01*
X3328Y12620D01*
X3672Y12620D01*
X3915Y12377D01*
X3915Y12033D01*
X3672Y11790D01*
X3328Y11790D01*
G37*
%LPD*%
%LPC*%
G36*
X5328Y11790D02*
X5328Y11790D01*
X5085Y12033D01*
X5085Y12377D01*
X5328Y12620D01*
X5672Y12620D01*
X5915Y12377D01*
X5915Y12033D01*
X5672Y11790D01*
X5328Y11790D01*
G37*
%LPD*%
%LPC*%
G36*
X5328Y9986D02*
X5328Y9986D01*
X5085Y10230D01*
X5085Y10574D01*
X5328Y10817D01*
X5672Y10817D01*
X5915Y10574D01*
X5915Y10230D01*
X5672Y9986D01*
X5328Y9986D01*
G37*
%LPD*%
%LPC*%
G36*
X3328Y9986D02*
X3328Y9986D01*
X3085Y10230D01*
X3085Y10574D01*
X3328Y10817D01*
X3672Y10817D01*
X3915Y10574D01*
X3915Y10230D01*
X3672Y9986D01*
X3328Y9986D01*
G37*
%LPD*%
%LPC*%
G36*
X3328Y9085D02*
X3328Y9085D01*
X3085Y9328D01*
X3085Y9672D01*
X3328Y9915D01*
X3672Y9915D01*
X3915Y9672D01*
X3915Y9328D01*
X3672Y9085D01*
X3328Y9085D01*
G37*
%LPD*%
%LPC*%
G36*
X4830Y18339D02*
X4830Y18339D01*
X4589Y18580D01*
X4589Y18920D01*
X4830Y19161D01*
X5170Y19161D01*
X5411Y18920D01*
X5411Y18580D01*
X5170Y18339D01*
X4830Y18339D01*
G37*
%LPD*%
%LPC*%
G36*
X3830Y18339D02*
X3830Y18339D01*
X3589Y18580D01*
X3589Y18920D01*
X3830Y19161D01*
X4170Y19161D01*
X4411Y18920D01*
X4411Y18580D01*
X4170Y18339D01*
X3830Y18339D01*
G37*
%LPD*%
%LPC*%
G36*
X2830Y18339D02*
X2830Y18339D01*
X2589Y18580D01*
X2589Y18920D01*
X2830Y19161D01*
X3170Y19161D01*
X3411Y18920D01*
X3411Y18580D01*
X3170Y18339D01*
X2830Y18339D01*
G37*
%LPD*%
%LPC*%
G36*
X1830Y18339D02*
X1830Y18339D01*
X1589Y18580D01*
X1589Y18920D01*
X1830Y19161D01*
X2170Y19161D01*
X2411Y18920D01*
X2411Y18580D01*
X2170Y18339D01*
X1830Y18339D01*
G37*
%LPD*%
%LPC*%
G36*
X4559Y11813D02*
X4559Y11813D01*
X4559Y12596D01*
X4955Y12596D01*
X4955Y12467D01*
X4713Y12225D01*
X4712Y12224D01*
X4710Y12221D01*
X4708Y12218D01*
X4708Y12217D01*
X4707Y12216D01*
X4706Y12212D01*
X4705Y12208D01*
X4705Y12207D01*
X4705Y12206D01*
X4705Y12203D01*
X4705Y12199D01*
X4706Y12198D01*
X4706Y12197D01*
X4708Y12193D01*
X4709Y12190D01*
X4710Y12189D01*
X4710Y12188D01*
X4713Y12184D01*
X4955Y11942D01*
X4955Y11813D01*
X4559Y11813D01*
G37*
%LPD*%
%LPC*%
G36*
X4559Y10912D02*
X4559Y10912D01*
X4559Y11695D01*
X4955Y11695D01*
X4955Y11565D01*
X4713Y11324D01*
X4713Y11323D01*
X4712Y11322D01*
X4710Y11319D01*
X4708Y11316D01*
X4708Y11315D01*
X4707Y11314D01*
X4706Y11310D01*
X4705Y11307D01*
X4705Y11306D01*
X4705Y11305D01*
X4705Y11301D01*
X4705Y11297D01*
X4706Y11296D01*
X4706Y11295D01*
X4708Y11292D01*
X4709Y11288D01*
X4710Y11288D01*
X4710Y11287D01*
X4713Y11282D01*
X4955Y11041D01*
X4955Y10912D01*
X4559Y10912D01*
G37*
%LPD*%
%LPC*%
G36*
X4045Y11813D02*
X4045Y11813D01*
X4045Y11942D01*
X4287Y12184D01*
X4287Y12185D01*
X4288Y12186D01*
X4290Y12189D01*
X4292Y12192D01*
X4292Y12193D01*
X4293Y12194D01*
X4294Y12197D01*
X4295Y12201D01*
X4295Y12202D01*
X4295Y12203D01*
X4295Y12207D01*
X4295Y12211D01*
X4294Y12212D01*
X4294Y12213D01*
X4292Y12216D01*
X4291Y12219D01*
X4290Y12220D01*
X4290Y12221D01*
X4287Y12225D01*
X4045Y12467D01*
X4045Y12596D01*
X4441Y12596D01*
X4441Y11813D01*
X4045Y11813D01*
G37*
%LPD*%
%LPC*%
G36*
X4045Y10912D02*
X4045Y10912D01*
X4045Y11041D01*
X4287Y11282D01*
X4287Y11283D01*
X4288Y11284D01*
X4290Y11287D01*
X4292Y11290D01*
X4292Y11291D01*
X4293Y11292D01*
X4294Y11296D01*
X4295Y11299D01*
X4295Y11300D01*
X4295Y11301D01*
X4295Y11305D01*
X4295Y11309D01*
X4294Y11310D01*
X4294Y11311D01*
X4292Y11314D01*
X4291Y11318D01*
X4290Y11319D01*
X4290Y11320D01*
X4287Y11324D01*
X4045Y11565D01*
X4045Y11695D01*
X4441Y11695D01*
X4441Y10912D01*
X4045Y10912D01*
G37*
%LPD*%
%LPC*%
G36*
X4559Y12715D02*
X4559Y12715D01*
X4559Y13111D01*
X4688Y13111D01*
X4955Y12844D01*
X4955Y12715D01*
X4559Y12715D01*
G37*
%LPD*%
%LPC*%
G36*
X4045Y12715D02*
X4045Y12715D01*
X4045Y12844D01*
X4311Y13111D01*
X4441Y13111D01*
X4441Y12715D01*
X4045Y12715D01*
G37*
%LPD*%
%LPC*%
G36*
X4559Y8594D02*
X4559Y8594D01*
X4559Y8990D01*
X4955Y8990D01*
X4955Y8861D01*
X4689Y8594D01*
X4559Y8594D01*
G37*
%LPD*%
%LPC*%
G36*
X5559Y8143D02*
X5559Y8143D01*
X5559Y8539D01*
X5955Y8539D01*
X5955Y8410D01*
X5689Y8143D01*
X5559Y8143D01*
G37*
%LPD*%
%LPC*%
G36*
X4311Y8594D02*
X4311Y8594D01*
X4045Y8861D01*
X4045Y8990D01*
X4441Y8990D01*
X4441Y8594D01*
X4311Y8594D01*
G37*
%LPD*%
%LPC*%
G36*
X5311Y8143D02*
X5311Y8143D01*
X5045Y8410D01*
X5045Y8539D01*
X5441Y8539D01*
X5441Y8143D01*
X5311Y8143D01*
G37*
%LPD*%
%LPC*%
G36*
X6059Y18809D02*
X6059Y18809D01*
X6059Y19201D01*
X6187Y19201D01*
X6451Y18937D01*
X6451Y18809D01*
X6059Y18809D01*
G37*
%LPD*%
%LPC*%
G36*
X5813Y18299D02*
X5813Y18299D01*
X5549Y18563D01*
X5549Y18691D01*
X5941Y18691D01*
X5941Y18299D01*
X5813Y18299D01*
G37*
%LPD*%
%LPC*%
G36*
X5549Y18809D02*
X5549Y18809D01*
X5549Y18937D01*
X5813Y19201D01*
X5941Y19201D01*
X5941Y18809D01*
X5549Y18809D01*
G37*
%LPD*%
%LPC*%
G36*
X6059Y18299D02*
X6059Y18299D01*
X6059Y18691D01*
X6451Y18691D01*
X6451Y18563D01*
X6187Y18299D01*
X6059Y18299D01*
G37*
%LPD*%
%LPC*%
G36*
X4499Y11753D02*
X4499Y11753D01*
X4499Y11755D01*
X4501Y11755D01*
X4501Y11753D01*
X4499Y11753D01*
G37*
%LPD*%
%LPC*%
G36*
X4499Y12655D02*
X4499Y12655D01*
X4499Y12656D01*
X4501Y12656D01*
X4501Y12655D01*
X4499Y12655D01*
G37*
%LPD*%
%LPC*%
G36*
X4499Y15421D02*
X4499Y15421D01*
X4499Y15422D01*
X4501Y15422D01*
X4501Y15421D01*
X4499Y15421D01*
G37*
%LPD*%
%LPC*%
G36*
X5999Y18749D02*
X5999Y18749D01*
X5999Y18751D01*
X6001Y18751D01*
X6001Y18749D01*
X5999Y18749D01*
G37*
%LPD*%
%LPC*%
G36*
X4499Y5578D02*
X4499Y5578D01*
X4499Y5579D01*
X4501Y5579D01*
X4501Y5578D01*
X4499Y5578D01*
G37*
%LPD*%
D10*
X5500Y12205D03*
X5500Y11303D03*
X5500Y10402D03*
X5500Y9500D03*
X5500Y8598D03*
X3500Y12205D03*
X3500Y11303D03*
X3500Y10402D03*
X3500Y9500D03*
X3500Y8598D03*
X4500Y12656D03*
X4500Y11754D03*
X4500Y10852D03*
X4500Y9951D03*
X4500Y9049D03*
D11*
X4500Y15421D03*
X4500Y5579D03*
D12*
X10500Y17125D03*
X9750Y17125D03*
X9000Y17125D03*
X9750Y15875D03*
X10500Y15875D03*
X9000Y15875D03*
X9000Y19000D03*
X9750Y19000D03*
X10500Y19000D03*
X9000Y14000D03*
X9750Y14000D03*
X10500Y14000D03*
X10500Y11125D03*
X9750Y11125D03*
X9000Y11125D03*
X9750Y9875D03*
X10500Y9875D03*
X9000Y9875D03*
X9000Y13000D03*
X9750Y13000D03*
X10500Y13000D03*
X9000Y8000D03*
X9750Y8000D03*
X10500Y8000D03*
X10500Y5125D03*
X9750Y5125D03*
X9000Y5125D03*
X9750Y3875D03*
X10500Y3875D03*
X9000Y3875D03*
X9000Y7000D03*
X9750Y7000D03*
X10500Y7000D03*
X9000Y2000D03*
X9750Y2000D03*
X10500Y2000D03*
D13*
X4000Y18750D03*
X3000Y18750D03*
X2000Y18750D03*
X5000Y18750D03*
X6000Y18750D03*
D14*
X500Y500D03*
X2000Y500D03*
X3500Y500D03*
X5000Y500D03*
X6500Y500D03*
X8000Y500D03*
X9500Y500D03*
X500Y2000D03*
X500Y3500D03*
X500Y5000D03*
X500Y6500D03*
X500Y8000D03*
X500Y9500D03*
X500Y11000D03*
X500Y12500D03*
X500Y14000D03*
X500Y15500D03*
X500Y17000D03*
X500Y18500D03*
X500Y20000D03*
X2000Y20000D03*
X3500Y20000D03*
X5000Y20000D03*
X6500Y20000D03*
X8000Y20000D03*
X9500Y20000D03*
X10500Y20000D03*
X10500Y500D03*
D15*
X7125Y8875D03*
X6125Y11500D03*
X6000Y10875D03*
X6625Y11000D03*
X6500Y10375D03*
X6625Y9750D03*
X6125Y10250D03*
X6125Y9375D03*
X6250Y8250D03*
X6750Y8250D03*
X6750Y7000D03*
X6250Y7000D03*
X6250Y6000D03*
X6750Y6000D03*
X6250Y5125D03*
X6750Y5125D03*
X6500Y4375D03*
X6750Y8875D03*
X6625Y3750D03*
X6625Y3250D03*
X7125Y2875D03*
X6625Y15250D03*
X6625Y15750D03*
X6125Y12375D03*
X5750Y12875D03*
X6125Y13250D03*
X6625Y12875D03*
X6625Y13625D03*
X6125Y14125D03*
X6625Y14500D03*
X6125Y15125D03*
X6125Y16000D03*
X6500Y16500D03*
X7125Y14875D03*
M02*
