G04 EAGLE Gerber X2 export*
%TF.Part,Single*%
%TF.FileFunction,Legend,Top,1*%
%TF.FilePolarity,Positive*%
%TF.GenerationSoftware,Autodesk,EAGLE,9.0.0*%
%TF.CreationDate,2018-05-01T14:23:46Z*%
G75*
%MOIN*%
%FSLAX34Y34*%
%LPD*%
%AMOC8*
5,1,8,0,0,1.08239X$1,22.5*%
G01*
%ADD10C,0.007000*%
%ADD11C,0.006000*%
%ADD12C,0.005000*%

G36*
X2009Y18227D02*
X2009Y18227D01*
X2016Y18232D01*
X2021Y18239D01*
X2024Y18247D01*
X2024Y18256D01*
X2020Y18264D01*
X2014Y18270D01*
X2006Y18273D01*
X2000Y18274D01*
X1885Y18274D01*
X1517Y18642D01*
X1514Y18644D01*
X1511Y18646D01*
X1511Y18647D01*
X1510Y18647D01*
X1506Y18648D01*
X1503Y18649D01*
X1502Y18649D01*
X1498Y18649D01*
X1494Y18649D01*
X1494Y18648D01*
X1493Y18648D01*
X1490Y18647D01*
X1486Y18645D01*
X1485Y18644D01*
X1483Y18642D01*
X1480Y18639D01*
X1480Y18638D01*
X1479Y18638D01*
X1478Y18634D01*
X1477Y18631D01*
X1476Y18630D01*
X1476Y18628D01*
X1476Y18625D01*
X1476Y18250D01*
X1476Y18247D01*
X1476Y18244D01*
X1477Y18243D01*
X1477Y18241D01*
X1479Y18239D01*
X1480Y18236D01*
X1481Y18235D01*
X1482Y18234D01*
X1484Y18232D01*
X1486Y18230D01*
X1487Y18230D01*
X1489Y18229D01*
X1491Y18228D01*
X1494Y18227D01*
X1496Y18226D01*
X1497Y18226D01*
X1498Y18226D01*
X1500Y18226D01*
X2000Y18226D01*
X2009Y18227D01*
G37*
D10*
X1035Y3525D02*
X1198Y3035D01*
X1362Y3525D01*
X1774Y3307D02*
X1855Y3307D01*
X1855Y3035D01*
X1692Y3035D01*
X1673Y3037D01*
X1655Y3042D01*
X1637Y3050D01*
X1622Y3061D01*
X1609Y3074D01*
X1598Y3090D01*
X1590Y3107D01*
X1585Y3125D01*
X1583Y3144D01*
X1583Y3416D01*
X1585Y3435D01*
X1590Y3453D01*
X1598Y3470D01*
X1609Y3486D01*
X1622Y3499D01*
X1637Y3510D01*
X1655Y3518D01*
X1673Y3523D01*
X1692Y3525D01*
X1855Y3525D01*
X2240Y3525D02*
X2077Y3035D01*
X2403Y3035D02*
X2240Y3525D01*
X2362Y3158D02*
X2117Y3158D01*
X2903Y3307D02*
X3039Y3307D01*
X3061Y3305D01*
X3083Y3300D01*
X3104Y3291D01*
X3123Y3278D01*
X3139Y3263D01*
X3153Y3245D01*
X3164Y3226D01*
X3171Y3204D01*
X3175Y3182D01*
X3175Y3160D01*
X3171Y3138D01*
X3164Y3116D01*
X3153Y3097D01*
X3139Y3079D01*
X3123Y3064D01*
X3104Y3051D01*
X3083Y3042D01*
X3061Y3037D01*
X3039Y3035D01*
X2903Y3035D01*
X2903Y3525D01*
X3039Y3525D01*
X3059Y3523D01*
X3078Y3518D01*
X3096Y3509D01*
X3112Y3497D01*
X3126Y3482D01*
X3137Y3465D01*
X3144Y3446D01*
X3148Y3426D01*
X3148Y3406D01*
X3144Y3386D01*
X3137Y3367D01*
X3126Y3350D01*
X3112Y3335D01*
X3096Y3323D01*
X3078Y3314D01*
X3059Y3309D01*
X3039Y3307D01*
X3395Y3362D02*
X3395Y3035D01*
X3395Y3362D02*
X3558Y3362D01*
X3558Y3307D01*
X3809Y3035D02*
X3945Y3035D01*
X3809Y3035D02*
X3793Y3037D01*
X3778Y3041D01*
X3763Y3049D01*
X3751Y3059D01*
X3741Y3071D01*
X3733Y3086D01*
X3729Y3101D01*
X3727Y3117D01*
X3727Y3253D01*
X3729Y3273D01*
X3734Y3292D01*
X3743Y3310D01*
X3755Y3326D01*
X3770Y3340D01*
X3787Y3351D01*
X3806Y3358D01*
X3826Y3362D01*
X3846Y3362D01*
X3866Y3358D01*
X3885Y3351D01*
X3902Y3340D01*
X3917Y3326D01*
X3929Y3310D01*
X3938Y3292D01*
X3943Y3273D01*
X3945Y3253D01*
X3945Y3198D01*
X3727Y3198D01*
X4256Y3226D02*
X4378Y3226D01*
X4256Y3225D02*
X4237Y3223D01*
X4220Y3218D01*
X4203Y3209D01*
X4189Y3197D01*
X4177Y3183D01*
X4168Y3166D01*
X4163Y3149D01*
X4161Y3130D01*
X4163Y3111D01*
X4168Y3094D01*
X4177Y3077D01*
X4189Y3063D01*
X4203Y3051D01*
X4220Y3042D01*
X4237Y3037D01*
X4256Y3035D01*
X4378Y3035D01*
X4378Y3280D01*
X4379Y3280D02*
X4377Y3296D01*
X4373Y3311D01*
X4365Y3326D01*
X4355Y3338D01*
X4343Y3348D01*
X4328Y3356D01*
X4313Y3360D01*
X4297Y3362D01*
X4188Y3362D01*
X4642Y3525D02*
X4642Y3035D01*
X4642Y3198D02*
X4860Y3362D01*
X4737Y3266D02*
X4860Y3035D01*
X5054Y3144D02*
X5054Y3253D01*
X5056Y3273D01*
X5061Y3292D01*
X5070Y3310D01*
X5082Y3326D01*
X5097Y3340D01*
X5114Y3351D01*
X5133Y3358D01*
X5153Y3362D01*
X5173Y3362D01*
X5193Y3358D01*
X5212Y3351D01*
X5229Y3340D01*
X5244Y3326D01*
X5256Y3310D01*
X5265Y3292D01*
X5270Y3273D01*
X5272Y3253D01*
X5272Y3144D01*
X5270Y3124D01*
X5265Y3105D01*
X5256Y3087D01*
X5244Y3071D01*
X5229Y3057D01*
X5212Y3046D01*
X5193Y3039D01*
X5173Y3035D01*
X5153Y3035D01*
X5133Y3039D01*
X5114Y3046D01*
X5097Y3057D01*
X5082Y3071D01*
X5070Y3087D01*
X5061Y3105D01*
X5056Y3124D01*
X5054Y3144D01*
X5508Y3117D02*
X5508Y3362D01*
X5508Y3117D02*
X5510Y3101D01*
X5514Y3086D01*
X5522Y3071D01*
X5532Y3059D01*
X5544Y3049D01*
X5559Y3041D01*
X5574Y3037D01*
X5590Y3035D01*
X5726Y3035D01*
X5726Y3362D01*
X5916Y3362D02*
X6080Y3362D01*
X5971Y3525D02*
X5971Y3117D01*
X5970Y3117D02*
X5972Y3101D01*
X5976Y3086D01*
X5984Y3071D01*
X5994Y3059D01*
X6006Y3049D01*
X6021Y3041D01*
X6036Y3037D01*
X6052Y3035D01*
X6080Y3035D01*
X1698Y2044D02*
X1535Y2275D01*
X1698Y2044D02*
X1862Y2275D01*
X1698Y2044D02*
X1698Y1785D01*
X2152Y1976D02*
X2274Y1976D01*
X2152Y1975D02*
X2133Y1973D01*
X2116Y1968D01*
X2099Y1959D01*
X2085Y1947D01*
X2073Y1933D01*
X2064Y1916D01*
X2059Y1899D01*
X2057Y1880D01*
X2059Y1861D01*
X2064Y1844D01*
X2073Y1827D01*
X2085Y1813D01*
X2099Y1801D01*
X2116Y1792D01*
X2133Y1787D01*
X2152Y1785D01*
X2274Y1785D01*
X2274Y2030D01*
X2275Y2030D02*
X2273Y2046D01*
X2269Y2061D01*
X2261Y2076D01*
X2251Y2088D01*
X2239Y2098D01*
X2224Y2106D01*
X2209Y2110D01*
X2193Y2112D01*
X2084Y2112D01*
X2534Y2112D02*
X2534Y1622D01*
X2534Y2112D02*
X2670Y2112D01*
X2686Y2110D01*
X2701Y2106D01*
X2716Y2098D01*
X2728Y2088D01*
X2738Y2076D01*
X2746Y2061D01*
X2750Y2046D01*
X2752Y2030D01*
X2751Y2030D02*
X2751Y1867D01*
X2752Y1867D02*
X2750Y1851D01*
X2746Y1836D01*
X2738Y1821D01*
X2728Y1809D01*
X2716Y1799D01*
X2701Y1791D01*
X2686Y1787D01*
X2670Y1785D01*
X2534Y1785D01*
X2967Y1894D02*
X2967Y2003D01*
X2969Y2023D01*
X2974Y2042D01*
X2983Y2060D01*
X2995Y2076D01*
X3010Y2090D01*
X3027Y2101D01*
X3046Y2108D01*
X3066Y2112D01*
X3086Y2112D01*
X3106Y2108D01*
X3125Y2101D01*
X3142Y2090D01*
X3157Y2076D01*
X3169Y2060D01*
X3178Y2042D01*
X3183Y2023D01*
X3185Y2003D01*
X3185Y1894D01*
X3183Y1874D01*
X3178Y1855D01*
X3169Y1837D01*
X3157Y1821D01*
X3142Y1807D01*
X3125Y1796D01*
X3106Y1789D01*
X3086Y1785D01*
X3066Y1785D01*
X3046Y1789D01*
X3027Y1796D01*
X3010Y1807D01*
X2995Y1821D01*
X2983Y1837D01*
X2974Y1855D01*
X2969Y1874D01*
X2967Y1894D01*
X3829Y2276D02*
X3850Y2274D01*
X3871Y2269D01*
X3891Y2260D01*
X3908Y2247D01*
X3923Y2232D01*
X3936Y2215D01*
X3945Y2195D01*
X3950Y2174D01*
X3952Y2153D01*
X3829Y2275D02*
X3807Y2273D01*
X3786Y2269D01*
X3765Y2261D01*
X3746Y2251D01*
X3728Y2238D01*
X3712Y2223D01*
X3699Y2206D01*
X3688Y2187D01*
X3680Y2166D01*
X3911Y2057D02*
X3925Y2073D01*
X3937Y2091D01*
X3945Y2111D01*
X3950Y2132D01*
X3952Y2153D01*
X3910Y2057D02*
X3679Y1785D01*
X3951Y1785D01*
X4183Y2030D02*
X4185Y2067D01*
X4190Y2103D01*
X4198Y2139D01*
X4209Y2173D01*
X4224Y2207D01*
X4223Y2207D02*
X4231Y2223D01*
X4241Y2238D01*
X4253Y2251D01*
X4268Y2261D01*
X4284Y2269D01*
X4301Y2273D01*
X4319Y2275D01*
X4337Y2273D01*
X4354Y2269D01*
X4370Y2261D01*
X4385Y2251D01*
X4397Y2238D01*
X4407Y2223D01*
X4415Y2207D01*
X4414Y2207D02*
X4429Y2173D01*
X4440Y2139D01*
X4448Y2103D01*
X4453Y2067D01*
X4455Y2030D01*
X4183Y2030D02*
X4185Y1993D01*
X4190Y1957D01*
X4198Y1921D01*
X4209Y1887D01*
X4224Y1853D01*
X4223Y1853D02*
X4231Y1837D01*
X4241Y1822D01*
X4253Y1809D01*
X4268Y1799D01*
X4284Y1791D01*
X4301Y1787D01*
X4319Y1785D01*
X4414Y1853D02*
X4429Y1887D01*
X4440Y1921D01*
X4448Y1957D01*
X4453Y1993D01*
X4455Y2030D01*
X4415Y1853D02*
X4407Y1837D01*
X4397Y1822D01*
X4385Y1809D01*
X4370Y1799D01*
X4354Y1791D01*
X4337Y1787D01*
X4319Y1785D01*
X4210Y1894D02*
X4428Y2166D01*
X4687Y2166D02*
X4823Y2275D01*
X4823Y1785D01*
X4687Y1785D02*
X4959Y1785D01*
X5191Y1921D02*
X5193Y1943D01*
X5198Y1965D01*
X5207Y1986D01*
X5220Y2005D01*
X5235Y2021D01*
X5253Y2035D01*
X5272Y2046D01*
X5294Y2053D01*
X5316Y2057D01*
X5338Y2057D01*
X5360Y2053D01*
X5382Y2046D01*
X5401Y2035D01*
X5419Y2021D01*
X5434Y2005D01*
X5447Y1986D01*
X5456Y1965D01*
X5461Y1943D01*
X5463Y1921D01*
X5461Y1899D01*
X5456Y1877D01*
X5447Y1856D01*
X5434Y1837D01*
X5419Y1821D01*
X5401Y1807D01*
X5382Y1796D01*
X5360Y1789D01*
X5338Y1785D01*
X5316Y1785D01*
X5294Y1789D01*
X5272Y1796D01*
X5253Y1807D01*
X5235Y1821D01*
X5220Y1837D01*
X5207Y1856D01*
X5198Y1877D01*
X5193Y1899D01*
X5191Y1921D01*
X5218Y2166D02*
X5220Y2186D01*
X5225Y2205D01*
X5234Y2223D01*
X5246Y2239D01*
X5261Y2253D01*
X5278Y2264D01*
X5297Y2271D01*
X5317Y2275D01*
X5337Y2275D01*
X5357Y2271D01*
X5376Y2264D01*
X5393Y2253D01*
X5408Y2239D01*
X5420Y2223D01*
X5429Y2205D01*
X5434Y2186D01*
X5436Y2166D01*
X5434Y2146D01*
X5429Y2127D01*
X5420Y2109D01*
X5408Y2093D01*
X5393Y2079D01*
X5376Y2068D01*
X5357Y2061D01*
X5337Y2057D01*
X5317Y2057D01*
X5297Y2061D01*
X5278Y2068D01*
X5261Y2079D01*
X5246Y2093D01*
X5234Y2109D01*
X5225Y2127D01*
X5220Y2146D01*
X5218Y2166D01*
X7818Y11351D02*
X7818Y11432D01*
X8090Y11432D01*
X8090Y11269D01*
X8088Y11250D01*
X8083Y11232D01*
X8075Y11215D01*
X8064Y11199D01*
X8051Y11186D01*
X8036Y11175D01*
X8018Y11167D01*
X8000Y11162D01*
X7981Y11160D01*
X7709Y11160D01*
X7690Y11162D01*
X7672Y11167D01*
X7655Y11175D01*
X7639Y11186D01*
X7626Y11199D01*
X7615Y11214D01*
X7607Y11232D01*
X7602Y11250D01*
X7600Y11269D01*
X7600Y11432D01*
X7763Y11695D02*
X8090Y11695D01*
X7763Y11695D02*
X7763Y11858D01*
X7818Y11858D01*
X8090Y12109D02*
X8090Y12245D01*
X8090Y12109D02*
X8088Y12093D01*
X8084Y12078D01*
X8076Y12063D01*
X8066Y12051D01*
X8054Y12041D01*
X8039Y12033D01*
X8024Y12029D01*
X8008Y12027D01*
X7872Y12027D01*
X7852Y12029D01*
X7833Y12034D01*
X7815Y12043D01*
X7799Y12055D01*
X7785Y12070D01*
X7774Y12087D01*
X7767Y12106D01*
X7763Y12126D01*
X7763Y12146D01*
X7767Y12166D01*
X7774Y12185D01*
X7785Y12202D01*
X7799Y12217D01*
X7815Y12229D01*
X7833Y12238D01*
X7852Y12243D01*
X7872Y12245D01*
X7927Y12245D01*
X7927Y12027D01*
X8090Y12546D02*
X8090Y12682D01*
X8090Y12546D02*
X8088Y12530D01*
X8084Y12515D01*
X8076Y12500D01*
X8066Y12488D01*
X8054Y12478D01*
X8039Y12470D01*
X8024Y12466D01*
X8008Y12464D01*
X7872Y12464D01*
X7852Y12466D01*
X7833Y12471D01*
X7815Y12480D01*
X7799Y12492D01*
X7785Y12507D01*
X7774Y12524D01*
X7767Y12543D01*
X7763Y12563D01*
X7763Y12583D01*
X7767Y12603D01*
X7774Y12622D01*
X7785Y12639D01*
X7799Y12654D01*
X7815Y12666D01*
X7833Y12675D01*
X7852Y12680D01*
X7872Y12682D01*
X7927Y12682D01*
X7927Y12464D01*
X8090Y12918D02*
X7763Y12918D01*
X7763Y13054D01*
X7765Y13070D01*
X7769Y13085D01*
X7777Y13100D01*
X7787Y13112D01*
X7799Y13122D01*
X7814Y13130D01*
X7829Y13134D01*
X7845Y13136D01*
X7845Y13135D02*
X8090Y13135D01*
X7818Y5296D02*
X7818Y5160D01*
X7818Y5296D02*
X7820Y5318D01*
X7825Y5340D01*
X7834Y5361D01*
X7847Y5380D01*
X7862Y5396D01*
X7880Y5410D01*
X7899Y5421D01*
X7921Y5428D01*
X7943Y5432D01*
X7965Y5432D01*
X7987Y5428D01*
X8009Y5421D01*
X8028Y5410D01*
X8046Y5396D01*
X8061Y5380D01*
X8074Y5361D01*
X8083Y5340D01*
X8088Y5318D01*
X8090Y5296D01*
X8090Y5160D01*
X7600Y5160D01*
X7600Y5296D01*
X7602Y5316D01*
X7607Y5335D01*
X7616Y5353D01*
X7628Y5369D01*
X7643Y5383D01*
X7660Y5394D01*
X7679Y5401D01*
X7699Y5405D01*
X7719Y5405D01*
X7739Y5401D01*
X7758Y5394D01*
X7775Y5383D01*
X7790Y5369D01*
X7802Y5353D01*
X7811Y5335D01*
X7816Y5316D01*
X7818Y5296D01*
X8008Y5635D02*
X7600Y5635D01*
X8008Y5635D02*
X8024Y5637D01*
X8039Y5641D01*
X8054Y5649D01*
X8066Y5659D01*
X8076Y5671D01*
X8084Y5686D01*
X8088Y5701D01*
X8090Y5717D01*
X8008Y5917D02*
X7763Y5917D01*
X8008Y5917D02*
X8024Y5919D01*
X8039Y5923D01*
X8054Y5931D01*
X8066Y5941D01*
X8076Y5953D01*
X8084Y5968D01*
X8088Y5983D01*
X8090Y5999D01*
X8090Y6135D01*
X7763Y6135D01*
X8090Y6452D02*
X8090Y6588D01*
X8090Y6452D02*
X8088Y6436D01*
X8084Y6421D01*
X8076Y6406D01*
X8066Y6394D01*
X8054Y6384D01*
X8039Y6376D01*
X8024Y6372D01*
X8008Y6370D01*
X7872Y6370D01*
X7852Y6372D01*
X7833Y6377D01*
X7815Y6386D01*
X7799Y6398D01*
X7785Y6413D01*
X7774Y6430D01*
X7767Y6449D01*
X7763Y6469D01*
X7763Y6489D01*
X7767Y6509D01*
X7774Y6528D01*
X7785Y6545D01*
X7799Y6560D01*
X7815Y6572D01*
X7833Y6581D01*
X7852Y6586D01*
X7872Y6588D01*
X7927Y6588D01*
X7927Y6370D01*
X8090Y17160D02*
X7600Y17160D01*
X7600Y17296D01*
X7602Y17318D01*
X7607Y17340D01*
X7616Y17361D01*
X7629Y17380D01*
X7644Y17396D01*
X7662Y17410D01*
X7681Y17421D01*
X7703Y17428D01*
X7725Y17432D01*
X7747Y17432D01*
X7769Y17428D01*
X7791Y17421D01*
X7810Y17410D01*
X7828Y17396D01*
X7843Y17380D01*
X7856Y17361D01*
X7865Y17340D01*
X7870Y17318D01*
X7872Y17296D01*
X7872Y17160D01*
X7872Y17323D02*
X8090Y17432D01*
X8090Y17735D02*
X8090Y17871D01*
X8090Y17735D02*
X8088Y17719D01*
X8084Y17704D01*
X8076Y17689D01*
X8066Y17677D01*
X8054Y17667D01*
X8039Y17659D01*
X8024Y17655D01*
X8008Y17653D01*
X7872Y17653D01*
X7852Y17655D01*
X7833Y17660D01*
X7815Y17669D01*
X7799Y17681D01*
X7785Y17696D01*
X7774Y17713D01*
X7767Y17732D01*
X7763Y17752D01*
X7763Y17772D01*
X7767Y17792D01*
X7774Y17811D01*
X7785Y17828D01*
X7799Y17843D01*
X7815Y17855D01*
X7833Y17864D01*
X7852Y17869D01*
X7872Y17871D01*
X7927Y17871D01*
X7927Y17653D01*
X8090Y18305D02*
X7600Y18305D01*
X8090Y18305D02*
X8090Y18169D01*
X8088Y18153D01*
X8084Y18138D01*
X8076Y18123D01*
X8066Y18111D01*
X8054Y18101D01*
X8039Y18093D01*
X8024Y18089D01*
X8008Y18087D01*
X7845Y18087D01*
X7829Y18089D01*
X7814Y18093D01*
X7799Y18101D01*
X7787Y18111D01*
X7777Y18123D01*
X7769Y18138D01*
X7765Y18153D01*
X7763Y18169D01*
X7763Y18305D01*
X6003Y17015D02*
X6003Y16933D01*
X6003Y17015D02*
X6275Y17015D01*
X6275Y16851D01*
X6273Y16832D01*
X6268Y16814D01*
X6260Y16797D01*
X6249Y16781D01*
X6236Y16768D01*
X6221Y16757D01*
X6203Y16749D01*
X6185Y16744D01*
X6166Y16742D01*
X6166Y16743D02*
X5894Y16743D01*
X5894Y16742D02*
X5875Y16744D01*
X5857Y16749D01*
X5840Y16757D01*
X5824Y16768D01*
X5811Y16781D01*
X5800Y16796D01*
X5792Y16814D01*
X5787Y16832D01*
X5785Y16851D01*
X5785Y17015D01*
X5785Y17280D02*
X6275Y17280D01*
X6275Y17552D02*
X5785Y17280D01*
X5785Y17552D02*
X6275Y17552D01*
X6275Y17818D02*
X5785Y17818D01*
X5785Y17954D01*
X5787Y17975D01*
X5792Y17996D01*
X5800Y18016D01*
X5811Y18034D01*
X5825Y18050D01*
X5841Y18064D01*
X5859Y18075D01*
X5879Y18083D01*
X5900Y18088D01*
X5921Y18090D01*
X6139Y18090D01*
X6160Y18088D01*
X6181Y18083D01*
X6201Y18075D01*
X6219Y18064D01*
X6235Y18050D01*
X6249Y18034D01*
X6260Y18016D01*
X6268Y17996D01*
X6273Y17975D01*
X6275Y17954D01*
X6275Y17818D01*
X5275Y17110D02*
X5273Y17129D01*
X5268Y17147D01*
X5260Y17165D01*
X5249Y17180D01*
X5236Y17193D01*
X5221Y17204D01*
X5203Y17212D01*
X5185Y17217D01*
X5166Y17219D01*
X5275Y17110D02*
X5274Y17084D01*
X5269Y17059D01*
X5262Y17034D01*
X5252Y17010D01*
X5239Y16987D01*
X5224Y16966D01*
X5207Y16947D01*
X4894Y16960D02*
X4875Y16962D01*
X4857Y16967D01*
X4840Y16975D01*
X4824Y16986D01*
X4811Y16999D01*
X4800Y17015D01*
X4792Y17032D01*
X4787Y17050D01*
X4785Y17069D01*
X4787Y17095D01*
X4792Y17121D01*
X4800Y17146D01*
X4811Y17169D01*
X4826Y17191D01*
X4894Y16960D02*
X4913Y16962D01*
X4932Y16967D01*
X4949Y16975D01*
X4965Y16986D01*
X4978Y16999D01*
X4990Y17015D01*
X5070Y17165D02*
X5082Y17181D01*
X5095Y17194D01*
X5111Y17205D01*
X5128Y17213D01*
X5147Y17218D01*
X5166Y17220D01*
X5071Y17165D02*
X4989Y17015D01*
X5275Y17541D02*
X5275Y17650D01*
X5275Y17541D02*
X5273Y17522D01*
X5268Y17504D01*
X5260Y17487D01*
X5249Y17471D01*
X5236Y17458D01*
X5221Y17447D01*
X5203Y17439D01*
X5185Y17434D01*
X5166Y17432D01*
X4894Y17432D01*
X4875Y17434D01*
X4857Y17439D01*
X4840Y17447D01*
X4824Y17458D01*
X4811Y17471D01*
X4800Y17486D01*
X4792Y17504D01*
X4787Y17522D01*
X4785Y17541D01*
X4785Y17650D01*
X4785Y17872D02*
X5275Y17872D01*
X5275Y18090D01*
X4166Y17038D02*
X4185Y17036D01*
X4203Y17031D01*
X4221Y17023D01*
X4236Y17012D01*
X4249Y16999D01*
X4260Y16984D01*
X4268Y16966D01*
X4273Y16948D01*
X4275Y16929D01*
X4274Y16903D01*
X4269Y16878D01*
X4262Y16853D01*
X4252Y16829D01*
X4239Y16806D01*
X4224Y16785D01*
X4207Y16766D01*
X3894Y16779D02*
X3875Y16781D01*
X3857Y16786D01*
X3840Y16794D01*
X3824Y16805D01*
X3811Y16818D01*
X3800Y16834D01*
X3792Y16851D01*
X3787Y16869D01*
X3785Y16888D01*
X3787Y16914D01*
X3792Y16940D01*
X3800Y16965D01*
X3811Y16988D01*
X3826Y17010D01*
X3894Y16779D02*
X3913Y16781D01*
X3932Y16786D01*
X3949Y16794D01*
X3965Y16805D01*
X3978Y16818D01*
X3990Y16834D01*
X4070Y16983D02*
X4082Y16999D01*
X4095Y17012D01*
X4111Y17023D01*
X4128Y17031D01*
X4147Y17036D01*
X4166Y17038D01*
X4071Y16984D02*
X3989Y16834D01*
X3785Y17270D02*
X4275Y17270D01*
X3785Y17270D02*
X3785Y17406D01*
X3787Y17427D01*
X3792Y17448D01*
X3800Y17468D01*
X3811Y17486D01*
X3825Y17502D01*
X3841Y17516D01*
X3859Y17527D01*
X3879Y17535D01*
X3900Y17540D01*
X3921Y17542D01*
X4139Y17542D01*
X4160Y17540D01*
X4181Y17535D01*
X4201Y17527D01*
X4219Y17516D01*
X4235Y17502D01*
X4249Y17486D01*
X4260Y17468D01*
X4268Y17448D01*
X4273Y17427D01*
X4275Y17406D01*
X4275Y17270D01*
X4275Y17763D02*
X3785Y17927D01*
X4275Y18090D01*
X4153Y18049D02*
X4153Y17804D01*
X3275Y17467D02*
X2785Y17303D01*
X2785Y17630D02*
X3275Y17467D01*
X3275Y17981D02*
X3273Y18000D01*
X3268Y18018D01*
X3260Y18036D01*
X3249Y18051D01*
X3236Y18064D01*
X3221Y18075D01*
X3203Y18083D01*
X3185Y18088D01*
X3166Y18090D01*
X3275Y17981D02*
X3274Y17955D01*
X3269Y17930D01*
X3262Y17905D01*
X3252Y17881D01*
X3239Y17858D01*
X3224Y17837D01*
X3207Y17818D01*
X2894Y17831D02*
X2875Y17833D01*
X2857Y17838D01*
X2840Y17846D01*
X2824Y17857D01*
X2811Y17870D01*
X2800Y17886D01*
X2792Y17903D01*
X2787Y17921D01*
X2785Y17940D01*
X2787Y17966D01*
X2792Y17992D01*
X2800Y18017D01*
X2811Y18040D01*
X2826Y18062D01*
X2894Y17831D02*
X2913Y17833D01*
X2932Y17838D01*
X2949Y17846D01*
X2965Y17857D01*
X2978Y17870D01*
X2990Y17886D01*
X3070Y18035D02*
X3082Y18051D01*
X3095Y18064D01*
X3111Y18075D01*
X3128Y18083D01*
X3147Y18088D01*
X3166Y18090D01*
X3071Y18036D02*
X2989Y17886D01*
X2275Y17314D02*
X1785Y17314D01*
X2003Y17314D02*
X2003Y17586D01*
X1785Y17586D02*
X2275Y17586D01*
X2275Y17981D02*
X2273Y18000D01*
X2268Y18018D01*
X2260Y18036D01*
X2249Y18051D01*
X2236Y18064D01*
X2221Y18075D01*
X2203Y18083D01*
X2185Y18088D01*
X2166Y18090D01*
X2275Y17981D02*
X2274Y17955D01*
X2269Y17930D01*
X2262Y17905D01*
X2252Y17881D01*
X2239Y17858D01*
X2224Y17837D01*
X2207Y17818D01*
X1894Y17831D02*
X1875Y17833D01*
X1857Y17838D01*
X1839Y17846D01*
X1824Y17857D01*
X1811Y17870D01*
X1800Y17886D01*
X1792Y17903D01*
X1787Y17921D01*
X1785Y17940D01*
X1787Y17966D01*
X1792Y17992D01*
X1800Y18017D01*
X1811Y18040D01*
X1826Y18062D01*
X1894Y17831D02*
X1913Y17833D01*
X1932Y17838D01*
X1949Y17846D01*
X1965Y17857D01*
X1978Y17870D01*
X1990Y17886D01*
X2070Y18035D02*
X2082Y18051D01*
X2095Y18064D01*
X2111Y18075D01*
X2128Y18083D01*
X2147Y18088D01*
X2166Y18090D01*
X2071Y18036D02*
X1989Y17886D01*
D11*
X8030Y1030D02*
X8177Y1030D01*
X8196Y1032D01*
X8215Y1037D01*
X8231Y1047D01*
X8246Y1059D01*
X8258Y1074D01*
X8268Y1090D01*
X8273Y1109D01*
X8275Y1128D01*
X8274Y1128D02*
X8274Y1177D01*
X8275Y1177D02*
X8274Y1194D01*
X8269Y1211D01*
X8262Y1226D01*
X8252Y1240D01*
X8240Y1252D01*
X8226Y1262D01*
X8211Y1269D01*
X8194Y1274D01*
X8177Y1275D01*
X8177Y1274D02*
X8030Y1274D01*
X8030Y1470D01*
X8274Y1470D01*
X8517Y1409D02*
X8504Y1379D01*
X8493Y1348D01*
X8486Y1316D01*
X8481Y1283D01*
X8480Y1250D01*
X8517Y1409D02*
X8525Y1426D01*
X8536Y1441D01*
X8550Y1453D01*
X8566Y1462D01*
X8584Y1468D01*
X8602Y1470D01*
X8620Y1468D01*
X8638Y1462D01*
X8654Y1453D01*
X8668Y1441D01*
X8679Y1426D01*
X8687Y1409D01*
X8688Y1409D02*
X8701Y1379D01*
X8712Y1348D01*
X8719Y1316D01*
X8724Y1283D01*
X8725Y1250D01*
X8480Y1250D02*
X8481Y1217D01*
X8486Y1185D01*
X8493Y1152D01*
X8504Y1121D01*
X8517Y1091D01*
X8525Y1074D01*
X8536Y1059D01*
X8550Y1047D01*
X8566Y1038D01*
X8584Y1032D01*
X8602Y1030D01*
X8688Y1091D02*
X8701Y1121D01*
X8712Y1152D01*
X8719Y1184D01*
X8724Y1217D01*
X8725Y1250D01*
X8687Y1091D02*
X8679Y1074D01*
X8668Y1059D01*
X8654Y1047D01*
X8638Y1038D01*
X8620Y1032D01*
X8602Y1030D01*
X8504Y1128D02*
X8700Y1372D01*
X9170Y1348D02*
X9170Y1152D01*
X9170Y1348D02*
X9172Y1369D01*
X9177Y1390D01*
X9186Y1409D01*
X9199Y1426D01*
X9214Y1441D01*
X9231Y1454D01*
X9250Y1463D01*
X9271Y1468D01*
X9292Y1470D01*
X9313Y1468D01*
X9334Y1463D01*
X9353Y1454D01*
X9370Y1441D01*
X9385Y1426D01*
X9398Y1409D01*
X9407Y1390D01*
X9412Y1369D01*
X9414Y1348D01*
X9414Y1152D01*
X9412Y1131D01*
X9407Y1110D01*
X9398Y1091D01*
X9385Y1074D01*
X9370Y1059D01*
X9353Y1046D01*
X9334Y1037D01*
X9313Y1032D01*
X9292Y1030D01*
X9271Y1032D01*
X9250Y1037D01*
X9231Y1046D01*
X9214Y1059D01*
X9199Y1074D01*
X9186Y1091D01*
X9177Y1110D01*
X9172Y1131D01*
X9170Y1152D01*
X9629Y1030D02*
X9629Y1470D01*
X9629Y1323D02*
X9752Y1323D01*
X9768Y1321D01*
X9784Y1316D01*
X9798Y1307D01*
X9809Y1296D01*
X9818Y1282D01*
X9823Y1266D01*
X9825Y1250D01*
X9825Y1030D01*
X10061Y1030D02*
X10061Y1323D01*
X10281Y1323D01*
X10297Y1321D01*
X10313Y1316D01*
X10327Y1307D01*
X10338Y1296D01*
X10347Y1282D01*
X10352Y1266D01*
X10354Y1250D01*
X10354Y1030D01*
X10207Y1030D02*
X10207Y1323D01*
D12*
X0Y4435D02*
X0Y16565D01*
X6378Y16565D02*
X6378Y4435D01*
X6378Y16565D02*
X0Y16565D01*
X0Y4435D02*
X6378Y4435D01*
X-8Y13846D02*
X-1872Y13846D01*
X-1872Y13847D02*
X-1914Y13845D01*
X-1955Y13839D01*
X-1995Y13830D01*
X-2035Y13817D01*
X-2073Y13800D01*
X-2109Y13779D01*
X-2144Y13756D01*
X-2176Y13729D01*
X-2205Y13700D01*
X-2232Y13668D01*
X-2255Y13633D01*
X-2276Y13597D01*
X-2293Y13559D01*
X-2306Y13519D01*
X-2315Y13479D01*
X-2321Y13438D01*
X-2323Y13396D01*
X-2323Y7604D01*
X-2321Y7562D01*
X-2315Y7521D01*
X-2306Y7481D01*
X-2293Y7441D01*
X-2276Y7403D01*
X-2255Y7367D01*
X-2232Y7332D01*
X-2205Y7300D01*
X-2176Y7271D01*
X-2144Y7244D01*
X-2109Y7221D01*
X-2073Y7200D01*
X-2035Y7183D01*
X-1995Y7170D01*
X-1955Y7161D01*
X-1914Y7155D01*
X-1872Y7153D01*
X-1872Y7154D02*
X-8Y7154D01*
X11000Y18370D02*
X11591Y18370D01*
X11591Y17533D01*
X11591Y15467D01*
X11591Y14630D01*
X11000Y14630D01*
X11000Y18370D01*
X11591Y17533D02*
X14543Y17533D01*
X14100Y15467D02*
X11591Y15467D01*
X14543Y15467D02*
X14543Y17533D01*
X14543Y15467D02*
X14150Y15467D01*
X12870Y15368D02*
X12722Y17632D01*
X12969Y17632D02*
X13116Y15368D01*
X13362Y15368D02*
X13215Y17632D01*
X13461Y17632D02*
X13608Y15368D01*
X13854Y15368D02*
X13707Y17632D01*
X13953Y17632D02*
X14100Y15368D01*
X11591Y12370D02*
X11000Y12370D01*
X11591Y12370D02*
X11591Y11533D01*
X11591Y9467D01*
X11591Y8630D01*
X11000Y8630D01*
X11000Y12370D01*
X11591Y11533D02*
X14543Y11533D01*
X14100Y9467D02*
X11591Y9467D01*
X14543Y9467D02*
X14543Y11533D01*
X14543Y9467D02*
X14150Y9467D01*
X12870Y9368D02*
X12722Y11632D01*
X12969Y11632D02*
X13116Y9368D01*
X13362Y9368D02*
X13215Y11632D01*
X13461Y11632D02*
X13608Y9368D01*
X13854Y9368D02*
X13707Y11632D01*
X13953Y11632D02*
X14100Y9368D01*
X11591Y6370D02*
X11000Y6370D01*
X11591Y6370D02*
X11591Y5533D01*
X11591Y3467D01*
X11591Y2630D01*
X11000Y2630D01*
X11000Y6370D01*
X11591Y5533D02*
X14543Y5533D01*
X14100Y3467D02*
X11591Y3467D01*
X14543Y3467D02*
X14543Y5533D01*
X14543Y3467D02*
X14150Y3467D01*
X12870Y3368D02*
X12722Y5632D01*
X12969Y5632D02*
X13116Y3368D01*
X13362Y3368D02*
X13215Y5632D01*
X13461Y5632D02*
X13608Y3368D01*
X13854Y3368D02*
X13707Y5632D01*
X13953Y5632D02*
X14100Y3368D01*
X8130Y15146D02*
X6870Y15146D01*
X6870Y15854D01*
X8130Y15854D01*
X8130Y15146D01*
X8130Y16854D02*
X6870Y16854D01*
X8130Y16854D02*
X8130Y16146D01*
X6870Y16146D01*
X6870Y16854D01*
X6870Y9854D02*
X8130Y9854D01*
X8130Y9146D01*
X6870Y9146D01*
X6870Y9854D01*
X6870Y10146D02*
X8130Y10146D01*
X6870Y10146D02*
X6870Y10854D01*
X8130Y10854D01*
X8130Y10146D01*
X8130Y4146D02*
X6870Y4146D01*
X6870Y4854D01*
X8130Y4854D01*
X8130Y4146D01*
X8130Y3146D02*
X6870Y3146D01*
X6870Y3854D01*
X8130Y3854D01*
X8130Y3146D01*
X1500Y18250D02*
X1500Y19250D01*
X1500Y18250D02*
X6500Y18250D01*
X6500Y19250D01*
X1500Y19250D01*
M02*
