G04 EAGLE Gerber X2 export*
%TF.Part,Single*%
%TF.FileFunction,Copper,L2,Bot,Mixed*%
%TF.FilePolarity,Positive*%
%TF.GenerationSoftware,Autodesk,EAGLE,9.0.0*%
%TF.CreationDate,2018-05-03T13:06:34Z*%
G75*
%MOIN*%
%FSLAX34Y34*%
%LPD*%
%AMOC8*
5,1,8,0,0,1.08239X$1,22.5*%
G01*
%ADD10P,0.060614X8X292.500000*%
%ADD11C,0.177165*%
%ADD12C,0.023780*%
%ADD13P,0.075767X8X22.500000*%
%ADD14C,0.032480*%
%ADD15C,0.021811*%

G36*
X10813Y151D02*
X10813Y151D01*
X10814Y151D01*
X10818Y152D01*
X10822Y152D01*
X10822Y153D01*
X10824Y153D01*
X10827Y155D01*
X10830Y157D01*
X10831Y158D01*
X10832Y158D01*
X10834Y161D01*
X10837Y164D01*
X10837Y165D01*
X10838Y166D01*
X10839Y169D01*
X10840Y173D01*
X10841Y174D01*
X10841Y175D01*
X10841Y180D01*
X10841Y20190D01*
X10841Y20191D01*
X10841Y20192D01*
X10840Y20196D01*
X10840Y20200D01*
X10839Y20200D01*
X10839Y20201D01*
X10837Y20205D01*
X10835Y20208D01*
X10835Y20209D01*
X10834Y20210D01*
X10831Y20212D01*
X10828Y20214D01*
X10827Y20215D01*
X10826Y20216D01*
X10823Y20217D01*
X10820Y20218D01*
X10819Y20218D01*
X10818Y20219D01*
X10812Y20219D01*
X180Y20219D01*
X179Y20219D01*
X178Y20219D01*
X174Y20218D01*
X171Y20218D01*
X170Y20217D01*
X169Y20217D01*
X165Y20215D01*
X162Y20213D01*
X161Y20212D01*
X158Y20209D01*
X156Y20206D01*
X155Y20205D01*
X155Y20204D01*
X153Y20201D01*
X152Y20198D01*
X152Y20196D01*
X151Y20195D01*
X151Y20190D01*
X151Y180D01*
X151Y179D01*
X151Y178D01*
X152Y174D01*
X152Y171D01*
X153Y170D01*
X153Y169D01*
X155Y165D01*
X157Y162D01*
X158Y161D01*
X161Y158D01*
X164Y156D01*
X165Y155D01*
X166Y155D01*
X169Y153D01*
X173Y152D01*
X174Y152D01*
X175Y151D01*
X180Y151D01*
X10812Y151D01*
X10813Y151D01*
G37*
%LPC*%
G36*
X4559Y15481D02*
X4559Y15481D01*
X4559Y16407D01*
X4666Y16395D01*
X4774Y16371D01*
X4878Y16334D01*
X4978Y16286D01*
X5072Y16227D01*
X5158Y16158D01*
X5237Y16080D01*
X5306Y15993D01*
X5365Y15899D01*
X5413Y15799D01*
X5450Y15695D01*
X5474Y15587D01*
X5486Y15481D01*
X4559Y15481D01*
G37*
%LPD*%
%LPC*%
G36*
X4334Y14447D02*
X4334Y14447D01*
X4226Y14472D01*
X4122Y14508D01*
X4022Y14556D01*
X3928Y14615D01*
X3842Y14684D01*
X3763Y14763D01*
X3694Y14849D01*
X3635Y14943D01*
X3587Y15043D01*
X3550Y15148D01*
X3526Y15256D01*
X3514Y15362D01*
X4441Y15362D01*
X4441Y14435D01*
X4334Y14447D01*
G37*
%LPD*%
%LPC*%
G36*
X4559Y15362D02*
X4559Y15362D01*
X5486Y15362D01*
X5474Y15256D01*
X5450Y15148D01*
X5413Y15043D01*
X5365Y14943D01*
X5306Y14849D01*
X5237Y14763D01*
X5158Y14684D01*
X5072Y14615D01*
X4978Y14556D01*
X4878Y14508D01*
X4774Y14472D01*
X4666Y14447D01*
X4559Y14435D01*
X4559Y15362D01*
G37*
%LPD*%
%LPC*%
G36*
X3514Y15481D02*
X3514Y15481D01*
X3526Y15587D01*
X3550Y15695D01*
X3587Y15799D01*
X3635Y15899D01*
X3694Y15993D01*
X3763Y16080D01*
X3842Y16158D01*
X3928Y16227D01*
X4022Y16286D01*
X4122Y16334D01*
X4226Y16371D01*
X4334Y16395D01*
X4441Y16407D01*
X4441Y15481D01*
X3514Y15481D01*
G37*
%LPD*%
%LPC*%
G36*
X4559Y5638D02*
X4559Y5638D01*
X4559Y6565D01*
X4666Y6553D01*
X4774Y6528D01*
X4878Y6492D01*
X4978Y6444D01*
X5072Y6385D01*
X5158Y6316D01*
X5237Y6237D01*
X5306Y6151D01*
X5365Y6057D01*
X5413Y5957D01*
X5450Y5852D01*
X5474Y5744D01*
X5486Y5638D01*
X4559Y5638D01*
G37*
%LPD*%
%LPC*%
G36*
X3514Y5638D02*
X3514Y5638D01*
X3526Y5744D01*
X3550Y5852D01*
X3587Y5957D01*
X3635Y6057D01*
X3694Y6151D01*
X3763Y6237D01*
X3842Y6316D01*
X3928Y6385D01*
X4022Y6444D01*
X4122Y6492D01*
X4226Y6528D01*
X4334Y6553D01*
X4441Y6565D01*
X4441Y5638D01*
X3514Y5638D01*
G37*
%LPD*%
%LPC*%
G36*
X4559Y5519D02*
X4559Y5519D01*
X5486Y5519D01*
X5474Y5413D01*
X5450Y5305D01*
X5413Y5201D01*
X5365Y5101D01*
X5306Y5007D01*
X5237Y4920D01*
X5158Y4842D01*
X5072Y4773D01*
X4978Y4714D01*
X4878Y4666D01*
X4774Y4629D01*
X4666Y4605D01*
X4559Y4593D01*
X4559Y5519D01*
G37*
%LPD*%
%LPC*%
G36*
X4334Y4605D02*
X4334Y4605D01*
X4226Y4629D01*
X4122Y4666D01*
X4022Y4714D01*
X3928Y4773D01*
X3842Y4842D01*
X3763Y4920D01*
X3694Y5007D01*
X3635Y5101D01*
X3587Y5201D01*
X3550Y5305D01*
X3526Y5413D01*
X3514Y5519D01*
X4441Y5519D01*
X4441Y4593D01*
X4334Y4605D01*
G37*
%LPD*%
%LPC*%
G36*
X1830Y18339D02*
X1830Y18339D01*
X1589Y18580D01*
X1589Y18920D01*
X1830Y19161D01*
X2170Y19161D01*
X2411Y18920D01*
X2411Y18580D01*
X2170Y18339D01*
X1830Y18339D01*
G37*
%LPD*%
%LPC*%
G36*
X2830Y18339D02*
X2830Y18339D01*
X2589Y18580D01*
X2589Y18920D01*
X2830Y19161D01*
X3170Y19161D01*
X3411Y18920D01*
X3411Y18580D01*
X3170Y18339D01*
X2830Y18339D01*
G37*
%LPD*%
%LPC*%
G36*
X3830Y18339D02*
X3830Y18339D01*
X3589Y18580D01*
X3589Y18920D01*
X3830Y19161D01*
X4170Y19161D01*
X4411Y18920D01*
X4411Y18580D01*
X4170Y18339D01*
X3830Y18339D01*
G37*
%LPD*%
%LPC*%
G36*
X4830Y18339D02*
X4830Y18339D01*
X4589Y18580D01*
X4589Y18920D01*
X4830Y19161D01*
X5170Y19161D01*
X5411Y18920D01*
X5411Y18580D01*
X5170Y18339D01*
X4830Y18339D01*
G37*
%LPD*%
%LPC*%
G36*
X3359Y8258D02*
X3359Y8258D01*
X3159Y8457D01*
X3159Y8740D01*
X3359Y8939D01*
X3641Y8939D01*
X3841Y8740D01*
X3841Y8457D01*
X3641Y8258D01*
X3359Y8258D01*
G37*
%LPD*%
%LPC*%
G36*
X5359Y10962D02*
X5359Y10962D01*
X5159Y11162D01*
X5159Y11444D01*
X5359Y11644D01*
X5641Y11644D01*
X5841Y11444D01*
X5841Y11162D01*
X5641Y10962D01*
X5359Y10962D01*
G37*
%LPD*%
%LPC*%
G36*
X3359Y9159D02*
X3359Y9159D01*
X3159Y9359D01*
X3159Y9641D01*
X3359Y9841D01*
X3641Y9841D01*
X3841Y9641D01*
X3841Y9359D01*
X3641Y9159D01*
X3359Y9159D01*
G37*
%LPD*%
%LPC*%
G36*
X5359Y9159D02*
X5359Y9159D01*
X5159Y9359D01*
X5159Y9641D01*
X5359Y9841D01*
X5641Y9841D01*
X5841Y9641D01*
X5841Y9359D01*
X5641Y9159D01*
X5359Y9159D01*
G37*
%LPD*%
%LPC*%
G36*
X4359Y9610D02*
X4359Y9610D01*
X4159Y9810D01*
X4159Y10092D01*
X4359Y10292D01*
X4641Y10292D01*
X4841Y10092D01*
X4841Y9810D01*
X4641Y9610D01*
X4359Y9610D01*
G37*
%LPD*%
%LPC*%
G36*
X3359Y10061D02*
X3359Y10061D01*
X3159Y10260D01*
X3159Y10543D01*
X3359Y10742D01*
X3641Y10742D01*
X3841Y10543D01*
X3841Y10260D01*
X3641Y10061D01*
X3359Y10061D01*
G37*
%LPD*%
%LPC*%
G36*
X5359Y10061D02*
X5359Y10061D01*
X5159Y10260D01*
X5159Y10543D01*
X5359Y10742D01*
X5641Y10742D01*
X5841Y10543D01*
X5841Y10260D01*
X5641Y10061D01*
X5359Y10061D01*
G37*
%LPD*%
%LPC*%
G36*
X3359Y10962D02*
X3359Y10962D01*
X3159Y11162D01*
X3159Y11444D01*
X3359Y11644D01*
X3641Y11644D01*
X3841Y11444D01*
X3841Y11162D01*
X3641Y10962D01*
X3359Y10962D01*
G37*
%LPD*%
%LPC*%
G36*
X3359Y11864D02*
X3359Y11864D01*
X3159Y12064D01*
X3159Y12346D01*
X3359Y12545D01*
X3641Y12545D01*
X3841Y12346D01*
X3841Y12064D01*
X3641Y11864D01*
X3359Y11864D01*
G37*
%LPD*%
%LPC*%
G36*
X5359Y11864D02*
X5359Y11864D01*
X5159Y12064D01*
X5159Y12346D01*
X5359Y12545D01*
X5641Y12545D01*
X5841Y12346D01*
X5841Y12064D01*
X5641Y11864D01*
X5359Y11864D01*
G37*
%LPD*%
%LPC*%
G36*
X6059Y18809D02*
X6059Y18809D01*
X6059Y19201D01*
X6187Y19201D01*
X6451Y18937D01*
X6451Y18809D01*
X6059Y18809D01*
G37*
%LPD*%
%LPC*%
G36*
X5813Y18299D02*
X5813Y18299D01*
X5549Y18563D01*
X5549Y18691D01*
X5941Y18691D01*
X5941Y18299D01*
X5813Y18299D01*
G37*
%LPD*%
%LPC*%
G36*
X5549Y18809D02*
X5549Y18809D01*
X5549Y18937D01*
X5813Y19201D01*
X5941Y19201D01*
X5941Y18809D01*
X5549Y18809D01*
G37*
%LPD*%
%LPC*%
G36*
X6059Y18299D02*
X6059Y18299D01*
X6059Y18691D01*
X6451Y18691D01*
X6451Y18563D01*
X6187Y18299D01*
X6059Y18299D01*
G37*
%LPD*%
%LPC*%
G36*
X4119Y11813D02*
X4119Y11813D01*
X4119Y11912D01*
X4342Y12135D01*
X4441Y12135D01*
X4441Y11813D01*
X4119Y11813D01*
G37*
%LPD*%
%LPC*%
G36*
X5119Y8658D02*
X5119Y8658D01*
X5119Y8756D01*
X5342Y8979D01*
X5441Y8979D01*
X5441Y8658D01*
X5119Y8658D01*
G37*
%LPD*%
%LPC*%
G36*
X4119Y10912D02*
X4119Y10912D01*
X4119Y11010D01*
X4342Y11233D01*
X4441Y11233D01*
X4441Y10912D01*
X4119Y10912D01*
G37*
%LPD*%
%LPC*%
G36*
X4119Y9108D02*
X4119Y9108D01*
X4119Y9207D01*
X4342Y9430D01*
X4441Y9430D01*
X4441Y9108D01*
X4119Y9108D01*
G37*
%LPD*%
%LPC*%
G36*
X4119Y12715D02*
X4119Y12715D01*
X4119Y12813D01*
X4342Y13036D01*
X4441Y13036D01*
X4441Y12715D01*
X4119Y12715D01*
G37*
%LPD*%
%LPC*%
G36*
X4559Y11813D02*
X4559Y11813D01*
X4559Y12135D01*
X4658Y12135D01*
X4881Y11912D01*
X4881Y11813D01*
X4559Y11813D01*
G37*
%LPD*%
%LPC*%
G36*
X5559Y8658D02*
X5559Y8658D01*
X5559Y8979D01*
X5658Y8979D01*
X5881Y8756D01*
X5881Y8658D01*
X5559Y8658D01*
G37*
%LPD*%
%LPC*%
G36*
X4559Y9108D02*
X4559Y9108D01*
X4559Y9430D01*
X4658Y9430D01*
X4881Y9207D01*
X4881Y9108D01*
X4559Y9108D01*
G37*
%LPD*%
%LPC*%
G36*
X4559Y12715D02*
X4559Y12715D01*
X4559Y13036D01*
X4658Y13036D01*
X4881Y12813D01*
X4881Y12715D01*
X4559Y12715D01*
G37*
%LPD*%
%LPC*%
G36*
X4559Y10912D02*
X4559Y10912D01*
X4559Y11233D01*
X4658Y11233D01*
X4881Y11010D01*
X4881Y10912D01*
X4559Y10912D01*
G37*
%LPD*%
%LPC*%
G36*
X4342Y11373D02*
X4342Y11373D01*
X4119Y11596D01*
X4119Y11695D01*
X4441Y11695D01*
X4441Y11373D01*
X4342Y11373D01*
G37*
%LPD*%
%LPC*%
G36*
X4342Y10472D02*
X4342Y10472D01*
X4119Y10695D01*
X4119Y10793D01*
X4441Y10793D01*
X4441Y10472D01*
X4342Y10472D01*
G37*
%LPD*%
%LPC*%
G36*
X5342Y8218D02*
X5342Y8218D01*
X5119Y8441D01*
X5119Y8539D01*
X5441Y8539D01*
X5441Y8218D01*
X5342Y8218D01*
G37*
%LPD*%
%LPC*%
G36*
X4342Y12275D02*
X4342Y12275D01*
X4119Y12498D01*
X4119Y12596D01*
X4441Y12596D01*
X4441Y12275D01*
X4342Y12275D01*
G37*
%LPD*%
%LPC*%
G36*
X4342Y8668D02*
X4342Y8668D01*
X4119Y8891D01*
X4119Y8990D01*
X4441Y8990D01*
X4441Y8668D01*
X4342Y8668D01*
G37*
%LPD*%
%LPC*%
G36*
X4559Y12275D02*
X4559Y12275D01*
X4559Y12596D01*
X4881Y12596D01*
X4881Y12498D01*
X4658Y12275D01*
X4559Y12275D01*
G37*
%LPD*%
%LPC*%
G36*
X4559Y11373D02*
X4559Y11373D01*
X4559Y11695D01*
X4881Y11695D01*
X4881Y11596D01*
X4658Y11373D01*
X4559Y11373D01*
G37*
%LPD*%
%LPC*%
G36*
X5559Y8218D02*
X5559Y8218D01*
X5559Y8539D01*
X5881Y8539D01*
X5881Y8441D01*
X5658Y8218D01*
X5559Y8218D01*
G37*
%LPD*%
%LPC*%
G36*
X4559Y8668D02*
X4559Y8668D01*
X4559Y8990D01*
X4881Y8990D01*
X4881Y8892D01*
X4658Y8668D01*
X4559Y8668D01*
G37*
%LPD*%
%LPC*%
G36*
X4559Y10472D02*
X4559Y10472D01*
X4559Y10793D01*
X4881Y10793D01*
X4881Y10695D01*
X4658Y10472D01*
X4559Y10472D01*
G37*
%LPD*%
%LPC*%
G36*
X4499Y10852D02*
X4499Y10852D01*
X4499Y10853D01*
X4501Y10853D01*
X4501Y10852D01*
X4499Y10852D01*
G37*
%LPD*%
%LPC*%
G36*
X5499Y8598D02*
X5499Y8598D01*
X5499Y8599D01*
X5501Y8599D01*
X5501Y8598D01*
X5499Y8598D01*
G37*
%LPD*%
%LPC*%
G36*
X4499Y9048D02*
X4499Y9048D01*
X4499Y9050D01*
X4501Y9050D01*
X4501Y9048D01*
X4499Y9048D01*
G37*
%LPD*%
%LPC*%
G36*
X4499Y15421D02*
X4499Y15421D01*
X4499Y15422D01*
X4501Y15422D01*
X4501Y15421D01*
X4499Y15421D01*
G37*
%LPD*%
%LPC*%
G36*
X5999Y18749D02*
X5999Y18749D01*
X5999Y18751D01*
X6001Y18751D01*
X6001Y18749D01*
X5999Y18749D01*
G37*
%LPD*%
%LPC*%
G36*
X4499Y5578D02*
X4499Y5578D01*
X4499Y5579D01*
X4501Y5579D01*
X4501Y5578D01*
X4499Y5578D01*
G37*
%LPD*%
%LPC*%
G36*
X4499Y12655D02*
X4499Y12655D01*
X4499Y12656D01*
X4501Y12656D01*
X4501Y12655D01*
X4499Y12655D01*
G37*
%LPD*%
%LPC*%
G36*
X4499Y11753D02*
X4499Y11753D01*
X4499Y11755D01*
X4501Y11755D01*
X4501Y11753D01*
X4499Y11753D01*
G37*
%LPD*%
D10*
X5500Y12205D03*
X5500Y11303D03*
X5500Y10402D03*
X5500Y9500D03*
X5500Y8598D03*
X3500Y12205D03*
X3500Y11303D03*
X3500Y10402D03*
X3500Y9500D03*
X3500Y8598D03*
X4500Y12656D03*
X4500Y11754D03*
X4500Y10852D03*
X4500Y9951D03*
X4500Y9049D03*
D11*
X4500Y15421D03*
X4500Y5579D03*
D12*
X10500Y17125D03*
X9750Y17125D03*
X9000Y17125D03*
X9750Y15875D03*
X10500Y15875D03*
X9000Y15875D03*
X9000Y19000D03*
X9750Y19000D03*
X10500Y19000D03*
X9000Y14000D03*
X9750Y14000D03*
X10500Y14000D03*
X10500Y11125D03*
X9750Y11125D03*
X9000Y11125D03*
X9750Y9875D03*
X10500Y9875D03*
X9000Y9875D03*
X9000Y13000D03*
X9750Y13000D03*
X10500Y13000D03*
X9000Y8000D03*
X9750Y8000D03*
X10500Y8000D03*
X10500Y5125D03*
X9750Y5125D03*
X9000Y5125D03*
X9750Y3875D03*
X10500Y3875D03*
X9000Y3875D03*
X9000Y7000D03*
X9750Y7000D03*
X10500Y7000D03*
X9000Y2000D03*
X9750Y2000D03*
X10500Y2000D03*
D13*
X4000Y18750D03*
X3000Y18750D03*
X2000Y18750D03*
X5000Y18750D03*
X6000Y18750D03*
D14*
X500Y500D03*
X2000Y500D03*
X3500Y500D03*
X5000Y500D03*
X6500Y500D03*
X8000Y500D03*
X9500Y500D03*
X500Y2000D03*
X500Y3500D03*
X500Y5000D03*
X500Y6500D03*
X500Y8000D03*
X500Y9500D03*
X500Y11000D03*
X500Y12500D03*
X500Y14000D03*
X500Y15500D03*
X500Y17000D03*
X500Y18500D03*
X500Y20000D03*
X2000Y20000D03*
X3500Y20000D03*
X5000Y20000D03*
X6500Y20000D03*
X8000Y20000D03*
X9500Y20000D03*
X10500Y20000D03*
X10500Y500D03*
D15*
X7125Y8875D03*
X6125Y11500D03*
X6000Y10875D03*
X6625Y11000D03*
X6500Y10375D03*
X6625Y9750D03*
X6125Y10250D03*
X6125Y9375D03*
X6250Y8250D03*
X6750Y8250D03*
X6750Y7000D03*
X6250Y7000D03*
X6250Y6000D03*
X6750Y6000D03*
X6250Y5125D03*
X6750Y5125D03*
X6500Y4375D03*
X6750Y8875D03*
X6625Y3750D03*
X6625Y3250D03*
X7125Y2875D03*
X6625Y15250D03*
X6625Y15750D03*
X6125Y12375D03*
X5750Y12875D03*
X6125Y13250D03*
X6625Y12875D03*
X6625Y13625D03*
X6125Y14125D03*
X6625Y14500D03*
X6125Y15125D03*
X6125Y16000D03*
X6500Y16500D03*
X7125Y14875D03*
M02*
