G04 EAGLE Gerber X2 export*
%TF.Part,Single*%
%TF.FileFunction,Copper,L1,Top,Mixed*%
%TF.FilePolarity,Positive*%
%TF.GenerationSoftware,Autodesk,EAGLE,9.0.0*%
%TF.CreationDate,2018-05-12T16:03:39Z*%
G75*
%MOIN*%
%FSLAX34Y34*%
%LPD*%
%AMOC8*
5,1,8,0,0,1.08239X$1,22.5*%
G01*
%ADD10P,0.076705X8X292.500000*%
%ADD11C,0.177165*%
%ADD12R,0.225000X0.041000*%
%ADD13R,0.250000X0.100000*%
%ADD14C,0.023780*%
%ADD15R,0.043307X0.055118*%
%ADD16P,0.075767X8X22.500000*%
%ADD17C,0.032480*%
%ADD18C,0.021811*%
%ADD19C,0.016000*%
%ADD20C,0.041000*%
%ADD21C,0.008000*%

G36*
X10813Y151D02*
X10813Y151D01*
X10814Y151D01*
X10818Y152D01*
X10822Y152D01*
X10822Y153D01*
X10824Y153D01*
X10827Y155D01*
X10830Y157D01*
X10831Y158D01*
X10832Y158D01*
X10834Y161D01*
X10837Y164D01*
X10837Y165D01*
X10838Y166D01*
X10839Y169D01*
X10840Y173D01*
X10841Y174D01*
X10841Y175D01*
X10841Y180D01*
X10841Y961D01*
X11000Y961D01*
X11003Y961D01*
X11005Y961D01*
X11008Y962D01*
X11011Y962D01*
X11013Y963D01*
X11016Y964D01*
X11018Y966D01*
X11021Y967D01*
X11023Y969D01*
X11025Y970D01*
X11027Y972D01*
X11030Y974D01*
X11031Y976D01*
X11033Y978D01*
X11034Y981D01*
X11036Y983D01*
X11036Y986D01*
X11037Y988D01*
X11038Y991D01*
X11039Y994D01*
X11039Y997D01*
X11039Y1000D01*
X11039Y3425D01*
X11039Y3428D01*
X11039Y3430D01*
X11038Y3433D01*
X11038Y3436D01*
X11037Y3438D01*
X11036Y3441D01*
X11034Y3443D01*
X11033Y3446D01*
X11031Y3448D01*
X11030Y3450D01*
X11028Y3452D01*
X11026Y3455D01*
X11024Y3456D01*
X11022Y3458D01*
X11019Y3459D01*
X11017Y3461D01*
X11014Y3461D01*
X11012Y3462D01*
X11009Y3463D01*
X11006Y3464D01*
X11003Y3464D01*
X11000Y3464D01*
X10840Y3464D01*
X10839Y3465D01*
X10839Y3466D01*
X10837Y3470D01*
X10835Y3473D01*
X10835Y3474D01*
X10834Y3474D01*
X10831Y3477D01*
X10828Y3479D01*
X10827Y3480D01*
X10826Y3480D01*
X10823Y3482D01*
X10820Y3483D01*
X10819Y3483D01*
X10818Y3484D01*
X10812Y3484D01*
X8151Y3484D01*
X8150Y3484D01*
X8149Y3484D01*
X8145Y3483D01*
X8142Y3483D01*
X8141Y3482D01*
X8140Y3482D01*
X8136Y3480D01*
X8133Y3478D01*
X8132Y3477D01*
X8129Y3474D01*
X8127Y3471D01*
X8126Y3470D01*
X8126Y3469D01*
X8124Y3466D01*
X8123Y3462D01*
X8123Y3461D01*
X8122Y3460D01*
X8122Y3455D01*
X8122Y3449D01*
X8119Y3446D01*
X8117Y3444D01*
X8116Y3443D01*
X8116Y3442D01*
X8114Y3440D01*
X8114Y3439D01*
X8113Y3438D01*
X8112Y3435D01*
X8111Y3431D01*
X8111Y3430D01*
X8110Y3429D01*
X8111Y3429D01*
X8110Y3426D01*
X8110Y3074D01*
X8110Y3073D01*
X8111Y3070D01*
X8111Y3067D01*
X8112Y3066D01*
X8112Y3065D01*
X8114Y3061D01*
X8115Y3058D01*
X8116Y3057D01*
X8117Y3056D01*
X8119Y3054D01*
X8122Y3051D01*
X8122Y2449D01*
X8086Y2414D01*
X7603Y2414D01*
X7567Y2449D01*
X7567Y3051D01*
X7570Y3054D01*
X7572Y3057D01*
X7575Y3060D01*
X7575Y3061D01*
X7576Y3062D01*
X7577Y3065D01*
X7578Y3069D01*
X7578Y3070D01*
X7578Y3071D01*
X7579Y3074D01*
X7579Y3426D01*
X7578Y3430D01*
X7578Y3433D01*
X7577Y3434D01*
X7577Y3435D01*
X7575Y3439D01*
X7574Y3442D01*
X7573Y3443D01*
X7572Y3444D01*
X7570Y3446D01*
X7567Y3449D01*
X7567Y4051D01*
X7603Y4086D01*
X8086Y4086D01*
X8122Y4051D01*
X8122Y4045D01*
X8122Y4044D01*
X8122Y4043D01*
X8123Y4039D01*
X8123Y4036D01*
X8124Y4035D01*
X8124Y4034D01*
X8126Y4030D01*
X8128Y4027D01*
X8129Y4026D01*
X8132Y4023D01*
X8135Y4021D01*
X8136Y4020D01*
X8137Y4020D01*
X8140Y4018D01*
X8144Y4017D01*
X8145Y4017D01*
X8146Y4016D01*
X8151Y4016D01*
X10812Y4016D01*
X10813Y4016D01*
X10814Y4016D01*
X10818Y4017D01*
X10822Y4017D01*
X10822Y4018D01*
X10824Y4018D01*
X10827Y4020D01*
X10830Y4022D01*
X10831Y4023D01*
X10832Y4023D01*
X10834Y4026D01*
X10837Y4029D01*
X10837Y4030D01*
X10838Y4031D01*
X10839Y4034D01*
X10840Y4036D01*
X11000Y4036D01*
X11003Y4036D01*
X11005Y4036D01*
X11008Y4037D01*
X11011Y4037D01*
X11013Y4038D01*
X11016Y4039D01*
X11018Y4041D01*
X11021Y4042D01*
X11023Y4044D01*
X11025Y4045D01*
X11027Y4047D01*
X11030Y4049D01*
X11031Y4051D01*
X11033Y4053D01*
X11034Y4056D01*
X11036Y4058D01*
X11036Y4061D01*
X11037Y4063D01*
X11038Y4066D01*
X11039Y4069D01*
X11039Y4072D01*
X11039Y4075D01*
X11039Y6500D01*
X11039Y6503D01*
X11039Y6505D01*
X11038Y6508D01*
X11038Y6511D01*
X11037Y6513D01*
X11036Y6516D01*
X11034Y6518D01*
X11033Y6521D01*
X11031Y6523D01*
X11030Y6525D01*
X11028Y6527D01*
X11026Y6530D01*
X11024Y6531D01*
X11022Y6533D01*
X11019Y6534D01*
X11017Y6536D01*
X11014Y6536D01*
X11012Y6537D01*
X11009Y6538D01*
X11006Y6539D01*
X11003Y6539D01*
X11000Y6539D01*
X10841Y6539D01*
X10841Y6961D01*
X11000Y6961D01*
X11003Y6961D01*
X11005Y6961D01*
X11008Y6962D01*
X11011Y6962D01*
X11013Y6963D01*
X11016Y6964D01*
X11018Y6966D01*
X11021Y6967D01*
X11023Y6969D01*
X11025Y6970D01*
X11027Y6972D01*
X11030Y6974D01*
X11031Y6976D01*
X11033Y6978D01*
X11034Y6981D01*
X11036Y6983D01*
X11036Y6986D01*
X11037Y6988D01*
X11038Y6991D01*
X11039Y6994D01*
X11039Y6997D01*
X11039Y7000D01*
X11039Y9425D01*
X11039Y9428D01*
X11039Y9430D01*
X11038Y9433D01*
X11038Y9436D01*
X11037Y9438D01*
X11036Y9441D01*
X11034Y9443D01*
X11033Y9446D01*
X11031Y9448D01*
X11030Y9450D01*
X11028Y9452D01*
X11026Y9455D01*
X11024Y9456D01*
X11022Y9458D01*
X11019Y9459D01*
X11017Y9461D01*
X11014Y9461D01*
X11012Y9462D01*
X11009Y9463D01*
X11006Y9464D01*
X11003Y9464D01*
X11000Y9464D01*
X8171Y9464D01*
X8170Y9464D01*
X8169Y9464D01*
X8165Y9463D01*
X8162Y9463D01*
X8161Y9462D01*
X8160Y9462D01*
X8156Y9460D01*
X8153Y9458D01*
X8152Y9457D01*
X8149Y9454D01*
X8147Y9451D01*
X8146Y9450D01*
X8146Y9449D01*
X8144Y9446D01*
X8143Y9442D01*
X8139Y9438D01*
X8136Y9435D01*
X8134Y9432D01*
X8134Y9431D01*
X8133Y9430D01*
X8132Y9426D01*
X8131Y9423D01*
X8131Y9422D01*
X8130Y9421D01*
X8131Y9420D01*
X8130Y9417D01*
X8130Y9083D01*
X8131Y9079D01*
X8131Y9075D01*
X8132Y9074D01*
X8132Y9073D01*
X8134Y9070D01*
X8135Y9066D01*
X8136Y9065D01*
X8137Y9064D01*
X8139Y9062D01*
X8142Y9059D01*
X8142Y8441D01*
X8094Y8394D01*
X7595Y8394D01*
X7547Y8441D01*
X7547Y9059D01*
X7550Y9062D01*
X7552Y9065D01*
X7555Y9068D01*
X7555Y9069D01*
X7556Y9070D01*
X7557Y9074D01*
X7558Y9077D01*
X7558Y9078D01*
X7558Y9079D01*
X7558Y9080D01*
X7559Y9083D01*
X7559Y9417D01*
X7558Y9421D01*
X7558Y9425D01*
X7557Y9426D01*
X7557Y9427D01*
X7555Y9430D01*
X7554Y9434D01*
X7553Y9435D01*
X7552Y9436D01*
X7550Y9438D01*
X7547Y9441D01*
X7547Y10059D01*
X7595Y10106D01*
X8094Y10106D01*
X8143Y10058D01*
X8143Y10056D01*
X8144Y10055D01*
X8144Y10054D01*
X8146Y10050D01*
X8148Y10047D01*
X8149Y10046D01*
X8152Y10043D01*
X8155Y10041D01*
X8156Y10040D01*
X8157Y10040D01*
X8160Y10038D01*
X8164Y10037D01*
X8165Y10037D01*
X8166Y10036D01*
X8171Y10036D01*
X10812Y10036D01*
X11000Y10036D01*
X11003Y10036D01*
X11005Y10036D01*
X11008Y10037D01*
X11011Y10037D01*
X11013Y10038D01*
X11016Y10039D01*
X11018Y10041D01*
X11021Y10042D01*
X11023Y10044D01*
X11025Y10045D01*
X11027Y10047D01*
X11030Y10049D01*
X11031Y10051D01*
X11033Y10053D01*
X11034Y10056D01*
X11036Y10058D01*
X11036Y10061D01*
X11037Y10063D01*
X11038Y10066D01*
X11039Y10069D01*
X11039Y10072D01*
X11039Y10075D01*
X11039Y12500D01*
X11039Y12503D01*
X11039Y12505D01*
X11038Y12508D01*
X11038Y12511D01*
X11037Y12513D01*
X11036Y12516D01*
X11034Y12518D01*
X11033Y12521D01*
X11031Y12523D01*
X11030Y12525D01*
X11028Y12527D01*
X11026Y12530D01*
X11024Y12531D01*
X11022Y12533D01*
X11019Y12534D01*
X11017Y12536D01*
X11014Y12536D01*
X11012Y12537D01*
X11009Y12538D01*
X11006Y12539D01*
X11003Y12539D01*
X11000Y12539D01*
X10841Y12539D01*
X10841Y12961D01*
X11000Y12961D01*
X11003Y12961D01*
X11005Y12961D01*
X11008Y12962D01*
X11011Y12962D01*
X11013Y12963D01*
X11016Y12964D01*
X11018Y12966D01*
X11021Y12967D01*
X11023Y12969D01*
X11025Y12970D01*
X11027Y12972D01*
X11030Y12974D01*
X11031Y12976D01*
X11033Y12978D01*
X11034Y12981D01*
X11036Y12983D01*
X11036Y12986D01*
X11037Y12988D01*
X11038Y12991D01*
X11039Y12994D01*
X11039Y12997D01*
X11039Y13000D01*
X11039Y15425D01*
X11039Y15428D01*
X11039Y15430D01*
X11038Y15433D01*
X11038Y15436D01*
X11037Y15438D01*
X11036Y15441D01*
X11034Y15443D01*
X11033Y15446D01*
X11031Y15448D01*
X11030Y15450D01*
X11028Y15452D01*
X11026Y15455D01*
X11024Y15456D01*
X11022Y15458D01*
X11019Y15459D01*
X11017Y15461D01*
X11014Y15461D01*
X11012Y15462D01*
X11009Y15463D01*
X11006Y15464D01*
X11003Y15464D01*
X11000Y15464D01*
X8171Y15464D01*
X8170Y15464D01*
X8169Y15464D01*
X8165Y15463D01*
X8162Y15463D01*
X8161Y15462D01*
X8160Y15462D01*
X8156Y15460D01*
X8153Y15458D01*
X8152Y15457D01*
X8149Y15454D01*
X8147Y15451D01*
X8146Y15450D01*
X8146Y15449D01*
X8144Y15446D01*
X8143Y15442D01*
X8139Y15438D01*
X8136Y15435D01*
X8134Y15432D01*
X8134Y15431D01*
X8133Y15430D01*
X8132Y15426D01*
X8131Y15423D01*
X8131Y15422D01*
X8130Y15421D01*
X8131Y15420D01*
X8130Y15417D01*
X8130Y15083D01*
X8131Y15079D01*
X8131Y15075D01*
X8132Y15074D01*
X8132Y15073D01*
X8134Y15070D01*
X8135Y15066D01*
X8136Y15065D01*
X8137Y15064D01*
X8139Y15062D01*
X8142Y15059D01*
X8142Y14441D01*
X8094Y14394D01*
X7595Y14394D01*
X7547Y14441D01*
X7547Y15059D01*
X7550Y15062D01*
X7552Y15065D01*
X7555Y15068D01*
X7555Y15069D01*
X7556Y15070D01*
X7557Y15074D01*
X7558Y15077D01*
X7558Y15078D01*
X7558Y15079D01*
X7558Y15080D01*
X7559Y15083D01*
X7559Y15417D01*
X7558Y15421D01*
X7558Y15425D01*
X7557Y15426D01*
X7557Y15427D01*
X7555Y15430D01*
X7554Y15434D01*
X7553Y15435D01*
X7552Y15436D01*
X7550Y15438D01*
X7547Y15441D01*
X7547Y16059D01*
X7595Y16106D01*
X8094Y16106D01*
X8143Y16058D01*
X8143Y16056D01*
X8144Y16055D01*
X8144Y16054D01*
X8146Y16050D01*
X8148Y16047D01*
X8149Y16046D01*
X8152Y16043D01*
X8155Y16041D01*
X8156Y16040D01*
X8157Y16040D01*
X8160Y16038D01*
X8164Y16037D01*
X8165Y16037D01*
X8166Y16036D01*
X8171Y16036D01*
X10812Y16036D01*
X11000Y16036D01*
X11003Y16036D01*
X11005Y16036D01*
X11008Y16037D01*
X11011Y16037D01*
X11013Y16038D01*
X11016Y16039D01*
X11018Y16041D01*
X11021Y16042D01*
X11023Y16044D01*
X11025Y16045D01*
X11027Y16047D01*
X11030Y16049D01*
X11031Y16051D01*
X11033Y16053D01*
X11034Y16056D01*
X11036Y16058D01*
X11036Y16061D01*
X11037Y16063D01*
X11038Y16066D01*
X11039Y16069D01*
X11039Y16072D01*
X11039Y16075D01*
X11039Y18500D01*
X11039Y18503D01*
X11039Y18505D01*
X11038Y18508D01*
X11038Y18511D01*
X11037Y18513D01*
X11036Y18516D01*
X11034Y18518D01*
X11033Y18521D01*
X11031Y18523D01*
X11030Y18525D01*
X11028Y18527D01*
X11026Y18530D01*
X11024Y18531D01*
X11022Y18533D01*
X11019Y18534D01*
X11017Y18536D01*
X11014Y18536D01*
X11012Y18537D01*
X11009Y18538D01*
X11006Y18539D01*
X11003Y18539D01*
X11000Y18539D01*
X10841Y18539D01*
X10841Y19440D01*
X10841Y19441D01*
X10841Y19442D01*
X10840Y19446D01*
X10840Y19450D01*
X10839Y19450D01*
X10839Y19451D01*
X10837Y19455D01*
X10835Y19458D01*
X10835Y19459D01*
X10834Y19460D01*
X10831Y19462D01*
X10828Y19464D01*
X10827Y19465D01*
X10826Y19466D01*
X10823Y19467D01*
X10820Y19468D01*
X10819Y19468D01*
X10818Y19469D01*
X10812Y19469D01*
X180Y19469D01*
X179Y19469D01*
X178Y19469D01*
X174Y19468D01*
X171Y19468D01*
X170Y19467D01*
X169Y19467D01*
X165Y19465D01*
X162Y19463D01*
X161Y19462D01*
X158Y19459D01*
X156Y19456D01*
X155Y19455D01*
X155Y19454D01*
X153Y19451D01*
X152Y19448D01*
X152Y19446D01*
X151Y19445D01*
X151Y19440D01*
X151Y180D01*
X151Y179D01*
X151Y178D01*
X152Y174D01*
X152Y171D01*
X153Y170D01*
X153Y169D01*
X155Y165D01*
X157Y162D01*
X158Y161D01*
X161Y158D01*
X164Y156D01*
X165Y155D01*
X166Y155D01*
X169Y153D01*
X173Y152D01*
X174Y152D01*
X175Y151D01*
X180Y151D01*
X10812Y151D01*
X10813Y151D01*
G37*
%LPC*%
G36*
X3328Y7433D02*
X3328Y7433D01*
X3085Y7676D01*
X3085Y7678D01*
X3085Y7679D01*
X3085Y7681D01*
X3084Y7684D01*
X3083Y7688D01*
X3083Y7689D01*
X3083Y7690D01*
X3081Y7693D01*
X3079Y7696D01*
X3078Y7697D01*
X3077Y7698D01*
X3075Y7700D01*
X3072Y7703D01*
X3071Y7703D01*
X3070Y7704D01*
X3067Y7705D01*
X3063Y7707D01*
X3062Y7707D01*
X3061Y7707D01*
X3056Y7708D01*
X2968Y7708D01*
X1014Y9662D01*
X1014Y18524D01*
X1506Y19016D01*
X4183Y19016D01*
X4274Y18925D01*
X4788Y18411D01*
X4789Y18410D01*
X4790Y18409D01*
X4793Y18407D01*
X4794Y18406D01*
X4795Y18406D01*
X4796Y18405D01*
X4797Y18405D01*
X4798Y18404D01*
X4802Y18403D01*
X4805Y18402D01*
X4806Y18402D01*
X4807Y18402D01*
X4811Y18403D01*
X4815Y18403D01*
X4816Y18403D01*
X4817Y18403D01*
X4819Y18404D01*
X4820Y18404D01*
X4820Y18405D01*
X4824Y18406D01*
X4825Y18407D01*
X4826Y18407D01*
X4827Y18408D01*
X4827Y18409D01*
X4828Y18409D01*
X4830Y18411D01*
X5170Y18411D01*
X5411Y18170D01*
X5411Y17830D01*
X5170Y17589D01*
X4830Y17589D01*
X4589Y17830D01*
X4589Y18170D01*
X4590Y18171D01*
X4591Y18172D01*
X4593Y18175D01*
X4595Y18178D01*
X4595Y18179D01*
X4596Y18180D01*
X4597Y18184D01*
X4598Y18187D01*
X4598Y18188D01*
X4598Y18189D01*
X4597Y18193D01*
X4597Y18197D01*
X4597Y18198D01*
X4597Y18199D01*
X4595Y18202D01*
X4594Y18206D01*
X4593Y18206D01*
X4593Y18207D01*
X4589Y18212D01*
X4075Y18726D01*
X4072Y18728D01*
X4069Y18730D01*
X4068Y18731D01*
X4067Y18731D01*
X4064Y18732D01*
X4060Y18734D01*
X4059Y18734D01*
X4058Y18734D01*
X4055Y18734D01*
X2535Y18734D01*
X2533Y18734D01*
X2530Y18734D01*
X2528Y18733D01*
X2526Y18733D01*
X2523Y18731D01*
X2521Y18730D01*
X2519Y18729D01*
X2518Y18728D01*
X2516Y18726D01*
X2513Y18724D01*
X2512Y18723D01*
X2511Y18721D01*
X2510Y18718D01*
X2508Y18716D01*
X2508Y18714D01*
X2507Y18712D01*
X2507Y18710D01*
X2506Y18707D01*
X2506Y18705D01*
X2506Y18703D01*
X2507Y18700D01*
X2507Y18697D01*
X2508Y18695D01*
X2508Y18694D01*
X2510Y18691D01*
X2511Y18688D01*
X2513Y18686D01*
X2514Y18686D01*
X2514Y18685D01*
X2515Y18684D01*
X2524Y18675D01*
X2788Y18411D01*
X2789Y18410D01*
X2790Y18409D01*
X2793Y18407D01*
X2794Y18406D01*
X2795Y18406D01*
X2796Y18405D01*
X2797Y18405D01*
X2798Y18404D01*
X2802Y18403D01*
X2805Y18402D01*
X2806Y18402D01*
X2807Y18402D01*
X2811Y18403D01*
X2815Y18403D01*
X2816Y18403D01*
X2817Y18403D01*
X2819Y18404D01*
X2820Y18404D01*
X2820Y18405D01*
X2824Y18406D01*
X2825Y18407D01*
X2826Y18407D01*
X2827Y18408D01*
X2827Y18409D01*
X2828Y18409D01*
X2830Y18411D01*
X3170Y18411D01*
X3411Y18170D01*
X3411Y17830D01*
X3170Y17589D01*
X2830Y17589D01*
X2589Y17830D01*
X2589Y18170D01*
X2590Y18171D01*
X2591Y18172D01*
X2593Y18175D01*
X2595Y18178D01*
X2595Y18179D01*
X2596Y18180D01*
X2597Y18184D01*
X2598Y18187D01*
X2598Y18188D01*
X2598Y18189D01*
X2597Y18193D01*
X2597Y18197D01*
X2597Y18198D01*
X2597Y18199D01*
X2595Y18202D01*
X2594Y18206D01*
X2593Y18206D01*
X2593Y18207D01*
X2589Y18212D01*
X2325Y18476D01*
X2322Y18478D01*
X2319Y18480D01*
X2318Y18481D01*
X2317Y18481D01*
X2314Y18482D01*
X2310Y18484D01*
X2309Y18484D01*
X2308Y18484D01*
X2305Y18484D01*
X1695Y18484D01*
X1691Y18484D01*
X1688Y18483D01*
X1687Y18483D01*
X1686Y18483D01*
X1682Y18481D01*
X1679Y18479D01*
X1678Y18478D01*
X1677Y18478D01*
X1675Y18476D01*
X1524Y18325D01*
X1522Y18322D01*
X1520Y18319D01*
X1519Y18318D01*
X1519Y18317D01*
X1518Y18314D01*
X1516Y18310D01*
X1516Y18309D01*
X1516Y18308D01*
X1516Y18307D01*
X1516Y18305D01*
X1516Y17070D01*
X1516Y17067D01*
X1517Y17063D01*
X1517Y17062D01*
X1517Y17061D01*
X1519Y17057D01*
X1521Y17054D01*
X1522Y17053D01*
X1522Y17052D01*
X1524Y17050D01*
X1675Y16899D01*
X1766Y16808D01*
X1766Y10195D01*
X1766Y10192D01*
X1767Y10188D01*
X1767Y10187D01*
X1767Y10186D01*
X1769Y10182D01*
X1771Y10179D01*
X1772Y10178D01*
X1772Y10177D01*
X1774Y10175D01*
X3035Y8914D01*
X3036Y8913D01*
X3037Y8912D01*
X3040Y8910D01*
X3043Y8908D01*
X3044Y8908D01*
X3045Y8907D01*
X3049Y8906D01*
X3052Y8905D01*
X3053Y8905D01*
X3054Y8905D01*
X3058Y8906D01*
X3062Y8906D01*
X3063Y8906D01*
X3064Y8906D01*
X3067Y8908D01*
X3071Y8909D01*
X3072Y8910D01*
X3073Y8910D01*
X3077Y8914D01*
X3328Y9165D01*
X3672Y9165D01*
X3915Y8922D01*
X3915Y8578D01*
X3672Y8335D01*
X3328Y8335D01*
X3085Y8578D01*
X3085Y8580D01*
X3085Y8581D01*
X3085Y8582D01*
X3084Y8586D01*
X3083Y8589D01*
X3083Y8590D01*
X3083Y8591D01*
X3081Y8595D01*
X3079Y8598D01*
X3078Y8599D01*
X3077Y8599D01*
X3075Y8602D01*
X3072Y8604D01*
X3071Y8605D01*
X3070Y8605D01*
X3067Y8607D01*
X3063Y8608D01*
X3062Y8608D01*
X3061Y8609D01*
X3056Y8609D01*
X2942Y8609D01*
X1484Y10067D01*
X1484Y16680D01*
X1484Y16684D01*
X1483Y16687D01*
X1483Y16688D01*
X1483Y16689D01*
X1481Y16693D01*
X1479Y16696D01*
X1478Y16697D01*
X1478Y16698D01*
X1476Y16700D01*
X1346Y16830D01*
X1343Y16832D01*
X1341Y16834D01*
X1339Y16835D01*
X1338Y16836D01*
X1335Y16837D01*
X1332Y16838D01*
X1331Y16838D01*
X1329Y16839D01*
X1326Y16838D01*
X1323Y16839D01*
X1321Y16838D01*
X1319Y16838D01*
X1316Y16837D01*
X1314Y16837D01*
X1312Y16836D01*
X1310Y16835D01*
X1308Y16833D01*
X1306Y16831D01*
X1304Y16830D01*
X1303Y16829D01*
X1301Y16826D01*
X1300Y16824D01*
X1299Y16822D01*
X1298Y16821D01*
X1297Y16818D01*
X1296Y16815D01*
X1296Y16812D01*
X1296Y16811D01*
X1296Y16810D01*
X1296Y9790D01*
X1296Y9787D01*
X1297Y9783D01*
X1297Y9782D01*
X1297Y9781D01*
X1299Y9777D01*
X1301Y9774D01*
X1302Y9773D01*
X1302Y9772D01*
X1304Y9770D01*
X3049Y8025D01*
X3050Y8024D01*
X3053Y8022D01*
X3056Y8020D01*
X3057Y8020D01*
X3058Y8019D01*
X3062Y8018D01*
X3066Y8017D01*
X3067Y8017D01*
X3068Y8017D01*
X3071Y8017D01*
X3075Y8017D01*
X3076Y8018D01*
X3077Y8018D01*
X3081Y8020D01*
X3084Y8021D01*
X3085Y8022D01*
X3086Y8022D01*
X3090Y8025D01*
X3328Y8264D01*
X3672Y8264D01*
X3915Y8020D01*
X3915Y7676D01*
X3672Y7433D01*
X3328Y7433D01*
G37*
%LPD*%
%LPC*%
G36*
X3328Y9236D02*
X3328Y9236D01*
X3085Y9480D01*
X3085Y9482D01*
X3085Y9483D01*
X3085Y9484D01*
X3084Y9487D01*
X3083Y9491D01*
X3083Y9492D01*
X3083Y9493D01*
X3081Y9496D01*
X3079Y9499D01*
X3078Y9500D01*
X3077Y9501D01*
X3075Y9503D01*
X3072Y9506D01*
X3071Y9506D01*
X3070Y9507D01*
X3067Y9508D01*
X3063Y9510D01*
X3062Y9510D01*
X3061Y9510D01*
X3056Y9511D01*
X3040Y9511D01*
X1859Y10692D01*
X1859Y17560D01*
X1859Y17561D01*
X1859Y17562D01*
X1858Y17566D01*
X1858Y17569D01*
X1857Y17570D01*
X1857Y17571D01*
X1855Y17575D01*
X1853Y17578D01*
X1852Y17579D01*
X1849Y17582D01*
X1846Y17584D01*
X1845Y17585D01*
X1844Y17585D01*
X1841Y17587D01*
X1837Y17588D01*
X1836Y17588D01*
X1835Y17589D01*
X1830Y17589D01*
X1589Y17830D01*
X1589Y18170D01*
X1830Y18411D01*
X2170Y18411D01*
X2411Y18170D01*
X2411Y17830D01*
X2170Y17589D01*
X2169Y17589D01*
X2168Y17589D01*
X2164Y17588D01*
X2161Y17588D01*
X2160Y17587D01*
X2159Y17587D01*
X2155Y17585D01*
X2152Y17583D01*
X2151Y17582D01*
X2148Y17579D01*
X2146Y17576D01*
X2145Y17575D01*
X2145Y17574D01*
X2143Y17571D01*
X2142Y17567D01*
X2142Y17566D01*
X2141Y17565D01*
X2141Y17560D01*
X2141Y10820D01*
X2141Y10817D01*
X2142Y10813D01*
X2142Y10812D01*
X2142Y10811D01*
X2144Y10807D01*
X2146Y10804D01*
X2147Y10803D01*
X2147Y10802D01*
X2149Y10800D01*
X3085Y9864D01*
X3086Y9863D01*
X3089Y9861D01*
X3092Y9859D01*
X3093Y9859D01*
X3094Y9858D01*
X3098Y9857D01*
X3101Y9856D01*
X3103Y9856D01*
X3104Y9856D01*
X3107Y9856D01*
X3111Y9857D01*
X3112Y9857D01*
X3113Y9857D01*
X3116Y9859D01*
X3120Y9860D01*
X3121Y9861D01*
X3122Y9861D01*
X3126Y9864D01*
X3328Y10067D01*
X3672Y10067D01*
X3915Y9824D01*
X3915Y9480D01*
X3672Y9236D01*
X3328Y9236D01*
G37*
%LPD*%
%LPC*%
G36*
X3328Y10138D02*
X3328Y10138D01*
X3085Y10381D01*
X3085Y10383D01*
X3085Y10384D01*
X3085Y10385D01*
X3084Y10389D01*
X3083Y10393D01*
X3083Y10394D01*
X3083Y10395D01*
X3081Y10398D01*
X3079Y10401D01*
X3078Y10402D01*
X3077Y10403D01*
X3075Y10405D01*
X3072Y10408D01*
X3071Y10408D01*
X3070Y10409D01*
X3067Y10410D01*
X3063Y10411D01*
X3062Y10412D01*
X3061Y10412D01*
X3056Y10412D01*
X2889Y10412D01*
X2234Y11067D01*
X2234Y16433D01*
X2325Y16524D01*
X3589Y17788D01*
X3590Y17789D01*
X3591Y17790D01*
X3593Y17793D01*
X3595Y17796D01*
X3595Y17797D01*
X3596Y17798D01*
X3597Y17802D01*
X3598Y17805D01*
X3598Y17806D01*
X3598Y17807D01*
X3597Y17811D01*
X3597Y17815D01*
X3597Y17816D01*
X3597Y17817D01*
X3595Y17820D01*
X3594Y17824D01*
X3593Y17825D01*
X3593Y17826D01*
X3589Y17830D01*
X3589Y18170D01*
X3830Y18411D01*
X4170Y18411D01*
X4411Y18170D01*
X4411Y17830D01*
X4170Y17589D01*
X3830Y17589D01*
X3829Y17590D01*
X3828Y17591D01*
X3825Y17593D01*
X3822Y17595D01*
X3821Y17595D01*
X3820Y17596D01*
X3816Y17597D01*
X3813Y17598D01*
X3812Y17598D01*
X3811Y17598D01*
X3807Y17597D01*
X3803Y17597D01*
X3802Y17597D01*
X3801Y17597D01*
X3798Y17595D01*
X3794Y17594D01*
X3794Y17593D01*
X3793Y17593D01*
X3788Y17589D01*
X2524Y16325D01*
X2522Y16322D01*
X2520Y16319D01*
X2519Y16318D01*
X2519Y16317D01*
X2518Y16314D01*
X2516Y16310D01*
X2516Y16309D01*
X2516Y16308D01*
X2516Y16307D01*
X2516Y16305D01*
X2516Y11195D01*
X2516Y11192D01*
X2517Y11188D01*
X2517Y11187D01*
X2517Y11186D01*
X2519Y11182D01*
X2521Y11179D01*
X2522Y11178D01*
X2522Y11177D01*
X2524Y11175D01*
X2997Y10702D01*
X3000Y10700D01*
X3003Y10698D01*
X3004Y10697D01*
X3008Y10696D01*
X3012Y10694D01*
X3013Y10694D01*
X3014Y10694D01*
X3017Y10694D01*
X3056Y10694D01*
X3057Y10694D01*
X3058Y10694D01*
X3061Y10695D01*
X3065Y10695D01*
X3066Y10696D01*
X3067Y10696D01*
X3070Y10698D01*
X3074Y10700D01*
X3074Y10701D01*
X3075Y10701D01*
X3077Y10704D01*
X3080Y10707D01*
X3080Y10708D01*
X3081Y10709D01*
X3082Y10712D01*
X3084Y10716D01*
X3084Y10717D01*
X3084Y10718D01*
X3085Y10723D01*
X3085Y10725D01*
X3328Y10968D01*
X3672Y10968D01*
X3915Y10725D01*
X3915Y10381D01*
X3672Y10138D01*
X3328Y10138D01*
G37*
%LPD*%
%LPC*%
G36*
X6914Y3414D02*
X6914Y3414D01*
X6878Y3449D01*
X6878Y3620D01*
X6878Y3621D01*
X6878Y3622D01*
X6877Y3626D01*
X6877Y3629D01*
X6876Y3630D01*
X6876Y3631D01*
X6874Y3635D01*
X6872Y3638D01*
X6871Y3639D01*
X6868Y3642D01*
X6865Y3644D01*
X6864Y3645D01*
X6863Y3645D01*
X6860Y3647D01*
X6856Y3648D01*
X6855Y3648D01*
X6854Y3649D01*
X6849Y3649D01*
X6708Y3649D01*
X6641Y3717D01*
X6467Y3891D01*
X6399Y3958D01*
X6399Y8598D01*
X6399Y8602D01*
X6398Y8606D01*
X6398Y8607D01*
X6396Y8611D01*
X6394Y8614D01*
X6393Y8615D01*
X6393Y8616D01*
X6391Y8618D01*
X5743Y9266D01*
X5742Y9267D01*
X5741Y9268D01*
X5738Y9270D01*
X5735Y9272D01*
X5734Y9272D01*
X5733Y9273D01*
X5730Y9273D01*
X5726Y9274D01*
X5725Y9274D01*
X5724Y9275D01*
X5720Y9274D01*
X5716Y9274D01*
X5715Y9274D01*
X5714Y9274D01*
X5711Y9272D01*
X5708Y9271D01*
X5707Y9270D01*
X5706Y9270D01*
X5702Y9266D01*
X5672Y9236D01*
X5328Y9236D01*
X5085Y9480D01*
X5085Y9824D01*
X5328Y10067D01*
X5672Y10067D01*
X5915Y9824D01*
X5915Y9480D01*
X5885Y9450D01*
X5885Y9449D01*
X5884Y9448D01*
X5882Y9445D01*
X5880Y9442D01*
X5880Y9441D01*
X5879Y9440D01*
X5878Y9437D01*
X5877Y9433D01*
X5877Y9432D01*
X5877Y9431D01*
X5877Y9427D01*
X5877Y9423D01*
X5878Y9423D01*
X5878Y9421D01*
X5880Y9418D01*
X5881Y9415D01*
X5882Y9414D01*
X5882Y9413D01*
X5885Y9409D01*
X6533Y8761D01*
X6601Y8693D01*
X6601Y4054D01*
X6601Y4050D01*
X6602Y4046D01*
X6602Y4045D01*
X6602Y4044D01*
X6604Y4041D01*
X6606Y4037D01*
X6607Y4036D01*
X6607Y4035D01*
X6609Y4033D01*
X6783Y3859D01*
X6786Y3857D01*
X6789Y3855D01*
X6790Y3854D01*
X6791Y3854D01*
X6795Y3853D01*
X6798Y3851D01*
X6800Y3851D01*
X6801Y3851D01*
X6804Y3851D01*
X6849Y3851D01*
X6850Y3851D01*
X6851Y3851D01*
X6855Y3852D01*
X6858Y3852D01*
X6859Y3853D01*
X6860Y3853D01*
X6864Y3855D01*
X6867Y3857D01*
X6868Y3858D01*
X6871Y3861D01*
X6873Y3864D01*
X6874Y3865D01*
X6874Y3866D01*
X6876Y3869D01*
X6877Y3873D01*
X6877Y3874D01*
X6878Y3875D01*
X6878Y3880D01*
X6878Y4051D01*
X6914Y4086D01*
X7397Y4086D01*
X7433Y4051D01*
X7433Y3449D01*
X7397Y3414D01*
X6914Y3414D01*
G37*
%LPD*%
%LPC*%
G36*
X5328Y11040D02*
X5328Y11040D01*
X5085Y11283D01*
X5085Y11627D01*
X5328Y11870D01*
X5672Y11870D01*
X5702Y11840D01*
X5703Y11839D01*
X5706Y11837D01*
X5709Y11835D01*
X5710Y11834D01*
X5711Y11834D01*
X5715Y11833D01*
X5719Y11832D01*
X5720Y11832D01*
X5721Y11832D01*
X5724Y11832D01*
X5728Y11832D01*
X5729Y11833D01*
X5730Y11833D01*
X5734Y11834D01*
X5737Y11836D01*
X5738Y11836D01*
X5739Y11837D01*
X5743Y11840D01*
X6266Y12363D01*
X6268Y12366D01*
X6270Y12369D01*
X6271Y12370D01*
X6271Y12371D01*
X6272Y12374D01*
X6274Y12378D01*
X6274Y12379D01*
X6274Y12380D01*
X6274Y12381D01*
X6274Y12384D01*
X6274Y15292D01*
X6833Y15851D01*
X6849Y15851D01*
X6850Y15851D01*
X6851Y15851D01*
X6855Y15852D01*
X6858Y15852D01*
X6859Y15853D01*
X6860Y15853D01*
X6864Y15855D01*
X6867Y15857D01*
X6868Y15858D01*
X6871Y15861D01*
X6873Y15864D01*
X6874Y15865D01*
X6874Y15866D01*
X6876Y15869D01*
X6877Y15873D01*
X6877Y15874D01*
X6878Y15875D01*
X6878Y15880D01*
X6878Y16051D01*
X6914Y16086D01*
X7397Y16086D01*
X7433Y16051D01*
X7433Y15449D01*
X7397Y15414D01*
X6914Y15414D01*
X6878Y15449D01*
X6878Y15540D01*
X6878Y15543D01*
X6878Y15546D01*
X6877Y15548D01*
X6877Y15550D01*
X6875Y15552D01*
X6874Y15555D01*
X6873Y15556D01*
X6872Y15558D01*
X6870Y15560D01*
X6868Y15562D01*
X6867Y15563D01*
X6865Y15565D01*
X6862Y15566D01*
X6860Y15567D01*
X6858Y15568D01*
X6856Y15568D01*
X6853Y15569D01*
X6851Y15569D01*
X6849Y15569D01*
X6847Y15569D01*
X6844Y15569D01*
X6841Y15568D01*
X6839Y15568D01*
X6838Y15567D01*
X6835Y15566D01*
X6832Y15564D01*
X6830Y15562D01*
X6829Y15562D01*
X6828Y15561D01*
X6484Y15217D01*
X6482Y15214D01*
X6480Y15211D01*
X6479Y15210D01*
X6479Y15209D01*
X6478Y15205D01*
X6476Y15202D01*
X6476Y15200D01*
X6476Y15199D01*
X6476Y15196D01*
X6476Y12288D01*
X5885Y11698D01*
X5885Y11697D01*
X5884Y11696D01*
X5882Y11693D01*
X5880Y11690D01*
X5880Y11689D01*
X5879Y11688D01*
X5878Y11684D01*
X5877Y11681D01*
X5877Y11680D01*
X5877Y11679D01*
X5877Y11675D01*
X5877Y11671D01*
X5878Y11670D01*
X5878Y11669D01*
X5880Y11666D01*
X5881Y11662D01*
X5882Y11661D01*
X5882Y11660D01*
X5885Y11656D01*
X5915Y11627D01*
X5915Y11283D01*
X5672Y11040D01*
X5328Y11040D01*
G37*
%LPD*%
%LPC*%
G36*
X6914Y9414D02*
X6914Y9414D01*
X6878Y9449D01*
X6878Y9620D01*
X6878Y9621D01*
X6878Y9622D01*
X6877Y9626D01*
X6877Y9629D01*
X6876Y9630D01*
X6876Y9631D01*
X6874Y9635D01*
X6872Y9638D01*
X6871Y9639D01*
X6868Y9642D01*
X6865Y9644D01*
X6864Y9645D01*
X6863Y9645D01*
X6860Y9647D01*
X6856Y9648D01*
X6855Y9648D01*
X6854Y9649D01*
X6849Y9649D01*
X6708Y9649D01*
X6641Y9717D01*
X5965Y10393D01*
X5963Y10394D01*
X5960Y10396D01*
X5959Y10397D01*
X5957Y10398D01*
X5954Y10399D01*
X5952Y10400D01*
X5950Y10400D01*
X5948Y10401D01*
X5945Y10401D01*
X5942Y10401D01*
X5940Y10401D01*
X5939Y10400D01*
X5936Y10399D01*
X5933Y10399D01*
X5931Y10398D01*
X5930Y10397D01*
X5927Y10395D01*
X5925Y10394D01*
X5924Y10392D01*
X5922Y10391D01*
X5921Y10388D01*
X5919Y10386D01*
X5918Y10384D01*
X5672Y10138D01*
X5328Y10138D01*
X5085Y10381D01*
X5085Y10725D01*
X5328Y10968D01*
X5672Y10968D01*
X5915Y10725D01*
X5915Y10683D01*
X5915Y10682D01*
X5915Y10681D01*
X5916Y10677D01*
X5917Y10674D01*
X5917Y10673D01*
X5917Y10672D01*
X5919Y10669D01*
X5921Y10665D01*
X5922Y10665D01*
X5923Y10664D01*
X5925Y10661D01*
X5928Y10659D01*
X5929Y10658D01*
X5930Y10658D01*
X5933Y10656D01*
X5937Y10655D01*
X5938Y10655D01*
X5939Y10654D01*
X5944Y10654D01*
X5989Y10654D01*
X6783Y9859D01*
X6786Y9857D01*
X6789Y9855D01*
X6790Y9854D01*
X6791Y9854D01*
X6795Y9853D01*
X6798Y9851D01*
X6800Y9851D01*
X6801Y9851D01*
X6804Y9851D01*
X6849Y9851D01*
X6850Y9851D01*
X6851Y9851D01*
X6855Y9852D01*
X6858Y9852D01*
X6859Y9853D01*
X6860Y9853D01*
X6864Y9855D01*
X6867Y9857D01*
X6868Y9858D01*
X6871Y9861D01*
X6873Y9864D01*
X6874Y9865D01*
X6874Y9866D01*
X6876Y9869D01*
X6877Y9873D01*
X6877Y9874D01*
X6878Y9875D01*
X6878Y9880D01*
X6878Y10051D01*
X6914Y10086D01*
X7397Y10086D01*
X7433Y10051D01*
X7433Y9449D01*
X7397Y9414D01*
X6914Y9414D01*
G37*
%LPD*%
%LPC*%
G36*
X4499Y8298D02*
X4499Y8298D01*
X4499Y8329D01*
X4499Y8330D01*
X4499Y8331D01*
X4498Y8335D01*
X4498Y8339D01*
X4497Y8340D01*
X4497Y8341D01*
X4495Y8344D01*
X4493Y8347D01*
X4492Y8348D01*
X4492Y8349D01*
X4489Y8351D01*
X4486Y8354D01*
X4485Y8354D01*
X4484Y8355D01*
X4481Y8356D01*
X4477Y8358D01*
X4476Y8358D01*
X4475Y8358D01*
X4470Y8358D01*
X4045Y8358D01*
X4045Y8488D01*
X4315Y8758D01*
X4316Y8759D01*
X4318Y8762D01*
X4320Y8765D01*
X4321Y8766D01*
X4321Y8767D01*
X4322Y8771D01*
X4323Y8775D01*
X4323Y8776D01*
X4323Y8777D01*
X4323Y8780D01*
X4323Y8784D01*
X4322Y8785D01*
X4322Y8786D01*
X4321Y8790D01*
X4319Y8793D01*
X4319Y8794D01*
X4318Y8795D01*
X4315Y8799D01*
X4085Y9029D01*
X4085Y9373D01*
X4315Y9603D01*
X4316Y9604D01*
X4318Y9607D01*
X4320Y9610D01*
X4321Y9611D01*
X4321Y9612D01*
X4322Y9616D01*
X4323Y9620D01*
X4323Y9621D01*
X4323Y9622D01*
X4323Y9625D01*
X4323Y9629D01*
X4322Y9630D01*
X4322Y9631D01*
X4321Y9635D01*
X4319Y9638D01*
X4319Y9639D01*
X4318Y9640D01*
X4315Y9644D01*
X4045Y9914D01*
X4045Y10043D01*
X4470Y10043D01*
X4471Y10043D01*
X4472Y10043D01*
X4476Y10044D01*
X4479Y10045D01*
X4480Y10045D01*
X4481Y10045D01*
X4485Y10047D01*
X4488Y10049D01*
X4489Y10050D01*
X4489Y10051D01*
X4492Y10053D01*
X4494Y10056D01*
X4495Y10057D01*
X4495Y10058D01*
X4497Y10062D01*
X4498Y10065D01*
X4498Y10066D01*
X4499Y10067D01*
X4499Y10072D01*
X4499Y10103D01*
X4501Y10103D01*
X4501Y10072D01*
X4501Y10071D01*
X4501Y10070D01*
X4502Y10067D01*
X4502Y10063D01*
X4503Y10062D01*
X4503Y10061D01*
X4505Y10058D01*
X4507Y10054D01*
X4508Y10054D01*
X4508Y10053D01*
X4511Y10051D01*
X4514Y10048D01*
X4515Y10048D01*
X4516Y10047D01*
X4519Y10046D01*
X4523Y10044D01*
X4524Y10044D01*
X4525Y10044D01*
X4530Y10043D01*
X4955Y10043D01*
X4955Y9914D01*
X4685Y9644D01*
X4685Y9643D01*
X4684Y9642D01*
X4682Y9639D01*
X4680Y9636D01*
X4679Y9635D01*
X4679Y9634D01*
X4678Y9631D01*
X4677Y9627D01*
X4677Y9626D01*
X4677Y9625D01*
X4677Y9621D01*
X4677Y9617D01*
X4678Y9616D01*
X4678Y9615D01*
X4679Y9612D01*
X4681Y9609D01*
X4681Y9608D01*
X4682Y9607D01*
X4685Y9603D01*
X4915Y9373D01*
X4915Y9029D01*
X4685Y8799D01*
X4685Y8798D01*
X4684Y8797D01*
X4683Y8796D01*
X4682Y8795D01*
X4682Y8794D01*
X4680Y8791D01*
X4679Y8790D01*
X4679Y8789D01*
X4678Y8786D01*
X4677Y8782D01*
X4677Y8781D01*
X4677Y8780D01*
X4677Y8776D01*
X4677Y8772D01*
X4678Y8771D01*
X4678Y8770D01*
X4679Y8767D01*
X4681Y8764D01*
X4681Y8763D01*
X4682Y8762D01*
X4685Y8758D01*
X4955Y8488D01*
X4955Y8358D01*
X4530Y8358D01*
X4529Y8358D01*
X4528Y8358D01*
X4524Y8358D01*
X4521Y8357D01*
X4520Y8356D01*
X4519Y8356D01*
X4515Y8354D01*
X4512Y8352D01*
X4511Y8352D01*
X4511Y8351D01*
X4508Y8348D01*
X4506Y8345D01*
X4505Y8344D01*
X4503Y8340D01*
X4502Y8337D01*
X4502Y8336D01*
X4501Y8335D01*
X4501Y8329D01*
X4501Y8298D01*
X4499Y8298D01*
G37*
%LPD*%
%LPC*%
G36*
X5499Y7848D02*
X5499Y7848D01*
X5499Y7878D01*
X5499Y7879D01*
X5499Y7881D01*
X5498Y7884D01*
X5498Y7888D01*
X5497Y7889D01*
X5497Y7890D01*
X5495Y7893D01*
X5493Y7896D01*
X5492Y7897D01*
X5492Y7898D01*
X5489Y7900D01*
X5486Y7903D01*
X5485Y7903D01*
X5484Y7904D01*
X5481Y7905D01*
X5477Y7907D01*
X5476Y7907D01*
X5475Y7907D01*
X5470Y7908D01*
X5045Y7908D01*
X5045Y8037D01*
X5315Y8307D01*
X5315Y8308D01*
X5316Y8308D01*
X5318Y8312D01*
X5320Y8315D01*
X5321Y8316D01*
X5321Y8317D01*
X5322Y8320D01*
X5323Y8324D01*
X5323Y8325D01*
X5323Y8326D01*
X5323Y8330D01*
X5323Y8333D01*
X5322Y8334D01*
X5322Y8335D01*
X5321Y8339D01*
X5319Y8342D01*
X5319Y8343D01*
X5318Y8344D01*
X5315Y8348D01*
X5085Y8578D01*
X5085Y8922D01*
X5328Y9165D01*
X5672Y9165D01*
X5915Y8922D01*
X5915Y8578D01*
X5685Y8348D01*
X5685Y8347D01*
X5684Y8347D01*
X5682Y8343D01*
X5680Y8340D01*
X5679Y8339D01*
X5679Y8338D01*
X5678Y8335D01*
X5677Y8331D01*
X5677Y8330D01*
X5677Y8329D01*
X5677Y8325D01*
X5677Y8322D01*
X5678Y8321D01*
X5678Y8320D01*
X5679Y8316D01*
X5681Y8313D01*
X5681Y8312D01*
X5682Y8311D01*
X5685Y8307D01*
X5955Y8037D01*
X5955Y7908D01*
X5530Y7908D01*
X5529Y7908D01*
X5528Y7908D01*
X5524Y7907D01*
X5521Y7906D01*
X5520Y7906D01*
X5519Y7905D01*
X5515Y7903D01*
X5512Y7902D01*
X5511Y7901D01*
X5511Y7900D01*
X5508Y7897D01*
X5506Y7895D01*
X5505Y7894D01*
X5505Y7893D01*
X5503Y7889D01*
X5502Y7886D01*
X5502Y7885D01*
X5501Y7884D01*
X5501Y7878D01*
X5501Y7848D01*
X5499Y7848D01*
G37*
%LPD*%
%LPC*%
G36*
X4559Y4769D02*
X4559Y4769D01*
X5486Y4769D01*
X5474Y4663D01*
X5450Y4555D01*
X5413Y4451D01*
X5365Y4351D01*
X5306Y4257D01*
X5237Y4170D01*
X5158Y4092D01*
X5072Y4023D01*
X4978Y3964D01*
X4878Y3916D01*
X4774Y3879D01*
X4666Y3855D01*
X4559Y3843D01*
X4559Y4769D01*
G37*
%LPD*%
%LPC*%
G36*
X4559Y4888D02*
X4559Y4888D01*
X4559Y5815D01*
X4666Y5803D01*
X4774Y5778D01*
X4878Y5742D01*
X4978Y5694D01*
X5072Y5635D01*
X5158Y5566D01*
X5237Y5487D01*
X5306Y5401D01*
X5365Y5307D01*
X5413Y5207D01*
X5450Y5102D01*
X5474Y4994D01*
X5486Y4888D01*
X4559Y4888D01*
G37*
%LPD*%
%LPC*%
G36*
X4559Y14731D02*
X4559Y14731D01*
X4559Y15657D01*
X4666Y15645D01*
X4774Y15621D01*
X4878Y15584D01*
X4978Y15536D01*
X5072Y15477D01*
X5158Y15408D01*
X5237Y15330D01*
X5306Y15243D01*
X5365Y15149D01*
X5413Y15049D01*
X5450Y14945D01*
X5474Y14837D01*
X5486Y14731D01*
X4559Y14731D01*
G37*
%LPD*%
%LPC*%
G36*
X3514Y14731D02*
X3514Y14731D01*
X3526Y14837D01*
X3550Y14945D01*
X3587Y15049D01*
X3635Y15149D01*
X3694Y15243D01*
X3763Y15330D01*
X3842Y15408D01*
X3928Y15477D01*
X4022Y15536D01*
X4122Y15584D01*
X4226Y15621D01*
X4334Y15645D01*
X4441Y15657D01*
X4441Y14731D01*
X3514Y14731D01*
G37*
%LPD*%
%LPC*%
G36*
X4334Y13697D02*
X4334Y13697D01*
X4226Y13722D01*
X4122Y13758D01*
X4022Y13806D01*
X3928Y13865D01*
X3842Y13934D01*
X3763Y14013D01*
X3694Y14099D01*
X3635Y14193D01*
X3587Y14293D01*
X3550Y14398D01*
X3526Y14506D01*
X3514Y14612D01*
X4441Y14612D01*
X4441Y13685D01*
X4334Y13697D01*
G37*
%LPD*%
%LPC*%
G36*
X3514Y4888D02*
X3514Y4888D01*
X3526Y4994D01*
X3550Y5102D01*
X3587Y5207D01*
X3635Y5307D01*
X3694Y5401D01*
X3763Y5487D01*
X3842Y5566D01*
X3928Y5635D01*
X4022Y5694D01*
X4122Y5742D01*
X4226Y5778D01*
X4334Y5803D01*
X4441Y5815D01*
X4441Y4888D01*
X3514Y4888D01*
G37*
%LPD*%
%LPC*%
G36*
X4334Y3855D02*
X4334Y3855D01*
X4226Y3879D01*
X4122Y3916D01*
X4022Y3964D01*
X3928Y4023D01*
X3842Y4092D01*
X3763Y4170D01*
X3694Y4257D01*
X3635Y4351D01*
X3587Y4451D01*
X3550Y4555D01*
X3526Y4663D01*
X3514Y4769D01*
X4441Y4769D01*
X4441Y3843D01*
X4334Y3855D01*
G37*
%LPD*%
%LPC*%
G36*
X4559Y14612D02*
X4559Y14612D01*
X5486Y14612D01*
X5474Y14506D01*
X5450Y14398D01*
X5413Y14293D01*
X5365Y14193D01*
X5306Y14099D01*
X5237Y14013D01*
X5158Y13934D01*
X5072Y13865D01*
X4978Y13806D01*
X4878Y13758D01*
X4774Y13722D01*
X4666Y13697D01*
X4559Y13685D01*
X4559Y14612D01*
G37*
%LPD*%
%LPC*%
G36*
X3328Y11040D02*
X3328Y11040D01*
X3085Y11283D01*
X3085Y11627D01*
X3328Y11870D01*
X3672Y11870D01*
X3915Y11627D01*
X3915Y11283D01*
X3672Y11040D01*
X3328Y11040D01*
G37*
%LPD*%
%LPC*%
G36*
X4559Y11063D02*
X4559Y11063D01*
X4559Y11846D01*
X4955Y11846D01*
X4955Y11717D01*
X4713Y11475D01*
X4712Y11474D01*
X4710Y11471D01*
X4708Y11468D01*
X4708Y11467D01*
X4707Y11466D01*
X4706Y11462D01*
X4705Y11458D01*
X4705Y11457D01*
X4705Y11456D01*
X4705Y11453D01*
X4705Y11449D01*
X4706Y11448D01*
X4706Y11447D01*
X4708Y11443D01*
X4709Y11440D01*
X4710Y11439D01*
X4710Y11438D01*
X4713Y11434D01*
X4955Y11192D01*
X4955Y11063D01*
X4559Y11063D01*
G37*
%LPD*%
%LPC*%
G36*
X4559Y10162D02*
X4559Y10162D01*
X4559Y10945D01*
X4955Y10945D01*
X4955Y10815D01*
X4713Y10574D01*
X4713Y10573D01*
X4712Y10572D01*
X4710Y10569D01*
X4708Y10566D01*
X4708Y10565D01*
X4707Y10564D01*
X4706Y10560D01*
X4705Y10557D01*
X4705Y10556D01*
X4705Y10555D01*
X4705Y10551D01*
X4705Y10547D01*
X4706Y10546D01*
X4706Y10545D01*
X4708Y10542D01*
X4709Y10538D01*
X4710Y10538D01*
X4710Y10537D01*
X4713Y10532D01*
X4955Y10291D01*
X4955Y10162D01*
X4559Y10162D01*
G37*
%LPD*%
%LPC*%
G36*
X4045Y11063D02*
X4045Y11063D01*
X4045Y11192D01*
X4287Y11434D01*
X4287Y11435D01*
X4288Y11436D01*
X4290Y11439D01*
X4292Y11442D01*
X4292Y11443D01*
X4293Y11444D01*
X4294Y11447D01*
X4295Y11451D01*
X4295Y11452D01*
X4295Y11453D01*
X4295Y11457D01*
X4295Y11461D01*
X4294Y11462D01*
X4294Y11463D01*
X4292Y11466D01*
X4291Y11469D01*
X4290Y11470D01*
X4290Y11471D01*
X4287Y11475D01*
X4045Y11717D01*
X4045Y11846D01*
X4441Y11846D01*
X4441Y11063D01*
X4045Y11063D01*
G37*
%LPD*%
%LPC*%
G36*
X4045Y10162D02*
X4045Y10162D01*
X4045Y10291D01*
X4287Y10532D01*
X4287Y10533D01*
X4288Y10534D01*
X4290Y10537D01*
X4292Y10540D01*
X4292Y10541D01*
X4293Y10542D01*
X4294Y10546D01*
X4295Y10549D01*
X4295Y10550D01*
X4295Y10551D01*
X4295Y10555D01*
X4295Y10559D01*
X4294Y10560D01*
X4294Y10561D01*
X4292Y10564D01*
X4291Y10568D01*
X4290Y10569D01*
X4290Y10570D01*
X4287Y10574D01*
X4045Y10815D01*
X4045Y10945D01*
X4441Y10945D01*
X4441Y10162D01*
X4045Y10162D01*
G37*
%LPD*%
%LPC*%
G36*
X4559Y11965D02*
X4559Y11965D01*
X4559Y12361D01*
X4688Y12361D01*
X4955Y12094D01*
X4955Y11965D01*
X4559Y11965D01*
G37*
%LPD*%
%LPC*%
G36*
X5559Y7393D02*
X5559Y7393D01*
X5559Y7789D01*
X5955Y7789D01*
X5955Y7660D01*
X5689Y7393D01*
X5559Y7393D01*
G37*
%LPD*%
%LPC*%
G36*
X4559Y7844D02*
X4559Y7844D01*
X4559Y8240D01*
X4955Y8240D01*
X4955Y8111D01*
X4689Y7844D01*
X4559Y7844D01*
G37*
%LPD*%
%LPC*%
G36*
X4045Y11965D02*
X4045Y11965D01*
X4045Y12094D01*
X4311Y12361D01*
X4441Y12361D01*
X4441Y11965D01*
X4045Y11965D01*
G37*
%LPD*%
%LPC*%
G36*
X5311Y7393D02*
X5311Y7393D01*
X5045Y7660D01*
X5045Y7789D01*
X5441Y7789D01*
X5441Y7393D01*
X5311Y7393D01*
G37*
%LPD*%
%LPC*%
G36*
X4311Y7844D02*
X4311Y7844D01*
X4045Y8111D01*
X4045Y8240D01*
X4441Y8240D01*
X4441Y7844D01*
X4311Y7844D01*
G37*
%LPD*%
%LPC*%
G36*
X6059Y18059D02*
X6059Y18059D01*
X6059Y18451D01*
X6187Y18451D01*
X6451Y18187D01*
X6451Y18059D01*
X6059Y18059D01*
G37*
%LPD*%
%LPC*%
G36*
X5813Y17549D02*
X5813Y17549D01*
X5549Y17813D01*
X5549Y17941D01*
X5941Y17941D01*
X5941Y17549D01*
X5813Y17549D01*
G37*
%LPD*%
%LPC*%
G36*
X5549Y18059D02*
X5549Y18059D01*
X5549Y18187D01*
X5813Y18451D01*
X5941Y18451D01*
X5941Y18059D01*
X5549Y18059D01*
G37*
%LPD*%
%LPC*%
G36*
X6059Y17549D02*
X6059Y17549D01*
X6059Y17941D01*
X6451Y17941D01*
X6451Y17813D01*
X6187Y17549D01*
X6059Y17549D01*
G37*
%LPD*%
%LPC*%
G36*
X7215Y2809D02*
X7215Y2809D01*
X7215Y3126D01*
X7385Y3126D01*
X7411Y3119D01*
X7434Y3106D01*
X7453Y3087D01*
X7466Y3064D01*
X7473Y3039D01*
X7473Y2809D01*
X7215Y2809D01*
G37*
%LPD*%
%LPC*%
G36*
X7215Y14809D02*
X7215Y14809D01*
X7215Y15126D01*
X7385Y15126D01*
X7411Y15119D01*
X7434Y15106D01*
X7453Y15087D01*
X7466Y15064D01*
X7473Y15039D01*
X7473Y14809D01*
X7215Y14809D01*
G37*
%LPD*%
%LPC*%
G36*
X7215Y8809D02*
X7215Y8809D01*
X7215Y9126D01*
X7385Y9126D01*
X7411Y9119D01*
X7434Y9106D01*
X7453Y9087D01*
X7466Y9064D01*
X7473Y9039D01*
X7473Y8809D01*
X7215Y8809D01*
G37*
%LPD*%
%LPC*%
G36*
X7215Y14374D02*
X7215Y14374D01*
X7215Y14691D01*
X7473Y14691D01*
X7473Y14461D01*
X7466Y14436D01*
X7453Y14413D01*
X7434Y14394D01*
X7411Y14381D01*
X7385Y14374D01*
X7215Y14374D01*
G37*
%LPD*%
%LPC*%
G36*
X7215Y2374D02*
X7215Y2374D01*
X7215Y2691D01*
X7473Y2691D01*
X7473Y2461D01*
X7466Y2436D01*
X7453Y2413D01*
X7434Y2394D01*
X7411Y2381D01*
X7385Y2374D01*
X7215Y2374D01*
G37*
%LPD*%
%LPC*%
G36*
X7215Y8374D02*
X7215Y8374D01*
X7215Y8691D01*
X7473Y8691D01*
X7473Y8461D01*
X7466Y8436D01*
X7453Y8413D01*
X7434Y8394D01*
X7411Y8381D01*
X7385Y8374D01*
X7215Y8374D01*
G37*
%LPD*%
%LPC*%
G36*
X6838Y2809D02*
X6838Y2809D01*
X6838Y3039D01*
X6845Y3064D01*
X6858Y3087D01*
X6877Y3106D01*
X6900Y3119D01*
X6926Y3126D01*
X7096Y3126D01*
X7096Y2809D01*
X6838Y2809D01*
G37*
%LPD*%
%LPC*%
G36*
X6838Y8809D02*
X6838Y8809D01*
X6838Y9039D01*
X6845Y9064D01*
X6858Y9087D01*
X6877Y9106D01*
X6900Y9119D01*
X6926Y9126D01*
X7096Y9126D01*
X7096Y8809D01*
X6838Y8809D01*
G37*
%LPD*%
%LPC*%
G36*
X6838Y14809D02*
X6838Y14809D01*
X6838Y15039D01*
X6845Y15064D01*
X6858Y15087D01*
X6877Y15106D01*
X6900Y15119D01*
X6926Y15126D01*
X7096Y15126D01*
X7096Y14809D01*
X6838Y14809D01*
G37*
%LPD*%
%LPC*%
G36*
X6926Y2374D02*
X6926Y2374D01*
X6900Y2381D01*
X6877Y2394D01*
X6858Y2413D01*
X6845Y2436D01*
X6838Y2461D01*
X6838Y2691D01*
X7096Y2691D01*
X7096Y2374D01*
X6926Y2374D01*
G37*
%LPD*%
%LPC*%
G36*
X6926Y8374D02*
X6926Y8374D01*
X6900Y8381D01*
X6877Y8394D01*
X6858Y8413D01*
X6845Y8436D01*
X6838Y8461D01*
X6838Y8691D01*
X7096Y8691D01*
X7096Y8374D01*
X6926Y8374D01*
G37*
%LPD*%
%LPC*%
G36*
X6926Y14374D02*
X6926Y14374D01*
X6900Y14381D01*
X6877Y14394D01*
X6858Y14413D01*
X6845Y14436D01*
X6838Y14461D01*
X6838Y14691D01*
X7096Y14691D01*
X7096Y14374D01*
X6926Y14374D01*
G37*
%LPD*%
%LPC*%
G36*
X4499Y4828D02*
X4499Y4828D01*
X4499Y4829D01*
X4501Y4829D01*
X4501Y4828D01*
X4499Y4828D01*
G37*
%LPD*%
%LPC*%
G36*
X4499Y11003D02*
X4499Y11003D01*
X4499Y11005D01*
X4501Y11005D01*
X4501Y11003D01*
X4499Y11003D01*
G37*
%LPD*%
%LPC*%
G36*
X4499Y11905D02*
X4499Y11905D01*
X4499Y11906D01*
X4501Y11906D01*
X4501Y11905D01*
X4499Y11905D01*
G37*
%LPD*%
%LPC*%
G36*
X4499Y14671D02*
X4499Y14671D01*
X4499Y14672D01*
X4501Y14672D01*
X4501Y14671D01*
X4499Y14671D01*
G37*
%LPD*%
%LPC*%
G36*
X5999Y17999D02*
X5999Y17999D01*
X5999Y18001D01*
X6001Y18001D01*
X6001Y17999D01*
X5999Y17999D01*
G37*
%LPD*%
%LPC*%
G36*
X7155Y8749D02*
X7155Y8749D01*
X7155Y8751D01*
X7156Y8751D01*
X7156Y8749D01*
X7155Y8749D01*
G37*
%LPD*%
%LPC*%
G36*
X7155Y2749D02*
X7155Y2749D01*
X7155Y2751D01*
X7156Y2751D01*
X7156Y2749D01*
X7155Y2749D01*
G37*
%LPD*%
%LPC*%
G36*
X7155Y14749D02*
X7155Y14749D01*
X7155Y14751D01*
X7156Y14751D01*
X7156Y14749D01*
X7155Y14749D01*
G37*
%LPD*%
D10*
X5500Y11455D03*
X5500Y10553D03*
X5500Y9652D03*
X5500Y8750D03*
X5500Y7848D03*
X3500Y11455D03*
X3500Y10553D03*
X3500Y9652D03*
X3500Y8750D03*
X3500Y7848D03*
X4500Y11906D03*
X4500Y11004D03*
X4500Y10102D03*
X4500Y9201D03*
X4500Y8299D03*
D11*
X4500Y14671D03*
X4500Y4829D03*
D12*
X9868Y15750D03*
D13*
X9750Y14125D03*
X9750Y17375D03*
D14*
X10500Y16375D03*
X9750Y16375D03*
X9000Y16375D03*
X9750Y15125D03*
X10500Y15125D03*
X9000Y15125D03*
X9000Y18250D03*
X9750Y18250D03*
X10500Y18250D03*
X9000Y13250D03*
X9750Y13250D03*
X10500Y13250D03*
D12*
X9868Y9750D03*
D13*
X9750Y8125D03*
X9750Y11375D03*
D14*
X10500Y10375D03*
X9750Y10375D03*
X9000Y10375D03*
X9750Y9125D03*
X10500Y9125D03*
X9000Y9125D03*
X9000Y12250D03*
X9750Y12250D03*
X10500Y12250D03*
X9000Y7250D03*
X9750Y7250D03*
X10500Y7250D03*
D12*
X9868Y3750D03*
D13*
X9750Y2125D03*
X9750Y5375D03*
D14*
X10500Y4375D03*
X9750Y4375D03*
X9000Y4375D03*
X9750Y3125D03*
X10500Y3125D03*
X9000Y3125D03*
X9000Y6250D03*
X9750Y6250D03*
X10500Y6250D03*
X9000Y1250D03*
X9750Y1250D03*
X10500Y1250D03*
D15*
X7844Y14750D03*
X7156Y14750D03*
X7156Y15750D03*
X7844Y15750D03*
X7156Y8750D03*
X7844Y8750D03*
X7844Y9750D03*
X7156Y9750D03*
X7844Y3750D03*
X7156Y3750D03*
X7844Y2750D03*
X7156Y2750D03*
D16*
X4000Y18000D03*
X3000Y18000D03*
X2000Y18000D03*
X5000Y18000D03*
X6000Y18000D03*
D17*
X500Y500D03*
X2000Y500D03*
X3500Y500D03*
X5000Y500D03*
X6500Y500D03*
X8000Y500D03*
X9500Y500D03*
X500Y1625D03*
X500Y2750D03*
X500Y4250D03*
X500Y5750D03*
X500Y7250D03*
X500Y8750D03*
X500Y10250D03*
X500Y11750D03*
X500Y13250D03*
X500Y14750D03*
X500Y16250D03*
X500Y17750D03*
X500Y19250D03*
X2000Y19250D03*
X3500Y19250D03*
X5000Y19250D03*
X6500Y19250D03*
X8000Y19250D03*
X9500Y19250D03*
X10500Y19250D03*
X10500Y500D03*
D18*
X7125Y8125D03*
X6125Y10750D03*
X6000Y10125D03*
X6625Y10250D03*
X6500Y9625D03*
X6625Y9000D03*
X6125Y9500D03*
X6125Y8625D03*
X6250Y7500D03*
X6750Y7500D03*
X6750Y6250D03*
X6250Y6250D03*
X6250Y5250D03*
X6750Y5250D03*
X6250Y4375D03*
X6750Y4375D03*
X6500Y3625D03*
X6750Y8125D03*
X6625Y3000D03*
X6625Y2500D03*
X7125Y2125D03*
X6625Y14500D03*
X6625Y15000D03*
X6125Y11625D03*
X5750Y12125D03*
X6125Y12500D03*
X6625Y12125D03*
X6625Y12875D03*
X6125Y13375D03*
X6625Y13750D03*
X6125Y14375D03*
X6125Y15250D03*
X6500Y15750D03*
X7125Y14125D03*
D19*
X4000Y18000D02*
X2375Y16375D01*
X2375Y11125D01*
X2947Y10553D01*
X3500Y10553D01*
X5000Y18000D02*
X4125Y18875D01*
X1155Y18466D02*
X1155Y9720D01*
X3027Y7848D02*
X3500Y7848D01*
X3027Y7848D02*
X1155Y9720D01*
X1155Y18466D02*
X1564Y18875D01*
X4125Y18875D01*
D20*
X7844Y3750D02*
X9868Y3750D01*
X7844Y3750D02*
X7844Y2750D01*
X7844Y9750D02*
X9868Y9750D01*
X7844Y9750D02*
X7844Y8750D01*
X7844Y15750D02*
X9868Y15750D01*
X7844Y15750D02*
X7844Y14750D01*
D21*
X6375Y12330D02*
X5500Y11455D01*
X6375Y12330D02*
X6375Y15250D01*
X6875Y15750D01*
X7156Y15750D01*
X7156Y9898D02*
X7156Y9750D01*
X5947Y10553D02*
X5500Y10553D01*
X5947Y10553D02*
X6750Y9750D01*
X7156Y9750D01*
X6500Y8652D02*
X5500Y9652D01*
X6500Y4000D02*
X6750Y3750D01*
X7156Y3750D01*
X6500Y4000D02*
X6500Y8652D01*
D19*
X3000Y18000D02*
X2375Y18625D01*
X1625Y18625D01*
X1375Y18375D01*
X1375Y17000D02*
X1625Y16750D01*
X1625Y10125D01*
X3000Y8750D01*
X3500Y8750D01*
X1375Y17000D02*
X1375Y18375D01*
X2000Y18000D02*
X2000Y10750D01*
X3098Y9652D02*
X3500Y9652D01*
X3098Y9652D02*
X2000Y10750D01*
M02*
