G04 EAGLE Gerber X2 export*
%TF.Part,Single*%
%TF.FileFunction,Copper,L1,Top,Mixed*%
%TF.FilePolarity,Positive*%
%TF.GenerationSoftware,Autodesk,EAGLE,9.0.0*%
%TF.CreationDate,2018-05-15T01:31:26Z*%
G75*
%MOIN*%
%FSLAX34Y34*%
%LPD*%
%AMOC8*
5,1,8,0,0,1.08239X$1,22.5*%
G01*
%ADD10P,0.076705X8X292.500000*%
%ADD11C,0.177165*%
%ADD12R,0.225000X0.041000*%
%ADD13R,0.250000X0.100000*%
%ADD14C,0.023780*%
%ADD15R,0.043307X0.055118*%
%ADD16P,0.071438X8X22.500000*%
%ADD17C,0.032480*%
%ADD18C,0.021811*%
%ADD19C,0.012000*%
%ADD20C,0.041000*%
%ADD21C,0.008000*%
%ADD22C,0.024000*%
%ADD23C,0.035433*%

G36*
X8170Y9464D02*
X8170Y9464D01*
X8169Y9464D01*
X8165Y9463D01*
X8162Y9463D01*
X8161Y9462D01*
X8160Y9462D01*
X8156Y9460D01*
X8153Y9458D01*
X8152Y9457D01*
X8149Y9454D01*
X8147Y9451D01*
X8146Y9450D01*
X8146Y9449D01*
X8144Y9446D01*
X8143Y9442D01*
X8139Y9438D01*
X8136Y9435D01*
X8134Y9432D01*
X8134Y9431D01*
X8133Y9430D01*
X8132Y9426D01*
X8131Y9423D01*
X8131Y9422D01*
X8130Y9421D01*
X8131Y9420D01*
X8130Y9417D01*
X8130Y9083D01*
X8131Y9079D01*
X8131Y9075D01*
X8132Y9074D01*
X8132Y9073D01*
X8134Y9070D01*
X8135Y9066D01*
X8136Y9065D01*
X8137Y9064D01*
X8139Y9062D01*
X8142Y9059D01*
X8142Y8441D01*
X8094Y8394D01*
X7595Y8394D01*
X7547Y8441D01*
X7547Y9059D01*
X7550Y9062D01*
X7552Y9065D01*
X7555Y9068D01*
X7555Y9069D01*
X7556Y9070D01*
X7557Y9074D01*
X7558Y9077D01*
X7558Y9078D01*
X7558Y9079D01*
X7558Y9080D01*
X7559Y9083D01*
X7559Y9417D01*
X7558Y9421D01*
X7558Y9425D01*
X7557Y9426D01*
X7557Y9427D01*
X7555Y9430D01*
X7554Y9434D01*
X7553Y9435D01*
X7552Y9436D01*
X7550Y9438D01*
X7547Y9441D01*
X7547Y10059D01*
X7595Y10106D01*
X8094Y10106D01*
X8143Y10058D01*
X8143Y10056D01*
X8144Y10055D01*
X8144Y10054D01*
X8146Y10050D01*
X8148Y10047D01*
X8149Y10046D01*
X8152Y10043D01*
X8155Y10041D01*
X8156Y10040D01*
X8157Y10040D01*
X8160Y10038D01*
X8164Y10037D01*
X8165Y10037D01*
X8166Y10036D01*
X8171Y10036D01*
X10812Y10036D01*
X11000Y10036D01*
X11003Y10036D01*
X11005Y10036D01*
X11008Y10037D01*
X11011Y10037D01*
X11013Y10038D01*
X11016Y10039D01*
X11018Y10041D01*
X11021Y10042D01*
X11023Y10044D01*
X11025Y10045D01*
X11027Y10047D01*
X11030Y10049D01*
X11031Y10051D01*
X11033Y10053D01*
X11034Y10056D01*
X11036Y10058D01*
X11036Y10061D01*
X11037Y10063D01*
X11038Y10066D01*
X11039Y10069D01*
X11039Y10072D01*
X11039Y10075D01*
X11039Y12500D01*
X11039Y12503D01*
X11039Y12505D01*
X11038Y12508D01*
X11038Y12511D01*
X11037Y12513D01*
X11036Y12516D01*
X11034Y12518D01*
X11033Y12521D01*
X11031Y12523D01*
X11030Y12525D01*
X11028Y12527D01*
X11026Y12530D01*
X11024Y12531D01*
X11022Y12533D01*
X11019Y12534D01*
X11017Y12536D01*
X11014Y12536D01*
X11012Y12537D01*
X11009Y12538D01*
X11006Y12539D01*
X11003Y12539D01*
X11000Y12539D01*
X10841Y12539D01*
X10841Y12961D01*
X11000Y12961D01*
X11003Y12961D01*
X11005Y12961D01*
X11008Y12962D01*
X11011Y12962D01*
X11013Y12963D01*
X11016Y12964D01*
X11018Y12966D01*
X11021Y12967D01*
X11023Y12969D01*
X11025Y12970D01*
X11027Y12972D01*
X11030Y12974D01*
X11031Y12976D01*
X11033Y12978D01*
X11034Y12981D01*
X11036Y12983D01*
X11036Y12986D01*
X11037Y12988D01*
X11038Y12991D01*
X11039Y12994D01*
X11039Y12997D01*
X11039Y13000D01*
X11039Y15425D01*
X11039Y15428D01*
X11039Y15430D01*
X11038Y15433D01*
X11038Y15436D01*
X11037Y15438D01*
X11036Y15441D01*
X11034Y15443D01*
X11033Y15446D01*
X11031Y15448D01*
X11030Y15450D01*
X11028Y15452D01*
X11026Y15455D01*
X11024Y15456D01*
X11022Y15458D01*
X11019Y15459D01*
X11017Y15461D01*
X11014Y15461D01*
X11012Y15462D01*
X11009Y15463D01*
X11006Y15464D01*
X11003Y15464D01*
X11000Y15464D01*
X8171Y15464D01*
X8170Y15464D01*
X8169Y15464D01*
X8165Y15463D01*
X8162Y15463D01*
X8161Y15462D01*
X8160Y15462D01*
X8156Y15460D01*
X8153Y15458D01*
X8152Y15457D01*
X8149Y15454D01*
X8147Y15451D01*
X8146Y15450D01*
X8146Y15449D01*
X8144Y15446D01*
X8143Y15442D01*
X8139Y15438D01*
X8136Y15435D01*
X8134Y15432D01*
X8134Y15431D01*
X8133Y15430D01*
X8132Y15426D01*
X8131Y15423D01*
X8131Y15422D01*
X8130Y15421D01*
X8131Y15420D01*
X8130Y15417D01*
X8130Y15083D01*
X8131Y15079D01*
X8131Y15075D01*
X8132Y15074D01*
X8132Y15073D01*
X8134Y15070D01*
X8135Y15066D01*
X8136Y15065D01*
X8137Y15064D01*
X8139Y15062D01*
X8142Y15059D01*
X8142Y14441D01*
X8094Y14394D01*
X7595Y14394D01*
X7547Y14441D01*
X7547Y15059D01*
X7550Y15062D01*
X7552Y15065D01*
X7555Y15068D01*
X7555Y15069D01*
X7556Y15070D01*
X7557Y15074D01*
X7558Y15077D01*
X7558Y15078D01*
X7558Y15079D01*
X7558Y15080D01*
X7559Y15083D01*
X7559Y15417D01*
X7558Y15421D01*
X7558Y15425D01*
X7557Y15426D01*
X7557Y15427D01*
X7555Y15430D01*
X7554Y15434D01*
X7553Y15435D01*
X7552Y15436D01*
X7550Y15438D01*
X7547Y15441D01*
X7547Y16059D01*
X7595Y16106D01*
X8094Y16106D01*
X8143Y16058D01*
X8143Y16056D01*
X8144Y16055D01*
X8144Y16054D01*
X8146Y16050D01*
X8148Y16047D01*
X8149Y16046D01*
X8152Y16043D01*
X8155Y16041D01*
X8156Y16040D01*
X8157Y16040D01*
X8160Y16038D01*
X8164Y16037D01*
X8165Y16037D01*
X8166Y16036D01*
X8171Y16036D01*
X10812Y16036D01*
X11000Y16036D01*
X11003Y16036D01*
X11005Y16036D01*
X11008Y16037D01*
X11011Y16037D01*
X11013Y16038D01*
X11016Y16039D01*
X11018Y16041D01*
X11021Y16042D01*
X11023Y16044D01*
X11025Y16045D01*
X11027Y16047D01*
X11030Y16049D01*
X11031Y16051D01*
X11033Y16053D01*
X11034Y16056D01*
X11036Y16058D01*
X11036Y16061D01*
X11037Y16063D01*
X11038Y16066D01*
X11039Y16069D01*
X11039Y16072D01*
X11039Y16075D01*
X11039Y18500D01*
X11039Y18503D01*
X11039Y18505D01*
X11038Y18508D01*
X11038Y18511D01*
X11037Y18513D01*
X11036Y18516D01*
X11034Y18518D01*
X11033Y18521D01*
X11031Y18523D01*
X11030Y18525D01*
X11028Y18527D01*
X11026Y18530D01*
X11024Y18531D01*
X11022Y18533D01*
X11019Y18534D01*
X11017Y18536D01*
X11014Y18536D01*
X11012Y18537D01*
X11009Y18538D01*
X11006Y18539D01*
X11003Y18539D01*
X11000Y18539D01*
X10841Y18539D01*
X10841Y19440D01*
X10841Y19441D01*
X10841Y19442D01*
X10840Y19446D01*
X10840Y19450D01*
X10839Y19450D01*
X10839Y19451D01*
X10837Y19455D01*
X10835Y19458D01*
X10835Y19459D01*
X10834Y19460D01*
X10831Y19462D01*
X10828Y19464D01*
X10827Y19465D01*
X10826Y19466D01*
X10823Y19467D01*
X10820Y19468D01*
X10819Y19468D01*
X10818Y19469D01*
X10812Y19469D01*
X180Y19469D01*
X179Y19469D01*
X178Y19469D01*
X174Y19468D01*
X171Y19468D01*
X170Y19467D01*
X169Y19467D01*
X165Y19465D01*
X162Y19463D01*
X161Y19462D01*
X158Y19459D01*
X156Y19456D01*
X155Y19455D01*
X155Y19454D01*
X153Y19451D01*
X152Y19448D01*
X152Y19446D01*
X151Y19445D01*
X151Y19440D01*
X151Y180D01*
X151Y179D01*
X151Y178D01*
X152Y174D01*
X152Y171D01*
X153Y170D01*
X153Y169D01*
X155Y165D01*
X157Y162D01*
X158Y161D01*
X161Y158D01*
X164Y156D01*
X165Y155D01*
X166Y155D01*
X169Y153D01*
X173Y152D01*
X174Y152D01*
X175Y151D01*
X180Y151D01*
X10812Y151D01*
X10813Y151D01*
X10814Y151D01*
X10818Y152D01*
X10822Y152D01*
X10822Y153D01*
X10824Y153D01*
X10827Y155D01*
X10830Y157D01*
X10831Y158D01*
X10832Y158D01*
X10834Y161D01*
X10837Y164D01*
X10837Y165D01*
X10838Y166D01*
X10839Y169D01*
X10840Y173D01*
X10841Y174D01*
X10841Y175D01*
X10841Y180D01*
X10841Y961D01*
X11000Y961D01*
X11003Y961D01*
X11005Y961D01*
X11008Y962D01*
X11011Y962D01*
X11013Y963D01*
X11016Y964D01*
X11018Y966D01*
X11021Y967D01*
X11023Y969D01*
X11025Y970D01*
X11027Y972D01*
X11030Y974D01*
X11031Y976D01*
X11033Y978D01*
X11034Y981D01*
X11036Y983D01*
X11036Y986D01*
X11037Y988D01*
X11038Y991D01*
X11039Y994D01*
X11039Y997D01*
X11039Y1000D01*
X11039Y3425D01*
X11039Y3428D01*
X11039Y3430D01*
X11038Y3433D01*
X11038Y3436D01*
X11037Y3438D01*
X11036Y3441D01*
X11034Y3443D01*
X11033Y3446D01*
X11031Y3448D01*
X11030Y3450D01*
X11028Y3452D01*
X11026Y3455D01*
X11024Y3456D01*
X11022Y3458D01*
X11019Y3459D01*
X11017Y3461D01*
X11014Y3461D01*
X11012Y3462D01*
X11009Y3463D01*
X11006Y3464D01*
X11003Y3464D01*
X11000Y3464D01*
X10840Y3464D01*
X10839Y3465D01*
X10839Y3466D01*
X10837Y3470D01*
X10835Y3473D01*
X10835Y3474D01*
X10834Y3474D01*
X10831Y3477D01*
X10828Y3479D01*
X10827Y3480D01*
X10826Y3480D01*
X10823Y3482D01*
X10820Y3483D01*
X10819Y3483D01*
X10818Y3484D01*
X10812Y3484D01*
X8151Y3484D01*
X8150Y3484D01*
X8149Y3484D01*
X8145Y3483D01*
X8142Y3483D01*
X8141Y3482D01*
X8140Y3482D01*
X8136Y3480D01*
X8133Y3478D01*
X8132Y3477D01*
X8129Y3474D01*
X8127Y3471D01*
X8126Y3470D01*
X8126Y3469D01*
X8124Y3466D01*
X8123Y3462D01*
X8123Y3461D01*
X8122Y3460D01*
X8122Y3455D01*
X8122Y3449D01*
X8119Y3446D01*
X8117Y3444D01*
X8116Y3443D01*
X8116Y3442D01*
X8114Y3440D01*
X8114Y3439D01*
X8113Y3438D01*
X8112Y3435D01*
X8111Y3431D01*
X8111Y3430D01*
X8110Y3429D01*
X8111Y3429D01*
X8110Y3426D01*
X8110Y3074D01*
X8110Y3073D01*
X8111Y3070D01*
X8111Y3067D01*
X8112Y3066D01*
X8112Y3065D01*
X8114Y3061D01*
X8115Y3058D01*
X8116Y3057D01*
X8117Y3056D01*
X8119Y3054D01*
X8122Y3051D01*
X8122Y2449D01*
X8086Y2414D01*
X7603Y2414D01*
X7567Y2449D01*
X7567Y3051D01*
X7570Y3054D01*
X7572Y3057D01*
X7575Y3060D01*
X7575Y3061D01*
X7576Y3062D01*
X7577Y3065D01*
X7578Y3069D01*
X7578Y3070D01*
X7578Y3071D01*
X7579Y3074D01*
X7579Y3426D01*
X7578Y3430D01*
X7578Y3433D01*
X7577Y3434D01*
X7577Y3435D01*
X7575Y3439D01*
X7574Y3442D01*
X7573Y3443D01*
X7572Y3444D01*
X7570Y3446D01*
X7567Y3449D01*
X7567Y4051D01*
X7603Y4086D01*
X8086Y4086D01*
X8122Y4051D01*
X8122Y4045D01*
X8122Y4044D01*
X8122Y4043D01*
X8123Y4039D01*
X8123Y4036D01*
X8124Y4035D01*
X8124Y4034D01*
X8126Y4030D01*
X8128Y4027D01*
X8129Y4026D01*
X8132Y4023D01*
X8135Y4021D01*
X8136Y4020D01*
X8137Y4020D01*
X8140Y4018D01*
X8144Y4017D01*
X8145Y4017D01*
X8146Y4016D01*
X8151Y4016D01*
X10812Y4016D01*
X10813Y4016D01*
X10814Y4016D01*
X10818Y4017D01*
X10822Y4017D01*
X10822Y4018D01*
X10824Y4018D01*
X10827Y4020D01*
X10830Y4022D01*
X10831Y4023D01*
X10832Y4023D01*
X10834Y4026D01*
X10837Y4029D01*
X10837Y4030D01*
X10838Y4031D01*
X10839Y4034D01*
X10840Y4036D01*
X11000Y4036D01*
X11003Y4036D01*
X11005Y4036D01*
X11008Y4037D01*
X11011Y4037D01*
X11013Y4038D01*
X11016Y4039D01*
X11018Y4041D01*
X11021Y4042D01*
X11023Y4044D01*
X11025Y4045D01*
X11027Y4047D01*
X11030Y4049D01*
X11031Y4051D01*
X11033Y4053D01*
X11034Y4056D01*
X11036Y4058D01*
X11036Y4061D01*
X11037Y4063D01*
X11038Y4066D01*
X11039Y4069D01*
X11039Y4072D01*
X11039Y4075D01*
X11039Y6500D01*
X11039Y6503D01*
X11039Y6505D01*
X11038Y6508D01*
X11038Y6511D01*
X11037Y6513D01*
X11036Y6516D01*
X11034Y6518D01*
X11033Y6521D01*
X11031Y6523D01*
X11030Y6525D01*
X11028Y6527D01*
X11026Y6530D01*
X11024Y6531D01*
X11022Y6533D01*
X11019Y6534D01*
X11017Y6536D01*
X11014Y6536D01*
X11012Y6537D01*
X11009Y6538D01*
X11006Y6539D01*
X11003Y6539D01*
X11000Y6539D01*
X10841Y6539D01*
X10841Y6961D01*
X11000Y6961D01*
X11003Y6961D01*
X11005Y6961D01*
X11008Y6962D01*
X11011Y6962D01*
X11013Y6963D01*
X11016Y6964D01*
X11018Y6966D01*
X11021Y6967D01*
X11023Y6969D01*
X11025Y6970D01*
X11027Y6972D01*
X11030Y6974D01*
X11031Y6976D01*
X11033Y6978D01*
X11034Y6981D01*
X11036Y6983D01*
X11036Y6986D01*
X11037Y6988D01*
X11038Y6991D01*
X11039Y6994D01*
X11039Y6997D01*
X11039Y7000D01*
X11039Y9425D01*
X11039Y9428D01*
X11039Y9430D01*
X11038Y9433D01*
X11038Y9436D01*
X11037Y9438D01*
X11036Y9441D01*
X11034Y9443D01*
X11033Y9446D01*
X11031Y9448D01*
X11030Y9450D01*
X11028Y9452D01*
X11026Y9455D01*
X11024Y9456D01*
X11022Y9458D01*
X11019Y9459D01*
X11017Y9461D01*
X11014Y9461D01*
X11012Y9462D01*
X11009Y9463D01*
X11006Y9464D01*
X11003Y9464D01*
X11000Y9464D01*
X8171Y9464D01*
X8170Y9464D01*
G37*
%LPC*%
G36*
X2328Y7012D02*
X2328Y7012D01*
X2240Y7048D01*
X2173Y7115D01*
X2137Y7203D01*
X2137Y7297D01*
X2173Y7385D01*
X2186Y7397D01*
X2188Y7400D01*
X2190Y7403D01*
X2191Y7404D01*
X2191Y7405D01*
X2192Y7409D01*
X2194Y7412D01*
X2194Y7414D01*
X2194Y7415D01*
X2194Y7418D01*
X2194Y7582D01*
X2194Y7586D01*
X2193Y7590D01*
X2193Y7591D01*
X2193Y7592D01*
X2191Y7595D01*
X2189Y7599D01*
X2188Y7600D01*
X2188Y7601D01*
X2186Y7603D01*
X2173Y7615D01*
X2137Y7703D01*
X2137Y7797D01*
X2173Y7885D01*
X2186Y7897D01*
X2188Y7900D01*
X2190Y7903D01*
X2191Y7904D01*
X2191Y7905D01*
X2192Y7909D01*
X2194Y7912D01*
X2194Y7914D01*
X2194Y7915D01*
X2194Y7918D01*
X2194Y8082D01*
X2194Y8086D01*
X2193Y8090D01*
X2193Y8091D01*
X2193Y8092D01*
X2191Y8095D01*
X2189Y8099D01*
X2188Y8100D01*
X2188Y8101D01*
X2186Y8103D01*
X2173Y8115D01*
X2137Y8203D01*
X2137Y8297D01*
X2173Y8385D01*
X2240Y8452D01*
X2328Y8488D01*
X2422Y8488D01*
X2510Y8452D01*
X2577Y8385D01*
X2613Y8297D01*
X2613Y8203D01*
X2577Y8115D01*
X2564Y8103D01*
X2562Y8100D01*
X2560Y8097D01*
X2559Y8096D01*
X2559Y8095D01*
X2558Y8091D01*
X2556Y8088D01*
X2556Y8086D01*
X2556Y8085D01*
X2556Y8082D01*
X2556Y7918D01*
X2556Y7914D01*
X2557Y7910D01*
X2557Y7909D01*
X2557Y7908D01*
X2559Y7905D01*
X2561Y7901D01*
X2562Y7900D01*
X2562Y7899D01*
X2564Y7897D01*
X2577Y7885D01*
X2613Y7797D01*
X2613Y7703D01*
X2577Y7615D01*
X2564Y7603D01*
X2562Y7600D01*
X2560Y7597D01*
X2559Y7596D01*
X2559Y7595D01*
X2558Y7591D01*
X2556Y7588D01*
X2556Y7586D01*
X2556Y7585D01*
X2556Y7582D01*
X2556Y7460D01*
X2556Y7459D01*
X2556Y7458D01*
X2557Y7454D01*
X2557Y7451D01*
X2558Y7450D01*
X2558Y7449D01*
X2560Y7445D01*
X2562Y7442D01*
X2563Y7441D01*
X2566Y7438D01*
X2569Y7436D01*
X2570Y7435D01*
X2571Y7435D01*
X2574Y7433D01*
X2578Y7432D01*
X2579Y7432D01*
X2580Y7431D01*
X2585Y7431D01*
X3260Y7431D01*
X3263Y7431D01*
X3266Y7431D01*
X3268Y7432D01*
X3269Y7432D01*
X3272Y7434D01*
X3275Y7435D01*
X3276Y7436D01*
X3278Y7437D01*
X3280Y7439D01*
X3282Y7441D01*
X3283Y7442D01*
X3284Y7444D01*
X3286Y7447D01*
X3287Y7449D01*
X3288Y7451D01*
X3288Y7453D01*
X3289Y7455D01*
X3289Y7458D01*
X3289Y7460D01*
X3289Y7462D01*
X3289Y7465D01*
X3288Y7468D01*
X3287Y7470D01*
X3287Y7471D01*
X3285Y7474D01*
X3284Y7477D01*
X3282Y7479D01*
X3281Y7480D01*
X3281Y7481D01*
X3085Y7676D01*
X3085Y8020D01*
X3100Y8036D01*
X3101Y8037D01*
X3102Y8037D01*
X3104Y8041D01*
X3106Y8044D01*
X3106Y8045D01*
X3107Y8046D01*
X3108Y8049D01*
X3109Y8053D01*
X3109Y8054D01*
X3109Y8055D01*
X3109Y8059D01*
X3108Y8062D01*
X3108Y8063D01*
X3108Y8064D01*
X3106Y8068D01*
X3105Y8071D01*
X3104Y8072D01*
X3104Y8073D01*
X3100Y8077D01*
X2754Y8423D01*
X2754Y8813D01*
X2754Y8817D01*
X2753Y8821D01*
X2753Y8822D01*
X2751Y8826D01*
X2749Y8829D01*
X2748Y8830D01*
X2748Y8831D01*
X2746Y8834D01*
X1379Y10200D01*
X1379Y17058D01*
X1379Y17059D01*
X1379Y17060D01*
X1379Y17062D01*
X1378Y17066D01*
X1378Y17067D01*
X1378Y17068D01*
X1376Y17071D01*
X1374Y17075D01*
X1373Y17076D01*
X1373Y17077D01*
X1371Y17079D01*
X699Y17750D01*
X699Y18625D01*
X1125Y19051D01*
X4631Y19051D01*
X4711Y18971D01*
X5169Y18513D01*
X5170Y18512D01*
X5171Y18512D01*
X5174Y18510D01*
X5177Y18507D01*
X5178Y18507D01*
X5179Y18507D01*
X5182Y18506D01*
X5186Y18505D01*
X5187Y18505D01*
X5188Y18505D01*
X5192Y18505D01*
X5196Y18505D01*
X5197Y18505D01*
X5198Y18506D01*
X5201Y18507D01*
X5205Y18508D01*
X5205Y18509D01*
X5206Y18510D01*
X5210Y18513D01*
X5338Y18641D01*
X5662Y18641D01*
X5891Y18412D01*
X5891Y18088D01*
X5662Y17859D01*
X5338Y17859D01*
X5109Y18088D01*
X5109Y18219D01*
X5109Y18223D01*
X5108Y18227D01*
X5108Y18228D01*
X5108Y18229D01*
X5106Y18232D01*
X5104Y18236D01*
X5103Y18237D01*
X5103Y18238D01*
X5101Y18240D01*
X4941Y18400D01*
X4938Y18402D01*
X4936Y18404D01*
X4934Y18404D01*
X4933Y18406D01*
X4930Y18406D01*
X4927Y18408D01*
X4926Y18408D01*
X4924Y18408D01*
X4921Y18408D01*
X4918Y18408D01*
X4916Y18408D01*
X4914Y18408D01*
X4911Y18407D01*
X4909Y18406D01*
X4907Y18405D01*
X4905Y18405D01*
X4903Y18403D01*
X4901Y18401D01*
X4899Y18400D01*
X4898Y18398D01*
X4896Y18396D01*
X4895Y18394D01*
X4894Y18392D01*
X4893Y18390D01*
X4892Y18387D01*
X4891Y18385D01*
X4891Y18382D01*
X4891Y18381D01*
X4891Y18380D01*
X4891Y18379D01*
X4891Y18088D01*
X4662Y17859D01*
X4650Y17859D01*
X4649Y17859D01*
X4648Y17859D01*
X4644Y17858D01*
X4641Y17858D01*
X4640Y17857D01*
X4639Y17857D01*
X4635Y17855D01*
X4632Y17853D01*
X4631Y17852D01*
X4628Y17849D01*
X4626Y17846D01*
X4625Y17845D01*
X4625Y17844D01*
X4623Y17841D01*
X4622Y17837D01*
X4622Y17836D01*
X4621Y17835D01*
X4621Y17830D01*
X4621Y17075D01*
X3254Y15709D01*
X3252Y15705D01*
X3250Y15702D01*
X3249Y15701D01*
X3248Y15697D01*
X3246Y15693D01*
X3246Y15692D01*
X3246Y15691D01*
X3246Y15688D01*
X3246Y13312D01*
X3246Y13311D01*
X3246Y13309D01*
X3246Y13308D01*
X3247Y13304D01*
X3247Y13303D01*
X3249Y13299D01*
X3251Y13296D01*
X3252Y13295D01*
X3252Y13294D01*
X3254Y13291D01*
X4121Y12425D01*
X4121Y12240D01*
X4121Y12238D01*
X4121Y12235D01*
X4122Y12233D01*
X4122Y12231D01*
X4124Y12228D01*
X4125Y12226D01*
X4126Y12224D01*
X4127Y12223D01*
X4129Y12221D01*
X4131Y12218D01*
X4132Y12217D01*
X4134Y12216D01*
X4137Y12215D01*
X4139Y12213D01*
X4141Y12213D01*
X4143Y12212D01*
X4145Y12212D01*
X4148Y12211D01*
X4150Y12211D01*
X4152Y12211D01*
X4155Y12212D01*
X4158Y12212D01*
X4160Y12213D01*
X4161Y12214D01*
X4164Y12215D01*
X4167Y12216D01*
X4169Y12218D01*
X4169Y12219D01*
X4170Y12219D01*
X4171Y12220D01*
X4311Y12361D01*
X4441Y12361D01*
X4441Y11936D01*
X4441Y11934D01*
X4441Y11933D01*
X4442Y11930D01*
X4442Y11926D01*
X4443Y11925D01*
X4443Y11924D01*
X4445Y11921D01*
X4447Y11918D01*
X4448Y11917D01*
X4448Y11916D01*
X4451Y11914D01*
X4454Y11911D01*
X4455Y11911D01*
X4456Y11910D01*
X4459Y11909D01*
X4463Y11907D01*
X4464Y11907D01*
X4465Y11907D01*
X4470Y11906D01*
X4501Y11906D01*
X4501Y11905D01*
X4470Y11905D01*
X4469Y11905D01*
X4468Y11905D01*
X4464Y11904D01*
X4461Y11903D01*
X4460Y11903D01*
X4459Y11902D01*
X4455Y11900D01*
X4452Y11899D01*
X4451Y11898D01*
X4451Y11897D01*
X4448Y11894D01*
X4446Y11892D01*
X4445Y11891D01*
X4445Y11890D01*
X4443Y11886D01*
X4442Y11883D01*
X4442Y11882D01*
X4441Y11881D01*
X4441Y11876D01*
X4441Y11034D01*
X4441Y11033D01*
X4441Y11032D01*
X4442Y11028D01*
X4442Y11025D01*
X4443Y11024D01*
X4443Y11023D01*
X4445Y11019D01*
X4447Y11016D01*
X4448Y11015D01*
X4448Y11014D01*
X4451Y11012D01*
X4454Y11010D01*
X4455Y11009D01*
X4456Y11008D01*
X4459Y11007D01*
X4463Y11006D01*
X4464Y11006D01*
X4465Y11005D01*
X4470Y11005D01*
X4501Y11005D01*
X4501Y11003D01*
X4470Y11003D01*
X4469Y11003D01*
X4468Y11003D01*
X4464Y11002D01*
X4461Y11002D01*
X4460Y11001D01*
X4459Y11001D01*
X4455Y10999D01*
X4452Y10997D01*
X4451Y10996D01*
X4448Y10993D01*
X4446Y10990D01*
X4445Y10989D01*
X4445Y10988D01*
X4443Y10985D01*
X4442Y10981D01*
X4442Y10980D01*
X4441Y10979D01*
X4441Y10974D01*
X4441Y10162D01*
X4045Y10162D01*
X4045Y10291D01*
X4287Y10532D01*
X4287Y10533D01*
X4288Y10534D01*
X4290Y10537D01*
X4292Y10540D01*
X4292Y10541D01*
X4293Y10542D01*
X4294Y10546D01*
X4295Y10549D01*
X4295Y10550D01*
X4295Y10551D01*
X4295Y10555D01*
X4295Y10559D01*
X4294Y10560D01*
X4294Y10561D01*
X4292Y10564D01*
X4291Y10568D01*
X4290Y10569D01*
X4290Y10570D01*
X4287Y10574D01*
X4045Y10815D01*
X4045Y10857D01*
X4045Y10858D01*
X4044Y10860D01*
X4044Y10863D01*
X4044Y10864D01*
X4043Y10866D01*
X4042Y10869D01*
X4041Y10871D01*
X4040Y10873D01*
X4039Y10875D01*
X4037Y10877D01*
X4035Y10879D01*
X4033Y10880D01*
X4032Y10881D01*
X4029Y10882D01*
X4027Y10884D01*
X4025Y10884D01*
X4023Y10885D01*
X4020Y10885D01*
X4017Y10886D01*
X4015Y10886D01*
X4014Y10886D01*
X4011Y10885D01*
X4008Y10885D01*
X4006Y10884D01*
X4004Y10884D01*
X4002Y10882D01*
X3999Y10881D01*
X3997Y10879D01*
X3996Y10879D01*
X3996Y10878D01*
X3995Y10877D01*
X3900Y10782D01*
X3899Y10781D01*
X3898Y10780D01*
X3896Y10777D01*
X3894Y10774D01*
X3894Y10773D01*
X3893Y10772D01*
X3892Y10769D01*
X3891Y10765D01*
X3891Y10764D01*
X3891Y10763D01*
X3891Y10759D01*
X3892Y10755D01*
X3892Y10754D01*
X3892Y10753D01*
X3894Y10750D01*
X3895Y10747D01*
X3896Y10746D01*
X3896Y10745D01*
X3900Y10741D01*
X3915Y10725D01*
X3915Y10381D01*
X3672Y10138D01*
X3328Y10138D01*
X3085Y10381D01*
X3085Y10725D01*
X3328Y10968D01*
X3672Y10968D01*
X3687Y10953D01*
X3688Y10952D01*
X3689Y10951D01*
X3692Y10949D01*
X3695Y10947D01*
X3696Y10947D01*
X3697Y10946D01*
X3701Y10945D01*
X3704Y10944D01*
X3705Y10944D01*
X3706Y10944D01*
X3710Y10945D01*
X3714Y10945D01*
X3715Y10945D01*
X3716Y10945D01*
X3719Y10947D01*
X3723Y10948D01*
X3724Y10949D01*
X3725Y10949D01*
X3729Y10953D01*
X3871Y11095D01*
X3873Y11098D01*
X3875Y11101D01*
X3876Y11102D01*
X3877Y11106D01*
X3879Y11110D01*
X3879Y11111D01*
X3879Y11112D01*
X3879Y11115D01*
X3879Y11176D01*
X3879Y11179D01*
X3879Y11182D01*
X3878Y11184D01*
X3878Y11186D01*
X3876Y11188D01*
X3875Y11191D01*
X3874Y11193D01*
X3873Y11194D01*
X3871Y11196D01*
X3869Y11198D01*
X3868Y11199D01*
X3866Y11201D01*
X3863Y11202D01*
X3861Y11203D01*
X3859Y11204D01*
X3857Y11205D01*
X3855Y11205D01*
X3852Y11206D01*
X3850Y11205D01*
X3848Y11206D01*
X3845Y11205D01*
X3842Y11205D01*
X3840Y11204D01*
X3839Y11203D01*
X3836Y11202D01*
X3833Y11200D01*
X3831Y11199D01*
X3831Y11198D01*
X3830Y11198D01*
X3829Y11197D01*
X3672Y11040D01*
X3328Y11040D01*
X3085Y11283D01*
X3085Y11627D01*
X3328Y11870D01*
X3672Y11870D01*
X3829Y11712D01*
X3832Y11711D01*
X3834Y11709D01*
X3835Y11708D01*
X3836Y11708D01*
X3837Y11707D01*
X3840Y11706D01*
X3843Y11705D01*
X3844Y11705D01*
X3846Y11704D01*
X3849Y11704D01*
X3852Y11704D01*
X3854Y11704D01*
X3856Y11704D01*
X3859Y11705D01*
X3861Y11706D01*
X3863Y11707D01*
X3865Y11708D01*
X3867Y11710D01*
X3869Y11711D01*
X3871Y11713D01*
X3872Y11714D01*
X3874Y11716D01*
X3875Y11719D01*
X3876Y11721D01*
X3877Y11722D01*
X3878Y11725D01*
X3878Y11726D01*
X3878Y11727D01*
X3879Y11728D01*
X3879Y11731D01*
X3879Y11732D01*
X3879Y11733D01*
X3879Y12313D01*
X3879Y12317D01*
X3878Y12321D01*
X3878Y12322D01*
X3876Y12326D01*
X3874Y12329D01*
X3873Y12330D01*
X3873Y12331D01*
X3871Y12334D01*
X3046Y13159D01*
X3043Y13160D01*
X3041Y13162D01*
X3040Y13163D01*
X3039Y13163D01*
X3038Y13164D01*
X3035Y13165D01*
X3032Y13166D01*
X3031Y13166D01*
X3029Y13167D01*
X3026Y13167D01*
X3023Y13167D01*
X3021Y13167D01*
X3019Y13167D01*
X3016Y13165D01*
X3014Y13165D01*
X3012Y13164D01*
X3010Y13163D01*
X3008Y13161D01*
X3006Y13160D01*
X3004Y13158D01*
X3003Y13157D01*
X3001Y13155D01*
X3001Y13154D01*
X3001Y13153D01*
X3000Y13152D01*
X2999Y13150D01*
X2998Y13149D01*
X2997Y13146D01*
X2997Y13145D01*
X2997Y13144D01*
X2996Y13143D01*
X2996Y13140D01*
X2996Y13139D01*
X2996Y13138D01*
X2996Y10339D01*
X2996Y10335D01*
X2997Y10331D01*
X2997Y10330D01*
X2997Y10329D01*
X2999Y10326D01*
X3001Y10322D01*
X3002Y10321D01*
X3002Y10320D01*
X3004Y10318D01*
X3271Y10051D01*
X3272Y10051D01*
X3273Y10050D01*
X3276Y10048D01*
X3279Y10046D01*
X3280Y10045D01*
X3281Y10045D01*
X3285Y10044D01*
X3288Y10043D01*
X3289Y10043D01*
X3290Y10043D01*
X3294Y10043D01*
X3298Y10043D01*
X3299Y10044D01*
X3300Y10044D01*
X3303Y10045D01*
X3307Y10047D01*
X3308Y10048D01*
X3313Y10051D01*
X3328Y10067D01*
X3672Y10067D01*
X3915Y9824D01*
X3915Y9480D01*
X3672Y9236D01*
X3328Y9236D01*
X3085Y9480D01*
X3085Y9824D01*
X3100Y9839D01*
X3101Y9840D01*
X3102Y9841D01*
X3104Y9844D01*
X3106Y9847D01*
X3106Y9848D01*
X3107Y9849D01*
X3108Y9852D01*
X3109Y9856D01*
X3109Y9857D01*
X3109Y9858D01*
X3109Y9862D01*
X3108Y9866D01*
X3108Y9868D01*
X3106Y9871D01*
X3105Y9874D01*
X3104Y9875D01*
X3104Y9876D01*
X3100Y9880D01*
X2754Y10227D01*
X2754Y17813D01*
X2754Y17817D01*
X2753Y17821D01*
X2753Y17822D01*
X2751Y17826D01*
X2749Y17829D01*
X2748Y17830D01*
X2748Y17831D01*
X2746Y17834D01*
X2712Y17868D01*
X2711Y17868D01*
X2710Y17869D01*
X2707Y17871D01*
X2706Y17872D01*
X2705Y17872D01*
X2704Y17873D01*
X2703Y17874D01*
X2702Y17874D01*
X2698Y17875D01*
X2697Y17875D01*
X2696Y17875D01*
X2695Y17876D01*
X2694Y17876D01*
X2693Y17876D01*
X2691Y17876D01*
X2689Y17876D01*
X2685Y17876D01*
X2684Y17875D01*
X2683Y17875D01*
X2682Y17874D01*
X2681Y17874D01*
X2680Y17874D01*
X2676Y17872D01*
X2675Y17872D01*
X2674Y17871D01*
X2673Y17870D01*
X2672Y17869D01*
X2670Y17868D01*
X2662Y17859D01*
X2338Y17859D01*
X2109Y18088D01*
X2109Y18412D01*
X2277Y18579D01*
X2278Y18582D01*
X2280Y18584D01*
X2281Y18586D01*
X2282Y18587D01*
X2283Y18590D01*
X2284Y18593D01*
X2284Y18594D01*
X2285Y18596D01*
X2285Y18599D01*
X2285Y18602D01*
X2285Y18604D01*
X2285Y18606D01*
X2284Y18609D01*
X2283Y18611D01*
X2282Y18613D01*
X2281Y18615D01*
X2279Y18617D01*
X2278Y18619D01*
X2276Y18621D01*
X2275Y18622D01*
X2273Y18624D01*
X2270Y18625D01*
X2269Y18626D01*
X2267Y18627D01*
X2264Y18628D01*
X2261Y18629D01*
X2258Y18629D01*
X2257Y18629D01*
X2256Y18629D01*
X1744Y18629D01*
X1741Y18629D01*
X1738Y18629D01*
X1736Y18628D01*
X1735Y18628D01*
X1732Y18626D01*
X1729Y18625D01*
X1728Y18624D01*
X1726Y18623D01*
X1724Y18621D01*
X1722Y18619D01*
X1721Y18618D01*
X1720Y18616D01*
X1718Y18613D01*
X1717Y18611D01*
X1716Y18609D01*
X1716Y18607D01*
X1715Y18605D01*
X1715Y18602D01*
X1715Y18600D01*
X1715Y18598D01*
X1715Y18595D01*
X1716Y18592D01*
X1717Y18590D01*
X1717Y18589D01*
X1719Y18586D01*
X1720Y18583D01*
X1722Y18581D01*
X1723Y18580D01*
X1723Y18579D01*
X1891Y18412D01*
X1891Y18127D01*
X1891Y18123D01*
X1892Y18119D01*
X1892Y18118D01*
X1894Y18114D01*
X1896Y18110D01*
X1897Y18110D01*
X1897Y18109D01*
X1899Y18106D01*
X2556Y17450D01*
X2556Y12543D01*
X2556Y12539D01*
X2557Y12535D01*
X2557Y12534D01*
X2557Y12533D01*
X2559Y12530D01*
X2561Y12526D01*
X2562Y12525D01*
X2562Y12524D01*
X2564Y12522D01*
X2577Y12510D01*
X2613Y12422D01*
X2613Y12328D01*
X2577Y12240D01*
X2564Y12228D01*
X2562Y12225D01*
X2560Y12222D01*
X2559Y12221D01*
X2559Y12220D01*
X2558Y12216D01*
X2556Y12213D01*
X2556Y12211D01*
X2556Y12210D01*
X2556Y12207D01*
X2556Y12043D01*
X2556Y12039D01*
X2557Y12035D01*
X2557Y12034D01*
X2557Y12033D01*
X2559Y12030D01*
X2561Y12026D01*
X2562Y12025D01*
X2562Y12024D01*
X2564Y12022D01*
X2577Y12010D01*
X2613Y11922D01*
X2613Y11828D01*
X2577Y11740D01*
X2564Y11728D01*
X2562Y11725D01*
X2560Y11722D01*
X2559Y11721D01*
X2559Y11720D01*
X2558Y11716D01*
X2556Y11713D01*
X2556Y11711D01*
X2556Y11710D01*
X2556Y11707D01*
X2556Y11543D01*
X2556Y11539D01*
X2557Y11535D01*
X2557Y11534D01*
X2557Y11533D01*
X2559Y11530D01*
X2561Y11526D01*
X2562Y11525D01*
X2562Y11524D01*
X2564Y11522D01*
X2577Y11510D01*
X2613Y11422D01*
X2613Y11328D01*
X2577Y11240D01*
X2510Y11173D01*
X2422Y11137D01*
X2328Y11137D01*
X2240Y11173D01*
X2173Y11240D01*
X2137Y11328D01*
X2137Y11422D01*
X2173Y11510D01*
X2186Y11522D01*
X2188Y11525D01*
X2190Y11528D01*
X2191Y11529D01*
X2191Y11530D01*
X2192Y11534D01*
X2194Y11537D01*
X2194Y11539D01*
X2194Y11540D01*
X2194Y11543D01*
X2194Y11707D01*
X2194Y11711D01*
X2193Y11715D01*
X2193Y11716D01*
X2193Y11717D01*
X2191Y11720D01*
X2189Y11724D01*
X2188Y11725D01*
X2188Y11726D01*
X2186Y11728D01*
X2173Y11740D01*
X2137Y11828D01*
X2137Y11922D01*
X2173Y12010D01*
X2186Y12022D01*
X2188Y12025D01*
X2190Y12028D01*
X2191Y12029D01*
X2191Y12030D01*
X2192Y12034D01*
X2194Y12037D01*
X2194Y12039D01*
X2194Y12040D01*
X2194Y12043D01*
X2194Y12207D01*
X2194Y12211D01*
X2193Y12215D01*
X2193Y12216D01*
X2193Y12217D01*
X2191Y12220D01*
X2189Y12224D01*
X2188Y12225D01*
X2188Y12226D01*
X2186Y12228D01*
X2173Y12240D01*
X2137Y12328D01*
X2137Y12422D01*
X2173Y12510D01*
X2186Y12522D01*
X2188Y12525D01*
X2190Y12528D01*
X2191Y12529D01*
X2191Y12530D01*
X2192Y12534D01*
X2194Y12537D01*
X2194Y12539D01*
X2194Y12540D01*
X2194Y12543D01*
X2194Y17288D01*
X2194Y17292D01*
X2193Y17296D01*
X2193Y17297D01*
X2191Y17301D01*
X2189Y17305D01*
X2188Y17305D01*
X2188Y17306D01*
X2186Y17309D01*
X1644Y17851D01*
X1640Y17853D01*
X1637Y17855D01*
X1637Y17856D01*
X1636Y17856D01*
X1632Y17857D01*
X1628Y17859D01*
X1627Y17859D01*
X1626Y17859D01*
X1623Y17859D01*
X1338Y17859D01*
X1171Y18027D01*
X1168Y18028D01*
X1166Y18030D01*
X1164Y18031D01*
X1163Y18032D01*
X1160Y18033D01*
X1157Y18034D01*
X1156Y18034D01*
X1154Y18035D01*
X1151Y18035D01*
X1148Y18035D01*
X1146Y18035D01*
X1144Y18035D01*
X1141Y18034D01*
X1139Y18033D01*
X1137Y18032D01*
X1135Y18031D01*
X1133Y18029D01*
X1131Y18028D01*
X1129Y18026D01*
X1128Y18025D01*
X1126Y18023D01*
X1125Y18020D01*
X1124Y18019D01*
X1123Y18017D01*
X1122Y18014D01*
X1121Y18011D01*
X1121Y18008D01*
X1121Y18007D01*
X1121Y18006D01*
X1121Y17937D01*
X1121Y17933D01*
X1122Y17929D01*
X1122Y17928D01*
X1124Y17924D01*
X1126Y17921D01*
X1127Y17920D01*
X1127Y17919D01*
X1129Y17916D01*
X1871Y17175D01*
X1871Y10437D01*
X1871Y10433D01*
X1872Y10429D01*
X1872Y10428D01*
X1874Y10424D01*
X1876Y10421D01*
X1877Y10420D01*
X1877Y10419D01*
X1879Y10416D01*
X3209Y9087D01*
X3210Y9086D01*
X3213Y9084D01*
X3216Y9082D01*
X3217Y9081D01*
X3218Y9081D01*
X3222Y9080D01*
X3226Y9079D01*
X3227Y9079D01*
X3228Y9079D01*
X3231Y9079D01*
X3235Y9079D01*
X3236Y9079D01*
X3237Y9080D01*
X3241Y9081D01*
X3244Y9082D01*
X3245Y9083D01*
X3246Y9084D01*
X3250Y9087D01*
X3328Y9165D01*
X3672Y9165D01*
X3915Y8922D01*
X3915Y8857D01*
X3916Y8854D01*
X3916Y8851D01*
X3916Y8850D01*
X3917Y8848D01*
X3918Y8845D01*
X3919Y8842D01*
X3920Y8841D01*
X3921Y8839D01*
X3923Y8837D01*
X3925Y8835D01*
X3927Y8834D01*
X3928Y8833D01*
X3931Y8832D01*
X3933Y8830D01*
X3935Y8830D01*
X3937Y8829D01*
X3940Y8829D01*
X3943Y8828D01*
X3945Y8828D01*
X3946Y8828D01*
X3949Y8829D01*
X3952Y8829D01*
X3954Y8830D01*
X3956Y8830D01*
X3958Y8832D01*
X3961Y8833D01*
X3963Y8835D01*
X3964Y8835D01*
X3964Y8836D01*
X3965Y8837D01*
X4100Y8972D01*
X4101Y8973D01*
X4102Y8974D01*
X4104Y8977D01*
X4106Y8980D01*
X4106Y8981D01*
X4107Y8982D01*
X4108Y8985D01*
X4109Y8989D01*
X4109Y8990D01*
X4109Y8991D01*
X4109Y8995D01*
X4108Y8998D01*
X4108Y8999D01*
X4108Y9001D01*
X4106Y9004D01*
X4105Y9007D01*
X4104Y9008D01*
X4104Y9009D01*
X4100Y9013D01*
X4085Y9029D01*
X4085Y9373D01*
X4315Y9603D01*
X4316Y9604D01*
X4318Y9607D01*
X4320Y9610D01*
X4321Y9611D01*
X4321Y9612D01*
X4322Y9616D01*
X4323Y9620D01*
X4323Y9621D01*
X4323Y9622D01*
X4323Y9625D01*
X4323Y9629D01*
X4322Y9630D01*
X4322Y9631D01*
X4321Y9635D01*
X4319Y9638D01*
X4319Y9639D01*
X4318Y9640D01*
X4315Y9644D01*
X4045Y9914D01*
X4045Y10043D01*
X4470Y10043D01*
X4471Y10043D01*
X4472Y10043D01*
X4476Y10044D01*
X4479Y10045D01*
X4480Y10045D01*
X4481Y10045D01*
X4485Y10047D01*
X4488Y10049D01*
X4489Y10050D01*
X4489Y10051D01*
X4492Y10053D01*
X4494Y10056D01*
X4495Y10057D01*
X4495Y10058D01*
X4497Y10062D01*
X4498Y10065D01*
X4498Y10066D01*
X4499Y10067D01*
X4499Y10072D01*
X4499Y10103D01*
X4501Y10103D01*
X4501Y10072D01*
X4501Y10071D01*
X4501Y10070D01*
X4502Y10067D01*
X4502Y10063D01*
X4503Y10062D01*
X4503Y10061D01*
X4505Y10058D01*
X4507Y10054D01*
X4508Y10054D01*
X4508Y10053D01*
X4511Y10051D01*
X4514Y10048D01*
X4515Y10048D01*
X4516Y10047D01*
X4519Y10046D01*
X4523Y10044D01*
X4524Y10044D01*
X4525Y10044D01*
X4530Y10043D01*
X4955Y10043D01*
X4955Y9914D01*
X4685Y9644D01*
X4685Y9643D01*
X4684Y9642D01*
X4682Y9639D01*
X4680Y9636D01*
X4679Y9635D01*
X4679Y9634D01*
X4678Y9631D01*
X4677Y9627D01*
X4677Y9626D01*
X4677Y9625D01*
X4677Y9621D01*
X4677Y9617D01*
X4678Y9616D01*
X4678Y9615D01*
X4679Y9612D01*
X4681Y9609D01*
X4681Y9608D01*
X4682Y9607D01*
X4685Y9603D01*
X4915Y9373D01*
X4915Y9029D01*
X4685Y8799D01*
X4685Y8798D01*
X4684Y8797D01*
X4683Y8796D01*
X4682Y8795D01*
X4682Y8794D01*
X4680Y8791D01*
X4679Y8790D01*
X4679Y8789D01*
X4678Y8786D01*
X4677Y8782D01*
X4677Y8781D01*
X4677Y8780D01*
X4677Y8776D01*
X4677Y8772D01*
X4678Y8771D01*
X4678Y8770D01*
X4679Y8767D01*
X4681Y8764D01*
X4681Y8763D01*
X4682Y8762D01*
X4685Y8758D01*
X4955Y8488D01*
X4955Y8358D01*
X4530Y8358D01*
X4529Y8358D01*
X4528Y8358D01*
X4524Y8358D01*
X4521Y8357D01*
X4520Y8356D01*
X4519Y8356D01*
X4515Y8354D01*
X4512Y8352D01*
X4511Y8352D01*
X4511Y8351D01*
X4508Y8348D01*
X4506Y8345D01*
X4505Y8344D01*
X4503Y8340D01*
X4502Y8337D01*
X4502Y8336D01*
X4501Y8335D01*
X4501Y8329D01*
X4501Y8298D01*
X4470Y8298D01*
X4469Y8298D01*
X4468Y8298D01*
X4464Y8298D01*
X4461Y8297D01*
X4460Y8296D01*
X4459Y8296D01*
X4455Y8294D01*
X4452Y8292D01*
X4451Y8292D01*
X4451Y8291D01*
X4448Y8288D01*
X4446Y8285D01*
X4445Y8284D01*
X4443Y8280D01*
X4442Y8277D01*
X4442Y8276D01*
X4441Y8275D01*
X4441Y8269D01*
X4441Y7844D01*
X4311Y7844D01*
X4171Y7985D01*
X4168Y7987D01*
X4166Y7989D01*
X4164Y7989D01*
X4163Y7991D01*
X4160Y7991D01*
X4157Y7993D01*
X4156Y7993D01*
X4154Y7993D01*
X4151Y7993D01*
X4148Y7993D01*
X4146Y7993D01*
X4144Y7993D01*
X4141Y7992D01*
X4139Y7991D01*
X4137Y7990D01*
X4135Y7990D01*
X4133Y7988D01*
X4131Y7986D01*
X4129Y7985D01*
X4128Y7983D01*
X4126Y7981D01*
X4125Y7979D01*
X4124Y7977D01*
X4123Y7975D01*
X4122Y7972D01*
X4121Y7970D01*
X4121Y7967D01*
X4121Y7966D01*
X4121Y7965D01*
X4121Y7964D01*
X4121Y7397D01*
X4121Y7393D01*
X4122Y7389D01*
X4122Y7388D01*
X4124Y7384D01*
X4126Y7380D01*
X4127Y7380D01*
X4127Y7379D01*
X4129Y7376D01*
X4181Y7325D01*
X4181Y7175D01*
X4075Y7069D01*
X2543Y7069D01*
X2539Y7069D01*
X2535Y7068D01*
X2534Y7068D01*
X2533Y7068D01*
X2530Y7066D01*
X2526Y7064D01*
X2525Y7063D01*
X2524Y7063D01*
X2522Y7061D01*
X2510Y7048D01*
X2422Y7012D01*
X2328Y7012D01*
G37*
%LPD*%
%LPC*%
G36*
X6914Y3414D02*
X6914Y3414D01*
X6878Y3449D01*
X6878Y3620D01*
X6878Y3621D01*
X6878Y3622D01*
X6877Y3626D01*
X6877Y3629D01*
X6876Y3630D01*
X6876Y3631D01*
X6874Y3635D01*
X6872Y3638D01*
X6871Y3639D01*
X6868Y3642D01*
X6865Y3644D01*
X6864Y3645D01*
X6863Y3645D01*
X6860Y3647D01*
X6856Y3648D01*
X6855Y3648D01*
X6854Y3649D01*
X6849Y3649D01*
X6708Y3649D01*
X6399Y3958D01*
X6399Y8598D01*
X6399Y8602D01*
X6398Y8606D01*
X6398Y8607D01*
X6396Y8611D01*
X6394Y8614D01*
X6393Y8615D01*
X6393Y8616D01*
X6391Y8618D01*
X5743Y9266D01*
X5742Y9267D01*
X5741Y9268D01*
X5738Y9270D01*
X5735Y9272D01*
X5734Y9272D01*
X5733Y9273D01*
X5730Y9273D01*
X5726Y9274D01*
X5725Y9274D01*
X5724Y9275D01*
X5720Y9274D01*
X5716Y9274D01*
X5715Y9274D01*
X5714Y9274D01*
X5711Y9272D01*
X5708Y9271D01*
X5707Y9270D01*
X5706Y9270D01*
X5702Y9266D01*
X5672Y9236D01*
X5328Y9236D01*
X5085Y9480D01*
X5085Y9824D01*
X5328Y10067D01*
X5672Y10067D01*
X5915Y9824D01*
X5915Y9480D01*
X5885Y9450D01*
X5885Y9449D01*
X5884Y9448D01*
X5882Y9445D01*
X5880Y9442D01*
X5880Y9441D01*
X5879Y9440D01*
X5878Y9437D01*
X5877Y9433D01*
X5877Y9432D01*
X5877Y9431D01*
X5877Y9427D01*
X5877Y9423D01*
X5878Y9423D01*
X5878Y9421D01*
X5880Y9418D01*
X5881Y9415D01*
X5882Y9414D01*
X5882Y9413D01*
X5885Y9409D01*
X6601Y8693D01*
X6601Y4054D01*
X6601Y4050D01*
X6602Y4046D01*
X6602Y4045D01*
X6602Y4044D01*
X6604Y4041D01*
X6606Y4037D01*
X6607Y4036D01*
X6607Y4035D01*
X6609Y4033D01*
X6783Y3859D01*
X6786Y3857D01*
X6789Y3855D01*
X6790Y3854D01*
X6791Y3854D01*
X6795Y3853D01*
X6798Y3851D01*
X6800Y3851D01*
X6801Y3851D01*
X6804Y3851D01*
X6849Y3851D01*
X6850Y3851D01*
X6851Y3851D01*
X6855Y3852D01*
X6858Y3852D01*
X6859Y3853D01*
X6860Y3853D01*
X6864Y3855D01*
X6867Y3857D01*
X6868Y3858D01*
X6871Y3861D01*
X6873Y3864D01*
X6874Y3865D01*
X6874Y3866D01*
X6876Y3869D01*
X6877Y3873D01*
X6877Y3874D01*
X6878Y3875D01*
X6878Y3880D01*
X6878Y4051D01*
X6914Y4086D01*
X7397Y4086D01*
X7433Y4051D01*
X7433Y3449D01*
X7397Y3414D01*
X6914Y3414D01*
G37*
%LPD*%
%LPC*%
G36*
X5328Y11040D02*
X5328Y11040D01*
X5085Y11283D01*
X5085Y11627D01*
X5328Y11870D01*
X5672Y11870D01*
X5702Y11840D01*
X5703Y11839D01*
X5706Y11837D01*
X5709Y11835D01*
X5710Y11834D01*
X5711Y11834D01*
X5715Y11833D01*
X5719Y11832D01*
X5720Y11832D01*
X5721Y11832D01*
X5724Y11832D01*
X5728Y11832D01*
X5729Y11833D01*
X5730Y11833D01*
X5734Y11834D01*
X5737Y11836D01*
X5738Y11836D01*
X5739Y11837D01*
X5743Y11840D01*
X6266Y12363D01*
X6268Y12366D01*
X6270Y12369D01*
X6271Y12370D01*
X6271Y12371D01*
X6272Y12374D01*
X6274Y12378D01*
X6274Y12379D01*
X6274Y12380D01*
X6274Y12381D01*
X6274Y12384D01*
X6274Y15292D01*
X6766Y15783D01*
X6833Y15851D01*
X6849Y15851D01*
X6850Y15851D01*
X6851Y15851D01*
X6855Y15852D01*
X6858Y15852D01*
X6859Y15853D01*
X6860Y15853D01*
X6864Y15855D01*
X6867Y15857D01*
X6868Y15858D01*
X6871Y15861D01*
X6873Y15864D01*
X6874Y15865D01*
X6874Y15866D01*
X6876Y15869D01*
X6877Y15873D01*
X6877Y15874D01*
X6878Y15875D01*
X6878Y15880D01*
X6878Y16051D01*
X6914Y16086D01*
X7397Y16086D01*
X7433Y16051D01*
X7433Y15449D01*
X7397Y15414D01*
X6914Y15414D01*
X6878Y15449D01*
X6878Y15540D01*
X6878Y15543D01*
X6878Y15546D01*
X6877Y15548D01*
X6877Y15550D01*
X6875Y15552D01*
X6874Y15555D01*
X6873Y15556D01*
X6872Y15558D01*
X6870Y15560D01*
X6868Y15562D01*
X6867Y15563D01*
X6865Y15565D01*
X6862Y15566D01*
X6860Y15567D01*
X6858Y15568D01*
X6856Y15568D01*
X6853Y15569D01*
X6851Y15569D01*
X6849Y15569D01*
X6847Y15569D01*
X6844Y15569D01*
X6841Y15568D01*
X6839Y15568D01*
X6838Y15567D01*
X6835Y15566D01*
X6832Y15564D01*
X6830Y15562D01*
X6829Y15562D01*
X6828Y15561D01*
X6484Y15217D01*
X6482Y15214D01*
X6480Y15211D01*
X6479Y15210D01*
X6479Y15209D01*
X6478Y15205D01*
X6476Y15202D01*
X6476Y15200D01*
X6476Y15199D01*
X6476Y15196D01*
X6476Y12288D01*
X5885Y11698D01*
X5885Y11697D01*
X5884Y11696D01*
X5882Y11693D01*
X5880Y11690D01*
X5880Y11689D01*
X5879Y11688D01*
X5878Y11684D01*
X5877Y11681D01*
X5877Y11680D01*
X5877Y11679D01*
X5877Y11675D01*
X5877Y11671D01*
X5878Y11670D01*
X5878Y11669D01*
X5880Y11666D01*
X5881Y11662D01*
X5882Y11661D01*
X5882Y11660D01*
X5885Y11656D01*
X5915Y11627D01*
X5915Y11283D01*
X5672Y11040D01*
X5328Y11040D01*
G37*
%LPD*%
%LPC*%
G36*
X6914Y9414D02*
X6914Y9414D01*
X6878Y9449D01*
X6878Y9620D01*
X6878Y9621D01*
X6878Y9622D01*
X6877Y9626D01*
X6877Y9629D01*
X6876Y9630D01*
X6876Y9631D01*
X6874Y9635D01*
X6872Y9638D01*
X6871Y9639D01*
X6868Y9642D01*
X6865Y9644D01*
X6864Y9645D01*
X6863Y9645D01*
X6860Y9647D01*
X6856Y9648D01*
X6855Y9648D01*
X6854Y9649D01*
X6849Y9649D01*
X6708Y9649D01*
X6641Y9717D01*
X5965Y10393D01*
X5963Y10394D01*
X5960Y10396D01*
X5959Y10397D01*
X5957Y10398D01*
X5954Y10399D01*
X5952Y10400D01*
X5950Y10400D01*
X5948Y10401D01*
X5945Y10401D01*
X5942Y10401D01*
X5940Y10401D01*
X5939Y10400D01*
X5936Y10399D01*
X5933Y10399D01*
X5931Y10398D01*
X5930Y10397D01*
X5927Y10395D01*
X5925Y10394D01*
X5924Y10392D01*
X5922Y10391D01*
X5921Y10388D01*
X5919Y10386D01*
X5918Y10384D01*
X5672Y10138D01*
X5328Y10138D01*
X5085Y10381D01*
X5085Y10725D01*
X5328Y10968D01*
X5672Y10968D01*
X5915Y10725D01*
X5915Y10683D01*
X5915Y10682D01*
X5915Y10681D01*
X5916Y10677D01*
X5917Y10674D01*
X5917Y10673D01*
X5917Y10672D01*
X5919Y10669D01*
X5921Y10665D01*
X5922Y10665D01*
X5923Y10664D01*
X5925Y10661D01*
X5928Y10659D01*
X5929Y10658D01*
X5930Y10658D01*
X5933Y10656D01*
X5937Y10655D01*
X5938Y10655D01*
X5939Y10654D01*
X5944Y10654D01*
X5989Y10654D01*
X6783Y9859D01*
X6786Y9857D01*
X6789Y9855D01*
X6790Y9854D01*
X6791Y9854D01*
X6795Y9853D01*
X6798Y9851D01*
X6800Y9851D01*
X6801Y9851D01*
X6804Y9851D01*
X6849Y9851D01*
X6850Y9851D01*
X6851Y9851D01*
X6855Y9852D01*
X6858Y9852D01*
X6859Y9853D01*
X6860Y9853D01*
X6864Y9855D01*
X6867Y9857D01*
X6868Y9858D01*
X6871Y9861D01*
X6873Y9864D01*
X6874Y9865D01*
X6874Y9866D01*
X6876Y9869D01*
X6877Y9873D01*
X6877Y9874D01*
X6878Y9875D01*
X6878Y9880D01*
X6878Y10051D01*
X6914Y10086D01*
X7397Y10086D01*
X7433Y10051D01*
X7433Y9449D01*
X7397Y9414D01*
X6914Y9414D01*
G37*
%LPD*%
%LPC*%
G36*
X5499Y7848D02*
X5499Y7848D01*
X5499Y7878D01*
X5499Y7879D01*
X5499Y7881D01*
X5498Y7884D01*
X5498Y7888D01*
X5497Y7889D01*
X5497Y7890D01*
X5495Y7893D01*
X5493Y7896D01*
X5492Y7897D01*
X5492Y7898D01*
X5489Y7900D01*
X5486Y7903D01*
X5485Y7903D01*
X5484Y7904D01*
X5481Y7905D01*
X5477Y7907D01*
X5476Y7907D01*
X5475Y7907D01*
X5470Y7908D01*
X5045Y7908D01*
X5045Y8037D01*
X5315Y8307D01*
X5315Y8308D01*
X5316Y8308D01*
X5318Y8312D01*
X5320Y8315D01*
X5321Y8316D01*
X5321Y8317D01*
X5322Y8320D01*
X5323Y8324D01*
X5323Y8325D01*
X5323Y8326D01*
X5323Y8330D01*
X5323Y8333D01*
X5322Y8334D01*
X5322Y8335D01*
X5321Y8339D01*
X5319Y8342D01*
X5319Y8343D01*
X5318Y8344D01*
X5315Y8348D01*
X5085Y8578D01*
X5085Y8922D01*
X5328Y9165D01*
X5672Y9165D01*
X5915Y8922D01*
X5915Y8578D01*
X5685Y8348D01*
X5685Y8347D01*
X5684Y8347D01*
X5682Y8343D01*
X5680Y8340D01*
X5679Y8339D01*
X5679Y8338D01*
X5678Y8335D01*
X5677Y8331D01*
X5677Y8330D01*
X5677Y8329D01*
X5677Y8325D01*
X5677Y8322D01*
X5678Y8321D01*
X5678Y8320D01*
X5679Y8316D01*
X5681Y8313D01*
X5681Y8312D01*
X5682Y8311D01*
X5685Y8307D01*
X5955Y8037D01*
X5955Y7908D01*
X5530Y7908D01*
X5529Y7908D01*
X5528Y7908D01*
X5524Y7907D01*
X5521Y7906D01*
X5520Y7906D01*
X5519Y7905D01*
X5515Y7903D01*
X5512Y7902D01*
X5511Y7901D01*
X5511Y7900D01*
X5508Y7897D01*
X5506Y7895D01*
X5505Y7894D01*
X5505Y7893D01*
X5503Y7889D01*
X5502Y7886D01*
X5502Y7885D01*
X5501Y7884D01*
X5501Y7878D01*
X5501Y7848D01*
X5499Y7848D01*
G37*
%LPD*%
%LPC*%
G36*
X4334Y3855D02*
X4334Y3855D01*
X4226Y3879D01*
X4122Y3916D01*
X4022Y3964D01*
X3928Y4023D01*
X3842Y4092D01*
X3763Y4170D01*
X3694Y4257D01*
X3635Y4351D01*
X3587Y4451D01*
X3550Y4555D01*
X3526Y4663D01*
X3514Y4769D01*
X4441Y4769D01*
X4441Y3843D01*
X4334Y3855D01*
G37*
%LPD*%
%LPC*%
G36*
X4559Y4769D02*
X4559Y4769D01*
X5486Y4769D01*
X5474Y4663D01*
X5450Y4555D01*
X5413Y4451D01*
X5365Y4351D01*
X5306Y4257D01*
X5237Y4170D01*
X5158Y4092D01*
X5072Y4023D01*
X4978Y3964D01*
X4878Y3916D01*
X4774Y3879D01*
X4666Y3855D01*
X4559Y3843D01*
X4559Y4769D01*
G37*
%LPD*%
%LPC*%
G36*
X3514Y4888D02*
X3514Y4888D01*
X3526Y4994D01*
X3550Y5102D01*
X3587Y5207D01*
X3635Y5307D01*
X3694Y5401D01*
X3763Y5487D01*
X3842Y5566D01*
X3928Y5635D01*
X4022Y5694D01*
X4122Y5742D01*
X4226Y5778D01*
X4334Y5803D01*
X4441Y5815D01*
X4441Y4888D01*
X3514Y4888D01*
G37*
%LPD*%
%LPC*%
G36*
X4559Y4888D02*
X4559Y4888D01*
X4559Y5815D01*
X4666Y5803D01*
X4774Y5778D01*
X4878Y5742D01*
X4978Y5694D01*
X5072Y5635D01*
X5158Y5566D01*
X5237Y5487D01*
X5306Y5401D01*
X5365Y5307D01*
X5413Y5207D01*
X5450Y5102D01*
X5474Y4994D01*
X5486Y4888D01*
X4559Y4888D01*
G37*
%LPD*%
%LPC*%
G36*
X4559Y14731D02*
X4559Y14731D01*
X4559Y15657D01*
X4666Y15645D01*
X4774Y15621D01*
X4878Y15584D01*
X4978Y15536D01*
X5072Y15477D01*
X5158Y15408D01*
X5237Y15330D01*
X5306Y15243D01*
X5365Y15149D01*
X5413Y15049D01*
X5450Y14945D01*
X5474Y14837D01*
X5486Y14731D01*
X4559Y14731D01*
G37*
%LPD*%
%LPC*%
G36*
X3514Y14731D02*
X3514Y14731D01*
X3526Y14837D01*
X3550Y14945D01*
X3587Y15049D01*
X3635Y15149D01*
X3694Y15243D01*
X3763Y15330D01*
X3842Y15408D01*
X3928Y15477D01*
X4022Y15536D01*
X4122Y15584D01*
X4226Y15621D01*
X4334Y15645D01*
X4441Y15657D01*
X4441Y14731D01*
X3514Y14731D01*
G37*
%LPD*%
%LPC*%
G36*
X4559Y14612D02*
X4559Y14612D01*
X5486Y14612D01*
X5474Y14506D01*
X5450Y14398D01*
X5413Y14293D01*
X5365Y14193D01*
X5306Y14099D01*
X5237Y14013D01*
X5158Y13934D01*
X5072Y13865D01*
X4978Y13806D01*
X4878Y13758D01*
X4774Y13722D01*
X4666Y13697D01*
X4559Y13685D01*
X4559Y14612D01*
G37*
%LPD*%
%LPC*%
G36*
X4334Y13697D02*
X4334Y13697D01*
X4226Y13722D01*
X4122Y13758D01*
X4022Y13806D01*
X3928Y13865D01*
X3842Y13934D01*
X3763Y14013D01*
X3694Y14099D01*
X3635Y14193D01*
X3587Y14293D01*
X3550Y14398D01*
X3526Y14506D01*
X3514Y14612D01*
X4441Y14612D01*
X4441Y13685D01*
X4334Y13697D01*
G37*
%LPD*%
%LPC*%
G36*
X4559Y10162D02*
X4559Y10162D01*
X4559Y10945D01*
X4955Y10945D01*
X4955Y10815D01*
X4713Y10574D01*
X4713Y10573D01*
X4712Y10572D01*
X4710Y10569D01*
X4708Y10566D01*
X4708Y10565D01*
X4707Y10564D01*
X4706Y10560D01*
X4705Y10557D01*
X4705Y10556D01*
X4705Y10555D01*
X4705Y10551D01*
X4705Y10547D01*
X4706Y10546D01*
X4706Y10545D01*
X4708Y10542D01*
X4709Y10538D01*
X4710Y10538D01*
X4710Y10537D01*
X4713Y10532D01*
X4955Y10291D01*
X4955Y10162D01*
X4559Y10162D01*
G37*
%LPD*%
%LPC*%
G36*
X4559Y11063D02*
X4559Y11063D01*
X4559Y11846D01*
X4955Y11846D01*
X4955Y11717D01*
X4713Y11475D01*
X4712Y11474D01*
X4710Y11471D01*
X4708Y11468D01*
X4708Y11467D01*
X4707Y11466D01*
X4706Y11462D01*
X4705Y11458D01*
X4705Y11457D01*
X4705Y11456D01*
X4705Y11453D01*
X4705Y11449D01*
X4706Y11448D01*
X4706Y11447D01*
X4708Y11443D01*
X4709Y11440D01*
X4710Y11439D01*
X4710Y11438D01*
X4713Y11434D01*
X4955Y11192D01*
X4955Y11063D01*
X4559Y11063D01*
G37*
%LPD*%
%LPC*%
G36*
X4559Y11965D02*
X4559Y11965D01*
X4559Y12361D01*
X4688Y12361D01*
X4955Y12094D01*
X4955Y11965D01*
X4559Y11965D01*
G37*
%LPD*%
%LPC*%
G36*
X5559Y7393D02*
X5559Y7393D01*
X5559Y7789D01*
X5955Y7789D01*
X5955Y7660D01*
X5689Y7393D01*
X5559Y7393D01*
G37*
%LPD*%
%LPC*%
G36*
X4559Y7844D02*
X4559Y7844D01*
X4559Y8240D01*
X4955Y8240D01*
X4955Y8111D01*
X4689Y7844D01*
X4559Y7844D01*
G37*
%LPD*%
%LPC*%
G36*
X5311Y7393D02*
X5311Y7393D01*
X5045Y7660D01*
X5045Y7789D01*
X5441Y7789D01*
X5441Y7393D01*
X5311Y7393D01*
G37*
%LPD*%
%LPC*%
G36*
X6559Y18309D02*
X6559Y18309D01*
X6559Y18681D01*
X6678Y18681D01*
X6931Y18428D01*
X6931Y18309D01*
X6559Y18309D01*
G37*
%LPD*%
%LPC*%
G36*
X6069Y18309D02*
X6069Y18309D01*
X6069Y18428D01*
X6322Y18681D01*
X6441Y18681D01*
X6441Y18309D01*
X6069Y18309D01*
G37*
%LPD*%
%LPC*%
G36*
X6559Y17819D02*
X6559Y17819D01*
X6559Y18191D01*
X6931Y18191D01*
X6931Y18072D01*
X6678Y17819D01*
X6559Y17819D01*
G37*
%LPD*%
%LPC*%
G36*
X6322Y17819D02*
X6322Y17819D01*
X6069Y18072D01*
X6069Y18191D01*
X6441Y18191D01*
X6441Y17819D01*
X6322Y17819D01*
G37*
%LPD*%
%LPC*%
G36*
X7215Y2809D02*
X7215Y2809D01*
X7215Y3126D01*
X7385Y3126D01*
X7411Y3119D01*
X7434Y3106D01*
X7453Y3087D01*
X7466Y3064D01*
X7473Y3039D01*
X7473Y2809D01*
X7215Y2809D01*
G37*
%LPD*%
%LPC*%
G36*
X7215Y14809D02*
X7215Y14809D01*
X7215Y15126D01*
X7385Y15126D01*
X7411Y15119D01*
X7434Y15106D01*
X7453Y15087D01*
X7466Y15064D01*
X7473Y15039D01*
X7473Y14809D01*
X7215Y14809D01*
G37*
%LPD*%
%LPC*%
G36*
X7215Y8809D02*
X7215Y8809D01*
X7215Y9126D01*
X7385Y9126D01*
X7411Y9119D01*
X7434Y9106D01*
X7453Y9087D01*
X7466Y9064D01*
X7473Y9039D01*
X7473Y8809D01*
X7215Y8809D01*
G37*
%LPD*%
%LPC*%
G36*
X7215Y14374D02*
X7215Y14374D01*
X7215Y14691D01*
X7473Y14691D01*
X7473Y14461D01*
X7466Y14436D01*
X7453Y14413D01*
X7434Y14394D01*
X7411Y14381D01*
X7385Y14374D01*
X7215Y14374D01*
G37*
%LPD*%
%LPC*%
G36*
X7215Y2374D02*
X7215Y2374D01*
X7215Y2691D01*
X7473Y2691D01*
X7473Y2461D01*
X7466Y2436D01*
X7453Y2413D01*
X7434Y2394D01*
X7411Y2381D01*
X7385Y2374D01*
X7215Y2374D01*
G37*
%LPD*%
%LPC*%
G36*
X7215Y8374D02*
X7215Y8374D01*
X7215Y8691D01*
X7473Y8691D01*
X7473Y8461D01*
X7466Y8436D01*
X7453Y8413D01*
X7434Y8394D01*
X7411Y8381D01*
X7385Y8374D01*
X7215Y8374D01*
G37*
%LPD*%
%LPC*%
G36*
X6838Y8809D02*
X6838Y8809D01*
X6838Y9039D01*
X6845Y9064D01*
X6858Y9087D01*
X6877Y9106D01*
X6900Y9119D01*
X6926Y9126D01*
X7096Y9126D01*
X7096Y8809D01*
X6838Y8809D01*
G37*
%LPD*%
%LPC*%
G36*
X6838Y14809D02*
X6838Y14809D01*
X6838Y15039D01*
X6845Y15064D01*
X6858Y15087D01*
X6877Y15106D01*
X6900Y15119D01*
X6926Y15126D01*
X7096Y15126D01*
X7096Y14809D01*
X6838Y14809D01*
G37*
%LPD*%
%LPC*%
G36*
X6838Y2809D02*
X6838Y2809D01*
X6838Y3039D01*
X6845Y3064D01*
X6858Y3087D01*
X6877Y3106D01*
X6900Y3119D01*
X6926Y3126D01*
X7096Y3126D01*
X7096Y2809D01*
X6838Y2809D01*
G37*
%LPD*%
%LPC*%
G36*
X6926Y8374D02*
X6926Y8374D01*
X6900Y8381D01*
X6877Y8394D01*
X6858Y8413D01*
X6845Y8436D01*
X6838Y8461D01*
X6838Y8691D01*
X7096Y8691D01*
X7096Y8374D01*
X6926Y8374D01*
G37*
%LPD*%
%LPC*%
G36*
X6926Y14374D02*
X6926Y14374D01*
X6900Y14381D01*
X6877Y14394D01*
X6858Y14413D01*
X6845Y14436D01*
X6838Y14461D01*
X6838Y14691D01*
X7096Y14691D01*
X7096Y14374D01*
X6926Y14374D01*
G37*
%LPD*%
%LPC*%
G36*
X6926Y2374D02*
X6926Y2374D01*
X6900Y2381D01*
X6877Y2394D01*
X6858Y2413D01*
X6845Y2436D01*
X6838Y2461D01*
X6838Y2691D01*
X7096Y2691D01*
X7096Y2374D01*
X6926Y2374D01*
G37*
%LPD*%
%LPC*%
G36*
X6499Y18249D02*
X6499Y18249D01*
X6499Y18251D01*
X6501Y18251D01*
X6501Y18249D01*
X6499Y18249D01*
G37*
%LPD*%
%LPC*%
G36*
X4499Y4828D02*
X4499Y4828D01*
X4499Y4829D01*
X4501Y4829D01*
X4501Y4828D01*
X4499Y4828D01*
G37*
%LPD*%
%LPC*%
G36*
X4499Y14671D02*
X4499Y14671D01*
X4499Y14672D01*
X4501Y14672D01*
X4501Y14671D01*
X4499Y14671D01*
G37*
%LPD*%
%LPC*%
G36*
X7155Y8749D02*
X7155Y8749D01*
X7155Y8751D01*
X7156Y8751D01*
X7156Y8749D01*
X7155Y8749D01*
G37*
%LPD*%
%LPC*%
G36*
X7155Y14749D02*
X7155Y14749D01*
X7155Y14751D01*
X7156Y14751D01*
X7156Y14749D01*
X7155Y14749D01*
G37*
%LPD*%
%LPC*%
G36*
X7155Y2749D02*
X7155Y2749D01*
X7155Y2751D01*
X7156Y2751D01*
X7156Y2749D01*
X7155Y2749D01*
G37*
%LPD*%
D10*
X5500Y11455D03*
X5500Y10553D03*
X5500Y9652D03*
X5500Y8750D03*
X5500Y7848D03*
X3500Y11455D03*
X3500Y10553D03*
X3500Y9652D03*
X3500Y8750D03*
X3500Y7848D03*
X4500Y11906D03*
X4500Y11004D03*
X4500Y10102D03*
X4500Y9201D03*
X4500Y8299D03*
D11*
X4500Y14671D03*
X4500Y4829D03*
D12*
X9868Y15750D03*
D13*
X9750Y14125D03*
X9750Y17375D03*
D14*
X10500Y16375D03*
X9750Y16375D03*
X9000Y16375D03*
X9750Y15125D03*
X10500Y15125D03*
X9000Y15125D03*
X9000Y18250D03*
X9750Y18250D03*
X10500Y18250D03*
X9000Y13250D03*
X9750Y13250D03*
X10500Y13250D03*
D12*
X9868Y9750D03*
D13*
X9750Y8125D03*
X9750Y11375D03*
D14*
X10500Y10375D03*
X9750Y10375D03*
X9000Y10375D03*
X9750Y9125D03*
X10500Y9125D03*
X9000Y9125D03*
X9000Y12250D03*
X9750Y12250D03*
X10500Y12250D03*
X9000Y7250D03*
X9750Y7250D03*
X10500Y7250D03*
D12*
X9868Y3750D03*
D13*
X9750Y2125D03*
X9750Y5375D03*
D14*
X10500Y4375D03*
X9750Y4375D03*
X9000Y4375D03*
X9750Y3125D03*
X10500Y3125D03*
X9000Y3125D03*
X9000Y6250D03*
X9750Y6250D03*
X10500Y6250D03*
X9000Y1250D03*
X9750Y1250D03*
X10500Y1250D03*
D15*
X7844Y14750D03*
X7156Y14750D03*
X7156Y15750D03*
X7844Y15750D03*
X7156Y8750D03*
X7844Y8750D03*
X7844Y9750D03*
X7156Y9750D03*
X7844Y3750D03*
X7156Y3750D03*
X7844Y2750D03*
X7156Y2750D03*
D16*
X3500Y18250D03*
X4500Y18250D03*
X2500Y18250D03*
X1500Y18250D03*
X5500Y18250D03*
X6500Y18250D03*
D17*
X500Y500D03*
X2000Y500D03*
X3500Y500D03*
X5000Y500D03*
X6500Y500D03*
X8000Y500D03*
X9500Y500D03*
X500Y1625D03*
X500Y2750D03*
X500Y4250D03*
X500Y5750D03*
X500Y7250D03*
X500Y8750D03*
X500Y10250D03*
X500Y11750D03*
X500Y13250D03*
X500Y14750D03*
X500Y16250D03*
X500Y17750D03*
X500Y19250D03*
X2000Y19250D03*
X3500Y19250D03*
X5000Y19250D03*
X6500Y19250D03*
X8000Y19250D03*
X9500Y19250D03*
X10500Y19250D03*
X10500Y500D03*
D18*
X7125Y8125D03*
X6125Y10750D03*
X6000Y10125D03*
X6625Y10250D03*
X6500Y9625D03*
X6625Y9000D03*
X6125Y9500D03*
X6125Y8625D03*
X6250Y7500D03*
X6750Y7500D03*
X6750Y6250D03*
X6250Y6250D03*
X6250Y5250D03*
X6750Y5250D03*
X6250Y4375D03*
X6750Y4375D03*
X6500Y3625D03*
X6750Y8125D03*
X6625Y3000D03*
X6625Y2500D03*
X7125Y2125D03*
X6625Y14500D03*
X6625Y15000D03*
X6125Y11625D03*
X5750Y12125D03*
X6125Y12500D03*
X6625Y12125D03*
X6625Y12875D03*
X6125Y13375D03*
X6625Y13750D03*
X6125Y14375D03*
X6125Y15250D03*
X6500Y15750D03*
X7125Y14125D03*
D19*
X4500Y17125D02*
X4500Y18250D01*
X4500Y17125D02*
X3125Y15750D01*
X3125Y13250D01*
X4000Y12375D01*
X4000Y11053D01*
X3500Y10553D01*
X820Y18575D02*
X1175Y18930D01*
X820Y18575D02*
X820Y17800D01*
X1500Y17120D01*
X5261Y18250D02*
X5500Y18250D01*
X5261Y18250D02*
X4581Y18930D01*
X1175Y18930D01*
X1500Y10250D02*
X2875Y8875D01*
X2875Y8473D01*
X3500Y7848D01*
X1500Y10250D02*
X1500Y17120D01*
D20*
X7844Y3750D02*
X9868Y3750D01*
X7844Y3750D02*
X7844Y2750D01*
X7844Y9750D02*
X9868Y9750D01*
X7844Y9750D02*
X7844Y8750D01*
X7844Y15750D02*
X9868Y15750D01*
X7844Y15750D02*
X7844Y14750D01*
D21*
X6375Y12330D02*
X5500Y11455D01*
X6375Y12330D02*
X6375Y15250D01*
X6875Y15750D01*
X7156Y15750D01*
X7156Y9898D02*
X7156Y9750D01*
X5947Y10553D02*
X5500Y10553D01*
X5947Y10553D02*
X6750Y9750D01*
X7156Y9750D01*
X6500Y8652D02*
X5500Y9652D01*
X6500Y4000D02*
X6750Y3750D01*
X7156Y3750D01*
X6500Y4000D02*
X6500Y8652D01*
D19*
X3500Y18250D02*
X3000Y18750D01*
X1250Y18750D01*
X1000Y18500D01*
X1000Y17875D01*
X1750Y17125D01*
X1750Y10375D01*
X3375Y8750D01*
X3500Y8750D01*
X3500Y9652D02*
X2875Y10277D01*
X2875Y17875D02*
X2500Y18250D01*
X2875Y17875D02*
X2875Y10277D01*
X4000Y8701D02*
X4500Y9201D01*
X4000Y8701D02*
X4000Y7250D01*
D22*
X2375Y7250D01*
D23*
X2375Y7250D03*
X2375Y11375D03*
D22*
X2375Y11875D01*
X2375Y12375D02*
X2375Y17375D01*
X1500Y18250D01*
D23*
X2375Y11875D03*
X2375Y12375D03*
X2375Y7750D03*
X2375Y8250D03*
D22*
X2375Y7750D02*
X2375Y7250D01*
X2375Y11875D02*
X2375Y12375D01*
X2375Y8250D02*
X2375Y7750D01*
M02*
