M48
;GenerationSoftware,Autodesk,EAGLE,9.0.0*%
;CreationDate,2018-05-15T01:06:46Z*%
FMAT,2
ICI,OFF
INCH,TZ,00.0000
T8C0.0118
T7C0.0138
T6C0.0217
T5C0.0236
T4C0.0394
T3C0.0472
T2C0.1220
%
G90
M72
T2
X4500Y4829
X4500Y14671
T3
X4500Y8299
X3500Y10553
X3500Y9652
X3500Y8750
X3500Y7848
X4500Y11906
X4500Y11004
X4500Y10102
X4500Y9201
X3500Y11455
X5500Y7848
X5500Y8750
X5500Y9652
X5500Y10553
X5500Y11455
T4
X6500Y18250
X3500Y18250
X4500Y18250
X2500Y18250
X1500Y18250
X5500Y18250
T5
X2375Y11375
X2375Y8250
X2375Y7750
X2375Y12375
X2375Y11875
X2375Y7250
T6
X500Y13250
X500Y500
X10500Y500
X10500Y19250
X9500Y19250
X8000Y19250
X6500Y19250
X5000Y19250
X3500Y19250
X2000Y19250
X500Y19250
X500Y17750
X500Y16250
X500Y14750
X500Y10250
X500Y11750
X500Y8750
X500Y7250
X500Y5750
X500Y4250
X500Y2750
X500Y1625
X9500Y500
X8000Y500
X6500Y500
X5000Y500
X3500Y500
X2000Y500
T7
X10500Y15125
X10500Y12250
X9750Y12250
X9000Y12250
X9000Y9125
X10500Y9125
X9750Y9125
X10500Y16375
X9750Y16375
X9000Y16375
X9750Y15125
X9000Y7250
X9000Y15125
X9000Y18250
X9750Y18250
X10500Y18250
X9000Y13250
X9750Y13250
X10500Y13250
X10500Y10375
X9750Y10375
X9000Y10375
X9750Y7250
X10500Y1250
X9750Y1250
X9000Y1250
X10500Y6250
X9750Y6250
X9000Y6250
X9000Y3125
X10500Y3125
X9750Y3125
X9000Y4375
X9750Y4375
X10500Y4375
X10500Y7250
T8
X6000Y10125
X6125Y8625
X6125Y9500
X6625Y9000
X6500Y9625
X6625Y10250
X6625Y13750
X7125Y2125
X6125Y14375
X6125Y15250
X6500Y15750
X7125Y14125
X7125Y8125
X6125Y13375
X6625Y12875
X6625Y12125
X6125Y12500
X5750Y12125
X6125Y11625
X6625Y15000
X6625Y14500
X6250Y7500
X6625Y2500
X6625Y3000
X6750Y8125
X6500Y3625
X6750Y4375
X6250Y4375
X6125Y10750
X6750Y5250
X6250Y5250
X6250Y6250
X6750Y6250
X6750Y7500
M30