G04 EAGLE Gerber X2 export*
%TF.Part,Single*%
%TF.FileFunction,Copper,L1,Top,Mixed*%
%TF.FilePolarity,Positive*%
%TF.GenerationSoftware,Autodesk,EAGLE,9.0.0*%
%TF.CreationDate,2018-05-03T13:06:34Z*%
G75*
%MOIN*%
%FSLAX34Y34*%
%LPD*%
%AMOC8*
5,1,8,0,0,1.08239X$1,22.5*%
G01*
%ADD10P,0.060614X8X292.500000*%
%ADD11C,0.177165*%
%ADD12R,0.225000X0.041000*%
%ADD13R,0.250000X0.100000*%
%ADD14C,0.023780*%
%ADD15R,0.043307X0.055118*%
%ADD16P,0.075767X8X22.500000*%
%ADD17C,0.032480*%
%ADD18C,0.021811*%
%ADD19C,0.016000*%
%ADD20C,0.040000*%
%ADD21C,0.008000*%

G36*
X8707Y10215D02*
X8707Y10215D01*
X8706Y10216D01*
X8705Y10216D01*
X8702Y10217D01*
X8698Y10219D01*
X8697Y10219D01*
X8696Y10219D01*
X8695Y10219D01*
X8693Y10219D01*
X8171Y10219D01*
X8170Y10219D01*
X8169Y10219D01*
X8165Y10218D01*
X8162Y10218D01*
X8161Y10217D01*
X8160Y10217D01*
X8156Y10215D01*
X8153Y10213D01*
X8152Y10212D01*
X8149Y10209D01*
X8147Y10206D01*
X8146Y10205D01*
X8146Y10204D01*
X8144Y10201D01*
X8143Y10197D01*
X8143Y10196D01*
X8142Y10195D01*
X8142Y10191D01*
X8134Y10183D01*
X8131Y10180D01*
X8129Y10177D01*
X8129Y10176D01*
X8128Y10175D01*
X8127Y10171D01*
X8126Y10168D01*
X8126Y10167D01*
X8125Y10166D01*
X8126Y10165D01*
X8125Y10162D01*
X8125Y9838D01*
X8126Y9834D01*
X8126Y9830D01*
X8127Y9829D01*
X8127Y9828D01*
X8129Y9825D01*
X8130Y9821D01*
X8131Y9820D01*
X8132Y9819D01*
X8134Y9817D01*
X8142Y9809D01*
X8142Y9191D01*
X8094Y9144D01*
X7595Y9144D01*
X7547Y9191D01*
X7547Y9809D01*
X7555Y9817D01*
X7557Y9820D01*
X7560Y9823D01*
X7560Y9824D01*
X7561Y9825D01*
X7562Y9829D01*
X7563Y9832D01*
X7563Y9833D01*
X7563Y9834D01*
X7563Y9835D01*
X7564Y9838D01*
X7564Y10162D01*
X7563Y10166D01*
X7563Y10170D01*
X7562Y10171D01*
X7562Y10172D01*
X7560Y10175D01*
X7559Y10179D01*
X7558Y10180D01*
X7557Y10181D01*
X7555Y10183D01*
X7547Y10191D01*
X7547Y10809D01*
X7595Y10856D01*
X8094Y10856D01*
X8142Y10809D01*
X8142Y10808D01*
X8143Y10804D01*
X8143Y10801D01*
X8144Y10800D01*
X8144Y10799D01*
X8146Y10795D01*
X8148Y10792D01*
X8149Y10791D01*
X8152Y10788D01*
X8155Y10786D01*
X8156Y10785D01*
X8157Y10785D01*
X8160Y10783D01*
X8164Y10782D01*
X8165Y10782D01*
X8166Y10781D01*
X8171Y10781D01*
X8693Y10781D01*
X8696Y10781D01*
X8700Y10782D01*
X8701Y10782D01*
X8702Y10782D01*
X8705Y10784D01*
X8709Y10786D01*
X10812Y10786D01*
X11000Y10786D01*
X11003Y10786D01*
X11005Y10786D01*
X11008Y10787D01*
X11011Y10787D01*
X11013Y10788D01*
X11016Y10789D01*
X11018Y10791D01*
X11021Y10792D01*
X11023Y10794D01*
X11025Y10795D01*
X11027Y10797D01*
X11030Y10799D01*
X11031Y10801D01*
X11033Y10803D01*
X11034Y10806D01*
X11036Y10808D01*
X11036Y10811D01*
X11037Y10813D01*
X11038Y10816D01*
X11039Y10819D01*
X11039Y10822D01*
X11039Y10825D01*
X11039Y13250D01*
X11039Y13253D01*
X11039Y13255D01*
X11038Y13258D01*
X11038Y13261D01*
X11037Y13263D01*
X11036Y13266D01*
X11034Y13268D01*
X11033Y13271D01*
X11031Y13273D01*
X11030Y13275D01*
X11028Y13277D01*
X11026Y13280D01*
X11024Y13281D01*
X11022Y13283D01*
X11019Y13284D01*
X11017Y13286D01*
X11014Y13286D01*
X11012Y13287D01*
X11009Y13288D01*
X11006Y13289D01*
X11003Y13289D01*
X11000Y13289D01*
X10841Y13289D01*
X10841Y13711D01*
X11000Y13711D01*
X11003Y13711D01*
X11005Y13711D01*
X11008Y13712D01*
X11011Y13712D01*
X11013Y13713D01*
X11016Y13714D01*
X11018Y13716D01*
X11021Y13717D01*
X11023Y13719D01*
X11025Y13720D01*
X11027Y13722D01*
X11030Y13724D01*
X11031Y13726D01*
X11033Y13728D01*
X11034Y13731D01*
X11036Y13733D01*
X11036Y13736D01*
X11037Y13738D01*
X11038Y13741D01*
X11039Y13744D01*
X11039Y13747D01*
X11039Y13750D01*
X11039Y16175D01*
X11039Y16178D01*
X11039Y16180D01*
X11038Y16183D01*
X11038Y16186D01*
X11037Y16188D01*
X11036Y16191D01*
X11034Y16193D01*
X11033Y16196D01*
X11031Y16198D01*
X11030Y16200D01*
X11028Y16202D01*
X11026Y16205D01*
X11024Y16206D01*
X11022Y16208D01*
X11019Y16209D01*
X11017Y16211D01*
X11014Y16211D01*
X11012Y16212D01*
X11009Y16213D01*
X11006Y16214D01*
X11003Y16214D01*
X11000Y16214D01*
X8708Y16214D01*
X8707Y16215D01*
X8706Y16216D01*
X8705Y16216D01*
X8702Y16217D01*
X8698Y16219D01*
X8697Y16219D01*
X8696Y16219D01*
X8695Y16219D01*
X8693Y16219D01*
X8171Y16219D01*
X8170Y16219D01*
X8169Y16219D01*
X8165Y16218D01*
X8162Y16218D01*
X8161Y16217D01*
X8160Y16217D01*
X8156Y16215D01*
X8153Y16213D01*
X8152Y16212D01*
X8149Y16209D01*
X8147Y16206D01*
X8146Y16205D01*
X8146Y16204D01*
X8144Y16201D01*
X8143Y16197D01*
X8143Y16196D01*
X8142Y16195D01*
X8142Y16191D01*
X8134Y16183D01*
X8131Y16180D01*
X8129Y16177D01*
X8129Y16176D01*
X8128Y16175D01*
X8127Y16171D01*
X8126Y16168D01*
X8126Y16167D01*
X8125Y16166D01*
X8126Y16165D01*
X8125Y16162D01*
X8125Y15838D01*
X8126Y15834D01*
X8126Y15830D01*
X8127Y15829D01*
X8127Y15828D01*
X8129Y15825D01*
X8130Y15821D01*
X8131Y15820D01*
X8132Y15819D01*
X8134Y15817D01*
X8142Y15809D01*
X8142Y15191D01*
X8094Y15144D01*
X7595Y15144D01*
X7547Y15191D01*
X7547Y15809D01*
X7555Y15817D01*
X7557Y15820D01*
X7560Y15823D01*
X7560Y15824D01*
X7561Y15825D01*
X7562Y15829D01*
X7563Y15832D01*
X7563Y15833D01*
X7563Y15834D01*
X7563Y15835D01*
X7564Y15838D01*
X7564Y16162D01*
X7563Y16166D01*
X7563Y16170D01*
X7562Y16171D01*
X7562Y16172D01*
X7560Y16175D01*
X7559Y16179D01*
X7558Y16180D01*
X7557Y16181D01*
X7555Y16183D01*
X7547Y16191D01*
X7547Y16809D01*
X7595Y16856D01*
X8094Y16856D01*
X8142Y16809D01*
X8142Y16808D01*
X8143Y16804D01*
X8143Y16801D01*
X8144Y16800D01*
X8144Y16799D01*
X8146Y16795D01*
X8148Y16792D01*
X8149Y16791D01*
X8152Y16788D01*
X8155Y16786D01*
X8156Y16785D01*
X8157Y16785D01*
X8160Y16783D01*
X8164Y16782D01*
X8165Y16782D01*
X8166Y16781D01*
X8171Y16781D01*
X8693Y16781D01*
X8696Y16781D01*
X8700Y16782D01*
X8701Y16782D01*
X8702Y16782D01*
X8705Y16784D01*
X8709Y16786D01*
X10812Y16786D01*
X11000Y16786D01*
X11003Y16786D01*
X11005Y16786D01*
X11008Y16787D01*
X11011Y16787D01*
X11013Y16788D01*
X11016Y16789D01*
X11018Y16791D01*
X11021Y16792D01*
X11023Y16794D01*
X11025Y16795D01*
X11027Y16797D01*
X11030Y16799D01*
X11031Y16801D01*
X11033Y16803D01*
X11034Y16806D01*
X11036Y16808D01*
X11036Y16811D01*
X11037Y16813D01*
X11038Y16816D01*
X11039Y16819D01*
X11039Y16822D01*
X11039Y16825D01*
X11039Y19250D01*
X11039Y19253D01*
X11039Y19255D01*
X11038Y19258D01*
X11038Y19261D01*
X11037Y19263D01*
X11036Y19266D01*
X11034Y19268D01*
X11033Y19271D01*
X11031Y19273D01*
X11030Y19275D01*
X11028Y19277D01*
X11026Y19280D01*
X11024Y19281D01*
X11022Y19283D01*
X11019Y19284D01*
X11017Y19286D01*
X11014Y19286D01*
X11012Y19287D01*
X11009Y19288D01*
X11006Y19289D01*
X11003Y19289D01*
X11000Y19289D01*
X10841Y19289D01*
X10841Y20190D01*
X10841Y20191D01*
X10841Y20192D01*
X10840Y20196D01*
X10840Y20200D01*
X10839Y20200D01*
X10839Y20201D01*
X10837Y20205D01*
X10835Y20208D01*
X10835Y20209D01*
X10834Y20210D01*
X10831Y20212D01*
X10828Y20214D01*
X10827Y20215D01*
X10826Y20216D01*
X10823Y20217D01*
X10820Y20218D01*
X10819Y20218D01*
X10818Y20219D01*
X10812Y20219D01*
X180Y20219D01*
X179Y20219D01*
X178Y20219D01*
X174Y20218D01*
X171Y20218D01*
X170Y20217D01*
X169Y20217D01*
X165Y20215D01*
X162Y20213D01*
X161Y20212D01*
X158Y20209D01*
X156Y20206D01*
X155Y20205D01*
X155Y20204D01*
X153Y20201D01*
X152Y20198D01*
X152Y20196D01*
X151Y20195D01*
X151Y20190D01*
X151Y180D01*
X151Y179D01*
X151Y178D01*
X152Y174D01*
X152Y171D01*
X153Y170D01*
X153Y169D01*
X155Y165D01*
X157Y162D01*
X158Y161D01*
X161Y158D01*
X164Y156D01*
X165Y155D01*
X166Y155D01*
X169Y153D01*
X173Y152D01*
X174Y152D01*
X175Y151D01*
X180Y151D01*
X10812Y151D01*
X10813Y151D01*
X10814Y151D01*
X10818Y152D01*
X10822Y152D01*
X10822Y153D01*
X10824Y153D01*
X10827Y155D01*
X10830Y157D01*
X10831Y158D01*
X10832Y158D01*
X10834Y161D01*
X10837Y164D01*
X10837Y165D01*
X10838Y166D01*
X10839Y169D01*
X10840Y173D01*
X10841Y174D01*
X10841Y175D01*
X10841Y180D01*
X10841Y1711D01*
X11000Y1711D01*
X11003Y1711D01*
X11005Y1711D01*
X11008Y1712D01*
X11011Y1712D01*
X11013Y1713D01*
X11016Y1714D01*
X11018Y1716D01*
X11021Y1717D01*
X11023Y1719D01*
X11025Y1720D01*
X11027Y1722D01*
X11030Y1724D01*
X11031Y1726D01*
X11033Y1728D01*
X11034Y1731D01*
X11036Y1733D01*
X11036Y1736D01*
X11037Y1738D01*
X11038Y1741D01*
X11039Y1744D01*
X11039Y1747D01*
X11039Y1750D01*
X11039Y4175D01*
X11039Y4178D01*
X11039Y4180D01*
X11038Y4183D01*
X11038Y4186D01*
X11037Y4188D01*
X11036Y4191D01*
X11034Y4193D01*
X11033Y4196D01*
X11031Y4198D01*
X11030Y4200D01*
X11028Y4202D01*
X11026Y4205D01*
X11024Y4206D01*
X11022Y4208D01*
X11019Y4209D01*
X11017Y4211D01*
X11014Y4211D01*
X11012Y4212D01*
X11009Y4213D01*
X11006Y4214D01*
X11003Y4214D01*
X11000Y4214D01*
X10840Y4214D01*
X10839Y4215D01*
X10839Y4216D01*
X10837Y4220D01*
X10835Y4223D01*
X10835Y4224D01*
X10834Y4224D01*
X10831Y4227D01*
X10828Y4229D01*
X10827Y4230D01*
X10826Y4230D01*
X10823Y4232D01*
X10820Y4233D01*
X10819Y4233D01*
X10818Y4234D01*
X10812Y4234D01*
X8717Y4234D01*
X8715Y4235D01*
X8714Y4236D01*
X8710Y4237D01*
X8706Y4239D01*
X8705Y4239D01*
X8704Y4239D01*
X8701Y4239D01*
X8151Y4239D01*
X8150Y4239D01*
X8149Y4239D01*
X8145Y4238D01*
X8142Y4238D01*
X8141Y4237D01*
X8140Y4237D01*
X8136Y4235D01*
X8133Y4233D01*
X8132Y4232D01*
X8129Y4229D01*
X8127Y4226D01*
X8126Y4225D01*
X8126Y4224D01*
X8124Y4221D01*
X8123Y4217D01*
X8123Y4216D01*
X8122Y4215D01*
X8122Y4210D01*
X8122Y4199D01*
X8114Y4191D01*
X8111Y4188D01*
X8109Y4185D01*
X8109Y4184D01*
X8108Y4183D01*
X8107Y4180D01*
X8106Y4176D01*
X8106Y4175D01*
X8105Y4174D01*
X8106Y4174D01*
X8105Y4171D01*
X8105Y3829D01*
X8106Y3825D01*
X8106Y3822D01*
X8107Y3821D01*
X8107Y3820D01*
X8109Y3816D01*
X8110Y3813D01*
X8111Y3812D01*
X8112Y3811D01*
X8114Y3809D01*
X8122Y3801D01*
X8122Y3199D01*
X8086Y3164D01*
X7603Y3164D01*
X7567Y3199D01*
X7567Y3801D01*
X7575Y3809D01*
X7577Y3812D01*
X7580Y3815D01*
X7580Y3816D01*
X7581Y3817D01*
X7582Y3820D01*
X7583Y3824D01*
X7583Y3825D01*
X7583Y3826D01*
X7584Y3829D01*
X7584Y4171D01*
X7583Y4175D01*
X7583Y4178D01*
X7582Y4179D01*
X7582Y4180D01*
X7580Y4184D01*
X7579Y4187D01*
X7578Y4188D01*
X7577Y4189D01*
X7575Y4191D01*
X7567Y4199D01*
X7567Y4801D01*
X7603Y4836D01*
X8086Y4836D01*
X8122Y4801D01*
X8122Y4790D01*
X8122Y4789D01*
X8122Y4788D01*
X8123Y4784D01*
X8123Y4781D01*
X8124Y4780D01*
X8124Y4779D01*
X8126Y4775D01*
X8128Y4772D01*
X8129Y4771D01*
X8132Y4768D01*
X8135Y4766D01*
X8136Y4765D01*
X8137Y4765D01*
X8140Y4763D01*
X8144Y4762D01*
X8145Y4762D01*
X8146Y4761D01*
X8151Y4761D01*
X8701Y4761D01*
X8705Y4761D01*
X8709Y4762D01*
X8710Y4762D01*
X8714Y4764D01*
X8717Y4766D01*
X10812Y4766D01*
X10813Y4766D01*
X10814Y4766D01*
X10818Y4767D01*
X10822Y4767D01*
X10822Y4768D01*
X10824Y4768D01*
X10827Y4770D01*
X10830Y4772D01*
X10831Y4773D01*
X10832Y4773D01*
X10834Y4776D01*
X10837Y4779D01*
X10837Y4780D01*
X10838Y4781D01*
X10839Y4784D01*
X10840Y4786D01*
X11000Y4786D01*
X11003Y4786D01*
X11005Y4786D01*
X11008Y4787D01*
X11011Y4787D01*
X11013Y4788D01*
X11016Y4789D01*
X11018Y4791D01*
X11021Y4792D01*
X11023Y4794D01*
X11025Y4795D01*
X11027Y4797D01*
X11030Y4799D01*
X11031Y4801D01*
X11033Y4803D01*
X11034Y4806D01*
X11036Y4808D01*
X11036Y4811D01*
X11037Y4813D01*
X11038Y4816D01*
X11039Y4819D01*
X11039Y4822D01*
X11039Y4825D01*
X11039Y7250D01*
X11039Y7253D01*
X11039Y7255D01*
X11038Y7258D01*
X11038Y7261D01*
X11037Y7263D01*
X11036Y7266D01*
X11034Y7268D01*
X11033Y7271D01*
X11031Y7273D01*
X11030Y7275D01*
X11028Y7277D01*
X11026Y7280D01*
X11024Y7281D01*
X11022Y7283D01*
X11019Y7284D01*
X11017Y7286D01*
X11014Y7286D01*
X11012Y7287D01*
X11009Y7288D01*
X11006Y7289D01*
X11003Y7289D01*
X11000Y7289D01*
X10841Y7289D01*
X10841Y7711D01*
X11000Y7711D01*
X11003Y7711D01*
X11005Y7711D01*
X11008Y7712D01*
X11011Y7712D01*
X11013Y7713D01*
X11016Y7714D01*
X11018Y7716D01*
X11021Y7717D01*
X11023Y7719D01*
X11025Y7720D01*
X11027Y7722D01*
X11030Y7724D01*
X11031Y7726D01*
X11033Y7728D01*
X11034Y7731D01*
X11036Y7733D01*
X11036Y7736D01*
X11037Y7738D01*
X11038Y7741D01*
X11039Y7744D01*
X11039Y7747D01*
X11039Y7750D01*
X11039Y10175D01*
X11039Y10178D01*
X11039Y10180D01*
X11038Y10183D01*
X11038Y10186D01*
X11037Y10188D01*
X11036Y10191D01*
X11034Y10193D01*
X11033Y10196D01*
X11031Y10198D01*
X11030Y10200D01*
X11028Y10202D01*
X11026Y10205D01*
X11024Y10206D01*
X11022Y10208D01*
X11019Y10209D01*
X11017Y10211D01*
X11014Y10211D01*
X11012Y10212D01*
X11009Y10213D01*
X11006Y10214D01*
X11003Y10214D01*
X11000Y10214D01*
X8708Y10214D01*
X8707Y10215D01*
G37*
%LPC*%
G36*
X3359Y8258D02*
X3359Y8258D01*
X3167Y8449D01*
X3164Y8451D01*
X3161Y8454D01*
X3160Y8454D01*
X3160Y8455D01*
X3156Y8456D01*
X3152Y8457D01*
X3151Y8457D01*
X3150Y8457D01*
X3147Y8458D01*
X2968Y8458D01*
X1014Y10412D01*
X1014Y19274D01*
X1506Y19766D01*
X4183Y19766D01*
X4274Y19675D01*
X4788Y19161D01*
X4789Y19160D01*
X4790Y19159D01*
X4793Y19157D01*
X4796Y19155D01*
X4797Y19155D01*
X4798Y19154D01*
X4802Y19153D01*
X4805Y19152D01*
X4806Y19152D01*
X4807Y19152D01*
X4811Y19153D01*
X4815Y19153D01*
X4816Y19153D01*
X4817Y19153D01*
X4820Y19155D01*
X4824Y19156D01*
X4825Y19157D01*
X4826Y19157D01*
X4830Y19161D01*
X5170Y19161D01*
X5411Y18920D01*
X5411Y18580D01*
X5170Y18339D01*
X4830Y18339D01*
X4589Y18580D01*
X4589Y18920D01*
X4590Y18921D01*
X4591Y18922D01*
X4593Y18925D01*
X4595Y18928D01*
X4595Y18929D01*
X4596Y18930D01*
X4597Y18934D01*
X4598Y18937D01*
X4598Y18938D01*
X4598Y18939D01*
X4597Y18943D01*
X4597Y18947D01*
X4597Y18948D01*
X4597Y18949D01*
X4595Y18952D01*
X4594Y18956D01*
X4593Y18956D01*
X4593Y18957D01*
X4589Y18962D01*
X4075Y19476D01*
X4072Y19478D01*
X4069Y19480D01*
X4068Y19481D01*
X4067Y19481D01*
X4064Y19482D01*
X4060Y19484D01*
X4059Y19484D01*
X4058Y19484D01*
X4055Y19484D01*
X2535Y19484D01*
X2533Y19484D01*
X2530Y19484D01*
X2528Y19483D01*
X2526Y19483D01*
X2523Y19481D01*
X2521Y19480D01*
X2519Y19479D01*
X2518Y19478D01*
X2516Y19476D01*
X2513Y19474D01*
X2512Y19473D01*
X2511Y19471D01*
X2510Y19468D01*
X2508Y19466D01*
X2508Y19464D01*
X2507Y19462D01*
X2507Y19460D01*
X2506Y19457D01*
X2506Y19455D01*
X2506Y19453D01*
X2507Y19450D01*
X2507Y19447D01*
X2508Y19445D01*
X2508Y19444D01*
X2510Y19441D01*
X2511Y19438D01*
X2513Y19436D01*
X2514Y19436D01*
X2514Y19435D01*
X2515Y19434D01*
X2524Y19425D01*
X2788Y19161D01*
X2789Y19160D01*
X2790Y19159D01*
X2793Y19157D01*
X2796Y19155D01*
X2797Y19155D01*
X2798Y19154D01*
X2802Y19153D01*
X2805Y19152D01*
X2806Y19152D01*
X2807Y19152D01*
X2811Y19153D01*
X2815Y19153D01*
X2816Y19153D01*
X2817Y19153D01*
X2820Y19155D01*
X2824Y19156D01*
X2825Y19157D01*
X2826Y19157D01*
X2830Y19161D01*
X3170Y19161D01*
X3411Y18920D01*
X3411Y18580D01*
X3170Y18339D01*
X2830Y18339D01*
X2589Y18580D01*
X2589Y18920D01*
X2590Y18921D01*
X2591Y18922D01*
X2593Y18925D01*
X2595Y18928D01*
X2595Y18929D01*
X2596Y18930D01*
X2597Y18934D01*
X2598Y18937D01*
X2598Y18938D01*
X2598Y18939D01*
X2597Y18943D01*
X2597Y18947D01*
X2597Y18948D01*
X2597Y18949D01*
X2595Y18952D01*
X2594Y18956D01*
X2593Y18956D01*
X2593Y18957D01*
X2589Y18962D01*
X2325Y19226D01*
X2322Y19228D01*
X2319Y19230D01*
X2318Y19231D01*
X2317Y19231D01*
X2314Y19232D01*
X2310Y19234D01*
X2309Y19234D01*
X2308Y19234D01*
X2305Y19234D01*
X1695Y19234D01*
X1691Y19234D01*
X1688Y19233D01*
X1687Y19233D01*
X1686Y19233D01*
X1682Y19231D01*
X1679Y19229D01*
X1678Y19228D01*
X1677Y19228D01*
X1675Y19226D01*
X1524Y19075D01*
X1522Y19072D01*
X1520Y19069D01*
X1519Y19068D01*
X1519Y19067D01*
X1518Y19064D01*
X1516Y19060D01*
X1516Y19059D01*
X1516Y19058D01*
X1516Y19057D01*
X1516Y19055D01*
X1516Y17820D01*
X1516Y17817D01*
X1517Y17813D01*
X1517Y17812D01*
X1517Y17811D01*
X1519Y17807D01*
X1521Y17804D01*
X1522Y17803D01*
X1522Y17802D01*
X1524Y17800D01*
X1766Y17558D01*
X1766Y10945D01*
X1766Y10942D01*
X1767Y10938D01*
X1767Y10937D01*
X1767Y10936D01*
X1769Y10932D01*
X1771Y10929D01*
X1772Y10928D01*
X1772Y10927D01*
X1774Y10925D01*
X3050Y9649D01*
X3053Y9647D01*
X3056Y9645D01*
X3057Y9644D01*
X3058Y9644D01*
X3061Y9643D01*
X3065Y9641D01*
X3066Y9641D01*
X3067Y9641D01*
X3068Y9641D01*
X3070Y9641D01*
X3147Y9641D01*
X3151Y9641D01*
X3155Y9642D01*
X3156Y9642D01*
X3160Y9644D01*
X3163Y9646D01*
X3164Y9647D01*
X3165Y9647D01*
X3167Y9649D01*
X3359Y9841D01*
X3641Y9841D01*
X3841Y9641D01*
X3841Y9359D01*
X3641Y9159D01*
X3359Y9159D01*
X3167Y9351D01*
X3164Y9353D01*
X3161Y9355D01*
X3160Y9356D01*
X3156Y9357D01*
X3152Y9359D01*
X3151Y9359D01*
X3150Y9359D01*
X3147Y9359D01*
X2942Y9359D01*
X1484Y10817D01*
X1484Y17430D01*
X1484Y17434D01*
X1483Y17437D01*
X1483Y17438D01*
X1483Y17439D01*
X1481Y17443D01*
X1479Y17446D01*
X1478Y17447D01*
X1478Y17448D01*
X1476Y17450D01*
X1346Y17580D01*
X1343Y17582D01*
X1341Y17584D01*
X1339Y17585D01*
X1338Y17586D01*
X1335Y17587D01*
X1332Y17588D01*
X1331Y17588D01*
X1329Y17589D01*
X1326Y17588D01*
X1323Y17589D01*
X1321Y17588D01*
X1319Y17588D01*
X1316Y17587D01*
X1314Y17587D01*
X1312Y17586D01*
X1310Y17585D01*
X1308Y17583D01*
X1306Y17581D01*
X1304Y17580D01*
X1303Y17579D01*
X1301Y17576D01*
X1300Y17574D01*
X1299Y17572D01*
X1298Y17571D01*
X1297Y17568D01*
X1296Y17565D01*
X1296Y17562D01*
X1296Y17561D01*
X1296Y17560D01*
X1296Y10540D01*
X1296Y10537D01*
X1297Y10533D01*
X1297Y10532D01*
X1297Y10531D01*
X1299Y10527D01*
X1301Y10524D01*
X1302Y10523D01*
X1302Y10522D01*
X1304Y10520D01*
X3076Y8748D01*
X3080Y8745D01*
X3083Y8743D01*
X3084Y8742D01*
X3088Y8741D01*
X3092Y8740D01*
X3093Y8740D01*
X3093Y8739D01*
X3094Y8739D01*
X3097Y8739D01*
X3147Y8739D01*
X3151Y8740D01*
X3155Y8740D01*
X3155Y8741D01*
X3156Y8741D01*
X3160Y8743D01*
X3163Y8744D01*
X3164Y8745D01*
X3165Y8745D01*
X3165Y8746D01*
X3167Y8748D01*
X3359Y8939D01*
X3641Y8939D01*
X3841Y8740D01*
X3841Y8457D01*
X3641Y8258D01*
X3359Y8258D01*
G37*
%LPD*%
%LPC*%
G36*
X3359Y10061D02*
X3359Y10061D01*
X3167Y10252D01*
X3164Y10255D01*
X3161Y10257D01*
X3160Y10257D01*
X3160Y10258D01*
X3156Y10259D01*
X3152Y10260D01*
X3151Y10260D01*
X3150Y10261D01*
X3147Y10261D01*
X3040Y10261D01*
X1859Y11442D01*
X1859Y18310D01*
X1859Y18311D01*
X1859Y18312D01*
X1858Y18316D01*
X1858Y18319D01*
X1857Y18320D01*
X1857Y18321D01*
X1855Y18325D01*
X1853Y18328D01*
X1852Y18329D01*
X1849Y18332D01*
X1846Y18334D01*
X1845Y18335D01*
X1844Y18335D01*
X1841Y18337D01*
X1837Y18338D01*
X1836Y18338D01*
X1835Y18339D01*
X1830Y18339D01*
X1589Y18580D01*
X1589Y18920D01*
X1830Y19161D01*
X2170Y19161D01*
X2411Y18920D01*
X2411Y18580D01*
X2170Y18339D01*
X2169Y18339D01*
X2168Y18339D01*
X2164Y18338D01*
X2161Y18338D01*
X2160Y18337D01*
X2159Y18337D01*
X2155Y18335D01*
X2152Y18333D01*
X2151Y18332D01*
X2148Y18329D01*
X2146Y18326D01*
X2145Y18325D01*
X2145Y18324D01*
X2143Y18321D01*
X2142Y18317D01*
X2142Y18316D01*
X2141Y18315D01*
X2141Y18310D01*
X2141Y11570D01*
X2141Y11567D01*
X2142Y11563D01*
X2142Y11562D01*
X2142Y11561D01*
X2144Y11557D01*
X2146Y11554D01*
X2147Y11553D01*
X2147Y11552D01*
X2149Y11550D01*
X3137Y10562D01*
X3138Y10561D01*
X3139Y10561D01*
X3142Y10559D01*
X3145Y10556D01*
X3146Y10556D01*
X3147Y10556D01*
X3150Y10555D01*
X3154Y10554D01*
X3155Y10554D01*
X3156Y10553D01*
X3160Y10554D01*
X3164Y10554D01*
X3165Y10554D01*
X3166Y10554D01*
X3169Y10556D01*
X3173Y10557D01*
X3173Y10558D01*
X3174Y10558D01*
X3178Y10562D01*
X3359Y10742D01*
X3641Y10742D01*
X3841Y10543D01*
X3841Y10260D01*
X3641Y10061D01*
X3359Y10061D01*
G37*
%LPD*%
%LPC*%
G36*
X3359Y10962D02*
X3359Y10962D01*
X3167Y11154D01*
X3164Y11156D01*
X3161Y11159D01*
X3160Y11159D01*
X3156Y11161D01*
X3152Y11162D01*
X3151Y11162D01*
X3150Y11162D01*
X3147Y11162D01*
X2889Y11162D01*
X2234Y11817D01*
X2234Y17183D01*
X2325Y17274D01*
X3589Y18538D01*
X3590Y18539D01*
X3591Y18540D01*
X3593Y18543D01*
X3595Y18546D01*
X3595Y18547D01*
X3596Y18548D01*
X3597Y18552D01*
X3598Y18555D01*
X3598Y18556D01*
X3598Y18557D01*
X3597Y18561D01*
X3597Y18565D01*
X3597Y18566D01*
X3597Y18567D01*
X3595Y18570D01*
X3594Y18574D01*
X3593Y18575D01*
X3593Y18576D01*
X3589Y18580D01*
X3589Y18920D01*
X3830Y19161D01*
X4170Y19161D01*
X4411Y18920D01*
X4411Y18580D01*
X4170Y18339D01*
X3830Y18339D01*
X3829Y18340D01*
X3828Y18341D01*
X3825Y18343D01*
X3822Y18345D01*
X3821Y18345D01*
X3820Y18346D01*
X3816Y18347D01*
X3813Y18348D01*
X3812Y18348D01*
X3811Y18348D01*
X3807Y18347D01*
X3803Y18347D01*
X3802Y18347D01*
X3801Y18347D01*
X3798Y18345D01*
X3794Y18344D01*
X3794Y18343D01*
X3793Y18343D01*
X3788Y18339D01*
X2524Y17075D01*
X2522Y17072D01*
X2520Y17069D01*
X2519Y17068D01*
X2519Y17067D01*
X2518Y17064D01*
X2516Y17060D01*
X2516Y17059D01*
X2516Y17058D01*
X2516Y17057D01*
X2516Y17055D01*
X2516Y11945D01*
X2516Y11942D01*
X2517Y11938D01*
X2517Y11937D01*
X2517Y11936D01*
X2519Y11932D01*
X2521Y11929D01*
X2522Y11928D01*
X2522Y11927D01*
X2524Y11925D01*
X2997Y11452D01*
X3000Y11450D01*
X3003Y11448D01*
X3004Y11447D01*
X3008Y11446D01*
X3012Y11444D01*
X3013Y11444D01*
X3014Y11444D01*
X3017Y11444D01*
X3147Y11444D01*
X3151Y11445D01*
X3155Y11445D01*
X3156Y11445D01*
X3160Y11447D01*
X3163Y11449D01*
X3164Y11450D01*
X3165Y11450D01*
X3165Y11451D01*
X3167Y11452D01*
X3359Y11644D01*
X3641Y11644D01*
X3841Y11444D01*
X3841Y11162D01*
X3641Y10962D01*
X3359Y10962D01*
G37*
%LPD*%
%LPC*%
G36*
X6914Y4164D02*
X6914Y4164D01*
X6878Y4199D01*
X6878Y4370D01*
X6878Y4371D01*
X6878Y4372D01*
X6877Y4376D01*
X6877Y4379D01*
X6876Y4380D01*
X6876Y4381D01*
X6874Y4385D01*
X6872Y4388D01*
X6871Y4389D01*
X6868Y4392D01*
X6865Y4394D01*
X6864Y4395D01*
X6863Y4395D01*
X6860Y4397D01*
X6856Y4398D01*
X6855Y4398D01*
X6854Y4399D01*
X6849Y4399D01*
X6708Y4399D01*
X6641Y4467D01*
X6467Y4641D01*
X6399Y4708D01*
X6399Y9348D01*
X6399Y9352D01*
X6398Y9356D01*
X6398Y9357D01*
X6396Y9361D01*
X6394Y9364D01*
X6393Y9365D01*
X6393Y9366D01*
X6391Y9368D01*
X5690Y10069D01*
X5689Y10070D01*
X5686Y10072D01*
X5683Y10074D01*
X5682Y10075D01*
X5681Y10075D01*
X5677Y10076D01*
X5673Y10077D01*
X5672Y10077D01*
X5671Y10077D01*
X5668Y10077D01*
X5664Y10077D01*
X5663Y10076D01*
X5662Y10076D01*
X5658Y10075D01*
X5655Y10073D01*
X5654Y10073D01*
X5653Y10072D01*
X5649Y10069D01*
X5641Y10061D01*
X5359Y10061D01*
X5159Y10260D01*
X5159Y10543D01*
X5359Y10742D01*
X5641Y10742D01*
X5841Y10543D01*
X5841Y10260D01*
X5833Y10253D01*
X5832Y10252D01*
X5831Y10251D01*
X5829Y10248D01*
X5827Y10245D01*
X5827Y10244D01*
X5826Y10243D01*
X5826Y10239D01*
X5825Y10236D01*
X5825Y10235D01*
X5824Y10234D01*
X5825Y10230D01*
X5825Y10226D01*
X5825Y10225D01*
X5825Y10224D01*
X5827Y10221D01*
X5828Y10217D01*
X5829Y10216D01*
X5829Y10215D01*
X5833Y10211D01*
X6533Y9511D01*
X6601Y9443D01*
X6601Y4804D01*
X6601Y4800D01*
X6602Y4796D01*
X6602Y4795D01*
X6602Y4794D01*
X6604Y4791D01*
X6606Y4787D01*
X6607Y4786D01*
X6607Y4785D01*
X6609Y4783D01*
X6783Y4609D01*
X6786Y4607D01*
X6789Y4605D01*
X6790Y4604D01*
X6791Y4604D01*
X6795Y4603D01*
X6798Y4601D01*
X6800Y4601D01*
X6801Y4601D01*
X6804Y4601D01*
X6849Y4601D01*
X6850Y4601D01*
X6851Y4601D01*
X6855Y4602D01*
X6858Y4602D01*
X6859Y4603D01*
X6860Y4603D01*
X6864Y4605D01*
X6867Y4607D01*
X6868Y4608D01*
X6871Y4611D01*
X6873Y4614D01*
X6874Y4615D01*
X6874Y4616D01*
X6876Y4619D01*
X6877Y4623D01*
X6877Y4624D01*
X6878Y4625D01*
X6878Y4630D01*
X6878Y4801D01*
X6914Y4836D01*
X7397Y4836D01*
X7433Y4801D01*
X7433Y4199D01*
X7397Y4164D01*
X6914Y4164D01*
G37*
%LPD*%
%LPC*%
G36*
X5359Y11864D02*
X5359Y11864D01*
X5159Y12064D01*
X5159Y12346D01*
X5359Y12545D01*
X5641Y12545D01*
X5649Y12538D01*
X5650Y12537D01*
X5651Y12536D01*
X5654Y12534D01*
X5657Y12532D01*
X5658Y12532D01*
X5659Y12531D01*
X5662Y12530D01*
X5666Y12529D01*
X5667Y12529D01*
X5668Y12529D01*
X5672Y12529D01*
X5676Y12530D01*
X5677Y12530D01*
X5678Y12530D01*
X5681Y12532D01*
X5684Y12533D01*
X5685Y12534D01*
X5686Y12534D01*
X5690Y12538D01*
X6266Y13113D01*
X6268Y13116D01*
X6270Y13119D01*
X6271Y13120D01*
X6271Y13121D01*
X6272Y13124D01*
X6274Y13128D01*
X6274Y13129D01*
X6274Y13130D01*
X6274Y13131D01*
X6274Y13134D01*
X6274Y16042D01*
X6833Y16601D01*
X6849Y16601D01*
X6850Y16601D01*
X6851Y16601D01*
X6855Y16602D01*
X6858Y16602D01*
X6859Y16603D01*
X6860Y16603D01*
X6864Y16605D01*
X6867Y16607D01*
X6868Y16608D01*
X6871Y16611D01*
X6873Y16614D01*
X6874Y16615D01*
X6874Y16616D01*
X6876Y16619D01*
X6877Y16623D01*
X6877Y16624D01*
X6878Y16625D01*
X6878Y16630D01*
X6878Y16801D01*
X6914Y16836D01*
X7397Y16836D01*
X7433Y16801D01*
X7433Y16199D01*
X7397Y16164D01*
X6914Y16164D01*
X6878Y16199D01*
X6878Y16290D01*
X6878Y16293D01*
X6878Y16296D01*
X6877Y16298D01*
X6877Y16300D01*
X6875Y16302D01*
X6874Y16305D01*
X6873Y16306D01*
X6872Y16308D01*
X6870Y16310D01*
X6868Y16312D01*
X6867Y16313D01*
X6865Y16315D01*
X6862Y16316D01*
X6860Y16317D01*
X6858Y16318D01*
X6856Y16318D01*
X6853Y16319D01*
X6851Y16319D01*
X6849Y16319D01*
X6847Y16319D01*
X6844Y16319D01*
X6841Y16318D01*
X6839Y16318D01*
X6838Y16317D01*
X6835Y16316D01*
X6832Y16314D01*
X6830Y16312D01*
X6829Y16312D01*
X6828Y16311D01*
X6484Y15967D01*
X6482Y15964D01*
X6480Y15961D01*
X6479Y15960D01*
X6479Y15959D01*
X6478Y15955D01*
X6477Y15953D01*
X6476Y15952D01*
X6476Y15950D01*
X6476Y15949D01*
X6476Y15946D01*
X6476Y13038D01*
X6408Y12970D01*
X5833Y12395D01*
X5832Y12394D01*
X5831Y12394D01*
X5829Y12390D01*
X5827Y12387D01*
X5827Y12386D01*
X5826Y12385D01*
X5826Y12382D01*
X5825Y12378D01*
X5825Y12377D01*
X5824Y12376D01*
X5825Y12372D01*
X5825Y12369D01*
X5825Y12368D01*
X5825Y12367D01*
X5827Y12363D01*
X5828Y12360D01*
X5829Y12359D01*
X5829Y12358D01*
X5833Y12354D01*
X5841Y12346D01*
X5841Y12064D01*
X5641Y11864D01*
X5359Y11864D01*
G37*
%LPD*%
%LPC*%
G36*
X6914Y10164D02*
X6914Y10164D01*
X6878Y10199D01*
X6878Y10370D01*
X6878Y10371D01*
X6878Y10372D01*
X6877Y10376D01*
X6877Y10379D01*
X6876Y10380D01*
X6876Y10381D01*
X6874Y10385D01*
X6872Y10388D01*
X6871Y10389D01*
X6868Y10392D01*
X6865Y10394D01*
X6864Y10395D01*
X6863Y10395D01*
X6860Y10397D01*
X6856Y10398D01*
X6855Y10398D01*
X6854Y10399D01*
X6849Y10399D01*
X6708Y10399D01*
X5914Y11194D01*
X5910Y11196D01*
X5907Y11199D01*
X5906Y11199D01*
X5902Y11201D01*
X5898Y11202D01*
X5897Y11202D01*
X5896Y11202D01*
X5893Y11202D01*
X5870Y11202D01*
X5869Y11202D01*
X5868Y11202D01*
X5864Y11201D01*
X5861Y11201D01*
X5860Y11200D01*
X5859Y11200D01*
X5855Y11198D01*
X5852Y11196D01*
X5851Y11196D01*
X5851Y11195D01*
X5848Y11192D01*
X5846Y11189D01*
X5845Y11188D01*
X5843Y11184D01*
X5842Y11181D01*
X5842Y11180D01*
X5841Y11179D01*
X5841Y11173D01*
X5841Y11162D01*
X5641Y10962D01*
X5359Y10962D01*
X5159Y11162D01*
X5159Y11444D01*
X5359Y11644D01*
X5641Y11644D01*
X5841Y11444D01*
X5841Y11433D01*
X5841Y11432D01*
X5841Y11431D01*
X5842Y11427D01*
X5842Y11424D01*
X5843Y11423D01*
X5843Y11422D01*
X5845Y11419D01*
X5847Y11415D01*
X5848Y11415D01*
X5848Y11414D01*
X5851Y11411D01*
X5854Y11409D01*
X5855Y11408D01*
X5856Y11408D01*
X5859Y11406D01*
X5863Y11405D01*
X5864Y11405D01*
X5865Y11404D01*
X5870Y11404D01*
X5989Y11404D01*
X6783Y10609D01*
X6786Y10607D01*
X6789Y10605D01*
X6790Y10604D01*
X6791Y10604D01*
X6795Y10603D01*
X6798Y10601D01*
X6800Y10601D01*
X6801Y10601D01*
X6804Y10601D01*
X6849Y10601D01*
X6850Y10601D01*
X6851Y10601D01*
X6855Y10602D01*
X6858Y10602D01*
X6859Y10603D01*
X6860Y10603D01*
X6864Y10605D01*
X6867Y10607D01*
X6868Y10608D01*
X6871Y10611D01*
X6873Y10614D01*
X6874Y10615D01*
X6874Y10616D01*
X6876Y10619D01*
X6877Y10623D01*
X6877Y10624D01*
X6878Y10625D01*
X6878Y10630D01*
X6878Y10801D01*
X6914Y10836D01*
X7397Y10836D01*
X7433Y10801D01*
X7433Y10199D01*
X7397Y10164D01*
X6914Y10164D01*
G37*
%LPD*%
%LPC*%
G36*
X3514Y15481D02*
X3514Y15481D01*
X3526Y15587D01*
X3550Y15695D01*
X3587Y15799D01*
X3635Y15899D01*
X3694Y15993D01*
X3763Y16080D01*
X3842Y16158D01*
X3928Y16227D01*
X4022Y16286D01*
X4122Y16334D01*
X4226Y16371D01*
X4334Y16395D01*
X4441Y16407D01*
X4441Y15481D01*
X3514Y15481D01*
G37*
%LPD*%
%LPC*%
G36*
X4559Y15481D02*
X4559Y15481D01*
X4559Y16407D01*
X4666Y16395D01*
X4774Y16371D01*
X4878Y16334D01*
X4978Y16286D01*
X5072Y16227D01*
X5158Y16158D01*
X5237Y16080D01*
X5306Y15993D01*
X5365Y15899D01*
X5413Y15799D01*
X5450Y15695D01*
X5474Y15587D01*
X5486Y15481D01*
X4559Y15481D01*
G37*
%LPD*%
%LPC*%
G36*
X3514Y5638D02*
X3514Y5638D01*
X3526Y5744D01*
X3550Y5852D01*
X3587Y5957D01*
X3635Y6057D01*
X3694Y6151D01*
X3763Y6237D01*
X3842Y6316D01*
X3928Y6385D01*
X4022Y6444D01*
X4122Y6492D01*
X4226Y6528D01*
X4334Y6553D01*
X4441Y6565D01*
X4441Y5638D01*
X3514Y5638D01*
G37*
%LPD*%
%LPC*%
G36*
X4559Y5638D02*
X4559Y5638D01*
X4559Y6565D01*
X4666Y6553D01*
X4774Y6528D01*
X4878Y6492D01*
X4978Y6444D01*
X5072Y6385D01*
X5158Y6316D01*
X5237Y6237D01*
X5306Y6151D01*
X5365Y6057D01*
X5413Y5957D01*
X5450Y5852D01*
X5474Y5744D01*
X5486Y5638D01*
X4559Y5638D01*
G37*
%LPD*%
%LPC*%
G36*
X4559Y5519D02*
X4559Y5519D01*
X5486Y5519D01*
X5474Y5413D01*
X5450Y5305D01*
X5413Y5201D01*
X5365Y5101D01*
X5306Y5007D01*
X5237Y4920D01*
X5158Y4842D01*
X5072Y4773D01*
X4978Y4714D01*
X4878Y4666D01*
X4774Y4629D01*
X4666Y4605D01*
X4559Y4593D01*
X4559Y5519D01*
G37*
%LPD*%
%LPC*%
G36*
X4334Y14447D02*
X4334Y14447D01*
X4226Y14472D01*
X4122Y14508D01*
X4022Y14556D01*
X3928Y14615D01*
X3842Y14684D01*
X3763Y14763D01*
X3694Y14849D01*
X3635Y14943D01*
X3587Y15043D01*
X3550Y15148D01*
X3526Y15256D01*
X3514Y15362D01*
X4441Y15362D01*
X4441Y14435D01*
X4334Y14447D01*
G37*
%LPD*%
%LPC*%
G36*
X4559Y15362D02*
X4559Y15362D01*
X5486Y15362D01*
X5474Y15256D01*
X5450Y15148D01*
X5413Y15043D01*
X5365Y14943D01*
X5306Y14849D01*
X5237Y14763D01*
X5158Y14684D01*
X5072Y14615D01*
X4978Y14556D01*
X4878Y14508D01*
X4774Y14472D01*
X4666Y14447D01*
X4559Y14435D01*
X4559Y15362D01*
G37*
%LPD*%
%LPC*%
G36*
X4334Y4605D02*
X4334Y4605D01*
X4226Y4629D01*
X4122Y4666D01*
X4022Y4714D01*
X3928Y4773D01*
X3842Y4842D01*
X3763Y4920D01*
X3694Y5007D01*
X3635Y5101D01*
X3587Y5201D01*
X3550Y5305D01*
X3526Y5413D01*
X3514Y5519D01*
X4441Y5519D01*
X4441Y4593D01*
X4334Y4605D01*
G37*
%LPD*%
%LPC*%
G36*
X4359Y9610D02*
X4359Y9610D01*
X4159Y9810D01*
X4159Y10092D01*
X4359Y10292D01*
X4641Y10292D01*
X4841Y10092D01*
X4841Y9810D01*
X4641Y9610D01*
X4359Y9610D01*
G37*
%LPD*%
%LPC*%
G36*
X5359Y9159D02*
X5359Y9159D01*
X5159Y9359D01*
X5159Y9641D01*
X5359Y9841D01*
X5641Y9841D01*
X5841Y9641D01*
X5841Y9359D01*
X5641Y9159D01*
X5359Y9159D01*
G37*
%LPD*%
%LPC*%
G36*
X3359Y11864D02*
X3359Y11864D01*
X3159Y12064D01*
X3159Y12346D01*
X3359Y12545D01*
X3641Y12545D01*
X3841Y12346D01*
X3841Y12064D01*
X3641Y11864D01*
X3359Y11864D01*
G37*
%LPD*%
%LPC*%
G36*
X6059Y18809D02*
X6059Y18809D01*
X6059Y19201D01*
X6187Y19201D01*
X6451Y18937D01*
X6451Y18809D01*
X6059Y18809D01*
G37*
%LPD*%
%LPC*%
G36*
X5813Y18299D02*
X5813Y18299D01*
X5549Y18563D01*
X5549Y18691D01*
X5941Y18691D01*
X5941Y18299D01*
X5813Y18299D01*
G37*
%LPD*%
%LPC*%
G36*
X5549Y18809D02*
X5549Y18809D01*
X5549Y18937D01*
X5813Y19201D01*
X5941Y19201D01*
X5941Y18809D01*
X5549Y18809D01*
G37*
%LPD*%
%LPC*%
G36*
X6059Y18299D02*
X6059Y18299D01*
X6059Y18691D01*
X6451Y18691D01*
X6451Y18563D01*
X6187Y18299D01*
X6059Y18299D01*
G37*
%LPD*%
%LPC*%
G36*
X7215Y3559D02*
X7215Y3559D01*
X7215Y3876D01*
X7385Y3876D01*
X7411Y3869D01*
X7434Y3856D01*
X7453Y3837D01*
X7466Y3814D01*
X7473Y3789D01*
X7473Y3559D01*
X7215Y3559D01*
G37*
%LPD*%
%LPC*%
G36*
X7215Y15559D02*
X7215Y15559D01*
X7215Y15876D01*
X7385Y15876D01*
X7411Y15869D01*
X7434Y15856D01*
X7453Y15837D01*
X7466Y15814D01*
X7473Y15789D01*
X7473Y15559D01*
X7215Y15559D01*
G37*
%LPD*%
%LPC*%
G36*
X7215Y9559D02*
X7215Y9559D01*
X7215Y9876D01*
X7385Y9876D01*
X7411Y9869D01*
X7434Y9856D01*
X7453Y9837D01*
X7466Y9814D01*
X7473Y9789D01*
X7473Y9559D01*
X7215Y9559D01*
G37*
%LPD*%
%LPC*%
G36*
X7215Y15124D02*
X7215Y15124D01*
X7215Y15441D01*
X7473Y15441D01*
X7473Y15211D01*
X7466Y15186D01*
X7453Y15163D01*
X7434Y15144D01*
X7411Y15131D01*
X7385Y15124D01*
X7215Y15124D01*
G37*
%LPD*%
%LPC*%
G36*
X7215Y9124D02*
X7215Y9124D01*
X7215Y9441D01*
X7473Y9441D01*
X7473Y9211D01*
X7466Y9186D01*
X7453Y9163D01*
X7434Y9144D01*
X7411Y9131D01*
X7385Y9124D01*
X7215Y9124D01*
G37*
%LPD*%
%LPC*%
G36*
X7215Y3124D02*
X7215Y3124D01*
X7215Y3441D01*
X7473Y3441D01*
X7473Y3211D01*
X7470Y3200D01*
X7466Y3186D01*
X7453Y3163D01*
X7434Y3144D01*
X7411Y3131D01*
X7385Y3124D01*
X7215Y3124D01*
G37*
%LPD*%
%LPC*%
G36*
X6838Y15559D02*
X6838Y15559D01*
X6838Y15789D01*
X6839Y15792D01*
X6845Y15814D01*
X6858Y15837D01*
X6877Y15856D01*
X6900Y15869D01*
X6926Y15876D01*
X7096Y15876D01*
X7096Y15559D01*
X6838Y15559D01*
G37*
%LPD*%
%LPC*%
G36*
X6838Y3559D02*
X6838Y3559D01*
X6838Y3789D01*
X6845Y3814D01*
X6858Y3837D01*
X6877Y3856D01*
X6900Y3869D01*
X6926Y3876D01*
X7096Y3876D01*
X7096Y3559D01*
X6838Y3559D01*
G37*
%LPD*%
%LPC*%
G36*
X6838Y9559D02*
X6838Y9559D01*
X6838Y9789D01*
X6845Y9814D01*
X6858Y9837D01*
X6877Y9856D01*
X6900Y9869D01*
X6926Y9876D01*
X7096Y9876D01*
X7096Y9559D01*
X6838Y9559D01*
G37*
%LPD*%
%LPC*%
G36*
X6926Y9124D02*
X6926Y9124D01*
X6900Y9131D01*
X6877Y9144D01*
X6858Y9163D01*
X6845Y9186D01*
X6838Y9211D01*
X6838Y9441D01*
X7096Y9441D01*
X7096Y9124D01*
X6926Y9124D01*
G37*
%LPD*%
%LPC*%
G36*
X6926Y3124D02*
X6926Y3124D01*
X6900Y3131D01*
X6877Y3144D01*
X6858Y3163D01*
X6845Y3186D01*
X6838Y3211D01*
X6838Y3441D01*
X7096Y3441D01*
X7096Y3124D01*
X6926Y3124D01*
G37*
%LPD*%
%LPC*%
G36*
X6926Y15124D02*
X6926Y15124D01*
X6900Y15131D01*
X6877Y15144D01*
X6858Y15163D01*
X6845Y15186D01*
X6838Y15211D01*
X6838Y15441D01*
X7096Y15441D01*
X7096Y15124D01*
X6926Y15124D01*
G37*
%LPD*%
%LPC*%
G36*
X5119Y8658D02*
X5119Y8658D01*
X5119Y8756D01*
X5342Y8979D01*
X5441Y8979D01*
X5441Y8658D01*
X5119Y8658D01*
G37*
%LPD*%
%LPC*%
G36*
X4119Y10912D02*
X4119Y10912D01*
X4119Y11010D01*
X4342Y11233D01*
X4441Y11233D01*
X4441Y10912D01*
X4119Y10912D01*
G37*
%LPD*%
%LPC*%
G36*
X4119Y12715D02*
X4119Y12715D01*
X4119Y12813D01*
X4342Y13036D01*
X4441Y13036D01*
X4441Y12715D01*
X4119Y12715D01*
G37*
%LPD*%
%LPC*%
G36*
X4119Y9108D02*
X4119Y9108D01*
X4119Y9207D01*
X4342Y9430D01*
X4441Y9430D01*
X4441Y9108D01*
X4119Y9108D01*
G37*
%LPD*%
%LPC*%
G36*
X4119Y11813D02*
X4119Y11813D01*
X4119Y11912D01*
X4342Y12135D01*
X4441Y12135D01*
X4441Y11813D01*
X4119Y11813D01*
G37*
%LPD*%
%LPC*%
G36*
X4559Y10912D02*
X4559Y10912D01*
X4559Y11233D01*
X4658Y11233D01*
X4881Y11010D01*
X4881Y10912D01*
X4559Y10912D01*
G37*
%LPD*%
%LPC*%
G36*
X4559Y12715D02*
X4559Y12715D01*
X4559Y13036D01*
X4658Y13036D01*
X4881Y12813D01*
X4881Y12715D01*
X4559Y12715D01*
G37*
%LPD*%
%LPC*%
G36*
X5559Y8658D02*
X5559Y8658D01*
X5559Y8979D01*
X5658Y8979D01*
X5881Y8756D01*
X5881Y8658D01*
X5559Y8658D01*
G37*
%LPD*%
%LPC*%
G36*
X4559Y9108D02*
X4559Y9108D01*
X4559Y9430D01*
X4658Y9430D01*
X4881Y9207D01*
X4881Y9108D01*
X4559Y9108D01*
G37*
%LPD*%
%LPC*%
G36*
X4559Y11813D02*
X4559Y11813D01*
X4559Y12135D01*
X4658Y12135D01*
X4881Y11912D01*
X4881Y11813D01*
X4559Y11813D01*
G37*
%LPD*%
%LPC*%
G36*
X4342Y12275D02*
X4342Y12275D01*
X4119Y12498D01*
X4119Y12596D01*
X4441Y12596D01*
X4441Y12275D01*
X4342Y12275D01*
G37*
%LPD*%
%LPC*%
G36*
X4342Y11373D02*
X4342Y11373D01*
X4119Y11596D01*
X4119Y11695D01*
X4441Y11695D01*
X4441Y11373D01*
X4342Y11373D01*
G37*
%LPD*%
%LPC*%
G36*
X4342Y8668D02*
X4342Y8668D01*
X4119Y8891D01*
X4119Y8990D01*
X4441Y8990D01*
X4441Y8668D01*
X4342Y8668D01*
G37*
%LPD*%
%LPC*%
G36*
X4342Y10472D02*
X4342Y10472D01*
X4119Y10695D01*
X4119Y10793D01*
X4441Y10793D01*
X4441Y10472D01*
X4342Y10472D01*
G37*
%LPD*%
%LPC*%
G36*
X5342Y8218D02*
X5342Y8218D01*
X5119Y8441D01*
X5119Y8539D01*
X5441Y8539D01*
X5441Y8218D01*
X5342Y8218D01*
G37*
%LPD*%
%LPC*%
G36*
X4559Y11373D02*
X4559Y11373D01*
X4559Y11695D01*
X4881Y11695D01*
X4881Y11596D01*
X4658Y11373D01*
X4559Y11373D01*
G37*
%LPD*%
%LPC*%
G36*
X4559Y8668D02*
X4559Y8668D01*
X4559Y8990D01*
X4881Y8990D01*
X4881Y8892D01*
X4658Y8668D01*
X4559Y8668D01*
G37*
%LPD*%
%LPC*%
G36*
X4559Y10472D02*
X4559Y10472D01*
X4559Y10793D01*
X4881Y10793D01*
X4881Y10695D01*
X4658Y10472D01*
X4559Y10472D01*
G37*
%LPD*%
%LPC*%
G36*
X5559Y8218D02*
X5559Y8218D01*
X5559Y8539D01*
X5881Y8539D01*
X5881Y8441D01*
X5658Y8218D01*
X5559Y8218D01*
G37*
%LPD*%
%LPC*%
G36*
X4559Y12275D02*
X4559Y12275D01*
X4559Y12596D01*
X4881Y12596D01*
X4881Y12498D01*
X4658Y12275D01*
X4559Y12275D01*
G37*
%LPD*%
%LPC*%
G36*
X4499Y15421D02*
X4499Y15421D01*
X4499Y15422D01*
X4501Y15422D01*
X4501Y15421D01*
X4499Y15421D01*
G37*
%LPD*%
%LPC*%
G36*
X5999Y18749D02*
X5999Y18749D01*
X5999Y18751D01*
X6001Y18751D01*
X6001Y18749D01*
X5999Y18749D01*
G37*
%LPD*%
%LPC*%
G36*
X4499Y5578D02*
X4499Y5578D01*
X4499Y5579D01*
X4501Y5579D01*
X4501Y5578D01*
X4499Y5578D01*
G37*
%LPD*%
%LPC*%
G36*
X4499Y12655D02*
X4499Y12655D01*
X4499Y12656D01*
X4501Y12656D01*
X4501Y12655D01*
X4499Y12655D01*
G37*
%LPD*%
%LPC*%
G36*
X5499Y8598D02*
X5499Y8598D01*
X5499Y8599D01*
X5501Y8599D01*
X5501Y8598D01*
X5499Y8598D01*
G37*
%LPD*%
%LPC*%
G36*
X4499Y9048D02*
X4499Y9048D01*
X4499Y9050D01*
X4501Y9050D01*
X4501Y9048D01*
X4499Y9048D01*
G37*
%LPD*%
%LPC*%
G36*
X4499Y11753D02*
X4499Y11753D01*
X4499Y11755D01*
X4501Y11755D01*
X4501Y11753D01*
X4499Y11753D01*
G37*
%LPD*%
%LPC*%
G36*
X4499Y10852D02*
X4499Y10852D01*
X4499Y10853D01*
X4501Y10853D01*
X4501Y10852D01*
X4499Y10852D01*
G37*
%LPD*%
%LPC*%
G36*
X7155Y9499D02*
X7155Y9499D01*
X7155Y9501D01*
X7156Y9501D01*
X7156Y9499D01*
X7155Y9499D01*
G37*
%LPD*%
%LPC*%
G36*
X7155Y3499D02*
X7155Y3499D01*
X7155Y3501D01*
X7156Y3501D01*
X7156Y3499D01*
X7155Y3499D01*
G37*
%LPD*%
%LPC*%
G36*
X7155Y15499D02*
X7155Y15499D01*
X7155Y15501D01*
X7156Y15501D01*
X7156Y15499D01*
X7155Y15499D01*
G37*
%LPD*%
D10*
X5500Y12205D03*
X5500Y11303D03*
X5500Y10402D03*
X5500Y9500D03*
X5500Y8598D03*
X3500Y12205D03*
X3500Y11303D03*
X3500Y10402D03*
X3500Y9500D03*
X3500Y8598D03*
X4500Y12656D03*
X4500Y11754D03*
X4500Y10852D03*
X4500Y9951D03*
X4500Y9049D03*
D11*
X4500Y15421D03*
X4500Y5579D03*
D12*
X9868Y16500D03*
D13*
X9750Y14875D03*
X9750Y18125D03*
D14*
X10500Y17125D03*
X9750Y17125D03*
X9000Y17125D03*
X9750Y15875D03*
X10500Y15875D03*
X9000Y15875D03*
X9000Y19000D03*
X9750Y19000D03*
X10500Y19000D03*
X9000Y14000D03*
X9750Y14000D03*
X10500Y14000D03*
D12*
X9868Y10500D03*
D13*
X9750Y8875D03*
X9750Y12125D03*
D14*
X10500Y11125D03*
X9750Y11125D03*
X9000Y11125D03*
X9750Y9875D03*
X10500Y9875D03*
X9000Y9875D03*
X9000Y13000D03*
X9750Y13000D03*
X10500Y13000D03*
X9000Y8000D03*
X9750Y8000D03*
X10500Y8000D03*
D12*
X9868Y4500D03*
D13*
X9750Y2875D03*
X9750Y6125D03*
D14*
X10500Y5125D03*
X9750Y5125D03*
X9000Y5125D03*
X9750Y3875D03*
X10500Y3875D03*
X9000Y3875D03*
X9000Y7000D03*
X9750Y7000D03*
X10500Y7000D03*
X9000Y2000D03*
X9750Y2000D03*
X10500Y2000D03*
D15*
X7844Y15500D03*
X7156Y15500D03*
X7156Y16500D03*
X7844Y16500D03*
X7156Y9500D03*
X7844Y9500D03*
X7844Y10500D03*
X7156Y10500D03*
X7844Y4500D03*
X7156Y4500D03*
X7844Y3500D03*
X7156Y3500D03*
D16*
X4000Y18750D03*
X3000Y18750D03*
X2000Y18750D03*
X5000Y18750D03*
X6000Y18750D03*
D17*
X500Y500D03*
X2000Y500D03*
X3500Y500D03*
X5000Y500D03*
X6500Y500D03*
X8000Y500D03*
X9500Y500D03*
X500Y2000D03*
X500Y3500D03*
X500Y5000D03*
X500Y6500D03*
X500Y8000D03*
X500Y9500D03*
X500Y11000D03*
X500Y12500D03*
X500Y14000D03*
X500Y15500D03*
X500Y17000D03*
X500Y18500D03*
X500Y20000D03*
X2000Y20000D03*
X3500Y20000D03*
X5000Y20000D03*
X6500Y20000D03*
X8000Y20000D03*
X9500Y20000D03*
X10500Y20000D03*
X10500Y500D03*
D18*
X7125Y8875D03*
X6125Y11500D03*
X6000Y10875D03*
X6625Y11000D03*
X6500Y10375D03*
X6625Y9750D03*
X6125Y10250D03*
X6125Y9375D03*
X6250Y8250D03*
X6750Y8250D03*
X6750Y7000D03*
X6250Y7000D03*
X6250Y6000D03*
X6750Y6000D03*
X6250Y5125D03*
X6750Y5125D03*
X6500Y4375D03*
X6750Y8875D03*
X6625Y3750D03*
X6625Y3250D03*
X7125Y2875D03*
X6625Y15250D03*
X6625Y15750D03*
X6125Y12375D03*
X5750Y12875D03*
X6125Y13250D03*
X6625Y12875D03*
X6625Y13625D03*
X6125Y14125D03*
X6625Y14500D03*
X6125Y15125D03*
X6125Y16000D03*
X6500Y16500D03*
X7125Y14875D03*
D19*
X4000Y18750D02*
X2375Y17125D01*
X2375Y11875D01*
X2947Y11303D01*
X3500Y11303D01*
X5000Y18750D02*
X4125Y19625D01*
X1155Y19216D02*
X1155Y10470D01*
X3027Y8598D02*
X3500Y8598D01*
X3027Y8598D02*
X1155Y10470D01*
X1155Y19216D02*
X1564Y19625D01*
X4125Y19625D01*
D20*
X7844Y4500D02*
X9868Y4500D01*
X7844Y4500D02*
X7844Y3500D01*
X7844Y10500D02*
X9868Y10500D01*
X7844Y10500D02*
X7844Y9500D01*
X7844Y16500D02*
X9868Y16500D01*
X7844Y16500D02*
X7844Y15500D01*
D21*
X6375Y13080D02*
X5500Y12205D01*
X6375Y13080D02*
X6375Y16000D01*
X6875Y16500D01*
X7156Y16500D01*
X7156Y10648D02*
X7156Y10500D01*
X5947Y11303D02*
X5500Y11303D01*
X5947Y11303D02*
X6750Y10500D01*
X7156Y10500D01*
X7125Y4500D02*
X7000Y4500D01*
X7125Y4500D02*
X7156Y4500D01*
X6500Y9402D02*
X5500Y10402D01*
X6500Y4750D02*
X6750Y4500D01*
X7000Y4500D01*
X6500Y4750D02*
X6500Y9402D01*
D19*
X3000Y18750D02*
X2375Y19375D01*
X1625Y19375D01*
X1375Y19125D01*
X1375Y17750D02*
X1625Y17500D01*
X1625Y10875D01*
X3000Y9500D01*
X3500Y9500D01*
X1375Y17750D02*
X1375Y19125D01*
X2000Y18750D02*
X2000Y11500D01*
X3098Y10402D02*
X3500Y10402D01*
X3098Y10402D02*
X2000Y11500D01*
M02*
