G04 EAGLE Gerber X2 export*
%TF.Part,Single*%
%TF.FileFunction,Legend,Top,1*%
%TF.FilePolarity,Positive*%
%TF.GenerationSoftware,Autodesk,EAGLE,9.0.0*%
%TF.CreationDate,2018-05-15T01:06:46Z*%
G75*
%MOIN*%
%FSLAX34Y34*%
%LPD*%
%AMOC8*
5,1,8,0,0,1.08239X$1,22.5*%
G01*
%ADD10C,0.007000*%
%ADD11C,0.005000*%

G36*
X1379Y17726D02*
X1379Y17726D01*
X1382Y17727D01*
X1383Y17727D01*
X1384Y17727D01*
X1387Y17729D01*
X1390Y17731D01*
X1391Y17732D01*
X1393Y17735D01*
X1396Y17737D01*
X1396Y17738D01*
X1396Y17739D01*
X1398Y17742D01*
X1399Y17745D01*
X1399Y17746D01*
X1399Y17747D01*
X1399Y17751D01*
X1399Y17754D01*
X1399Y17755D01*
X1399Y17756D01*
X1397Y17759D01*
X1396Y17762D01*
X1395Y17763D01*
X1395Y17764D01*
X1394Y17764D01*
X1392Y17767D01*
X1017Y18142D01*
X1014Y18144D01*
X1011Y18146D01*
X1011Y18147D01*
X1010Y18147D01*
X1006Y18148D01*
X1003Y18149D01*
X1002Y18149D01*
X998Y18149D01*
X994Y18149D01*
X994Y18148D01*
X993Y18148D01*
X990Y18147D01*
X986Y18145D01*
X985Y18144D01*
X983Y18142D01*
X980Y18139D01*
X980Y18138D01*
X979Y18138D01*
X978Y18134D01*
X977Y18131D01*
X976Y18130D01*
X976Y18128D01*
X976Y18125D01*
X976Y17750D01*
X976Y17747D01*
X976Y17744D01*
X977Y17743D01*
X977Y17741D01*
X979Y17739D01*
X980Y17736D01*
X981Y17735D01*
X982Y17734D01*
X984Y17732D01*
X986Y17730D01*
X987Y17730D01*
X989Y17729D01*
X991Y17728D01*
X994Y17727D01*
X996Y17726D01*
X997Y17726D01*
X998Y17726D01*
X1000Y17726D01*
X1375Y17726D01*
X1379Y17726D01*
G37*
D10*
X1035Y3025D02*
X1198Y2535D01*
X1362Y3025D01*
X1774Y2807D02*
X1855Y2807D01*
X1855Y2535D01*
X1692Y2535D01*
X1673Y2537D01*
X1655Y2542D01*
X1637Y2550D01*
X1622Y2561D01*
X1609Y2574D01*
X1598Y2590D01*
X1590Y2607D01*
X1585Y2625D01*
X1583Y2644D01*
X1583Y2916D01*
X1585Y2935D01*
X1590Y2953D01*
X1598Y2970D01*
X1609Y2986D01*
X1622Y2999D01*
X1637Y3010D01*
X1655Y3018D01*
X1673Y3023D01*
X1692Y3025D01*
X1855Y3025D01*
X2240Y3025D02*
X2077Y2535D01*
X2403Y2535D02*
X2240Y3025D01*
X2362Y2658D02*
X2117Y2658D01*
X2903Y2807D02*
X3039Y2807D01*
X3061Y2805D01*
X3083Y2800D01*
X3104Y2791D01*
X3123Y2778D01*
X3139Y2763D01*
X3153Y2745D01*
X3164Y2726D01*
X3171Y2704D01*
X3175Y2682D01*
X3175Y2660D01*
X3171Y2638D01*
X3164Y2616D01*
X3153Y2597D01*
X3139Y2579D01*
X3123Y2564D01*
X3104Y2551D01*
X3083Y2542D01*
X3061Y2537D01*
X3039Y2535D01*
X2903Y2535D01*
X2903Y3025D01*
X3039Y3025D01*
X3059Y3023D01*
X3078Y3018D01*
X3096Y3009D01*
X3112Y2997D01*
X3126Y2982D01*
X3137Y2965D01*
X3144Y2946D01*
X3148Y2926D01*
X3148Y2906D01*
X3144Y2886D01*
X3137Y2867D01*
X3126Y2850D01*
X3112Y2835D01*
X3096Y2823D01*
X3078Y2814D01*
X3059Y2809D01*
X3039Y2807D01*
X3395Y2862D02*
X3395Y2535D01*
X3395Y2862D02*
X3558Y2862D01*
X3558Y2807D01*
X3809Y2535D02*
X3945Y2535D01*
X3809Y2535D02*
X3793Y2537D01*
X3778Y2541D01*
X3763Y2549D01*
X3751Y2559D01*
X3741Y2571D01*
X3733Y2586D01*
X3729Y2601D01*
X3727Y2617D01*
X3727Y2753D01*
X3729Y2773D01*
X3734Y2792D01*
X3743Y2810D01*
X3755Y2826D01*
X3770Y2840D01*
X3787Y2851D01*
X3806Y2858D01*
X3826Y2862D01*
X3846Y2862D01*
X3866Y2858D01*
X3885Y2851D01*
X3902Y2840D01*
X3917Y2826D01*
X3929Y2810D01*
X3938Y2792D01*
X3943Y2773D01*
X3945Y2753D01*
X3945Y2698D01*
X3727Y2698D01*
X4256Y2726D02*
X4378Y2726D01*
X4256Y2725D02*
X4237Y2723D01*
X4220Y2718D01*
X4203Y2709D01*
X4189Y2697D01*
X4177Y2683D01*
X4168Y2666D01*
X4163Y2649D01*
X4161Y2630D01*
X4163Y2611D01*
X4168Y2594D01*
X4177Y2577D01*
X4189Y2563D01*
X4203Y2551D01*
X4220Y2542D01*
X4237Y2537D01*
X4256Y2535D01*
X4378Y2535D01*
X4378Y2780D01*
X4379Y2780D02*
X4377Y2796D01*
X4373Y2811D01*
X4365Y2826D01*
X4355Y2838D01*
X4343Y2848D01*
X4328Y2856D01*
X4313Y2860D01*
X4297Y2862D01*
X4188Y2862D01*
X4642Y3025D02*
X4642Y2535D01*
X4642Y2698D02*
X4860Y2862D01*
X4737Y2766D02*
X4860Y2535D01*
X5054Y2644D02*
X5054Y2753D01*
X5056Y2773D01*
X5061Y2792D01*
X5070Y2810D01*
X5082Y2826D01*
X5097Y2840D01*
X5114Y2851D01*
X5133Y2858D01*
X5153Y2862D01*
X5173Y2862D01*
X5193Y2858D01*
X5212Y2851D01*
X5229Y2840D01*
X5244Y2826D01*
X5256Y2810D01*
X5265Y2792D01*
X5270Y2773D01*
X5272Y2753D01*
X5272Y2644D01*
X5270Y2624D01*
X5265Y2605D01*
X5256Y2587D01*
X5244Y2571D01*
X5229Y2557D01*
X5212Y2546D01*
X5193Y2539D01*
X5173Y2535D01*
X5153Y2535D01*
X5133Y2539D01*
X5114Y2546D01*
X5097Y2557D01*
X5082Y2571D01*
X5070Y2587D01*
X5061Y2605D01*
X5056Y2624D01*
X5054Y2644D01*
X5508Y2617D02*
X5508Y2862D01*
X5508Y2617D02*
X5510Y2601D01*
X5514Y2586D01*
X5522Y2571D01*
X5532Y2559D01*
X5544Y2549D01*
X5559Y2541D01*
X5574Y2537D01*
X5590Y2535D01*
X5726Y2535D01*
X5726Y2862D01*
X5916Y2862D02*
X6080Y2862D01*
X5971Y3025D02*
X5971Y2617D01*
X5970Y2617D02*
X5972Y2601D01*
X5976Y2586D01*
X5984Y2571D01*
X5994Y2559D01*
X6006Y2549D01*
X6021Y2541D01*
X6036Y2537D01*
X6052Y2535D01*
X6080Y2535D01*
X1698Y1544D02*
X1535Y1775D01*
X1698Y1544D02*
X1862Y1775D01*
X1698Y1544D02*
X1698Y1285D01*
X2152Y1476D02*
X2274Y1476D01*
X2152Y1475D02*
X2133Y1473D01*
X2116Y1468D01*
X2099Y1459D01*
X2085Y1447D01*
X2073Y1433D01*
X2064Y1416D01*
X2059Y1399D01*
X2057Y1380D01*
X2059Y1361D01*
X2064Y1344D01*
X2073Y1327D01*
X2085Y1313D01*
X2099Y1301D01*
X2116Y1292D01*
X2133Y1287D01*
X2152Y1285D01*
X2274Y1285D01*
X2274Y1530D01*
X2275Y1530D02*
X2273Y1546D01*
X2269Y1561D01*
X2261Y1576D01*
X2251Y1588D01*
X2239Y1598D01*
X2224Y1606D01*
X2209Y1610D01*
X2193Y1612D01*
X2084Y1612D01*
X2534Y1612D02*
X2534Y1122D01*
X2534Y1612D02*
X2670Y1612D01*
X2686Y1610D01*
X2701Y1606D01*
X2716Y1598D01*
X2728Y1588D01*
X2738Y1576D01*
X2746Y1561D01*
X2750Y1546D01*
X2752Y1530D01*
X2751Y1530D02*
X2751Y1367D01*
X2752Y1367D02*
X2750Y1351D01*
X2746Y1336D01*
X2738Y1321D01*
X2728Y1309D01*
X2716Y1299D01*
X2701Y1291D01*
X2686Y1287D01*
X2670Y1285D01*
X2534Y1285D01*
X2967Y1394D02*
X2967Y1503D01*
X2969Y1523D01*
X2974Y1542D01*
X2983Y1560D01*
X2995Y1576D01*
X3010Y1590D01*
X3027Y1601D01*
X3046Y1608D01*
X3066Y1612D01*
X3086Y1612D01*
X3106Y1608D01*
X3125Y1601D01*
X3142Y1590D01*
X3157Y1576D01*
X3169Y1560D01*
X3178Y1542D01*
X3183Y1523D01*
X3185Y1503D01*
X3185Y1394D01*
X3183Y1374D01*
X3178Y1355D01*
X3169Y1337D01*
X3157Y1321D01*
X3142Y1307D01*
X3125Y1296D01*
X3106Y1289D01*
X3086Y1285D01*
X3066Y1285D01*
X3046Y1289D01*
X3027Y1296D01*
X3010Y1307D01*
X2995Y1321D01*
X2983Y1337D01*
X2974Y1355D01*
X2969Y1374D01*
X2967Y1394D01*
X3829Y1776D02*
X3850Y1774D01*
X3871Y1769D01*
X3891Y1760D01*
X3908Y1747D01*
X3923Y1732D01*
X3936Y1715D01*
X3945Y1695D01*
X3950Y1674D01*
X3952Y1653D01*
X3829Y1775D02*
X3807Y1773D01*
X3786Y1769D01*
X3765Y1761D01*
X3746Y1751D01*
X3728Y1738D01*
X3712Y1723D01*
X3699Y1706D01*
X3688Y1687D01*
X3680Y1666D01*
X3911Y1557D02*
X3925Y1573D01*
X3937Y1591D01*
X3945Y1611D01*
X3950Y1632D01*
X3952Y1653D01*
X3910Y1557D02*
X3679Y1285D01*
X3951Y1285D01*
X4183Y1530D02*
X4185Y1567D01*
X4190Y1603D01*
X4198Y1639D01*
X4209Y1673D01*
X4224Y1707D01*
X4223Y1707D02*
X4231Y1723D01*
X4241Y1738D01*
X4253Y1751D01*
X4268Y1761D01*
X4284Y1769D01*
X4301Y1773D01*
X4319Y1775D01*
X4337Y1773D01*
X4354Y1769D01*
X4370Y1761D01*
X4385Y1751D01*
X4397Y1738D01*
X4407Y1723D01*
X4415Y1707D01*
X4414Y1707D02*
X4429Y1673D01*
X4440Y1639D01*
X4448Y1603D01*
X4453Y1567D01*
X4455Y1530D01*
X4183Y1530D02*
X4185Y1493D01*
X4190Y1457D01*
X4198Y1421D01*
X4209Y1387D01*
X4224Y1353D01*
X4223Y1353D02*
X4231Y1337D01*
X4241Y1322D01*
X4253Y1309D01*
X4268Y1299D01*
X4284Y1291D01*
X4301Y1287D01*
X4319Y1285D01*
X4414Y1353D02*
X4429Y1387D01*
X4440Y1421D01*
X4448Y1457D01*
X4453Y1493D01*
X4455Y1530D01*
X4415Y1353D02*
X4407Y1337D01*
X4397Y1322D01*
X4385Y1309D01*
X4370Y1299D01*
X4354Y1291D01*
X4337Y1287D01*
X4319Y1285D01*
X4210Y1394D02*
X4428Y1666D01*
X4687Y1666D02*
X4823Y1775D01*
X4823Y1285D01*
X4687Y1285D02*
X4959Y1285D01*
X5191Y1421D02*
X5193Y1443D01*
X5198Y1465D01*
X5207Y1486D01*
X5220Y1505D01*
X5235Y1521D01*
X5253Y1535D01*
X5272Y1546D01*
X5294Y1553D01*
X5316Y1557D01*
X5338Y1557D01*
X5360Y1553D01*
X5382Y1546D01*
X5401Y1535D01*
X5419Y1521D01*
X5434Y1505D01*
X5447Y1486D01*
X5456Y1465D01*
X5461Y1443D01*
X5463Y1421D01*
X5461Y1399D01*
X5456Y1377D01*
X5447Y1356D01*
X5434Y1337D01*
X5419Y1321D01*
X5401Y1307D01*
X5382Y1296D01*
X5360Y1289D01*
X5338Y1285D01*
X5316Y1285D01*
X5294Y1289D01*
X5272Y1296D01*
X5253Y1307D01*
X5235Y1321D01*
X5220Y1337D01*
X5207Y1356D01*
X5198Y1377D01*
X5193Y1399D01*
X5191Y1421D01*
X5218Y1666D02*
X5220Y1686D01*
X5225Y1705D01*
X5234Y1723D01*
X5246Y1739D01*
X5261Y1753D01*
X5278Y1764D01*
X5297Y1771D01*
X5317Y1775D01*
X5337Y1775D01*
X5357Y1771D01*
X5376Y1764D01*
X5393Y1753D01*
X5408Y1739D01*
X5420Y1723D01*
X5429Y1705D01*
X5434Y1686D01*
X5436Y1666D01*
X5434Y1646D01*
X5429Y1627D01*
X5420Y1609D01*
X5408Y1593D01*
X5393Y1579D01*
X5376Y1568D01*
X5357Y1561D01*
X5337Y1557D01*
X5317Y1557D01*
X5297Y1561D01*
X5278Y1568D01*
X5261Y1579D01*
X5246Y1593D01*
X5234Y1609D01*
X5225Y1627D01*
X5220Y1646D01*
X5218Y1666D01*
X7818Y10601D02*
X7818Y10682D01*
X8090Y10682D01*
X8090Y10519D01*
X8088Y10500D01*
X8083Y10482D01*
X8075Y10465D01*
X8064Y10449D01*
X8051Y10436D01*
X8036Y10425D01*
X8018Y10417D01*
X8000Y10412D01*
X7981Y10410D01*
X7709Y10410D01*
X7690Y10412D01*
X7672Y10417D01*
X7655Y10425D01*
X7639Y10436D01*
X7626Y10449D01*
X7615Y10464D01*
X7607Y10482D01*
X7602Y10500D01*
X7600Y10519D01*
X7600Y10682D01*
X7763Y10945D02*
X8090Y10945D01*
X7763Y10945D02*
X7763Y11108D01*
X7818Y11108D01*
X8090Y11359D02*
X8090Y11495D01*
X8090Y11359D02*
X8088Y11343D01*
X8084Y11328D01*
X8076Y11313D01*
X8066Y11301D01*
X8054Y11291D01*
X8039Y11283D01*
X8024Y11279D01*
X8008Y11277D01*
X7872Y11277D01*
X7852Y11279D01*
X7833Y11284D01*
X7815Y11293D01*
X7799Y11305D01*
X7785Y11320D01*
X7774Y11337D01*
X7767Y11356D01*
X7763Y11376D01*
X7763Y11396D01*
X7767Y11416D01*
X7774Y11435D01*
X7785Y11452D01*
X7799Y11467D01*
X7815Y11479D01*
X7833Y11488D01*
X7852Y11493D01*
X7872Y11495D01*
X7927Y11495D01*
X7927Y11277D01*
X8090Y11796D02*
X8090Y11932D01*
X8090Y11796D02*
X8088Y11780D01*
X8084Y11765D01*
X8076Y11750D01*
X8066Y11738D01*
X8054Y11728D01*
X8039Y11720D01*
X8024Y11716D01*
X8008Y11714D01*
X7872Y11714D01*
X7852Y11716D01*
X7833Y11721D01*
X7815Y11730D01*
X7799Y11742D01*
X7785Y11757D01*
X7774Y11774D01*
X7767Y11793D01*
X7763Y11813D01*
X7763Y11833D01*
X7767Y11853D01*
X7774Y11872D01*
X7785Y11889D01*
X7799Y11904D01*
X7815Y11916D01*
X7833Y11925D01*
X7852Y11930D01*
X7872Y11932D01*
X7927Y11932D01*
X7927Y11714D01*
X8090Y12168D02*
X7763Y12168D01*
X7763Y12304D01*
X7765Y12320D01*
X7769Y12335D01*
X7777Y12350D01*
X7787Y12362D01*
X7799Y12372D01*
X7814Y12380D01*
X7829Y12384D01*
X7845Y12386D01*
X7845Y12385D02*
X8090Y12385D01*
X7818Y4546D02*
X7818Y4410D01*
X7818Y4546D02*
X7820Y4568D01*
X7825Y4590D01*
X7834Y4611D01*
X7847Y4630D01*
X7862Y4646D01*
X7880Y4660D01*
X7899Y4671D01*
X7921Y4678D01*
X7943Y4682D01*
X7965Y4682D01*
X7987Y4678D01*
X8009Y4671D01*
X8028Y4660D01*
X8046Y4646D01*
X8061Y4630D01*
X8074Y4611D01*
X8083Y4590D01*
X8088Y4568D01*
X8090Y4546D01*
X8090Y4410D01*
X7600Y4410D01*
X7600Y4546D01*
X7602Y4566D01*
X7607Y4585D01*
X7616Y4603D01*
X7628Y4619D01*
X7643Y4633D01*
X7660Y4644D01*
X7679Y4651D01*
X7699Y4655D01*
X7719Y4655D01*
X7739Y4651D01*
X7758Y4644D01*
X7775Y4633D01*
X7790Y4619D01*
X7802Y4603D01*
X7811Y4585D01*
X7816Y4566D01*
X7818Y4546D01*
X8008Y4885D02*
X7600Y4885D01*
X8008Y4885D02*
X8024Y4887D01*
X8039Y4891D01*
X8054Y4899D01*
X8066Y4909D01*
X8076Y4921D01*
X8084Y4936D01*
X8088Y4951D01*
X8090Y4967D01*
X8008Y5167D02*
X7763Y5167D01*
X8008Y5167D02*
X8024Y5169D01*
X8039Y5173D01*
X8054Y5181D01*
X8066Y5191D01*
X8076Y5203D01*
X8084Y5218D01*
X8088Y5233D01*
X8090Y5249D01*
X8090Y5385D01*
X7763Y5385D01*
X8090Y5702D02*
X8090Y5838D01*
X8090Y5702D02*
X8088Y5686D01*
X8084Y5671D01*
X8076Y5656D01*
X8066Y5644D01*
X8054Y5634D01*
X8039Y5626D01*
X8024Y5622D01*
X8008Y5620D01*
X7872Y5620D01*
X7852Y5622D01*
X7833Y5627D01*
X7815Y5636D01*
X7799Y5648D01*
X7785Y5663D01*
X7774Y5680D01*
X7767Y5699D01*
X7763Y5719D01*
X7763Y5739D01*
X7767Y5759D01*
X7774Y5778D01*
X7785Y5795D01*
X7799Y5810D01*
X7815Y5822D01*
X7833Y5831D01*
X7852Y5836D01*
X7872Y5838D01*
X7927Y5838D01*
X7927Y5620D01*
X8090Y16410D02*
X7600Y16410D01*
X7600Y16546D01*
X7602Y16568D01*
X7607Y16590D01*
X7616Y16611D01*
X7629Y16630D01*
X7644Y16646D01*
X7662Y16660D01*
X7681Y16671D01*
X7703Y16678D01*
X7725Y16682D01*
X7747Y16682D01*
X7769Y16678D01*
X7791Y16671D01*
X7810Y16660D01*
X7828Y16646D01*
X7843Y16630D01*
X7856Y16611D01*
X7865Y16590D01*
X7870Y16568D01*
X7872Y16546D01*
X7872Y16410D01*
X7872Y16573D02*
X8090Y16682D01*
X8090Y16985D02*
X8090Y17121D01*
X8090Y16985D02*
X8088Y16969D01*
X8084Y16954D01*
X8076Y16939D01*
X8066Y16927D01*
X8054Y16917D01*
X8039Y16909D01*
X8024Y16905D01*
X8008Y16903D01*
X7872Y16903D01*
X7852Y16905D01*
X7833Y16910D01*
X7815Y16919D01*
X7799Y16931D01*
X7785Y16946D01*
X7774Y16963D01*
X7767Y16982D01*
X7763Y17002D01*
X7763Y17022D01*
X7767Y17042D01*
X7774Y17061D01*
X7785Y17078D01*
X7799Y17093D01*
X7815Y17105D01*
X7833Y17114D01*
X7852Y17119D01*
X7872Y17121D01*
X7927Y17121D01*
X7927Y16903D01*
X8090Y17555D02*
X7600Y17555D01*
X8090Y17555D02*
X8090Y17419D01*
X8088Y17403D01*
X8084Y17388D01*
X8076Y17373D01*
X8066Y17361D01*
X8054Y17351D01*
X8039Y17343D01*
X8024Y17339D01*
X8008Y17337D01*
X7845Y17337D01*
X7829Y17339D01*
X7814Y17343D01*
X7799Y17351D01*
X7787Y17361D01*
X7777Y17373D01*
X7769Y17388D01*
X7765Y17403D01*
X7763Y17419D01*
X7763Y17555D01*
X6628Y16390D02*
X6628Y16308D01*
X6628Y16390D02*
X6900Y16390D01*
X6900Y16226D01*
X6898Y16207D01*
X6893Y16189D01*
X6885Y16172D01*
X6874Y16156D01*
X6861Y16143D01*
X6846Y16132D01*
X6828Y16124D01*
X6810Y16119D01*
X6791Y16117D01*
X6791Y16118D02*
X6519Y16118D01*
X6519Y16117D02*
X6500Y16119D01*
X6482Y16124D01*
X6465Y16132D01*
X6449Y16143D01*
X6436Y16156D01*
X6425Y16171D01*
X6417Y16189D01*
X6412Y16207D01*
X6410Y16226D01*
X6410Y16390D01*
X6410Y16655D02*
X6900Y16655D01*
X6900Y16927D02*
X6410Y16655D01*
X6410Y16927D02*
X6900Y16927D01*
X6900Y17193D02*
X6410Y17193D01*
X6410Y17329D01*
X6412Y17350D01*
X6417Y17371D01*
X6425Y17391D01*
X6436Y17409D01*
X6450Y17425D01*
X6466Y17439D01*
X6484Y17450D01*
X6504Y17458D01*
X6525Y17463D01*
X6546Y17465D01*
X6764Y17465D01*
X6785Y17463D01*
X6806Y17458D01*
X6826Y17450D01*
X6844Y17439D01*
X6860Y17425D01*
X6874Y17409D01*
X6885Y17391D01*
X6893Y17371D01*
X6898Y17350D01*
X6900Y17329D01*
X6900Y17193D01*
X5900Y16485D02*
X5898Y16504D01*
X5893Y16522D01*
X5885Y16540D01*
X5874Y16555D01*
X5861Y16568D01*
X5846Y16579D01*
X5828Y16587D01*
X5810Y16592D01*
X5791Y16594D01*
X5900Y16485D02*
X5899Y16459D01*
X5894Y16434D01*
X5887Y16409D01*
X5877Y16385D01*
X5864Y16362D01*
X5849Y16341D01*
X5832Y16322D01*
X5519Y16335D02*
X5500Y16337D01*
X5482Y16342D01*
X5465Y16350D01*
X5449Y16361D01*
X5436Y16374D01*
X5425Y16390D01*
X5417Y16407D01*
X5412Y16425D01*
X5410Y16444D01*
X5412Y16470D01*
X5417Y16496D01*
X5425Y16521D01*
X5436Y16544D01*
X5451Y16566D01*
X5519Y16335D02*
X5538Y16337D01*
X5557Y16342D01*
X5574Y16350D01*
X5590Y16361D01*
X5603Y16374D01*
X5615Y16390D01*
X5695Y16540D02*
X5707Y16556D01*
X5720Y16569D01*
X5736Y16580D01*
X5753Y16588D01*
X5772Y16593D01*
X5791Y16595D01*
X5696Y16540D02*
X5614Y16390D01*
X5900Y16916D02*
X5900Y17025D01*
X5900Y16916D02*
X5898Y16897D01*
X5893Y16879D01*
X5885Y16862D01*
X5874Y16846D01*
X5861Y16833D01*
X5846Y16822D01*
X5828Y16814D01*
X5810Y16809D01*
X5791Y16807D01*
X5519Y16807D01*
X5500Y16809D01*
X5482Y16814D01*
X5465Y16822D01*
X5449Y16833D01*
X5436Y16846D01*
X5425Y16861D01*
X5417Y16879D01*
X5412Y16897D01*
X5410Y16916D01*
X5410Y17025D01*
X5410Y17247D02*
X5900Y17247D01*
X5900Y17465D01*
X4775Y16304D02*
X4773Y16323D01*
X4768Y16341D01*
X4760Y16359D01*
X4749Y16374D01*
X4736Y16387D01*
X4721Y16398D01*
X4703Y16406D01*
X4685Y16411D01*
X4666Y16413D01*
X4775Y16304D02*
X4774Y16278D01*
X4769Y16253D01*
X4762Y16228D01*
X4752Y16204D01*
X4739Y16181D01*
X4724Y16160D01*
X4707Y16141D01*
X4394Y16154D02*
X4375Y16156D01*
X4357Y16161D01*
X4340Y16169D01*
X4324Y16180D01*
X4311Y16193D01*
X4300Y16209D01*
X4292Y16226D01*
X4287Y16244D01*
X4285Y16263D01*
X4287Y16289D01*
X4292Y16315D01*
X4300Y16340D01*
X4311Y16363D01*
X4326Y16385D01*
X4394Y16154D02*
X4413Y16156D01*
X4432Y16161D01*
X4449Y16169D01*
X4465Y16180D01*
X4478Y16193D01*
X4490Y16209D01*
X4570Y16358D02*
X4582Y16374D01*
X4595Y16387D01*
X4611Y16398D01*
X4628Y16406D01*
X4647Y16411D01*
X4666Y16413D01*
X4571Y16359D02*
X4489Y16209D01*
X4285Y16645D02*
X4775Y16645D01*
X4285Y16645D02*
X4285Y16781D01*
X4287Y16802D01*
X4292Y16823D01*
X4300Y16843D01*
X4311Y16861D01*
X4325Y16877D01*
X4341Y16891D01*
X4359Y16902D01*
X4379Y16910D01*
X4400Y16915D01*
X4421Y16917D01*
X4639Y16917D01*
X4660Y16915D01*
X4681Y16910D01*
X4701Y16902D01*
X4719Y16891D01*
X4735Y16877D01*
X4749Y16861D01*
X4760Y16843D01*
X4768Y16823D01*
X4773Y16802D01*
X4775Y16781D01*
X4775Y16645D01*
X4775Y17138D02*
X4285Y17302D01*
X4775Y17465D01*
X4653Y17424D02*
X4653Y17179D01*
X3775Y16842D02*
X3285Y16678D01*
X3285Y17005D02*
X3775Y16842D01*
X3775Y17356D02*
X3773Y17375D01*
X3768Y17393D01*
X3760Y17411D01*
X3749Y17426D01*
X3736Y17439D01*
X3721Y17450D01*
X3703Y17458D01*
X3685Y17463D01*
X3666Y17465D01*
X3775Y17356D02*
X3774Y17330D01*
X3769Y17305D01*
X3762Y17280D01*
X3752Y17256D01*
X3739Y17233D01*
X3724Y17212D01*
X3707Y17193D01*
X3394Y17206D02*
X3375Y17208D01*
X3357Y17213D01*
X3340Y17221D01*
X3324Y17232D01*
X3311Y17245D01*
X3300Y17261D01*
X3292Y17278D01*
X3287Y17296D01*
X3285Y17315D01*
X3287Y17341D01*
X3292Y17367D01*
X3300Y17392D01*
X3311Y17415D01*
X3326Y17437D01*
X3394Y17206D02*
X3413Y17208D01*
X3432Y17213D01*
X3449Y17221D01*
X3465Y17232D01*
X3478Y17245D01*
X3490Y17261D01*
X3570Y17410D02*
X3582Y17426D01*
X3595Y17439D01*
X3611Y17450D01*
X3628Y17458D01*
X3647Y17463D01*
X3666Y17465D01*
X3571Y17411D02*
X3489Y17261D01*
X2775Y16689D02*
X2285Y16689D01*
X2503Y16689D02*
X2503Y16961D01*
X2285Y16961D02*
X2775Y16961D01*
X2775Y17356D02*
X2773Y17375D01*
X2768Y17393D01*
X2760Y17411D01*
X2749Y17426D01*
X2736Y17439D01*
X2721Y17450D01*
X2703Y17458D01*
X2685Y17463D01*
X2666Y17465D01*
X2775Y17356D02*
X2774Y17330D01*
X2769Y17305D01*
X2762Y17280D01*
X2752Y17256D01*
X2739Y17233D01*
X2724Y17212D01*
X2707Y17193D01*
X2394Y17206D02*
X2375Y17208D01*
X2357Y17213D01*
X2340Y17221D01*
X2324Y17232D01*
X2311Y17245D01*
X2300Y17261D01*
X2292Y17278D01*
X2287Y17296D01*
X2285Y17315D01*
X2287Y17341D01*
X2292Y17367D01*
X2300Y17392D01*
X2311Y17415D01*
X2326Y17437D01*
X2394Y17206D02*
X2413Y17208D01*
X2432Y17213D01*
X2449Y17221D01*
X2465Y17232D01*
X2478Y17245D01*
X2490Y17261D01*
X2570Y17410D02*
X2582Y17426D01*
X2595Y17439D01*
X2611Y17450D01*
X2628Y17458D01*
X2647Y17463D01*
X2666Y17465D01*
X2571Y17411D02*
X2489Y17261D01*
X1584Y16423D02*
X1584Y16097D01*
X1421Y16260D02*
X1748Y16260D01*
X1775Y16662D02*
X1775Y16825D01*
X1773Y16844D01*
X1768Y16862D01*
X1760Y16880D01*
X1749Y16895D01*
X1736Y16908D01*
X1721Y16919D01*
X1703Y16927D01*
X1685Y16932D01*
X1666Y16934D01*
X1612Y16934D01*
X1593Y16932D01*
X1575Y16927D01*
X1558Y16919D01*
X1542Y16908D01*
X1529Y16895D01*
X1518Y16880D01*
X1510Y16862D01*
X1505Y16844D01*
X1503Y16825D01*
X1503Y16662D01*
X1285Y16662D01*
X1285Y16934D01*
X1285Y17138D02*
X1775Y17302D01*
X1285Y17465D01*
D11*
X0Y15815D02*
X0Y3685D01*
X6378Y3685D02*
X6378Y15815D01*
X0Y15815D01*
X0Y3685D02*
X6378Y3685D01*
X-8Y13096D02*
X-1872Y13096D01*
X-1872Y13097D02*
X-1914Y13095D01*
X-1955Y13089D01*
X-1995Y13080D01*
X-2035Y13067D01*
X-2073Y13050D01*
X-2109Y13029D01*
X-2144Y13006D01*
X-2176Y12979D01*
X-2205Y12950D01*
X-2232Y12918D01*
X-2255Y12883D01*
X-2276Y12847D01*
X-2293Y12809D01*
X-2306Y12769D01*
X-2315Y12729D01*
X-2321Y12688D01*
X-2323Y12646D01*
X-2323Y6854D01*
X-2321Y6812D01*
X-2315Y6771D01*
X-2306Y6731D01*
X-2293Y6691D01*
X-2276Y6653D01*
X-2255Y6617D01*
X-2232Y6582D01*
X-2205Y6550D01*
X-2176Y6521D01*
X-2144Y6494D01*
X-2109Y6471D01*
X-2073Y6450D01*
X-2035Y6433D01*
X-1995Y6420D01*
X-1955Y6411D01*
X-1914Y6405D01*
X-1872Y6403D01*
X-1872Y6404D02*
X-8Y6404D01*
X11000Y17620D02*
X11591Y17620D01*
X11591Y16783D01*
X11591Y14717D01*
X11591Y13880D01*
X11000Y13880D01*
X11000Y17620D01*
X11591Y16783D02*
X14543Y16783D01*
X14100Y14717D02*
X11591Y14717D01*
X14543Y14717D02*
X14543Y16783D01*
X14543Y14717D02*
X14150Y14717D01*
X12870Y14618D02*
X12722Y16882D01*
X12969Y16882D02*
X13116Y14618D01*
X13362Y14618D02*
X13215Y16882D01*
X13461Y16882D02*
X13608Y14618D01*
X13854Y14618D02*
X13707Y16882D01*
X13953Y16882D02*
X14100Y14618D01*
X11591Y11620D02*
X11000Y11620D01*
X11591Y11620D02*
X11591Y10783D01*
X11591Y8717D01*
X11591Y7880D01*
X11000Y7880D01*
X11000Y11620D01*
X11591Y10783D02*
X14543Y10783D01*
X14100Y8717D02*
X11591Y8717D01*
X14543Y8717D02*
X14543Y10783D01*
X14543Y8717D02*
X14150Y8717D01*
X12870Y8618D02*
X12722Y10882D01*
X12969Y10882D02*
X13116Y8618D01*
X13362Y8618D02*
X13215Y10882D01*
X13461Y10882D02*
X13608Y8618D01*
X13854Y8618D02*
X13707Y10882D01*
X13953Y10882D02*
X14100Y8618D01*
X11591Y5620D02*
X11000Y5620D01*
X11591Y5620D02*
X11591Y4783D01*
X11591Y2717D01*
X11591Y1880D01*
X11000Y1880D01*
X11000Y5620D01*
X11591Y4783D02*
X14543Y4783D01*
X14100Y2717D02*
X11591Y2717D01*
X14543Y2717D02*
X14543Y4783D01*
X14543Y2717D02*
X14150Y2717D01*
X12870Y2618D02*
X12722Y4882D01*
X12969Y4882D02*
X13116Y2618D01*
X13362Y2618D02*
X13215Y4882D01*
X13461Y4882D02*
X13608Y2618D01*
X13854Y2618D02*
X13707Y4882D01*
X13953Y4882D02*
X14100Y2618D01*
X8130Y14396D02*
X6870Y14396D01*
X6870Y15104D01*
X8130Y15104D01*
X8130Y14396D01*
X8130Y16104D02*
X6870Y16104D01*
X8130Y16104D02*
X8130Y15396D01*
X6870Y15396D01*
X6870Y16104D01*
X6870Y9104D02*
X8130Y9104D01*
X8130Y8396D01*
X6870Y8396D01*
X6870Y9104D01*
X6870Y9396D02*
X8130Y9396D01*
X6870Y9396D02*
X6870Y10104D01*
X8130Y10104D01*
X8130Y9396D01*
X8130Y3396D02*
X6870Y3396D01*
X6870Y4104D01*
X8130Y4104D01*
X8130Y3396D01*
X8130Y2396D02*
X6870Y2396D01*
X6870Y3104D01*
X8130Y3104D01*
X8130Y2396D01*
X7000Y18750D02*
X1000Y18750D01*
X7000Y18750D02*
X7000Y17750D01*
X1000Y17750D01*
X1000Y18750D01*
M02*
