G04 EAGLE Gerber X2 export*
%TF.Part,Single*%
%TF.FileFunction,Soldermask,Top,1*%
%TF.FilePolarity,Negative*%
%TF.GenerationSoftware,Autodesk,EAGLE,9.0.0*%
%TF.CreationDate,2018-05-12T16:03:39Z*%
G75*
%MOIN*%
%FSLAX34Y34*%
%LPD*%
%AMOC8*
5,1,8,0,0,1.08239X$1,22.5*%
G01*
%ADD10P,0.082117X8X292.500000*%
%ADD11C,0.182165*%
%ADD12R,0.230000X0.046000*%
%ADD13R,0.255000X0.105000*%
%ADD14C,0.028780*%
%ADD15R,0.048307X0.060118*%
%ADD16P,0.081179X8X22.500000*%
%ADD17C,0.037480*%
%ADD18C,0.026811*%

G36*
X11003Y16661D02*
X11003Y16661D01*
X11005Y16661D01*
X11008Y16662D01*
X11011Y16662D01*
X11013Y16663D01*
X11016Y16664D01*
X11018Y16666D01*
X11021Y16667D01*
X11023Y16669D01*
X11025Y16670D01*
X11027Y16672D01*
X11030Y16674D01*
X11031Y16676D01*
X11033Y16678D01*
X11034Y16681D01*
X11036Y16683D01*
X11036Y16686D01*
X11037Y16688D01*
X11038Y16691D01*
X11039Y16694D01*
X11039Y16697D01*
X11039Y16700D01*
X11039Y18500D01*
X11039Y18503D01*
X11039Y18505D01*
X11038Y18508D01*
X11038Y18511D01*
X11037Y18513D01*
X11036Y18516D01*
X11034Y18518D01*
X11033Y18521D01*
X11031Y18523D01*
X11030Y18525D01*
X11028Y18527D01*
X11026Y18530D01*
X11024Y18531D01*
X11022Y18533D01*
X11019Y18534D01*
X11017Y18536D01*
X11014Y18536D01*
X11012Y18537D01*
X11009Y18538D01*
X11006Y18539D01*
X11003Y18539D01*
X11000Y18539D01*
X8500Y18539D01*
X8497Y18539D01*
X8495Y18539D01*
X8492Y18538D01*
X8489Y18538D01*
X8487Y18537D01*
X8484Y18536D01*
X8482Y18534D01*
X8479Y18533D01*
X8477Y18531D01*
X8475Y18530D01*
X8473Y18528D01*
X8470Y18526D01*
X8469Y18524D01*
X8467Y18522D01*
X8466Y18519D01*
X8464Y18517D01*
X8464Y18514D01*
X8463Y18512D01*
X8462Y18509D01*
X8461Y18506D01*
X8461Y18503D01*
X8461Y18500D01*
X8461Y16700D01*
X8461Y16697D01*
X8461Y16695D01*
X8462Y16692D01*
X8462Y16689D01*
X8463Y16687D01*
X8464Y16684D01*
X8466Y16682D01*
X8467Y16679D01*
X8469Y16677D01*
X8470Y16675D01*
X8472Y16673D01*
X8474Y16670D01*
X8476Y16669D01*
X8478Y16667D01*
X8481Y16666D01*
X8483Y16664D01*
X8486Y16664D01*
X8488Y16663D01*
X8491Y16662D01*
X8494Y16661D01*
X8497Y16661D01*
X8500Y16661D01*
X11000Y16661D01*
X11003Y16661D01*
G37*
G36*
X11003Y12961D02*
X11003Y12961D01*
X11005Y12961D01*
X11008Y12962D01*
X11011Y12962D01*
X11013Y12963D01*
X11016Y12964D01*
X11018Y12966D01*
X11021Y12967D01*
X11023Y12969D01*
X11025Y12970D01*
X11027Y12972D01*
X11030Y12974D01*
X11031Y12976D01*
X11033Y12978D01*
X11034Y12981D01*
X11036Y12983D01*
X11036Y12986D01*
X11037Y12988D01*
X11038Y12991D01*
X11039Y12994D01*
X11039Y12997D01*
X11039Y13000D01*
X11039Y14800D01*
X11039Y14803D01*
X11039Y14805D01*
X11038Y14808D01*
X11038Y14811D01*
X11037Y14813D01*
X11036Y14816D01*
X11034Y14818D01*
X11033Y14821D01*
X11031Y14823D01*
X11030Y14825D01*
X11028Y14827D01*
X11026Y14830D01*
X11024Y14831D01*
X11022Y14833D01*
X11019Y14834D01*
X11017Y14836D01*
X11014Y14836D01*
X11012Y14837D01*
X11009Y14838D01*
X11006Y14839D01*
X11003Y14839D01*
X11000Y14839D01*
X8500Y14839D01*
X8497Y14839D01*
X8495Y14839D01*
X8492Y14838D01*
X8489Y14838D01*
X8487Y14837D01*
X8484Y14836D01*
X8482Y14834D01*
X8479Y14833D01*
X8477Y14831D01*
X8475Y14830D01*
X8473Y14828D01*
X8470Y14826D01*
X8469Y14824D01*
X8467Y14822D01*
X8466Y14819D01*
X8464Y14817D01*
X8464Y14814D01*
X8463Y14812D01*
X8462Y14809D01*
X8461Y14806D01*
X8461Y14803D01*
X8461Y14800D01*
X8461Y13000D01*
X8461Y12997D01*
X8461Y12995D01*
X8462Y12992D01*
X8462Y12989D01*
X8463Y12987D01*
X8464Y12984D01*
X8466Y12982D01*
X8467Y12979D01*
X8469Y12977D01*
X8470Y12975D01*
X8472Y12973D01*
X8474Y12970D01*
X8476Y12969D01*
X8478Y12967D01*
X8481Y12966D01*
X8483Y12964D01*
X8486Y12964D01*
X8488Y12963D01*
X8491Y12962D01*
X8494Y12961D01*
X8497Y12961D01*
X8500Y12961D01*
X11000Y12961D01*
X11003Y12961D01*
G37*
G36*
X11003Y10661D02*
X11003Y10661D01*
X11005Y10661D01*
X11008Y10662D01*
X11011Y10662D01*
X11013Y10663D01*
X11016Y10664D01*
X11018Y10666D01*
X11021Y10667D01*
X11023Y10669D01*
X11025Y10670D01*
X11027Y10672D01*
X11030Y10674D01*
X11031Y10676D01*
X11033Y10678D01*
X11034Y10681D01*
X11036Y10683D01*
X11036Y10686D01*
X11037Y10688D01*
X11038Y10691D01*
X11039Y10694D01*
X11039Y10697D01*
X11039Y10700D01*
X11039Y12500D01*
X11039Y12503D01*
X11039Y12505D01*
X11038Y12508D01*
X11038Y12511D01*
X11037Y12513D01*
X11036Y12516D01*
X11034Y12518D01*
X11033Y12521D01*
X11031Y12523D01*
X11030Y12525D01*
X11028Y12527D01*
X11026Y12530D01*
X11024Y12531D01*
X11022Y12533D01*
X11019Y12534D01*
X11017Y12536D01*
X11014Y12536D01*
X11012Y12537D01*
X11009Y12538D01*
X11006Y12539D01*
X11003Y12539D01*
X11000Y12539D01*
X8500Y12539D01*
X8497Y12539D01*
X8495Y12539D01*
X8492Y12538D01*
X8489Y12538D01*
X8487Y12537D01*
X8484Y12536D01*
X8482Y12534D01*
X8479Y12533D01*
X8477Y12531D01*
X8475Y12530D01*
X8473Y12528D01*
X8470Y12526D01*
X8469Y12524D01*
X8467Y12522D01*
X8466Y12519D01*
X8464Y12517D01*
X8464Y12514D01*
X8463Y12512D01*
X8462Y12509D01*
X8461Y12506D01*
X8461Y12503D01*
X8461Y12500D01*
X8461Y10700D01*
X8461Y10697D01*
X8461Y10695D01*
X8462Y10692D01*
X8462Y10689D01*
X8463Y10687D01*
X8464Y10684D01*
X8466Y10682D01*
X8467Y10679D01*
X8469Y10677D01*
X8470Y10675D01*
X8472Y10673D01*
X8474Y10670D01*
X8476Y10669D01*
X8478Y10667D01*
X8481Y10666D01*
X8483Y10664D01*
X8486Y10664D01*
X8488Y10663D01*
X8491Y10662D01*
X8494Y10661D01*
X8497Y10661D01*
X8500Y10661D01*
X11000Y10661D01*
X11003Y10661D01*
G37*
G36*
X11003Y6961D02*
X11003Y6961D01*
X11005Y6961D01*
X11008Y6962D01*
X11011Y6962D01*
X11013Y6963D01*
X11016Y6964D01*
X11018Y6966D01*
X11021Y6967D01*
X11023Y6969D01*
X11025Y6970D01*
X11027Y6972D01*
X11030Y6974D01*
X11031Y6976D01*
X11033Y6978D01*
X11034Y6981D01*
X11036Y6983D01*
X11036Y6986D01*
X11037Y6988D01*
X11038Y6991D01*
X11039Y6994D01*
X11039Y6997D01*
X11039Y7000D01*
X11039Y8800D01*
X11039Y8803D01*
X11039Y8805D01*
X11038Y8808D01*
X11038Y8811D01*
X11037Y8813D01*
X11036Y8816D01*
X11034Y8818D01*
X11033Y8821D01*
X11031Y8823D01*
X11030Y8825D01*
X11028Y8827D01*
X11026Y8830D01*
X11024Y8831D01*
X11022Y8833D01*
X11019Y8834D01*
X11017Y8836D01*
X11014Y8836D01*
X11012Y8837D01*
X11009Y8838D01*
X11006Y8839D01*
X11003Y8839D01*
X11000Y8839D01*
X8500Y8839D01*
X8497Y8839D01*
X8495Y8839D01*
X8492Y8838D01*
X8489Y8838D01*
X8487Y8837D01*
X8484Y8836D01*
X8482Y8834D01*
X8479Y8833D01*
X8477Y8831D01*
X8475Y8830D01*
X8473Y8828D01*
X8470Y8826D01*
X8469Y8824D01*
X8467Y8822D01*
X8466Y8819D01*
X8464Y8817D01*
X8464Y8814D01*
X8463Y8812D01*
X8462Y8809D01*
X8461Y8806D01*
X8461Y8803D01*
X8461Y8800D01*
X8461Y7000D01*
X8461Y6997D01*
X8461Y6995D01*
X8462Y6992D01*
X8462Y6989D01*
X8463Y6987D01*
X8464Y6984D01*
X8466Y6982D01*
X8467Y6979D01*
X8469Y6977D01*
X8470Y6975D01*
X8472Y6973D01*
X8474Y6970D01*
X8476Y6969D01*
X8478Y6967D01*
X8481Y6966D01*
X8483Y6964D01*
X8486Y6964D01*
X8488Y6963D01*
X8491Y6962D01*
X8494Y6961D01*
X8497Y6961D01*
X8500Y6961D01*
X11000Y6961D01*
X11003Y6961D01*
G37*
G36*
X11003Y4661D02*
X11003Y4661D01*
X11005Y4661D01*
X11008Y4662D01*
X11011Y4662D01*
X11013Y4663D01*
X11016Y4664D01*
X11018Y4666D01*
X11021Y4667D01*
X11023Y4669D01*
X11025Y4670D01*
X11027Y4672D01*
X11030Y4674D01*
X11031Y4676D01*
X11033Y4678D01*
X11034Y4681D01*
X11036Y4683D01*
X11036Y4686D01*
X11037Y4688D01*
X11038Y4691D01*
X11039Y4694D01*
X11039Y4697D01*
X11039Y4700D01*
X11039Y6500D01*
X11039Y6503D01*
X11039Y6505D01*
X11038Y6508D01*
X11038Y6511D01*
X11037Y6513D01*
X11036Y6516D01*
X11034Y6518D01*
X11033Y6521D01*
X11031Y6523D01*
X11030Y6525D01*
X11028Y6527D01*
X11026Y6530D01*
X11024Y6531D01*
X11022Y6533D01*
X11019Y6534D01*
X11017Y6536D01*
X11014Y6536D01*
X11012Y6537D01*
X11009Y6538D01*
X11006Y6539D01*
X11003Y6539D01*
X11000Y6539D01*
X8500Y6539D01*
X8497Y6539D01*
X8495Y6539D01*
X8492Y6538D01*
X8489Y6538D01*
X8487Y6537D01*
X8484Y6536D01*
X8482Y6534D01*
X8479Y6533D01*
X8477Y6531D01*
X8475Y6530D01*
X8473Y6528D01*
X8470Y6526D01*
X8469Y6524D01*
X8467Y6522D01*
X8466Y6519D01*
X8464Y6517D01*
X8464Y6514D01*
X8463Y6512D01*
X8462Y6509D01*
X8461Y6506D01*
X8461Y6503D01*
X8461Y6500D01*
X8461Y4700D01*
X8461Y4697D01*
X8461Y4695D01*
X8462Y4692D01*
X8462Y4689D01*
X8463Y4687D01*
X8464Y4684D01*
X8466Y4682D01*
X8467Y4679D01*
X8469Y4677D01*
X8470Y4675D01*
X8472Y4673D01*
X8474Y4670D01*
X8476Y4669D01*
X8478Y4667D01*
X8481Y4666D01*
X8483Y4664D01*
X8486Y4664D01*
X8488Y4663D01*
X8491Y4662D01*
X8494Y4661D01*
X8497Y4661D01*
X8500Y4661D01*
X11000Y4661D01*
X11003Y4661D01*
G37*
G36*
X11003Y961D02*
X11003Y961D01*
X11005Y961D01*
X11008Y962D01*
X11011Y962D01*
X11013Y963D01*
X11016Y964D01*
X11018Y966D01*
X11021Y967D01*
X11023Y969D01*
X11025Y970D01*
X11027Y972D01*
X11030Y974D01*
X11031Y976D01*
X11033Y978D01*
X11034Y981D01*
X11036Y983D01*
X11036Y986D01*
X11037Y988D01*
X11038Y991D01*
X11039Y994D01*
X11039Y997D01*
X11039Y1000D01*
X11039Y2800D01*
X11039Y2803D01*
X11039Y2805D01*
X11038Y2808D01*
X11038Y2811D01*
X11037Y2813D01*
X11036Y2816D01*
X11034Y2818D01*
X11033Y2821D01*
X11031Y2823D01*
X11030Y2825D01*
X11028Y2827D01*
X11026Y2830D01*
X11024Y2831D01*
X11022Y2833D01*
X11019Y2834D01*
X11017Y2836D01*
X11014Y2836D01*
X11012Y2837D01*
X11009Y2838D01*
X11006Y2839D01*
X11003Y2839D01*
X11000Y2839D01*
X8500Y2839D01*
X8497Y2839D01*
X8495Y2839D01*
X8492Y2838D01*
X8489Y2838D01*
X8487Y2837D01*
X8484Y2836D01*
X8482Y2834D01*
X8479Y2833D01*
X8477Y2831D01*
X8475Y2830D01*
X8473Y2828D01*
X8470Y2826D01*
X8469Y2824D01*
X8467Y2822D01*
X8466Y2819D01*
X8464Y2817D01*
X8464Y2814D01*
X8463Y2812D01*
X8462Y2809D01*
X8461Y2806D01*
X8461Y2803D01*
X8461Y2800D01*
X8461Y1000D01*
X8461Y997D01*
X8461Y995D01*
X8462Y992D01*
X8462Y989D01*
X8463Y987D01*
X8464Y984D01*
X8466Y982D01*
X8467Y979D01*
X8469Y977D01*
X8470Y975D01*
X8472Y973D01*
X8474Y970D01*
X8476Y969D01*
X8478Y967D01*
X8481Y966D01*
X8483Y964D01*
X8486Y964D01*
X8488Y963D01*
X8491Y962D01*
X8494Y961D01*
X8497Y961D01*
X8500Y961D01*
X11000Y961D01*
X11003Y961D01*
G37*
D10*
X5500Y11455D03*
X5500Y10553D03*
X5500Y9652D03*
X5500Y8750D03*
X5500Y7848D03*
X3500Y11455D03*
X3500Y10553D03*
X3500Y9652D03*
X3500Y8750D03*
X3500Y7848D03*
X4500Y11906D03*
X4500Y11004D03*
X4500Y10102D03*
X4500Y9201D03*
X4500Y8299D03*
D11*
X4500Y14671D03*
X4500Y4829D03*
D12*
X9868Y15750D03*
D13*
X9750Y14125D03*
X9750Y17375D03*
D14*
X10500Y16375D03*
X9750Y16375D03*
X9000Y16375D03*
X9750Y15125D03*
X10500Y15125D03*
X9000Y15125D03*
X9000Y18250D03*
X9750Y18250D03*
X10500Y18250D03*
X9000Y13250D03*
X9750Y13250D03*
X10500Y13250D03*
D12*
X9868Y9750D03*
D13*
X9750Y8125D03*
X9750Y11375D03*
D14*
X10500Y10375D03*
X9750Y10375D03*
X9000Y10375D03*
X9750Y9125D03*
X10500Y9125D03*
X9000Y9125D03*
X9000Y12250D03*
X9750Y12250D03*
X10500Y12250D03*
X9000Y7250D03*
X9750Y7250D03*
X10500Y7250D03*
D12*
X9868Y3750D03*
D13*
X9750Y2125D03*
X9750Y5375D03*
D14*
X10500Y4375D03*
X9750Y4375D03*
X9000Y4375D03*
X9750Y3125D03*
X10500Y3125D03*
X9000Y3125D03*
X9000Y6250D03*
X9750Y6250D03*
X10500Y6250D03*
X9000Y1250D03*
X9750Y1250D03*
X10500Y1250D03*
D15*
X7844Y14750D03*
X7156Y14750D03*
X7156Y15750D03*
X7844Y15750D03*
X7156Y8750D03*
X7844Y8750D03*
X7844Y9750D03*
X7156Y9750D03*
X7844Y3750D03*
X7156Y3750D03*
X7844Y2750D03*
X7156Y2750D03*
D16*
X4000Y18000D03*
X3000Y18000D03*
X2000Y18000D03*
X5000Y18000D03*
X6000Y18000D03*
D17*
X500Y500D03*
X2000Y500D03*
X3500Y500D03*
X5000Y500D03*
X6500Y500D03*
X8000Y500D03*
X9500Y500D03*
X500Y1625D03*
X500Y2750D03*
X500Y4250D03*
X500Y5750D03*
X500Y7250D03*
X500Y8750D03*
X500Y10250D03*
X500Y11750D03*
X500Y13250D03*
X500Y14750D03*
X500Y16250D03*
X500Y17750D03*
X500Y19250D03*
X2000Y19250D03*
X3500Y19250D03*
X5000Y19250D03*
X6500Y19250D03*
X8000Y19250D03*
X9500Y19250D03*
X10500Y19250D03*
X10500Y500D03*
D18*
X7125Y8125D03*
X6125Y10750D03*
X6000Y10125D03*
X6625Y10250D03*
X6500Y9625D03*
X6625Y9000D03*
X6125Y9500D03*
X6125Y8625D03*
X6250Y7500D03*
X6750Y7500D03*
X6750Y6250D03*
X6250Y6250D03*
X6250Y5250D03*
X6750Y5250D03*
X6250Y4375D03*
X6750Y4375D03*
X6500Y3625D03*
X6750Y8125D03*
X6625Y3000D03*
X6625Y2500D03*
X7125Y2125D03*
X6625Y14500D03*
X6625Y15000D03*
X6125Y11625D03*
X5750Y12125D03*
X6125Y12500D03*
X6625Y12125D03*
X6625Y12875D03*
X6125Y13375D03*
X6625Y13750D03*
X6125Y14375D03*
X6125Y15250D03*
X6500Y15750D03*
X7125Y14125D03*
M02*
