G04 EAGLE Gerber X2 export*
%TF.Part,Single*%
%TF.FileFunction,Soldermask,Top,1*%
%TF.FilePolarity,Negative*%
%TF.GenerationSoftware,Autodesk,EAGLE,9.0.0*%
%TF.CreationDate,2018-05-01T14:23:46Z*%
G75*
%MOIN*%
%FSLAX34Y34*%
%LPD*%
%AMOC8*
5,1,8,0,0,1.08239X$1,22.5*%
G01*
%ADD10P,0.066026X8X292.500000*%
%ADD11C,0.127047*%
%ADD12R,0.230000X0.046000*%
%ADD13R,0.255000X0.105000*%
%ADD14C,0.028780*%
%ADD15R,0.048307X0.060118*%
%ADD16P,0.081179X8X22.500000*%
%ADD17C,0.037480*%
%ADD18C,0.026811*%


D10*
X5500Y12205D03*
X5500Y11303D03*
X5500Y10402D03*
X5500Y9500D03*
X5500Y8598D03*
X3500Y12205D03*
X3500Y11303D03*
X3500Y10402D03*
X3500Y9500D03*
X3500Y8598D03*
X4500Y12656D03*
X4500Y11754D03*
X4500Y10852D03*
X4500Y9951D03*
X4500Y9049D03*
D11*
X4500Y15421D03*
X4500Y5579D03*
D12*
X9868Y16500D03*
D13*
X9750Y14875D03*
X9750Y18125D03*
D14*
X10500Y17125D03*
X9750Y17125D03*
X9000Y17125D03*
X9750Y15875D03*
X10500Y15875D03*
X9000Y15875D03*
X9000Y19000D03*
X9750Y19000D03*
X10500Y19000D03*
X9000Y14000D03*
X9750Y14000D03*
X10500Y14000D03*
D12*
X9868Y10500D03*
D13*
X9750Y8875D03*
X9750Y12125D03*
D14*
X10500Y11125D03*
X9750Y11125D03*
X9000Y11125D03*
X9750Y9875D03*
X10500Y9875D03*
X9000Y9875D03*
X9000Y13000D03*
X9750Y13000D03*
X10500Y13000D03*
X9000Y8000D03*
X9750Y8000D03*
X10500Y8000D03*
D12*
X9868Y4500D03*
D13*
X9750Y2875D03*
X9750Y6125D03*
D14*
X10500Y5125D03*
X9750Y5125D03*
X9000Y5125D03*
X9750Y3875D03*
X10500Y3875D03*
X9000Y3875D03*
X9000Y7000D03*
X9750Y7000D03*
X10500Y7000D03*
X9000Y2000D03*
X9750Y2000D03*
X10500Y2000D03*
D15*
X7844Y15500D03*
X7156Y15500D03*
X7156Y16500D03*
X7844Y16500D03*
X7156Y9500D03*
X7844Y9500D03*
X7844Y10500D03*
X7156Y10500D03*
X7844Y4500D03*
X7156Y4500D03*
X7844Y3500D03*
X7156Y3500D03*
D16*
X4000Y18750D03*
X3000Y18750D03*
X2000Y18750D03*
X5000Y18750D03*
X6000Y18750D03*
D17*
X500Y500D03*
X2000Y500D03*
X3500Y500D03*
X5000Y500D03*
X6500Y500D03*
X8000Y500D03*
X9500Y500D03*
X500Y2000D03*
X500Y3500D03*
X500Y5000D03*
X500Y6500D03*
X500Y8000D03*
X500Y9500D03*
X500Y11000D03*
X500Y12500D03*
X500Y14000D03*
X500Y15500D03*
X500Y17000D03*
X500Y18500D03*
X500Y20000D03*
X2000Y20000D03*
X3500Y20000D03*
X5000Y20000D03*
X6500Y20000D03*
X8000Y20000D03*
X9500Y20000D03*
X10500Y20000D03*
X10500Y500D03*
D18*
X5750Y12875D03*
X5250Y12875D03*
X5250Y13875D03*
X5750Y13875D03*
X5750Y14875D03*
X5250Y14875D03*
X5500Y15750D03*
X6000Y15500D03*
X6125Y16375D03*
X6500Y16000D03*
X6625Y16750D03*
X6625Y15500D03*
X7125Y14875D03*
X7125Y8875D03*
X6125Y11500D03*
X6000Y10875D03*
X6625Y11000D03*
X6500Y10375D03*
X6625Y9750D03*
X6125Y10250D03*
X6125Y9375D03*
X6250Y8250D03*
X6750Y8250D03*
X6750Y7000D03*
X6250Y7000D03*
X6250Y6000D03*
X6750Y6000D03*
X6250Y5125D03*
X6750Y5125D03*
X6500Y4375D03*
X6750Y8875D03*
X6625Y3750D03*
X6625Y3250D03*
X7125Y2875D03*
M02*
