M48
;GenerationSoftware,Autodesk,EAGLE,9.0.0*%
;CreationDate,2018-05-04T13:40:38Z*%
FMAT,2
ICI,OFF
INCH,TZ,00.0000
T7C0.0118
T6C0.0138
T5C0.0217
T4C0.0394
T3C0.0472
T2C0.1220
%
G90
M72
T2
X4500Y5579
X4500Y15421
T3
X4500Y9951
X3500Y12205
X3500Y11303
X3500Y10402
X3500Y9500
X3500Y8598
X4500Y12656
X4500Y11754
X4500Y10852
X4500Y9049
X5500Y8598
X5500Y9500
X5500Y10402
X5500Y11303
X5500Y12205
T4
X6000Y18750
X4000Y18750
X3000Y18750
X2000Y18750
X5000Y18750
T5
X2000Y500
X10500Y500
X10500Y20000
X500Y8000
X5000Y20000
X3500Y20000
X2000Y20000
X500Y20000
X500Y18500
X500Y17000
X500Y15500
X500Y14000
X500Y12500
X500Y11000
X9500Y20000
X500Y9500
X500Y6500
X500Y5000
X500Y3500
X500Y2000
X9500Y500
X8000Y500
X6500Y500
X5000Y500
X3500Y500
X500Y500
X8000Y20000
X6500Y20000
T6
X9750Y13000
X10500Y15875
X9000Y13000
X9000Y9875
X10500Y9875
X9750Y9875
X9000Y11125
X9750Y11125
X10500Y11125
X10500Y14000
X9750Y14000
X9000Y14000
X10500Y19000
X9750Y19000
X9000Y19000
X9000Y15875
X10500Y13000
X9000Y8000
X9750Y8000
X10500Y8000
X10500Y5125
X9750Y5125
X9000Y5125
X9750Y3875
X10500Y3875
X9000Y3875
X9000Y7000
X9750Y7000
X10500Y7000
X9000Y2000
X9750Y2000
X10500Y2000
X9000Y17125
X9750Y15875
X9750Y17125
X10500Y17125
T7
X6625Y3250
X6625Y15250
X7125Y14875
X6500Y16500
X6125Y16000
X6125Y15125
X6625Y14500
X6125Y14125
X6625Y13625
X6625Y12875
X6125Y13250
X5750Y12875
X6125Y12375
X6000Y10875
X6125Y11500
X7125Y8875
X6625Y15750
X6750Y7000
X7125Y2875
X6625Y11000
X6500Y10375
X6625Y9750
X6125Y10250
X6125Y9375
X6250Y8250
X6750Y8250
X6625Y3750
X6250Y7000
X6250Y6000
X6750Y6000
X6250Y5125
X6750Y5125
X6500Y4375
X6750Y8875
M30